ISO-10303-21;
HEADER;
FILE_DESCRIPTION (( 'STEP AP214' ),
    '1' );
FILE_NAME ('clip support PV.STEP',
    '2025-10-09T11:07:25',
    ( '' ),
    ( '' ),
    'SwSTEP 2.0',
    'SolidWorks 2023',
    '' );
FILE_SCHEMA (( 'AUTOMOTIVE_DESIGN' ));
ENDSEC;

DATA;
#1 = ORIENTED_EDGE ( 'NONE', *, *, #687, .F. ) ;
#2 = CARTESIAN_POINT ( 'NONE',  ( 43.54999999999947846, 4.649999999999999467, 23.45000000000008811 ) ) ;
#3 = PRODUCT_DEFINITION_CONTEXT ( 'detailed design', #300, 'design' ) ;
#4 = DIRECTION ( 'NONE',  ( 1.000000000000000000, 0.000000000000000000, -0.000000000000000000 ) ) ;
#5 = CARTESIAN_POINT ( 'NONE',  ( 0.000000000000000000, 4.649999999999999467, -8.000000000000000000 ) ) ;
#6 = ORIENTED_EDGE ( 'NONE', *, *, #989, .F. ) ;
#7 = ORIENTED_EDGE ( 'NONE', *, *, #127, .F. ) ;
#8 = CARTESIAN_POINT ( 'NONE',  ( 37.39999999999999858, 1.199999999999997513, -2.899999999999999911 ) ) ;
#9 = VECTOR ( 'NONE', #212, 1000.000000000000000 ) ;
#10 = ADVANCED_FACE ( 'NONE', ( #1210 ), #730, .F. ) ;
#11 = AXIS2_PLACEMENT_3D ( 'NONE', #654, #268, #1019 ) ;
#12 = DIRECTION ( 'NONE',  ( -0.000000000000000000, -0.000000000000000000, -1.000000000000000000 ) ) ;
#13 = CARTESIAN_POINT ( 'NONE',  ( 74.23037428026788120, -5.476171543750222526, 0.000000000000000000 ) ) ;
#14 = ORIENTED_EDGE ( 'NONE', *, *, #964, .F. ) ;
#15 = ORIENTED_EDGE ( 'NONE', *, *, #767, .T. ) ;
#16 = ADVANCED_FACE ( 'NONE', ( #279 ), #740, .T. ) ;
#17 = PLANE ( 'NONE',  #333 ) ;
#18 = DIRECTION ( 'NONE',  ( -1.000000000000000000, -0.000000000000000000, -0.000000000000000000 ) ) ;
#19 = DIRECTION ( 'NONE',  ( -1.000000000000000000, 0.000000000000000000, 0.000000000000000000 ) ) ;
#20 = CARTESIAN_POINT ( 'NONE',  ( 75.00000000000000000, 0.000000000000000000, 0.000000000000000000 ) ) ;
#21 = ORIENTED_EDGE ( 'NONE', *, *, #1197, .T. ) ;
#22 = FACE_OUTER_BOUND ( 'NONE', #68, .T. ) ;
#23 = CARTESIAN_POINT ( 'NONE',  ( 5.000000000000000888, 1.199999999999997957, -3.396446609406726047 ) ) ;
#24 = CARTESIAN_POINT ( 'NONE',  ( 16.89999999999999858, -7.400000000000000355, -7.000000000000000000 ) ) ;
#25 = FACE_OUTER_BOUND ( 'NONE', #967, .T. ) ;
#26 = ORIENTED_EDGE ( 'NONE', *, *, #183, .F. ) ;
#27 = VERTEX_POINT ( 'NONE', #260 ) ;
#28 = AXIS2_PLACEMENT_3D ( 'NONE', #668, #311, #102 ) ;
#29 = DIRECTION ( 'NONE',  ( -0.000000000000000000, -1.000000000000000000, -0.000000000000000000 ) ) ;
#30 = CARTESIAN_POINT ( 'NONE',  ( 75.00000000000000000, 4.649999999999999467, -8.000000000000000000 ) ) ;
#31 = FACE_OUTER_BOUND ( 'NONE', #465, .T. ) ;
#32 = AXIS2_PLACEMENT_3D ( 'NONE', #935, #560, #650 ) ;
#33 = ADVANCED_FACE ( 'NONE', ( #1008 ), #916, .F. ) ;
#34 = CARTESIAN_POINT ( 'NONE',  ( 72.00000000000000000, 4.599999999999999645, -8.000000000000000000 ) ) ;
#35 = VERTEX_POINT ( 'NONE', #168 ) ;
#36 = EDGE_CURVE ( 'NONE', #47, #350, #1114, .T. ) ;
#37 = ORIENTED_EDGE ( 'NONE', *, *, #82, .F. ) ;
#38 = DIRECTION ( 'NONE',  ( -1.000000000000000000, 0.000000000000000000, 0.000000000000000000 ) ) ;
#39 = CARTESIAN_POINT ( 'NONE',  ( 5.250000000000000000, 2.600000000000000089, -6.500000000000000888 ) ) ;
#40 = CYLINDRICAL_SURFACE ( 'NONE', #307, 0.2500000000000002220 ) ;
#41 = LINE ( 'NONE', #809, #51 ) ;
#42 = ORIENTED_EDGE ( 'NONE', *, *, #304, .F. ) ;
#43 = ORIENTED_EDGE ( 'NONE', *, *, #1000, .T. ) ;
#44 = CARTESIAN_POINT ( 'NONE',  ( 35.26538908328470256, -1.836970198721029441E-17, -2.600000000000000089 ) ) ;
#45 = CARTESIAN_POINT ( 'NONE',  ( 75.00000000000000000, 1.199999999999999956, -22.59999999999999432 ) ) ;
#46 = DIRECTION ( 'NONE',  ( 0.000000000000000000, 0.000000000000000000, 1.000000000000000000 ) ) ;
#47 = VERTEX_POINT ( 'NONE', #175 ) ;
#48 = ORIENTED_EDGE ( 'NONE', *, *, #1121, .F. ) ;
#49 = DIRECTION ( 'NONE',  ( 0.000000000000000000, -1.000000000000000000, 0.000000000000000000 ) ) ;
#50 = DIRECTION ( 'NONE',  ( 0.000000000000000000, -0.000000000000000000, -1.000000000000000000 ) ) ;
#51 = VECTOR ( 'NONE', #139, 1000.000000000000000 ) ;
#52 = EDGE_CURVE ( 'NONE', #233, #35, #745, .T. ) ;
#53 = AXIS2_PLACEMENT_3D ( 'NONE', #408, #455, #448 ) ;
#54 = ORIENTED_EDGE ( 'NONE', *, *, #460, .T. ) ;
#55 = APPLICATION_CONTEXT ( 'automotive_design' ) ;
#56 = VECTOR ( 'NONE', #1064, 1000.000000000000000 ) ;
#57 = ORIENTED_EDGE ( 'NONE', *, *, #394, .F. ) ;
#58 = DIRECTION ( 'NONE',  ( 0.7071067811865376918, -0.7071067811865574537, 0.000000000000000000 ) ) ;
#59 = EDGE_CURVE ( 'NONE', #922, #598, #81, .T. ) ;
#60 = DIRECTION ( 'NONE',  ( 0.04343722427630695299, 0.9990561583550595648, -0.000000000000000000 ) ) ;
#61 = VERTEX_POINT ( 'NONE', #655 ) ;
#62 = ORIENTED_EDGE ( 'NONE', *, *, #1104, .T. ) ;
#63 = CARTESIAN_POINT ( 'NONE',  ( 5.250000000000000888, 2.589130434782608514, -3.500000000000000444 ) ) ;
#64 = CARTESIAN_POINT ( 'NONE',  ( 5.250000000000000000, -7.400000000000000355, -6.750000000000000000 ) ) ;
#65 = EDGE_CURVE ( 'NONE', #402, #313, #452, .T. ) ;
#66 = DIRECTION ( 'NONE',  ( -1.000000000000000000, -0.000000000000000000, -0.000000000000000000 ) ) ;
#67 = DIRECTION ( 'NONE',  ( -0.000000000000000000, -0.000000000000000000, 1.000000000000000000 ) ) ;
#68 = EDGE_LOOP ( 'NONE', ( #829, #844, #177, #383 ) ) ;
#69 = CARTESIAN_POINT ( 'NONE',  ( 72.00000000000000000, 4.599999999999999645, -8.000000000000000000 ) ) ;
#70 = CARTESIAN_POINT ( 'NONE',  ( 16.89999999999999858, 1.199999999999997957, -7.000000000000000000 ) ) ;
#71 = LINE ( 'NONE', #908, #634 ) ;
#72 = AXIS2_PLACEMENT_3D ( 'NONE', #678, #388, #1040 ) ;
#73 = CARTESIAN_POINT ( 'NONE',  ( 35.26538908328470256, 0.000000000000000000, -3.761581922631320025E-34 ) ) ;
#74 = EDGE_CURVE ( 'NONE', #1165, #704, #1029, .T. ) ;
#75 = ORIENTED_EDGE ( 'NONE', *, *, #1047, .T. ) ;
#76 = VECTOR ( 'NONE', #607, 1000.000000000000000 ) ;
#77 = DIRECTION ( 'NONE',  ( -0.9902680687415708061, -1.659809562536886520E-17, 0.1391731009600624958 ) ) ;
#78 = ADVANCED_FACE ( 'NONE', ( #180 ), #564, .F. ) ;
#79 = DIRECTION ( 'NONE',  ( -0.000000000000000000, 1.000000000000000000, -4.956352788505164254E-16 ) ) ;
#80 = DIRECTION ( 'NONE',  ( 0.000000000000000000, -1.000000000000000000, 0.000000000000000000 ) ) ;
#81 = LINE ( 'NONE', #548, #571 ) ;
#82 = EDGE_CURVE ( 'NONE', #799, #759, #666, .T. ) ;
#83 = ORIENTED_EDGE ( 'NONE', *, *, #36, .T. ) ;
#84 = CARTESIAN_POINT ( 'NONE',  ( 72.00000000000000000, 4.599999999999999645, -8.000000000000000000 ) ) ;
#85 =( BOUNDED_CURVE ( )  B_SPLINE_CURVE ( 3, ( #749, #488, #1138, #1117 ),
 .UNSPECIFIED., .F., .T. ) 
 B_SPLINE_CURVE_WITH_KNOTS ( ( 4, 4 ),
 ( 0.000000000000000000, 1.570796326794896780 ),
 .UNSPECIFIED. ) 
 CURVE ( )  GEOMETRIC_REPRESENTATION_ITEM ( )  RATIONAL_B_SPLINE_CURVE ( ( 1.000000000000000000, 0.8047378541243649375, 0.8047378541243649375, 1.000000000000000000 ) ) 
 REPRESENTATION_ITEM ( '' )  );
#86 = LINE ( 'NONE', #1027, #1149 ) ;
#87 = ORIENTED_EDGE ( 'NONE', *, *, #645, .T. ) ;
#88 = VERTEX_POINT ( 'NONE', #205 ) ;
#89 = DIRECTION ( 'NONE',  ( 1.000000000000000000, 0.000000000000000000, 0.000000000000000000 ) ) ;
#90 = EDGE_CURVE ( 'NONE', #637, #274, #472, .T. ) ;
#91 = CARTESIAN_POINT ( 'NONE',  ( 5.250000000000000000, -7.400000000000000355, -6.750000000000000888 ) ) ;
#92 = EDGE_LOOP ( 'NONE', ( #110, #15, #185, #905 ) ) ;
#93 = VECTOR ( 'NONE', #1069, 1000.000000000000000 ) ;
#94 = DIRECTION ( 'NONE',  ( -0.000000000000000000, 1.000000000000000000, 1.192622389734055124E-16 ) ) ;
#95 = VECTOR ( 'NONE', #804, 1000.000000000000000 ) ;
#96 = FACE_OUTER_BOUND ( 'NONE', #572, .T. ) ;
#97 = EDGE_CURVE ( 'NONE', #792, #47, #842, .T. ) ;
#98 = CARTESIAN_POINT ( 'NONE',  ( 37.59999999999999432, -0.2999999999999999334, -3.673940397442058882E-17 ) ) ;
#99 = VERTEX_POINT ( 'NONE', #940 ) ;
#100 = LINE ( 'NONE', #203, #308 ) ;
#101 = FACE_OUTER_BOUND ( 'NONE', #253, .T. ) ;
#102 = DIRECTION ( 'NONE',  ( 0.000000000000000000, 7.065269995080883413E-18, 1.000000000000000000 ) ) ;
#103 = VERTEX_POINT ( 'NONE', #1148 ) ;
#104 = ADVANCED_FACE ( 'NONE', ( #101 ), #1059, .T. ) ;
#105 = ORIENTED_EDGE ( 'NONE', *, *, #471, .T. ) ;
#106 = LINE ( 'NONE', #482, #901 ) ;
#107 = LINE ( 'NONE', #853, #385 ) ;
#108 = CARTESIAN_POINT ( 'NONE',  ( 75.00000000000000000, 0.000000000000000000, 0.000000000000000000 ) ) ;
#109 = EDGE_CURVE ( 'NONE', #642, #718, #289, .T. ) ;
#110 = ORIENTED_EDGE ( 'NONE', *, *, #850, .T. ) ;
#111 = DIRECTION ( 'NONE',  ( -0.7071067811865378028, -0.7071067811865573427, 0.000000000000000000 ) ) ;
#112 = VECTOR ( 'NONE', #361, 1000.000000000000000 ) ;
#113 = VECTOR ( 'NONE', #198, 1000.000000000000000 ) ;
#114 = CARTESIAN_POINT ( 'NONE',  ( 37.39999999999999858, -0.2999999999999999334, -2.899999999999999911 ) ) ;
#115 = DIRECTION ( 'NONE',  ( 0.7071067811865378028, 0.7071067811865573427, 0.000000000000000000 ) ) ;
#116 = PLANE ( 'NONE',  #449 ) ;
#117 = VERTEX_POINT ( 'NONE', #846 ) ;
#118 = ORIENTED_EDGE ( 'NONE', *, *, #725, .T. ) ;
#119 = LINE ( 'NONE', #496, #739 ) ;
#120 = DIRECTION ( 'NONE',  ( -1.000000000000000000, -0.000000000000000000, -0.000000000000000000 ) ) ;
#121 = ORIENTED_EDGE ( 'NONE', *, *, #943, .T. ) ;
#122 = ORIENTED_EDGE ( 'NONE', *, *, #166, .T. ) ;
#123 = PLANE ( 'NONE',  #328 ) ;
#124 = EDGE_CURVE ( 'NONE', #710, #1062, #310, .T. ) ;
#125 = CARTESIAN_POINT ( 'NONE',  ( 5.000000000000000000, 2.600000000000000533, -6.603553390593274841 ) ) ;
#126 = FACE_OUTER_BOUND ( 'NONE', #156, .T. ) ;
#127 = EDGE_CURVE ( 'NONE', #1166, #372, #684, .T. ) ;
#128 = PLANE ( 'NONE',  #1206 ) ;
#129 = ORIENTED_EDGE ( 'NONE', *, *, #420, .F. ) ;
#130 = AXIS2_PLACEMENT_3D ( 'NONE', #638, #164, #537 ) ;
#131 = CARTESIAN_POINT ( 'NONE',  ( 75.00000000000000000, -1.836970198721029441E-17, -2.600000000000000089 ) ) ;
#132 = CARTESIAN_POINT ( 'NONE',  ( 72.00000000000000000, 2.600000000000000089, -8.000000000000000000 ) ) ;
#133 = DIRECTION ( 'NONE',  ( 0.000000000000000000, 1.000000000000000000, 0.000000000000000000 ) ) ;
#134 = VECTOR ( 'NONE', #1108, 1000.000000000000000 ) ;
#135 = ORIENTED_EDGE ( 'NONE', *, *, #836, .T. ) ;
#136 = ORIENTED_EDGE ( 'NONE', *, *, #186, .F. ) ;
#137 = CARTESIAN_POINT ( 'NONE',  ( 5.250000000000000888, 1.199999999999997957, -3.250000000000000444 ) ) ;
#138 = CARTESIAN_POINT ( 'NONE',  ( 5.250000000000000888, 1.189130434782606605, -3.500000000000000444 ) ) ;
#139 = DIRECTION ( 'NONE',  ( -0.000000000000000000, -1.000000000000000000, -0.000000000000000000 ) ) ;
#140 = ORIENTED_EDGE ( 'NONE', *, *, #557, .T. ) ;
#141 = ORIENTED_EDGE ( 'NONE', *, *, #514, .T. ) ;
#142 = LINE ( 'NONE', #1161, #515 ) ;
#143 = ADVANCED_FACE ( 'NONE', ( #750 ), #393, .F. ) ;
#144 = CARTESIAN_POINT ( 'NONE',  ( 75.00000000000000000, -1.836970198721029441E-17, -2.600000000000000089 ) ) ;
#145 = ORIENTED_EDGE ( 'NONE', *, *, #1162, .F. ) ;
#146 = EDGE_CURVE ( 'NONE', #1205, #777, #400, .T. ) ;
#147 = ORIENTED_EDGE ( 'NONE', *, *, #90, .F. ) ;
#148 = PRODUCT ( 'clip support PV', 'clip support PV', '', ( #697 ) ) ;
#149 = DIRECTION ( 'NONE',  ( 0.000000000000000000, 7.065269995080883413E-18, 1.000000000000000000 ) ) ;
#150 = CARTESIAN_POINT ( 'NONE',  ( 11.89999999999999325, 1.199999999999997513, -2.600000000000000089 ) ) ;
#151 = VECTOR ( 'NONE', #945, 1000.000000000000000 ) ;
#152 = DIRECTION ( 'NONE',  ( -0.000000000000000000, 0.000000000000000000, 1.000000000000000000 ) ) ;
#153 = VECTOR ( 'NONE', #1096, 1000.000000000000000 ) ;
#154 = ORIENTED_EDGE ( 'NONE', *, *, #803, .T. ) ;
#155 = AXIS2_PLACEMENT_3D ( 'NONE', #921, #722, #80 ) ;
#156 = EDGE_LOOP ( 'NONE', ( #240, #817, #305, #622 ) ) ;
#157 = FACE_BOUND ( 'NONE', #1182, .T. ) ;
#158 = CIRCLE ( 'NONE', #1001, 0.2500000000000002220 ) ;
#159 = DIRECTION ( 'NONE',  ( -1.000000000000000000, -0.000000000000000000, -0.000000000000000000 ) ) ;
#160 = CARTESIAN_POINT ( 'NONE',  ( 39.73461091671529033, -1.836970198721029441E-17, -2.600000000000000089 ) ) ;
#161 = DIRECTION ( 'NONE',  ( 1.000000000000000000, 0.000000000000000000, 0.000000000000000000 ) ) ;
#162 = EDGE_LOOP ( 'NONE', ( #797, #319, #26, #439 ) ) ;
#163 = VERTEX_POINT ( 'NONE', #98 ) ;
#164 = DIRECTION ( 'NONE',  ( 0.000000000000000000, -1.000000000000000000, 0.000000000000000000 ) ) ;
#165 = DIRECTION ( 'NONE',  ( 0.000000000000000000, 0.000000000000000000, 1.000000000000000000 ) ) ;
#166 = EDGE_CURVE ( 'NONE', #313, #922, #1141, .T. ) ;
#167 = CARTESIAN_POINT ( 'NONE',  ( 16.89999999999999858, 1.199999999999999956, -22.59999999999999432 ) ) ;
#168 = CARTESIAN_POINT ( 'NONE',  ( 0.000000000000000000, 1.699999999999997735, 0.000000000000000000 ) ) ;
#169 = ADVANCED_FACE ( 'NONE', ( #1039 ), #200, .F. ) ;
#170 = ORIENTED_EDGE ( 'NONE', *, *, #597, .F. ) ;
#171 = DIRECTION ( 'NONE',  ( 0.000000000000000000, 0.000000000000000000, -1.000000000000000000 ) ) ;
#172 = DIRECTION ( 'NONE',  ( 0.000000000000000000, 0.000000000000000000, 1.000000000000000000 ) ) ;
#173 = DIRECTION ( 'NONE',  ( -0.000000000000000000, -1.000000000000000000, -0.000000000000000000 ) ) ;
#174 = VECTOR ( 'NONE', #782, 1000.000000000000000 ) ;
#175 = CARTESIAN_POINT ( 'NONE',  ( 35.26538908328470256, -1.836970198721029441E-17, -2.600000000000000089 ) ) ;
#176 = VECTOR ( 'NONE', #18, 1000.000000000000000 ) ;
#177 = ORIENTED_EDGE ( 'NONE', *, *, #661, .T. ) ;
#178 = VECTOR ( 'NONE', #915, 1000.000000000000000 ) ;
#179 = PLANE ( 'NONE',  #32 ) ;
#180 = FACE_OUTER_BOUND ( 'NONE', #162, .T. ) ;
#181 = ORIENTED_EDGE ( 'NONE', *, *, #1055, .F. ) ;
#182 = DIRECTION ( 'NONE',  ( -0.1391731009600624958, 0.000000000000000000, -0.9902680687415708061 ) ) ;
#183 = EDGE_CURVE ( 'NONE', #163, #197, #944, .T. ) ;
#184 = DIRECTION ( 'NONE',  ( 0.000000000000000000, -0.000000000000000000, 1.000000000000000000 ) ) ;
#185 = ORIENTED_EDGE ( 'NONE', *, *, #866, .F. ) ;
#186 = EDGE_CURVE ( 'NONE', #527, #1056, #1128, .T. ) ;
#187 = CARTESIAN_POINT ( 'NONE',  ( 75.00000000000000000, 4.599999999999999645, 0.000000000000000000 ) ) ;
#188 = LINE ( 'NONE', #962, #211 ) ;
#189 = ORIENTED_EDGE ( 'NONE', *, *, #767, .F. ) ;
#190 = VECTOR ( 'NONE', #232, 1000.000000000000000 ) ;
#191 = ORIENTED_EDGE ( 'NONE', *, *, #742, .F. ) ;
#192 = EDGE_CURVE ( 'NONE', #642, #1165, #107, .T. ) ;
#193 = VECTOR ( 'NONE', #89, 1000.000000000000000 ) ;
#194 = DIRECTION ( 'NONE',  ( 0.000000000000000000, -1.000000000000000000, 0.000000000000000000 ) ) ;
#195 = DIRECTION ( 'NONE',  ( -1.000000000000000000, 0.000000000000000000, -0.000000000000000000 ) ) ;
#196 = LINE ( 'NONE', #544, #464 ) ;
#197 = VERTEX_POINT ( 'NONE', #387 ) ;
#198 = DIRECTION ( 'NONE',  ( -0.7071067811865524577, 0.7071067811865426878, -0.000000000000000000 ) ) ;
#199 = EDGE_CURVE ( 'NONE', #163, #389, #293, .T. ) ;
#200 = PLANE ( 'NONE',  #1207 ) ;
#201 = FACE_OUTER_BOUND ( 'NONE', #437, .T. ) ;
#202 = ORIENTED_EDGE ( 'NONE', *, *, #751, .T. ) ;
#203 = CARTESIAN_POINT ( 'NONE',  ( 0.4999999999999865663, 2.600000000000000089, 0.000000000000000000 ) ) ;
#204 = CARTESIAN_POINT ( 'NONE',  ( 5.250000000000000888, 1.189130434782606605, -3.500000000000000444 ) ) ;
#205 = CARTESIAN_POINT ( 'NONE',  ( 75.00000000000000000, -1.836970198721029441E-17, -2.600000000000000089 ) ) ;
#206 = LINE ( 'NONE', #492, #586 ) ;
#207 = VERTEX_POINT ( 'NONE', #1044 ) ;
#208 = VECTOR ( 'NONE', #605, 1000.000000000000000 ) ;
#209 = CARTESIAN_POINT ( 'NONE',  ( 5.250000000000004441, 1.199999999999997513, -2.999999999999999112 ) ) ;
#210 = VECTOR ( 'NONE', #919, 1000.000000000000000 ) ;
#211 = VECTOR ( 'NONE', #863, 1000.000000000000000 ) ;
#212 = DIRECTION ( 'NONE',  ( 0.000000000000000000, 0.000000000000000000, 1.000000000000000000 ) ) ;
#213 = CARTESIAN_POINT ( 'NONE',  ( 75.00000000000000000, 0.000000000000000000, 0.000000000000000000 ) ) ;
#214 = ORIENTED_EDGE ( 'NONE', *, *, #192, .F. ) ;
#215 = ORIENTED_EDGE ( 'NONE', *, *, #883, .T. ) ;
#216 = DIRECTION ( 'NONE',  ( 0.000000000000000000, 0.000000000000000000, 1.000000000000000000 ) ) ;
#217 = EDGE_CURVE ( 'NONE', #284, #103, #839, .T. ) ;
#218 = CARTESIAN_POINT ( 'NONE',  ( 75.00000000000000000, 4.599999999999999645, -8.000000000000000000 ) ) ;
#219 = DIRECTION ( 'NONE',  ( 0.000000000000000000, 0.000000000000000000, 1.000000000000000000 ) ) ;
#220 = ORIENTED_EDGE ( 'NONE', *, *, #1100, .T. ) ;
#221 = EDGE_CURVE ( 'NONE', #923, #372, #608, .T. ) ;
#222 = LINE ( 'NONE', #773, #256 ) ;
#223 = CARTESIAN_POINT ( 'NONE',  ( 37.39999999999999858, -0.2999999999999999334, -2.899999999999999911 ) ) ;
#224 = CARTESIAN_POINT ( 'NONE',  ( 0.000000000000000000, 8.199999999999999289, -19.59999999999999787 ) ) ;
#225 = DIRECTION ( 'NONE',  ( 0.000000000000000000, -1.000000000000000000, 0.000000000000000000 ) ) ;
#226 = ORIENTED_EDGE ( 'NONE', *, *, #518, .F. ) ;
#227 = ORIENTED_EDGE ( 'NONE', *, *, #943, .F. ) ;
#228 = VECTOR ( 'NONE', #447, 1000.000000000000227 ) ;
#229 = DIRECTION ( 'NONE',  ( -1.000000000000000000, -0.000000000000000000, -0.000000000000000000 ) ) ;
#230 = DIRECTION ( 'NONE',  ( 0.000000000000000000, 1.000000000000000000, 0.000000000000000000 ) ) ;
#231 = AXIS2_PLACEMENT_3D ( 'NONE', #1195, #927, #184 ) ;
#232 = DIRECTION ( 'NONE',  ( -1.000000000000000000, -0.000000000000000000, -0.000000000000000000 ) ) ;
#233 = VERTEX_POINT ( 'NONE', #998 ) ;
#234 = EDGE_CURVE ( 'NONE', #233, #27, #644, .T. ) ;
#235 = VERTEX_POINT ( 'NONE', #218 ) ;
#236 = LINE ( 'NONE', #619, #403 ) ;
#237 = LINE ( 'NONE', #640, #95 ) ;
#238 = EDGE_CURVE ( 'NONE', #27, #481, #539, .T. ) ;
#239 = VERTEX_POINT ( 'NONE', #70 ) ;
#240 = ORIENTED_EDGE ( 'NONE', *, *, #109, .T. ) ;
#241 = CARTESIAN_POINT ( 'NONE',  ( 75.00000000000000000, 0.000000000000000000, 0.000000000000000000 ) ) ;
#242 = DIRECTION ( 'NONE',  ( 0.000000000000000000, 7.065269995080883413E-18, 1.000000000000000000 ) ) ;
#243 = EDGE_LOOP ( 'NONE', ( #1009, #352, #1, #453 ) ) ;
#244 = EDGE_LOOP ( 'NONE', ( #753, #986, #338, #122, #327, #885, #994, #135, #1023, #1003 ) ) ;
#245 = SURFACE_STYLE_FILL_AREA ( #843 ) ;
#246 = DIRECTION ( 'NONE',  ( 0.9990561583550594538, -0.04343722427630694605, 0.000000000000000000 ) ) ;
#247 =( GEOMETRIC_REPRESENTATION_CONTEXT ( 3 ) GLOBAL_UNCERTAINTY_ASSIGNED_CONTEXT ( ( #1133 ) ) GLOBAL_UNIT_ASSIGNED_CONTEXT ( ( #1179, #559, #1036 ) ) REPRESENTATION_CONTEXT ( 'NONE', 'WORKASPACE' ) );
#248 = CARTESIAN_POINT ( 'NONE',  ( 75.00000000000000000, 2.600000000000000089, -8.000000000000000000 ) ) ;
#249 = VECTOR ( 'NONE', #1107, 1000.000000000000000 ) ;
#250 = VECTOR ( 'NONE', #1118, 1000.000000000000000 ) ;
#251 = ORIENTED_EDGE ( 'NONE', *, *, #192, .T. ) ;
#252 = VECTOR ( 'NONE', #66, 1000.000000000000000 ) ;
#253 = EDGE_LOOP ( 'NONE', ( #270, #561, #302, #459 ) ) ;
#254 = ADVANCED_FACE ( 'NONE', ( #882 ), #1011, .F. ) ;
#255 = DIRECTION ( 'NONE',  ( -1.000000000000000000, 0.000000000000000000, -0.000000000000000000 ) ) ;
#256 = VECTOR ( 'NONE', #29, 1000.000000000000000 ) ;
#257 = LINE ( 'NONE', #347, #837 ) ;
#258 = CARTESIAN_POINT ( 'NONE',  ( 11.89999999999999325, 2.299999999999999822, -6.500000000000000888 ) ) ;
#259 = ADVANCED_FACE ( 'NONE', ( #126 ), #1185, .T. ) ;
#260 = CARTESIAN_POINT ( 'NONE',  ( 0.000000000000000000, 8.199999999999999289, -22.59999999999999787 ) ) ;
#261 = ORIENTED_EDGE ( 'NONE', *, *, #304, .T. ) ;
#262 = CARTESIAN_POINT ( 'NONE',  ( 11.89999999999999325, 1.199999999999999956, -3.000000000000000000 ) ) ;
#263 = CARTESIAN_POINT ( 'NONE',  ( 0.000000000000000000, 2.099999999999999645, -8.000000000000000000 ) ) ;
#264 = CARTESIAN_POINT ( 'NONE',  ( 37.39999999999999858, -0.2999999999999999334, -3.673940397442058882E-17 ) ) ;
#265 = CARTESIAN_POINT ( 'NONE',  ( 0.000000000000000000, 0.000000000000000000, 0.000000000000000000 ) ) ;
#266 = ORIENTED_EDGE ( 'NONE', *, *, #816, .T. ) ;
#267 = FACE_OUTER_BOUND ( 'NONE', #1144, .T. ) ;
#268 = DIRECTION ( 'NONE',  ( 0.000000000000000000, -1.000000000000000000, 0.000000000000000000 ) ) ;
#269 = VECTOR ( 'NONE', #965, 1000.000000000000000 ) ;
#270 = ORIENTED_EDGE ( 'NONE', *, *, #546, .T. ) ;
#271 = EDGE_CURVE ( 'NONE', #274, #103, #257, .T. ) ;
#272 = VECTOR ( 'NONE', #584, 1000.000000000000000 ) ;
#273 = DIRECTION ( 'NONE',  ( 0.000000000000000000, 0.000000000000000000, -1.000000000000000000 ) ) ;
#274 = VERTEX_POINT ( 'NONE', #505 ) ;
#275 = ADVANCED_FACE ( 'NONE', ( #31 ), #551, .F. ) ;
#276 = EDGE_LOOP ( 'NONE', ( #711, #261, #698, #48 ) ) ;
#277 = LINE ( 'NONE', #566, #134 ) ;
#278 = CARTESIAN_POINT ( 'NONE',  ( 75.00000000000000000, -1.836970198721029441E-17, -2.600000000000000089 ) ) ;
#279 = FACE_OUTER_BOUND ( 'NONE', #636, .T. ) ;
#280 = ORIENTED_EDGE ( 'NONE', *, *, #199, .T. ) ;
#281 = FACE_OUTER_BOUND ( 'NONE', #621, .T. ) ;
#282 = CARTESIAN_POINT ( 'NONE',  ( 75.00000000000000000, 8.199999999999999289, -22.59999999999999787 ) ) ;
#283 = COLOUR_RGB ( '',0.7921568627450980005, 0.8196078431372548767, 0.9333333333333333481 ) ;
#284 = VERTEX_POINT ( 'NONE', #784 ) ;
#285 = VECTOR ( 'NONE', #663, 1000.000000000000000 ) ;
#286 = EDGE_CURVE ( 'NONE', #384, #235, #1164, .T. ) ;
#287 = DIRECTION ( 'NONE',  ( -0.000000000000000000, 0.000000000000000000, 1.000000000000000000 ) ) ;
#288 = ADVANCED_FACE ( 'NONE', ( #1157 ), #324, .F. ) ;
#289 = LINE ( 'NONE', #575, #451 ) ;
#290 = DIRECTION ( 'NONE',  ( -0.000000000000000000, -0.000000000000000000, -1.000000000000000000 ) ) ;
#291 = ORIENTED_EDGE ( 'NONE', *, *, #90, .T. ) ;
#292 = CARTESIAN_POINT ( 'NONE',  ( 11.89999999999999325, 0.8999999999999980238, -3.500000000000000444 ) ) ;
#293 = LINE ( 'NONE', #1134, #367 ) ;
#294 = DIRECTION ( 'NONE',  ( -0.7071067811865376918, 0.7071067811865574537, -3.504670666704904124E-16 ) ) ;
#295 = ORIENTED_EDGE ( 'NONE', *, *, #127, .T. ) ;
#296 = ORIENTED_EDGE ( 'NONE', *, *, #1135, .F. ) ;
#297 = DIRECTION ( 'NONE',  ( 0.9990561583550594538, -0.04343722427630695299, 0.000000000000000000 ) ) ;
#298 = LINE ( 'NONE', #30, #1033 ) ;
#299 = DIRECTION ( 'NONE',  ( -0.000000000000000000, 1.000000000000000000, -4.956352788505164254E-16 ) ) ;
#300 = APPLICATION_CONTEXT ( 'automotive_design' ) ;
#301 = DIRECTION ( 'NONE',  ( -0.000000000000000000, 0.000000000000000000, 1.000000000000000000 ) ) ;
#302 = ORIENTED_EDGE ( 'NONE', *, *, #471, .F. ) ;
#303 = VECTOR ( 'NONE', #1017, 1000.000000000000000 ) ;
#304 = EDGE_CURVE ( 'NONE', #660, #207, #1065, .T. ) ;
#305 = ORIENTED_EDGE ( 'NONE', *, *, #709, .T. ) ;
#306 = DIRECTION ( 'NONE',  ( -0.9808148484639899189, 0.1378445374916257293, 0.1378445374916257293 ) ) ;
#307 = AXIS2_PLACEMENT_3D ( 'NONE', #64, #601, #415 ) ;
#308 = VECTOR ( 'NONE', #111, 1000.000000000000000 ) ;
#309 = LINE ( 'NONE', #414, #9 ) ;
#310 = LINE ( 'NONE', #1214, #269 ) ;
#311 = DIRECTION ( 'NONE',  ( 0.7071067811865425767, 0.7071067811865524577, -4.995900324435573032E-18 ) ) ;
#312 = ADVANCED_FACE ( 'NONE', ( #359 ), #40, .F. ) ;
#313 = VERTEX_POINT ( 'NONE', #790 ) ;
#314 = ORIENTED_EDGE ( 'NONE', *, *, #199, .F. ) ;
#315 = DIRECTION ( 'NONE',  ( 0.000000000000000000, 0.000000000000000000, -1.000000000000000000 ) ) ;
#316 = CARTESIAN_POINT ( 'NONE',  ( 75.00000000000000000, 1.199999999999997957, -6.999999999999999112 ) ) ;
#317 = DIRECTION ( 'NONE',  ( -0.000000000000000000, -0.000000000000000000, -1.000000000000000000 ) ) ;
#318 = LINE ( 'NONE', #847, #852 ) ;
#319 = ORIENTED_EDGE ( 'NONE', *, *, #557, .F. ) ;
#320 = ORIENTED_EDGE ( 'NONE', *, *, #1047, .F. ) ;
#321 = CARTESIAN_POINT ( 'NONE',  ( 11.89999999999999325, 0.4999999999999935052, -3.000000000000000000 ) ) ;
#322 = LINE ( 'NONE', #1043, #369 ) ;
#323 = EDGE_CURVE ( 'NONE', #61, #946, #639, .T. ) ;
#324 = PLANE ( 'NONE',  #1075 ) ;
#325 = APPLICATION_PROTOCOL_DEFINITION ( 'draft international standard', 'automotive_design', 1998, #55 ) ;
#326 = ORIENTED_EDGE ( 'NONE', *, *, #1091, .T. ) ;
#327 = ORIENTED_EDGE ( 'NONE', *, *, #59, .T. ) ;
#328 = AXIS2_PLACEMENT_3D ( 'NONE', #695, #38, #502 ) ;
#329 = DIRECTION ( 'NONE',  ( 0.000000000000000000, -7.065269995080883413E-18, -1.000000000000000000 ) ) ;
#330 = ADVANCED_FACE ( 'NONE', ( #441 ), #813, .F. ) ;
#331 = VECTOR ( 'NONE', #1013, 1000.000000000000000 ) ;
#332 = CARTESIAN_POINT ( 'NONE',  ( 75.00000000000000000, 1.199999999999997513, -2.600000000000000089 ) ) ;
#333 = AXIS2_PLACEMENT_3D ( 'NONE', #593, #579, #1028 ) ;
#334 = ORIENTED_EDGE ( 'NONE', *, *, #606, .T. ) ;
#335 = VERTEX_POINT ( 'NONE', #914 ) ;
#336 = PLANE ( 'NONE',  #1072 ) ;
#337 = LINE ( 'NONE', #144, #1113 ) ;
#338 = ORIENTED_EDGE ( 'NONE', *, *, #65, .T. ) ;
#339 = ORIENTED_EDGE ( 'NONE', *, *, #438, .F. ) ;
#340 = LINE ( 'NONE', #248, #838 ) ;
#341 = DIRECTION ( 'NONE',  ( 0.000000000000000000, 0.000000000000000000, 1.000000000000000000 ) ) ;
#342 = ORIENTED_EDGE ( 'NONE', *, *, #398, .F. ) ;
#343 = EDGE_CURVE ( 'NONE', #961, #637, #354, .T. ) ;
#344 = ORIENTED_EDGE ( 'NONE', *, *, #36, .F. ) ;
#345 = CARTESIAN_POINT ( 'NONE',  ( 75.00000000000000000, 2.600000000000000089, -8.000000000000000000 ) ) ;
#346 = ADVANCED_FACE ( 'NONE', ( #1102 ), #1116, .F. ) ;
#347 = CARTESIAN_POINT ( 'NONE',  ( 0.4999999999999865663, 2.600000000000000089, 0.000000000000000000 ) ) ;
#348 = AXIS2_PLACEMENT_3D ( 'NONE', #978, #890, #46 ) ;
#349 = CARTESIAN_POINT ( 'NONE',  ( 75.00000000000000000, 4.649999999999999467, -19.59999999999999787 ) ) ;
#350 = VERTEX_POINT ( 'NONE', #363 ) ;
#351 = ADVANCED_FACE ( 'NONE', ( #736 ), #179, .T. ) ;
#352 = ORIENTED_EDGE ( 'NONE', *, *, #146, .F. ) ;
#353 = DIRECTION ( 'NONE',  ( -0.000000000000000000, -0.000000000000000000, 1.000000000000000000 ) ) ;
#354 = LINE ( 'NONE', #263, #555 ) ;
#355 = LINE ( 'NONE', #1103, #252 ) ;
#356 = VERTEX_POINT ( 'NONE', #830 ) ;
#357 = ORIENTED_EDGE ( 'NONE', *, *, #438, .T. ) ;
#358 = LINE ( 'NONE', #732, #249 ) ;
#359 = FACE_OUTER_BOUND ( 'NONE', #243, .T. ) ;
#360 = ADVANCED_FACE ( 'NONE', ( #1203 ), #1208, .T. ) ;
#361 = DIRECTION ( 'NONE',  ( -0.000000000000000000, 1.192622389734055124E-16, -1.000000000000000000 ) ) ;
#362 = EDGE_LOOP ( 'NONE', ( #314, #856, #191, #189 ) ) ;
#363 = CARTESIAN_POINT ( 'NONE',  ( 35.26538908328470256, 0.000000000000000000, 0.000000000000000000 ) ) ;
#364 = EDGE_CURVE ( 'NONE', #536, #418, #86, .T. ) ;
#365 = VECTOR ( 'NONE', #764, 1000.000000000000000 ) ;
#366 = EDGE_LOOP ( 'NONE', ( #1120, #21, #652, #462 ) ) ;
#367 = VECTOR ( 'NONE', #672, 999.9999999999998863 ) ;
#368 = EDGE_LOOP ( 'NONE', ( #699, #339, #912, #121 ) ) ;
#369 = VECTOR ( 'NONE', #407, 1000.000000000000000 ) ;
#370 = DIRECTION ( 'NONE',  ( 0.000000000000000000, -1.192622389734055124E-16, 1.000000000000000000 ) ) ;
#371 = DIRECTION ( 'NONE',  ( 0.000000000000000000, 7.065269995080883413E-18, 1.000000000000000000 ) ) ;
#372 = VERTEX_POINT ( 'NONE', #930 ) ;
#373 = CARTESIAN_POINT ( 'NONE',  ( 39.73461091671529033, -1.836970198721029441E-17, -2.600000000000000089 ) ) ;
#374 = CARTESIAN_POINT ( 'NONE',  ( 5.000000000000000000, 1.199999999999997957, -3.500000000000000444 ) ) ;
#375 = SURFACE_SIDE_STYLE ('',( #245 ) ) ;
#376 = EDGE_CURVE ( 'NONE', #1115, #384, #1024, .T. ) ;
#377 = ORIENTED_EDGE ( 'NONE', *, *, #850, .F. ) ;
#378 = ADVANCED_FACE ( 'NONE', ( #463, #657 ), #834, .F. ) ;
#379 = LINE ( 'NONE', #2, #702 ) ;
#380 = CARTESIAN_POINT ( 'NONE',  ( 5.250000000000000000, -7.400000000000000355, -7.000000000000000000 ) ) ;
#381 = VECTOR ( 'NONE', #610, 1000.000000000000000 ) ;
#382 = CARTESIAN_POINT ( 'NONE',  ( 75.00000000000000000, 4.649999999999999467, -8.000000000000000000 ) ) ;
#383 = ORIENTED_EDGE ( 'NONE', *, *, #969, .F. ) ;
#384 = VERTEX_POINT ( 'NONE', #187 ) ;
#385 = VECTOR ( 'NONE', #12, 1000.000000000000000 ) ;
#386 = DIRECTION ( 'NONE',  ( -0.000000000000000000, 1.000000000000000000, -0.000000000000000000 ) ) ;
#387 = CARTESIAN_POINT ( 'NONE',  ( 37.59999999999999432, -0.2999999999999999334, -2.899999999999999911 ) ) ;
#388 = DIRECTION ( 'NONE',  ( 0.000000000000000000, -1.000000000000000000, 0.000000000000000000 ) ) ;
#389 = VERTEX_POINT ( 'NONE', #743 ) ;
#390 = ORIENTED_EDGE ( 'NONE', *, *, #456, .F. ) ;
#391 = CARTESIAN_POINT ( 'NONE',  ( 5.000000000000000888, 2.600000000000000089, -3.000000000000000000 ) ) ;
#392 = CARTESIAN_POINT ( 'NONE',  ( 5.000000000000000888, 1.199999999999997513, -3.250000000000000444 ) ) ;
#393 = PLANE ( 'NONE',  #957 ) ;
#394 = EDGE_CURVE ( 'NONE', #1056, #637, #277, .T. ) ;
#395 = DIRECTION ( 'NONE',  ( -1.000000000000000000, 0.000000000000000000, 0.000000000000000000 ) ) ;
#396 = ORIENTED_EDGE ( 'NONE', *, *, #1139, .T. ) ;
#397 = CARTESIAN_POINT ( 'NONE',  ( 75.00000000000000000, 8.199999999999999289, -19.59999999999999787 ) ) ;
#398 = EDGE_CURVE ( 'NONE', #117, #799, #1140, .T. ) ;
#399 = CARTESIAN_POINT ( 'NONE',  ( 12.39999999999999503, -1.836970198721029441E-17, -2.600000000000000089 ) ) ;
#400 = LINE ( 'NONE', #380, #486 ) ;
#401 = LINE ( 'NONE', #1060, #719 ) ;
#402 = VERTEX_POINT ( 'NONE', #332 ) ;
#403 = VECTOR ( 'NONE', #520, 1000.000000000000000 ) ;
#404 = ORIENTED_EDGE ( 'NONE', *, *, #836, .F. ) ;
#405 = CARTESIAN_POINT ( 'NONE',  ( 5.250000000000000888, 0.000000000000000000, -3.250000000000000444 ) ) ;
#406 = AXIS2_PLACEMENT_3D ( 'NONE', #942, #766, #1048 ) ;
#407 = DIRECTION ( 'NONE',  ( 0.000000000000000000, -7.065269995080883413E-18, -1.000000000000000000 ) ) ;
#408 = CARTESIAN_POINT ( 'NONE',  ( 75.00000000000000000, 8.199999999999999289, -22.59999999999999787 ) ) ;
#409 = VECTOR ( 'NONE', #229, 1000.000000000000000 ) ;
#410 = CARTESIAN_POINT ( 'NONE',  ( 75.00000000000000000, 1.199999999999997513, -2.600000000000000089 ) ) ;
#411 = ORIENTED_EDGE ( 'NONE', *, *, #364, .F. ) ;
#412 = ORIENTED_EDGE ( 'NONE', *, *, #907, .F. ) ;
#413 = CARTESIAN_POINT ( 'NONE',  ( 75.00000000000000000, 8.199999999999999289, -22.59999999999999787 ) ) ;
#414 = CARTESIAN_POINT ( 'NONE',  ( 16.89999999999999858, 2.600000000000000089, -7.000000000000000000 ) ) ;
#415 = DIRECTION ( 'NONE',  ( 0.000000000000000000, 0.000000000000000000, 1.000000000000000000 ) ) ;
#416 = ORIENTED_EDGE ( 'NONE', *, *, #417, .F. ) ;
#417 = EDGE_CURVE ( 'NONE', #467, #284, #616, .T. ) ;
#418 = VERTEX_POINT ( 'NONE', #223 ) ;
#419 = CARTESIAN_POINT ( 'NONE',  ( 0.4999999999999865663, 1.199999999999999956, 0.000000000000000000 ) ) ;
#420 = EDGE_CURVE ( 'NONE', #1081, #1056, #298, .T. ) ;
#421 = PLANE ( 'NONE',  #1127 ) ;
#422 = DIRECTION ( 'NONE',  ( 0.000000000000000000, -1.000000000000000000, 0.000000000000000000 ) ) ;
#423 = ORIENTED_EDGE ( 'NONE', *, *, #489, .F. ) ;
#424 = ORIENTED_EDGE ( 'NONE', *, *, #796, .F. ) ;
#425 = EDGE_CURVE ( 'NONE', #760, #704, #774, .T. ) ;
#426 = VECTOR ( 'NONE', #1045, 999.9999999999998863 ) ;
#427 = LINE ( 'NONE', #689, #208 ) ;
#428 = VECTOR ( 'NONE', #949, 1000.000000000000000 ) ;
#429 = LINE ( 'NONE', #999, #178 ) ;
#430 = VECTOR ( 'NONE', #297, 1000.000000000000227 ) ;
#431 = CARTESIAN_POINT ( 'NONE',  ( 37.59999999999999432, -0.2999999999999999334, -3.673940397442058882E-17 ) ) ;
#432 = ORIENTED_EDGE ( 'NONE', *, *, #503, .F. ) ;
#433 = ORIENTED_EDGE ( 'NONE', *, *, #343, .F. ) ;
#434 = LINE ( 'NONE', #595, #936 ) ;
#435 = LINE ( 'NONE', #822, #468 ) ;
#436 = CARTESIAN_POINT ( 'NONE',  ( 5.250000000000000000, 2.600000000000000089, -7.000000000000000000 ) ) ;
#437 = EDGE_LOOP ( 'NONE', ( #1200, #266, #412, #793, #154 ) ) ;
#438 = EDGE_CURVE ( 'NONE', #1115, #284, #1071, .T. ) ;
#439 = ORIENTED_EDGE ( 'NONE', *, *, #1181, .T. ) ;
#440 = LINE ( 'NONE', #550, #918 ) ;
#441 = FACE_OUTER_BOUND ( 'NONE', #604, .T. ) ;
#442 = DIRECTION ( 'NONE',  ( 0.000000000000000000, 1.000000000000000000, -7.065269995080883413E-18 ) ) ;
#443 = ADVANCED_FACE ( 'NONE', ( #676 ), #421, .T. ) ;
#444 =( NAMED_UNIT ( * ) PLANE_ANGLE_UNIT ( ) SI_UNIT ( $, .RADIAN. ) );
#445 = CARTESIAN_POINT ( 'NONE',  ( 5.000000000000000000, 2.600000000000000089, -6.500000000000000888 ) ) ;
#446 = VERTEX_POINT ( 'NONE', #138 ) ;
#447 = DIRECTION ( 'NONE',  ( 0.9990561583550594538, -0.04343722427630695299, 0.000000000000000000 ) ) ;
#448 = DIRECTION ( 'NONE',  ( 0.000000000000000000, -1.000000000000000000, 4.956352788505163268E-16 ) ) ;
#449 = AXIS2_PLACEMENT_3D ( 'NONE', #20, #395, #219 ) ;
#450 = CARTESIAN_POINT ( 'NONE',  ( 75.00000000000000000, 8.199999999999999289, -19.59999999999999787 ) ) ;
#451 = VECTOR ( 'NONE', #1051, 1000.000000000000227 ) ;
#452 = LINE ( 'NONE', #659, #112 ) ;
#453 = ORIENTED_EDGE ( 'NONE', *, *, #221, .T. ) ;
#454 = LINE ( 'NONE', #825, #755 ) ;
#455 = DIRECTION ( 'NONE',  ( -0.000000000000000000, 4.956352788505163268E-16, 1.000000000000000000 ) ) ;
#456 = EDGE_CURVE ( 'NONE', #418, #724, #795, .T. ) ;
#457 = CARTESIAN_POINT ( 'NONE',  ( 0.000000000000000000, 2.099999999999999645, -8.000000000000000000 ) ) ;
#458 = DIRECTION ( 'NONE',  ( 0.000000000000000000, 0.000000000000000000, 1.000000000000000000 ) ) ;
#459 = ORIENTED_EDGE ( 'NONE', *, *, #729, .F. ) ;
#460 = EDGE_CURVE ( 'NONE', #704, #923, #963, .T. ) ;
#461 = CARTESIAN_POINT ( 'NONE',  ( 75.00000000000000000, 1.199999999999999956, -22.59999999999999432 ) ) ;
#462 = ORIENTED_EDGE ( 'NONE', *, *, #1215, .F. ) ;
#463 = FACE_BOUND ( 'NONE', #995, .T. ) ;
#464 = VECTOR ( 'NONE', #77, 999.9999999999998863 ) ;
#465 = EDGE_LOOP ( 'NONE', ( #582, #878, #517, #886, #1084 ) ) ;
#466 = AXIS2_PLACEMENT_3D ( 'NONE', #720, #165, #545 ) ;
#467 = VERTEX_POINT ( 'NONE', #132 ) ;
#468 = VECTOR ( 'NONE', #646, 1000.000000000000000 ) ;
#469 = VECTOR ( 'NONE', #794, 1000.000000000000000 ) ;
#470 = PLANE ( 'NONE',  #487 ) ;
#471 = EDGE_CURVE ( 'NONE', #480, #549, #309, .T. ) ;
#472 = LINE ( 'NONE', #865, #554 ) ;
#473 = CARTESIAN_POINT ( 'NONE',  ( 5.000000000000000000, 2.600000000000000089, -3.250000000000000444 ) ) ;
#474 = ORIENTED_EDGE ( 'NONE', *, *, #597, .T. ) ;
#475 = EDGE_CURVE ( 'NONE', #313, #759, #889, .T. ) ;
#476 = CARTESIAN_POINT ( 'NONE',  ( 5.250000000000000000, 1.189130434782606605, -6.500000000000000888 ) ) ;
#477 = UNCERTAINTY_MEASURE_WITH_UNIT (LENGTH_MEASURE( 1.000000000000000082E-05 ), #635, 'distance_accuracy_value', 'NONE');
#478 = CARTESIAN_POINT ( 'NONE',  ( 37.59999999999999432, -0.2999999999999999334, -3.673940397442058882E-17 ) ) ;
#479 = LINE ( 'NONE', #34, #1111 ) ;
#480 = VERTEX_POINT ( 'NONE', #1168 ) ;
#481 = VERTEX_POINT ( 'NONE', #594 ) ;
#482 = CARTESIAN_POINT ( 'NONE',  ( 35.26538908328470256, -1.836970198721029441E-17, -2.600000000000000089 ) ) ;
#483 = DIRECTION ( 'NONE',  ( 0.000000000000000000, 0.000000000000000000, -1.000000000000000000 ) ) ;
#484 = CARTESIAN_POINT ( 'NONE',  ( 75.00000000000000000, 1.199999999999997513, -2.600000000000000089 ) ) ;
#485 = ORIENTED_EDGE ( 'NONE', *, *, #883, .F. ) ;
#486 = VECTOR ( 'NONE', #775, 1000.000000000000000 ) ;
#487 = AXIS2_PLACEMENT_3D ( 'NONE', #841, #287, #567 ) ;
#488 = CARTESIAN_POINT ( 'NONE',  ( 5.000000000000000000, 1.199999999999998845, -6.603553390593274841 ) ) ;
#489 = EDGE_CURVE ( 'NONE', #446, #1166, #631, .T. ) ;
#490 = DIRECTION ( 'NONE',  ( -0.000000000000000000, 0.000000000000000000, 1.000000000000000000 ) ) ;
#491 = DIRECTION ( 'NONE',  ( 0.000000000000000000, 1.192622389734055124E-16, -1.000000000000000000 ) ) ;
#492 = CARTESIAN_POINT ( 'NONE',  ( 5.000000000000000888, -7.400000000000000355, -3.250000000000000444 ) ) ;
#493 = VERTEX_POINT ( 'NONE', #1147 ) ;
#494 = ORIENTED_EDGE ( 'NONE', *, *, #892, .F. ) ;
#495 = EDGE_CURVE ( 'NONE', #207, #1068, #683, .T. ) ;
#496 = CARTESIAN_POINT ( 'NONE',  ( 16.89999999999999858, -7.400000000000000355, -7.000000000000000000 ) ) ;
#497 = DIRECTION ( 'NONE',  ( -1.000000000000000000, -0.000000000000000000, -0.000000000000000000 ) ) ;
#498 = CARTESIAN_POINT ( 'NONE',  ( 0.000000000000000000, 0.000000000000000000, -6.500000000000000888 ) ) ;
#499 = DIRECTION ( 'NONE',  ( -0.000000000000000000, -1.000000000000000000, -0.000000000000000000 ) ) ;
#500 = VERTEX_POINT ( 'NONE', #399 ) ;
#501 = ORIENTED_EDGE ( 'NONE', *, *, #705, .F. ) ;
#502 = DIRECTION ( 'NONE',  ( 0.000000000000000000, 0.000000000000000000, 1.000000000000000000 ) ) ;
#503 = EDGE_CURVE ( 'NONE', #946, #500, #322, .T. ) ;
#504 = CARTESIAN_POINT ( 'NONE',  ( 37.59999999999999432, 1.199999999999997513, -2.899999999999998135 ) ) ;
#505 = CARTESIAN_POINT ( 'NONE',  ( 0.4999999999999865663, 2.600000000000000089, -8.000000000000000000 ) ) ;
#506 = LINE ( 'NONE', #877, #568 ) ;
#507 = ORIENTED_EDGE ( 'NONE', *, *, #1031, .T. ) ;
#508 =( GEOMETRIC_REPRESENTATION_CONTEXT ( 3 ) GLOBAL_UNCERTAINTY_ASSIGNED_CONTEXT ( ( #477 ) ) GLOBAL_UNIT_ASSIGNED_CONTEXT ( ( #635, #444, #1188 ) ) REPRESENTATION_CONTEXT ( 'NONE', 'WORKASPACE' ) );
#509 = ORIENTED_EDGE ( 'NONE', *, *, #65, .F. ) ;
#510 = FACE_OUTER_BOUND ( 'NONE', #1154, .T. ) ;
#511 = VECTOR ( 'NONE', #512, 1000.000000000000000 ) ;
#512 = DIRECTION ( 'NONE',  ( 0.000000000000000000, 1.000000000000000000, -0.000000000000000000 ) ) ;
#513 = CARTESIAN_POINT ( 'NONE',  ( 0.000000000000000000, 8.199999999999999289, -22.59999999999999787 ) ) ;
#514 = EDGE_CURVE ( 'NONE', #617, #99, #881, .T. ) ;
#515 = VECTOR ( 'NONE', #894, 1000.000000000000000 ) ;
#516 = CARTESIAN_POINT ( 'NONE',  ( 75.00000000000000000, 1.199999999999997513, -2.600000000000000089 ) ) ;
#517 = ORIENTED_EDGE ( 'NONE', *, *, #234, .T. ) ;
#518 = EDGE_CURVE ( 'NONE', #777, #239, #1156, .T. ) ;
#519 = ORIENTED_EDGE ( 'NONE', *, *, #533, .T. ) ;
#520 = DIRECTION ( 'NONE',  ( -1.000000000000000000, -0.000000000000000000, -0.000000000000000000 ) ) ;
#521 = CARTESIAN_POINT ( 'NONE',  ( 5.000000000000000000, 2.600000000000000089, -6.750000000000000000 ) ) ;
#522 = CARTESIAN_POINT ( 'NONE',  ( 0.000000000000000000, 0.000000000000000000, 0.000000000000000000 ) ) ;
#523 = ORIENTED_EDGE ( 'NONE', *, *, #934, .F. ) ;
#524 = EDGE_LOOP ( 'NONE', ( #320, #787, #674, #543 ) ) ;
#525 = CARTESIAN_POINT ( 'NONE',  ( 11.89999999999999325, 0.000000000000000000, -3.000000000000000000 ) ) ;
#526 = PLANE ( 'NONE',  #939 ) ;
#527 = VERTEX_POINT ( 'NONE', #1163 ) ;
#528 = EDGE_LOOP ( 'NONE', ( #1211, #748, #734, #1190 ) ) ;
#529 = AXIS2_PLACEMENT_3D ( 'NONE', #69, #1010, #712 ) ;
#530 = LINE ( 'NONE', #880, #174 ) ;
#531 = AXIS2_PLACEMENT_3D ( 'NONE', #977, #1087, #246 ) ;
#532 = LINE ( 'NONE', #167, #534 ) ;
#533 = EDGE_CURVE ( 'NONE', #1068, #724, #975, .T. ) ;
#534 = VECTOR ( 'NONE', #1194, 1000.000000000000000 ) ;
#535 = VERTEX_POINT ( 'NONE', #703 ) ;
#536 = VERTEX_POINT ( 'NONE', #264 ) ;
#537 = DIRECTION ( 'NONE',  ( 0.000000000000000000, -0.000000000000000000, -1.000000000000000000 ) ) ;
#538 = EDGE_CURVE ( 'NONE', #335, #493, #993, .T. ) ;
#539 = LINE ( 'NONE', #224, #153 ) ;
#540 = CARTESIAN_POINT ( 'NONE',  ( 5.000000000000000000, 1.199999999999997957, -3.500000000000000444 ) ) ;
#541 = CARTESIAN_POINT ( 'NONE',  ( 11.89999999999999325, 2.299999999999999822, -6.500000000000000888 ) ) ;
#542 = ORIENTED_EDGE ( 'NONE', *, *, #1104, .F. ) ;
#543 = ORIENTED_EDGE ( 'NONE', *, *, #729, .T. ) ;
#544 = CARTESIAN_POINT ( 'NONE',  ( 35.26538908328470256, 1.199999999999997513, -2.600000000000000089 ) ) ;
#545 = DIRECTION ( 'NONE',  ( 1.000000000000000000, 0.000000000000000000, -0.000000000000000000 ) ) ;
#546 = EDGE_CURVE ( 'NONE', #239, #735, #532, .T. ) ;
#547 = LINE ( 'NONE', #1097, #651 ) ;
#548 = CARTESIAN_POINT ( 'NONE',  ( 75.00000000000000000, 8.199999999999999289, -19.59999999999999787 ) ) ;
#549 = VERTEX_POINT ( 'NONE', #728 ) ;
#550 = CARTESIAN_POINT ( 'NONE',  ( 16.89999999999999858, -7.400000000000000355, -3.000000000000000000 ) ) ;
#551 = PLANE ( 'NONE',  #53 ) ;
#552 = VECTOR ( 'NONE', #353, 1000.000000000000000 ) ;
#553 = PLANE ( 'NONE',  #155 ) ;
#554 = VECTOR ( 'NONE', #115, 1000.000000000000000 ) ;
#555 = VECTOR ( 'NONE', #727, 1000.000000000000000 ) ;
#556 = CARTESIAN_POINT ( 'NONE',  ( 0.000000000000000000, 1.699999999999997735, 5.963111948670248503E-17 ) ) ;
#557 = EDGE_CURVE ( 'NONE', #197, #418, #237, .T. ) ;
#558 = ORIENTED_EDGE ( 'NONE', *, *, #52, .F. ) ;
#559 =( NAMED_UNIT ( * ) PLANE_ANGLE_UNIT ( ) SI_UNIT ( $, .RADIAN. ) );
#560 = DIRECTION ( 'NONE',  ( -0.7071067811865524577, 0.000000000000000000, 0.7071067811865426878 ) ) ;
#561 = ORIENTED_EDGE ( 'NONE', *, *, #969, .T. ) ;
#562 = ORIENTED_EDGE ( 'NONE', *, *, #1119, .F. ) ;
#563 = CARTESIAN_POINT ( 'NONE',  ( 72.00000000000000000, 4.599999999999999645, 0.000000000000000000 ) ) ;
#564 = PLANE ( 'NONE',  #231 ) ;
#565 = ORIENTED_EDGE ( 'NONE', *, *, #779, .T. ) ;
#566 = CARTESIAN_POINT ( 'NONE',  ( 0.000000000000000000, 2.600000000000000089, -8.000000000000000000 ) ) ;
#567 = DIRECTION ( 'NONE',  ( 1.000000000000000000, 0.000000000000000000, 0.000000000000000000 ) ) ;
#568 = VECTOR ( 'NONE', #602, 1000.000000000000000 ) ;
#569 = EDGE_CURVE ( 'NONE', #961, #35, #71, .T. ) ;
#570 = CARTESIAN_POINT ( 'NONE',  ( 0.4999999999999865663, 1.199999999999999956, -22.59999999999999432 ) ) ;
#571 = VECTOR ( 'NONE', #67, 1000.000000000000000 ) ;
#572 = EDGE_LOOP ( 'NONE', ( #147, #433, #1131, #1026 ) ) ;
#573 = PLANE ( 'NONE',  #406 ) ;
#574 = ADVANCED_FACE ( 'NONE', ( #902 ), #708, .F. ) ;
#575 = CARTESIAN_POINT ( 'NONE',  ( 5.000000000000000000, 2.600000000000000089, -3.500000000000000444 ) ) ;
#576 = CARTESIAN_POINT ( 'NONE',  ( 5.000000000000000000, 2.600000000000000089, -3.250000000000000444 ) ) ;
#577 = ORIENTED_EDGE ( 'NONE', *, *, #1100, .F. ) ;
#578 = ORIENTED_EDGE ( 'NONE', *, *, #394, .T. ) ;
#579 = DIRECTION ( 'NONE',  ( -0.7071067811865573427, 0.7071067811865378028, 0.000000000000000000 ) ) ;
#580 = CARTESIAN_POINT ( 'NONE',  ( 0.000000000000000000, 4.649999999999999467, -8.000000000000000000 ) ) ;
#581 = DIRECTION ( 'NONE',  ( 0.000000000000000000, -0.000000000000000000, -1.000000000000000000 ) ) ;
#582 = ORIENTED_EDGE ( 'NONE', *, *, #475, .T. ) ;
#583 = EDGE_CURVE ( 'NONE', #535, #1165, #988, .T. ) ;
#584 = DIRECTION ( 'NONE',  ( 1.000000000000000000, 0.000000000000000000, 0.000000000000000000 ) ) ;
#585 = CARTESIAN_POINT ( 'NONE',  ( 5.103553390593275729, 1.195497678669855457, -3.500000000000000444 ) ) ;
#586 = VECTOR ( 'NONE', #587, 1000.000000000000000 ) ;
#587 = DIRECTION ( 'NONE',  ( -0.000000000000000000, 1.000000000000000000, -0.000000000000000000 ) ) ;
#588 = EDGE_CURVE ( 'NONE', #1041, #88, #337, .T. ) ;
#589 = ORIENTED_EDGE ( 'NONE', *, *, #569, .T. ) ;
#590 = AXIS2_PLACEMENT_3D ( 'NONE', #91, #828, #641 ) ;
#591 = ORIENTED_EDGE ( 'NONE', *, *, #420, .T. ) ;
#592 = AXIS2_PLACEMENT_3D ( 'NONE', #1180, #442, #242 ) ;
#593 = CARTESIAN_POINT ( 'NONE',  ( 0.4999999999999865663, 2.600000000000000089, 0.000000000000000000 ) ) ;
#594 = CARTESIAN_POINT ( 'NONE',  ( 0.000000000000000000, 8.199999999999999289, -20.09999999999999432 ) ) ;
#595 = CARTESIAN_POINT ( 'NONE',  ( 72.00000000000000000, 4.599999999999999645, -8.000000000000000000 ) ) ;
#596 = ORIENTED_EDGE ( 'NONE', *, *, #271, .T. ) ;
#597 = EDGE_CURVE ( 'NONE', #951, #923, #547, .T. ) ;
#598 = VERTEX_POINT ( 'NONE', #450 ) ;
#599 = FACE_OUTER_BOUND ( 'NONE', #772, .T. ) ;
#600 = DIRECTION ( 'NONE',  ( 1.000000000000000000, 0.000000000000000000, 0.000000000000000000 ) ) ;
#601 = DIRECTION ( 'NONE',  ( 0.000000000000000000, 1.000000000000000000, 0.000000000000000000 ) ) ;
#602 = DIRECTION ( 'NONE',  ( 1.000000000000000000, 0.000000000000000000, 0.000000000000000000 ) ) ;
#603 = EDGE_LOOP ( 'NONE', ( #295, #1037, #832, #981, #960, #1074 ) ) ;
#604 = EDGE_LOOP ( 'NONE', ( #1090, #626, #1099, #140 ) ) ;
#605 = DIRECTION ( 'NONE',  ( 0.000000000000000000, 1.000000000000000000, 0.000000000000000000 ) ) ;
#606 = EDGE_CURVE ( 'NONE', #792, #493, #355, .T. ) ;
#607 = DIRECTION ( 'NONE',  ( -1.000000000000000000, -0.000000000000000000, -0.000000000000000000 ) ) ;
#608 = LINE ( 'NONE', #1193, #210 ) ;
#609 = EDGE_CURVE ( 'NONE', #617, #1081, #435, .T. ) ;
#610 = DIRECTION ( 'NONE',  ( 0.000000000000000000, 1.000000000000000000, 0.000000000000000000 ) ) ;
#611 = ORIENTED_EDGE ( 'NONE', *, *, #661, .F. ) ;
#612 = CIRCLE ( 'NONE', #72, 0.2500000000000002220 ) ;
#613 = ORIENTED_EDGE ( 'NONE', *, *, #343, .T. ) ;
#614 = DIRECTION ( 'NONE',  ( 0.000000000000000000, -0.000000000000000000, 1.000000000000000000 ) ) ;
#615 = AXIS2_PLACEMENT_3D ( 'NONE', #265, #1021, #458 ) ;
#616 = LINE ( 'NONE', #696, #879 ) ;
#617 = VERTEX_POINT ( 'NONE', #349 ) ;
#618 = ORIENTED_EDGE ( 'NONE', *, *, #97, .F. ) ;
#619 = CARTESIAN_POINT ( 'NONE',  ( 75.00000000000000000, -1.836970198721029441E-17, -2.600000000000000089 ) ) ;
#620 = DIRECTION ( 'NONE',  ( -0.9990561583550594538, 0.04343722427630694605, 0.000000000000000000 ) ) ;
#621 = EDGE_LOOP ( 'NONE', ( #861, #558, #296, #37 ) ) ;
#622 = ORIENTED_EDGE ( 'NONE', *, *, #658, .T. ) ;
#623 = DIRECTION ( 'NONE',  ( 0.000000000000000000, 1.000000000000000000, -7.065269995080883413E-18 ) ) ;
#624 = ADVANCED_FACE ( 'NONE', ( #1083 ), #1186, .F. ) ;
#625 = DIRECTION ( 'NONE',  ( -0.000000000000000000, 1.000000000000000000, -0.000000000000000000 ) ) ;
#626 = ORIENTED_EDGE ( 'NONE', *, *, #533, .F. ) ;
#627 = ADVANCED_FACE ( 'NONE', ( #1012 ), #553, .F. ) ;
#628 = ORIENTED_EDGE ( 'NONE', *, *, #1031, .F. ) ;
#629 = VECTOR ( 'NONE', #1057, 1000.000000000000000 ) ;
#630 = CARTESIAN_POINT ( 'NONE',  ( 75.00000000000000000, 0.000000000000000000, 0.000000000000000000 ) ) ;
#631 =( BOUNDED_CURVE ( )  B_SPLINE_CURVE ( 3, ( #204, #585, #23, #392 ),
 .UNSPECIFIED., .F., .T. ) 
 B_SPLINE_CURVE_WITH_KNOTS ( ( 4, 4 ),
 ( 1.570796326794896558, 3.141592653589793116 ),
 .UNSPECIFIED. ) 
 CURVE ( )  GEOMETRIC_REPRESENTATION_ITEM ( )  RATIONAL_B_SPLINE_CURVE ( ( 1.000000000000000000, 0.8047378541243649375, 0.8047378541243649375, 1.000000000000000000 ) ) 
 REPRESENTATION_ITEM ( '' )  );
#632 = AXIS2_PLACEMENT_3D ( 'NONE', #461, #94, #370 ) ;
#633 = CARTESIAN_POINT ( 'NONE',  ( 75.00000000000000000, 4.649999999999999467, -8.000000000000000000 ) ) ;
#634 = VECTOR ( 'NONE', #173, 1000.000000000000000 ) ;
#635 =( LENGTH_UNIT ( ) NAMED_UNIT ( * ) SI_UNIT ( .MILLI., .METRE. ) );
#636 = EDGE_LOOP ( 'NONE', ( #136, #215, #823, #1172, #896, #849, #613, #57 ) ) ;
#637 = VERTEX_POINT ( 'NONE', #457 ) ;
#638 = CARTESIAN_POINT ( 'NONE',  ( 75.00000000000000000, 2.600000000000000089, 0.000000000000000000 ) ) ;
#639 = LINE ( 'NONE', #971, #996 ) ;
#640 = CARTESIAN_POINT ( 'NONE',  ( 37.59999999999999432, -0.2999999999999999334, -2.899999999999999911 ) ) ;
#641 = DIRECTION ( 'NONE',  ( 0.000000000000000000, 0.000000000000000000, 1.000000000000000000 ) ) ;
#642 = VERTEX_POINT ( 'NONE', #808 ) ;
#643 = LINE ( 'NONE', #913, #228 ) ;
#644 = LINE ( 'NONE', #513, #980 ) ;
#645 = EDGE_CURVE ( 'NONE', #467, #274, #340, .T. ) ;
#646 = DIRECTION ( 'NONE',  ( -0.000000000000000000, -0.000000000000000000, 1.000000000000000000 ) ) ;
#647 = ADVANCED_FACE ( 'NONE', ( #814 ), #526, .F. ) ;
#648 = ORIENTED_EDGE ( 'NONE', *, *, #503, .T. ) ;
#649 = DIRECTION ( 'NONE',  ( -0.000000000000000000, 1.000000000000000000, -0.000000000000000000 ) ) ;
#650 = DIRECTION ( 'NONE',  ( 0.000000000000000000, 1.000000000000000000, 0.000000000000000000 ) ) ;
#651 = VECTOR ( 'NONE', #1088, 1000.000000000000000 ) ;
#652 = ORIENTED_EDGE ( 'NONE', *, *, #514, .F. ) ;
#653 = ORIENTED_EDGE ( 'NONE', *, *, #546, .F. ) ;
#654 = CARTESIAN_POINT ( 'NONE',  ( 5.250000000000000888, -7.400000000000000355, -3.250000000000000444 ) ) ;
#655 = CARTESIAN_POINT ( 'NONE',  ( 11.89999999999999325, 0.4999999999999935052, 0.000000000000000000 ) ) ;
#656 = ORIENTED_EDGE ( 'NONE', *, *, #74, .T. ) ;
#657 = FACE_OUTER_BOUND ( 'NONE', #862, .T. ) ;
#658 = EDGE_CURVE ( 'NONE', #706, #642, #429, .T. ) ;
#659 = CARTESIAN_POINT ( 'NONE',  ( 75.00000000000000000, 1.199999999999999956, -22.59999999999999432 ) ) ;
#660 = VERTEX_POINT ( 'NONE', #160 ) ;
#661 = EDGE_CURVE ( 'NONE', #1062, #549, #1007, .T. ) ;
#662 = LINE ( 'NONE', #675, #430 ) ;
#663 = DIRECTION ( 'NONE',  ( -0.000000000000000000, -0.000000000000000000, -1.000000000000000000 ) ) ;
#664 = ORIENTED_EDGE ( 'NONE', *, *, #323, .F. ) ;
#665 = DIRECTION ( 'NONE',  ( -0.7071067811865426878, 0.000000000000000000, -0.7071067811865524577 ) ) ;
#666 = LINE ( 'NONE', #570, #899 ) ;
#667 = EDGE_CURVE ( 'NONE', #372, #760, #85, .T. ) ;
#668 = CARTESIAN_POINT ( 'NONE',  ( 11.89999999999999325, 0.4999999999999935052, -3.000000000000000000 ) ) ;
#669 = EDGE_LOOP ( 'NONE', ( #501, #83, #1137, #648 ) ) ;
#670 = LINE ( 'NONE', #1213, #854 ) ;
#671 = EDGE_CURVE ( 'NONE', #103, #961, #100, .T. ) ;
#672 = DIRECTION ( 'NONE',  ( 0.9902680687415708061, 0.1391731009600624958, 0.000000000000000000 ) ) ;
#673 = CARTESIAN_POINT ( 'NONE',  ( 75.00000000000000000, 8.199999999999999289, -19.59999999999999787 ) ) ;
#674 = ORIENTED_EDGE ( 'NONE', *, *, #518, .T. ) ;
#675 = CARTESIAN_POINT ( 'NONE',  ( 5.000000000000000000, 1.199999999999997957, -3.500000000000000444 ) ) ;
#676 = FACE_OUTER_BOUND ( 'NONE', #524, .T. ) ;
#677 = VECTOR ( 'NONE', #785, 1000.000000000000000 ) ;
#678 = CARTESIAN_POINT ( 'NONE',  ( 5.250000000000000888, 2.600000000000000089, -3.250000000000000444 ) ) ;
#679 = ORIENTED_EDGE ( 'NONE', *, *, #687, .T. ) ;
#680 = ORIENTED_EDGE ( 'NONE', *, *, #323, .T. ) ;
#681 = VECTOR ( 'NONE', #1174, 1000.000000000000000 ) ;
#682 = CARTESIAN_POINT ( 'NONE',  ( 75.00000000000000000, 8.199999999999999289, -22.59999999999999787 ) ) ;
#683 = LINE ( 'NONE', #504, #1053 ) ;
#684 = LINE ( 'NONE', #374, #285 ) ;
#685 = CARTESIAN_POINT ( 'NONE',  ( 72.00000000000000000, 4.599999999999999645, 0.000000000000000000 ) ) ;
#686 = ORIENTED_EDGE ( 'NONE', *, *, #376, .F. ) ;
#687 = EDGE_CURVE ( 'NONE', #923, #1205, #1020, .T. ) ;
#688 = ORIENTED_EDGE ( 'NONE', *, *, #1139, .F. ) ;
#689 = CARTESIAN_POINT ( 'NONE',  ( 0.000000000000000000, 8.199999999999999289, -20.09999999999999432 ) ) ;
#690 = ADVANCED_FACE ( 'NONE', ( #281 ), #573, .T. ) ;
#691 = DIRECTION ( 'NONE',  ( 0.000000000000000000, 0.000000000000000000, -1.000000000000000000 ) ) ;
#692 = LINE ( 'NONE', #13, #426 ) ;
#693 = ORIENTED_EDGE ( 'NONE', *, *, #816, .F. ) ;
#694 = ORIENTED_EDGE ( 'NONE', *, *, #796, .T. ) ;
#695 = CARTESIAN_POINT ( 'NONE',  ( 11.89999999999999325, 2.299999999999999822, -3.500000000000000444 ) ) ;
#696 = CARTESIAN_POINT ( 'NONE',  ( 72.00000000000000000, 2.600000000000000089, -8.000000000000000000 ) ) ;
#697 = PRODUCT_CONTEXT ( 'NONE', #55, 'mechanical' ) ;
#698 = ORIENTED_EDGE ( 'NONE', *, *, #1091, .F. ) ;
#699 = ORIENTED_EDGE ( 'NONE', *, *, #417, .T. ) ;
#700 = AXIS2_PLACEMENT_3D ( 'NONE', #24, #19, #956 ) ;
#701 = CARTESIAN_POINT ( 'NONE',  ( 0.000000000000000000, 4.599999999999999645, 0.000000000000000000 ) ) ;
#702 = VECTOR ( 'NONE', #665, 1000.000000000000000 ) ;
#703 = CARTESIAN_POINT ( 'NONE',  ( 11.89999999999999325, 0.8999999999999980238, -6.500000000000000888 ) ) ;
#704 = VERTEX_POINT ( 'NONE', #858 ) ;
#705 = EDGE_CURVE ( 'NONE', #47, #500, #754, .T. ) ;
#706 = VERTEX_POINT ( 'NONE', #292 ) ;
#707 = FACE_OUTER_BOUND ( 'NONE', #1159, .T. ) ;
#708 = PLANE ( 'NONE',  #781 ) ;
#709 = EDGE_CURVE ( 'NONE', #446, #706, #662, .T. ) ;
#710 = VERTEX_POINT ( 'NONE', #209 ) ;
#711 = ORIENTED_EDGE ( 'NONE', *, *, #866, .T. ) ;
#712 = DIRECTION ( 'NONE',  ( 0.000000000000000000, 0.000000000000000000, -1.000000000000000000 ) ) ;
#713 = CARTESIAN_POINT ( 'NONE',  ( 75.00000000000000000, 2.600000000000000089, 0.000000000000000000 ) ) ;
#714 = DIRECTION ( 'NONE',  ( -0.000000000000000000, -7.065269995080883413E-18, -1.000000000000000000 ) ) ;
#715 = CARTESIAN_POINT ( 'NONE',  ( 0.4999999999999865663, 4.649999999999999467, -19.59999999999999787 ) ) ;
#716 = PRODUCT_RELATED_PRODUCT_CATEGORY ( 'part', '', ( #148 ) ) ;
#717 = ORIENTED_EDGE ( 'NONE', *, *, #583, .T. ) ;
#718 = VERTEX_POINT ( 'NONE', #952 ) ;
#719 = VECTOR ( 'NONE', #294, 1000.000000000000000 ) ;
#720 = CARTESIAN_POINT ( 'NONE',  ( 37.59999999999999432, -0.2999999999999999334, -2.899999999999999911 ) ) ;
#721 = AXIS2_PLACEMENT_3D ( 'NONE', #925, #182, #1112 ) ;
#722 = DIRECTION ( 'NONE',  ( -0.1391731009600624958, 0.000000000000000000, 0.9902680687415708061 ) ) ;
#723 = AXIS2_PLACEMENT_3D ( 'NONE', #44, #1082, #329 ) ;
#724 = VERTEX_POINT ( 'NONE', #8 ) ;
#725 = EDGE_CURVE ( 'NONE', #99, #527, #379, .T. ) ;
#726 = CARTESIAN_POINT ( 'NONE',  ( 12.39999999999999503, 0.000000000000000000, 0.000000000000000000 ) ) ;
#727 = DIRECTION ( 'NONE',  ( 0.000000000000000000, 0.000000000000000000, -1.000000000000000000 ) ) ;
#728 = CARTESIAN_POINT ( 'NONE',  ( 16.89999999999999858, 2.600000000000000089, -3.000000000000000000 ) ) ;
#729 = EDGE_CURVE ( 'NONE', #239, #480, #119, .T. ) ;
#730 = PLANE ( 'NONE',  #757 ) ;
#731 = ORIENTED_EDGE ( 'NONE', *, *, #609, .F. ) ;
#732 = CARTESIAN_POINT ( 'NONE',  ( 75.00000000000000000, 1.199999999999997513, -2.999999999999999112 ) ) ;
#733 = DIRECTION ( 'NONE',  ( 1.000000000000000000, 0.000000000000000000, -0.000000000000000000 ) ) ;
#734 = ORIENTED_EDGE ( 'NONE', *, *, #221, .F. ) ;
#735 = VERTEX_POINT ( 'NONE', #762 ) ;
#736 = FACE_OUTER_BOUND ( 'NONE', #990, .T. ) ;
#737 = MECHANICAL_DESIGN_GEOMETRIC_PRESENTATION_REPRESENTATION (  '', ( #976 ), #247 ) ;
#738 = VECTOR ( 'NONE', #317, 1000.000000000000000 ) ;
#739 = VECTOR ( 'NONE', #386, 1000.000000000000000 ) ;
#740 = PLANE ( 'NONE',  #615 ) ;
#741 = ORIENTED_EDGE ( 'NONE', *, *, #124, .F. ) ;
#742 = EDGE_CURVE ( 'NONE', #660, #197, #670, .T. ) ;
#743 = CARTESIAN_POINT ( 'NONE',  ( 39.73461091671529033, 0.000000000000000000, 0.000000000000000000 ) ) ;
#744 = CARTESIAN_POINT ( 'NONE',  ( 0.4999999999999865663, 1.199999999999999956, -22.59999999999999432 ) ) ;
#745 = LINE ( 'NONE', #556, #250 ) ;
#746 = ADVANCED_FACE ( 'NONE', ( #96 ), #17, .T. ) ;
#747 =( BOUNDED_CURVE ( )  B_SPLINE_CURVE ( 3, ( #576, #1192, #997, #63 ),
 .UNSPECIFIED., .F., .T. ) 
 B_SPLINE_CURVE_WITH_KNOTS ( ( 4, 4 ),
 ( 3.141592653589793116, 4.712388980384689674 ),
 .UNSPECIFIED. ) 
 CURVE ( )  GEOMETRIC_REPRESENTATION_ITEM ( )  RATIONAL_B_SPLINE_CURVE ( ( 1.000000000000000000, 0.8047378541243649375, 0.8047378541243649375, 1.000000000000000000 ) ) 
 REPRESENTATION_ITEM ( '' )  );
#748 = ORIENTED_EDGE ( 'NONE', *, *, #667, .F. ) ;
#749 = CARTESIAN_POINT ( 'NONE',  ( 5.000000000000000000, 1.199999999999997957, -6.750000000000000888 ) ) ;
#750 = FACE_OUTER_BOUND ( 'NONE', #991, .T. ) ;
#751 = EDGE_CURVE ( 'NONE', #197, #1068, #188, .T. ) ;
#752 = SURFACE_STYLE_USAGE ( .BOTH. , #375 ) ;
#753 = ORIENTED_EDGE ( 'NONE', *, *, #588, .T. ) ;
#754 = LINE ( 'NONE', #278, #1095 ) ;
#755 = VECTOR ( 'NONE', #58, 1000.000000000000000 ) ;
#756 = DIRECTION ( 'NONE',  ( 0.000000000000000000, 0.000000000000000000, -1.000000000000000000 ) ) ;
#757 = AXIS2_PLACEMENT_3D ( 'NONE', #1105, #931, #371 ) ;
#758 = LINE ( 'NONE', #966, #933 ) ;
#759 = VERTEX_POINT ( 'NONE', #744 ) ;
#760 = VERTEX_POINT ( 'NONE', #476 ) ;
#761 = ADVANCED_FACE ( 'NONE', ( #22 ), #470, .F. ) ;
#762 = CARTESIAN_POINT ( 'NONE',  ( 16.89999999999999858, 1.199999999999997957, -3.000000000000000000 ) ) ;
#763 = DIRECTION ( 'NONE',  ( 0.000000000000000000, -1.000000000000000000, 0.000000000000000000 ) ) ;
#764 = DIRECTION ( 'NONE',  ( -1.000000000000000000, -0.000000000000000000, -0.000000000000000000 ) ) ;
#765 = ORIENTED_EDGE ( 'NONE', *, *, #217, .T. ) ;
#766 = DIRECTION ( 'NONE',  ( -0.7071067811865574537, -0.7071067811865376918, -8.433113791758441896E-17 ) ) ;
#767 = EDGE_CURVE ( 'NONE', #389, #660, #937, .T. ) ;
#768 = CARTESIAN_POINT ( 'NONE',  ( 5.000000000000000000, -7.400000000000000355, -7.000000000000000000 ) ) ;
#769 = DIRECTION ( 'NONE',  ( 0.000000000000000000, 0.000000000000000000, 1.000000000000000000 ) ) ;
#770 = LINE ( 'NONE', #1142, #381 ) ;
#771 = ORIENTED_EDGE ( 'NONE', *, *, #1016, .F. ) ;
#772 = EDGE_LOOP ( 'NONE', ( #1076, #1106, #973, #507 ) ) ;
#773 = CARTESIAN_POINT ( 'NONE',  ( 75.00000000000000000, 2.600000000000000089, -8.000000000000000000 ) ) ;
#774 = LINE ( 'NONE', #39, #511 ) ;
#775 = DIRECTION ( 'NONE',  ( -0.000000000000000000, -1.000000000000000000, -0.000000000000000000 ) ) ;
#776 = DIRECTION ( 'NONE',  ( 0.000000000000000000, 0.000000000000000000, 1.000000000000000000 ) ) ;
#777 = VERTEX_POINT ( 'NONE', #1032 ) ;
#778 = CLOSED_SHELL ( 'NONE', ( #888, #1212, #947, #984, #378, #624, #1034, #275, #1109, #169, #647, #288, #1160, #16, #443, #104, #761, #574, #911, #254, #259, #143, #929, #831, #871, #351, #746, #690, #1086, #33, #312, #857, #346, #78, #330, #848, #360, #10, #627 ) ) ;
#779 = EDGE_CURVE ( 'NONE', #500, #335, #1038, .T. ) ;
#780 = EDGE_LOOP ( 'NONE', ( #1092, #42, #1125, #202 ) ) ;
#781 = AXIS2_PLACEMENT_3D ( 'NONE', #540, #60, #620 ) ;
#782 = DIRECTION ( 'NONE',  ( 0.000000000000000000, -1.000000000000000000, 0.000000000000000000 ) ) ;
#783 = CARTESIAN_POINT ( 'NONE',  ( 75.00000000000000000, 4.649999999999999467, -19.59999999999999787 ) ) ;
#784 = CARTESIAN_POINT ( 'NONE',  ( 72.00000000000000000, 2.600000000000000089, 0.000000000000000000 ) ) ;
#785 = DIRECTION ( 'NONE',  ( -1.000000000000000000, -0.000000000000000000, -0.000000000000000000 ) ) ;
#786 = ORIENTED_EDGE ( 'NONE', *, *, #606, .F. ) ;
#787 = ORIENTED_EDGE ( 'NONE', *, *, #146, .T. ) ;
#788 = CARTESIAN_POINT ( 'NONE',  ( 5.000000000000000000, 2.600000000000000089, -6.750000000000000000 ) ) ;
#789 = DIRECTION ( 'NONE',  ( -1.000000000000000000, -0.000000000000000000, -0.000000000000000000 ) ) ;
#790 = CARTESIAN_POINT ( 'NONE',  ( 75.00000000000000000, 1.199999999999999956, -22.59999999999999432 ) ) ;
#791 = LINE ( 'NONE', #715, #1049 ) ;
#792 = VERTEX_POINT ( 'NONE', #948 ) ;
#793 = ORIENTED_EDGE ( 'NONE', *, *, #59, .F. ) ;
#794 = DIRECTION ( 'NONE',  ( -1.000000000000000000, -0.000000000000000000, -0.000000000000000000 ) ) ;
#795 = LINE ( 'NONE', #114, #1191 ) ;
#796 = EDGE_CURVE ( 'NONE', #418, #47, #106, .T. ) ;
#797 = ORIENTED_EDGE ( 'NONE', *, *, #364, .T. ) ;
#798 = AXIS2_PLACEMENT_3D ( 'NONE', #345, #171, #255 ) ;
#799 = VERTEX_POINT ( 'NONE', #419 ) ;
#800 = VECTOR ( 'NONE', #763, 1000.000000000000000 ) ;
#801 = CYLINDRICAL_SURFACE ( 'NONE', #1146, 0.2500000000000002220 ) ;
#802 = VECTOR ( 'NONE', #1078, 1000.000000000000000 ) ;
#803 = EDGE_CURVE ( 'NONE', #922, #27, #982, .T. ) ;
#804 = DIRECTION ( 'NONE',  ( -1.000000000000000000, -0.000000000000000000, -0.000000000000000000 ) ) ;
#805 = ORIENTED_EDGE ( 'NONE', *, *, #1162, .T. ) ;
#806 = ORIENTED_EDGE ( 'NONE', *, *, #538, .T. ) ;
#807 = LINE ( 'NONE', #262, #552 ) ;
#808 = CARTESIAN_POINT ( 'NONE',  ( 11.89999999999999325, 2.299999999999999822, -3.500000000000000444 ) ) ;
#809 = CARTESIAN_POINT ( 'NONE',  ( 75.00000000000000000, 4.649999999999999467, -19.59999999999999787 ) ) ;
#810 = ORIENTED_EDGE ( 'NONE', *, *, #779, .F. ) ;
#811 = ORIENTED_EDGE ( 'NONE', *, *, #475, .F. ) ;
#812 = FACE_OUTER_BOUND ( 'NONE', #840, .T. ) ;
#813 = PLANE ( 'NONE',  #466 ) ;
#814 = FACE_OUTER_BOUND ( 'NONE', #941, .T. ) ;
#815 = SHAPE_DEFINITION_REPRESENTATION ( #875, #872 ) ;
#816 = EDGE_CURVE ( 'NONE', #481, #1110, #142, .T. ) ;
#817 = ORIENTED_EDGE ( 'NONE', *, *, #892, .T. ) ;
#818 = PLANE ( 'NONE',  #130 ) ;
#819 = EDGE_CURVE ( 'NONE', #1166, #710, #158, .T. ) ;
#820 = CARTESIAN_POINT ( 'NONE',  ( 75.00000000000000000, 4.599999999999999645, -8.000000000000000000 ) ) ;
#821 = VECTOR ( 'NONE', #864, 1000.000000000000000 ) ;
#822 = CARTESIAN_POINT ( 'NONE',  ( 75.00000000000000000, 4.649999999999999467, -8.000000000000000000 ) ) ;
#823 = ORIENTED_EDGE ( 'NONE', *, *, #238, .F. ) ;
#824 = ORIENTED_EDGE ( 'NONE', *, *, #1177, .T. ) ;
#825 = CARTESIAN_POINT ( 'NONE',  ( 0.4999999999999852895, 1.199999999999998623, 0.000000000000000000 ) ) ;
#826 = DIRECTION ( 'NONE',  ( -1.000000000000000000, 0.000000000000000000, -0.000000000000000000 ) ) ;
#827 = DIRECTION ( 'NONE',  ( -1.000000000000000000, -0.000000000000000000, -0.000000000000000000 ) ) ;
#828 = DIRECTION ( 'NONE',  ( 0.000000000000000000, 1.000000000000000000, -0.000000000000000000 ) ) ;
#829 = ORIENTED_EDGE ( 'NONE', *, *, #1022, .F. ) ;
#830 = CARTESIAN_POINT ( 'NONE',  ( 72.00000000000000000, 4.599999999999999645, -8.000000000000000000 ) ) ;
#831 = ADVANCED_FACE ( 'NONE', ( #599 ), #1167, .T. ) ;
#832 = ORIENTED_EDGE ( 'NONE', *, *, #1016, .T. ) ;
#833 = ORIENTED_EDGE ( 'NONE', *, *, #217, .F. ) ;
#834 = PLANE ( 'NONE',  #632 ) ;
#835 = CIRCLE ( 'NONE', #348, 0.2500000000000002220 ) ;
#836 = EDGE_CURVE ( 'NONE', #1081, #235, #222, .T. ) ;
#837 = VECTOR ( 'NONE', #172, 1000.000000000000000 ) ;
#838 = VECTOR ( 'NONE', #827, 1000.000000000000000 ) ;
#839 = LINE ( 'NONE', #713, #938 ) ;
#840 = EDGE_LOOP ( 'NONE', ( #227, #628, #404, #591, #578, #291, #1130 ) ) ;
#841 = CARTESIAN_POINT ( 'NONE',  ( 5.000000000000000888, -7.400000000000000355, -3.000000000000000000 ) ) ;
#842 = LINE ( 'NONE', #1123, #800 ) ;
#843 = FILL_AREA_STYLE ('',( #1101 ) ) ;
#844 = ORIENTED_EDGE ( 'NONE', *, *, #124, .T. ) ;
#845 = DIRECTION ( 'NONE',  ( 0.000000000000000000, -7.065269995080883413E-18, -1.000000000000000000 ) ) ;
#846 = CARTESIAN_POINT ( 'NONE',  ( 11.89999999999999325, 1.199999999999999956, 0.000000000000000000 ) ) ;
#847 = CARTESIAN_POINT ( 'NONE',  ( 11.89999999999999325, 0.8999999999999980238, -3.500000000000000444 ) ) ;
#848 = ADVANCED_FACE ( 'NONE', ( #707 ), #987, .T. ) ;
#849 = ORIENTED_EDGE ( 'NONE', *, *, #569, .F. ) ;
#850 = EDGE_CURVE ( 'NONE', #1041, #389, #1077, .T. ) ;
#851 = CARTESIAN_POINT ( 'NONE',  ( 5.250000000000000000, 2.600000000000000089, -6.750000000000000000 ) ) ;
#852 = VECTOR ( 'NONE', #290, 1000.000000000000000 ) ;
#853 = CARTESIAN_POINT ( 'NONE',  ( 11.89999999999999325, 2.299999999999999822, -3.500000000000000444 ) ) ;
#854 = VECTOR ( 'NONE', #1126, 1000.000000000000114 ) ;
#855 = LINE ( 'NONE', #1136, #151 ) ;
#856 = ORIENTED_EDGE ( 'NONE', *, *, #183, .T. ) ;
#857 = ADVANCED_FACE ( 'NONE', ( #1145 ), #801, .F. ) ;
#858 = CARTESIAN_POINT ( 'NONE',  ( 5.250000000000000000, 2.589130434782608514, -6.500000000000000888 ) ) ;
#859 = CARTESIAN_POINT ( 'NONE',  ( 5.250000000000000000, 2.589130434782608514, -6.500000000000000888 ) ) ;
#860 = FACE_OUTER_BOUND ( 'NONE', #276, .T. ) ;
#861 = ORIENTED_EDGE ( 'NONE', *, *, #1000, .F. ) ;
#862 = EDGE_LOOP ( 'NONE', ( #326, #1178, #519, #968, #334, #1014, #1152, #891, #811, #509 ) ) ;
#863 = DIRECTION ( 'NONE',  ( 0.000000000000000000, 1.000000000000000000, 0.000000000000000000 ) ) ;
#864 = DIRECTION ( 'NONE',  ( -0.000000000000000000, -1.000000000000000000, -0.000000000000000000 ) ) ;
#865 = CARTESIAN_POINT ( 'NONE',  ( 37.74999999999895550, 39.85000000000000142, -8.000000000000000000 ) ) ;
#866 = EDGE_CURVE ( 'NONE', #88, #660, #236, .T. ) ;
#867 = CARTESIAN_POINT ( 'NONE',  ( 5.250000000000000888, 2.600000000000000089, -3.000000000000000000 ) ) ;
#868 = ORIENTED_EDGE ( 'NONE', *, *, #926, .F. ) ;
#869 = ORIENTED_EDGE ( 'NONE', *, *, #97, .T. ) ;
#870 = LINE ( 'NONE', #321, #93 ) ;
#871 = ADVANCED_FACE ( 'NONE', ( #970 ), #887, .F. ) ;
#872 = ADVANCED_BREP_SHAPE_REPRESENTATION ( 'clip support PV', ( #953, #1187 ), #508 ) ;
#873 = DIRECTION ( 'NONE',  ( -0.9902680687415708061, 1.659809562536886520E-17, -0.1391731009600624958 ) ) ;
#874 = AXIS2_PLACEMENT_3D ( 'NONE', #516, #152, #903 ) ;
#875 = PRODUCT_DEFINITION_SHAPE ( 'NONE', 'NONE',  #1202 ) ;
#876 = DIRECTION ( 'NONE',  ( 0.000000000000000000, 0.000000000000000000, 1.000000000000000000 ) ) ;
#877 = CARTESIAN_POINT ( 'NONE',  ( 5.000000000000000000, 2.600000000000000089, -7.000000000000000000 ) ) ;
#878 = ORIENTED_EDGE ( 'NONE', *, *, #1135, .T. ) ;
#879 = VECTOR ( 'NONE', #955, 1000.000000000000000 ) ;
#880 = CARTESIAN_POINT ( 'NONE',  ( 5.250000000000000888, 0.000000000000000000, -3.500000000000000444 ) ) ;
#881 = LINE ( 'NONE', #783, #958 ) ;
#882 = FACE_OUTER_BOUND ( 'NONE', #1204, .T. ) ;
#883 = EDGE_CURVE ( 'NONE', #527, #481, #427, .T. ) ;
#884 = FACE_OUTER_BOUND ( 'NONE', #985, .T. ) ;
#885 = ORIENTED_EDGE ( 'NONE', *, *, #1215, .T. ) ;
#886 = ORIENTED_EDGE ( 'NONE', *, *, #803, .F. ) ;
#887 = PLANE ( 'NONE',  #954 ) ;
#888 = ADVANCED_FACE ( 'NONE', ( #974 ), #336, .F. ) ;
#889 = LINE ( 'NONE', #45, #176 ) ;
#890 = DIRECTION ( 'NONE',  ( -0.000000000000000000, 1.000000000000000000, 1.192622389734055124E-16 ) ) ;
#891 = ORIENTED_EDGE ( 'NONE', *, *, #82, .T. ) ;
#892 = EDGE_CURVE ( 'NONE', #718, #446, #530, .T. ) ;
#893 = ORIENTED_EDGE ( 'NONE', *, *, #186, .T. ) ;
#894 = DIRECTION ( 'NONE',  ( 0.7071067811865426878, 0.000000000000000000, 0.7071067811865524577 ) ) ;
#895 = DIRECTION ( 'NONE',  ( 0.000000000000000000, -1.000000000000000000, 0.000000000000000000 ) ) ;
#896 = ORIENTED_EDGE ( 'NONE', *, *, #52, .T. ) ;
#897 = AXIS2_PLACEMENT_3D ( 'NONE', #673, #225, #581 ) ;
#898 = ORIENTED_EDGE ( 'NONE', *, *, #671, .T. ) ;
#899 = VECTOR ( 'NONE', #491, 1000.000000000000000 ) ;
#900 = LINE ( 'NONE', #397, #629 ) ;
#901 = VECTOR ( 'NONE', #306, 1000.000000000000114 ) ;
#902 = FACE_OUTER_BOUND ( 'NONE', #603, .T. ) ;
#903 = DIRECTION ( 'NONE',  ( 1.000000000000000000, 0.000000000000000000, 0.000000000000000000 ) ) ;
#904 = ORIENTED_EDGE ( 'NONE', *, *, #1073, .T. ) ;
#905 = ORIENTED_EDGE ( 'NONE', *, *, #588, .F. ) ;
#906 = CARTESIAN_POINT ( 'NONE',  ( 0.000000000000000000, 0.000000000000000000, -3.500000000000000444 ) ) ;
#907 = EDGE_CURVE ( 'NONE', #598, #1110, #900, .T. ) ;
#908 = CARTESIAN_POINT ( 'NONE',  ( 0.000000000000000000, 0.000000000000000000, 0.000000000000000000 ) ) ;
#909 = PLANE ( 'NONE',  #874 ) ;
#910 = ORIENTED_EDGE ( 'NONE', *, *, #964, .T. ) ;
#911 = ADVANCED_FACE ( 'NONE', ( #510 ), #123, .F. ) ;
#912 = ORIENTED_EDGE ( 'NONE', *, *, #1070, .F. ) ;
#913 = CARTESIAN_POINT ( 'NONE',  ( 5.000000000000000000, 1.199999999999997957, -6.500000000000000888 ) ) ;
#914 = CARTESIAN_POINT ( 'NONE',  ( 11.89999999999999325, 0.4999999999999935052, -2.600000000000000089 ) ) ;
#915 = DIRECTION ( 'NONE',  ( -0.000000000000000000, 1.000000000000000000, -0.000000000000000000 ) ) ;
#916 = CYLINDRICAL_SURFACE ( 'NONE', #590, 0.2500000000000002220 ) ;
#917 = EDGE_LOOP ( 'NONE', ( #1098, #396, #542, #741 ) ) ;
#918 = VECTOR ( 'NONE', #649, 1000.000000000000000 ) ;
#919 = DIRECTION ( 'NONE',  ( 0.000000000000000000, -1.000000000000000000, 0.000000000000000000 ) ) ;
#920 = AXIS2_PLACEMENT_3D ( 'NONE', #906, #876, #733 ) ;
#921 = CARTESIAN_POINT ( 'NONE',  ( 37.59999999999999432, 0.000000000000000000, -2.899999999999998135 ) ) ;
#922 = VERTEX_POINT ( 'NONE', #413 ) ;
#923 = VERTEX_POINT ( 'NONE', #788 ) ;
#924 = LINE ( 'NONE', #84, #303 ) ;
#925 = CARTESIAN_POINT ( 'NONE',  ( 35.26538908328470256, 1.199999999999997513, -2.600000000000000089 ) ) ;
#926 = EDGE_CURVE ( 'NONE', #335, #61, #870, .T. ) ;
#927 = DIRECTION ( 'NONE',  ( -0.000000000000000000, 1.000000000000000000, 0.000000000000000000 ) ) ;
#928 = ORIENTED_EDGE ( 'NONE', *, *, #926, .T. ) ;
#929 = ADVANCED_FACE ( 'NONE', ( #1005 ), #1216, .F. ) ;
#930 = CARTESIAN_POINT ( 'NONE',  ( 5.000000000000000000, 1.199999999999997957, -6.750000000000000888 ) ) ;
#931 = DIRECTION ( 'NONE',  ( -0.1391731009600624958, 0.9902680687415708061, -6.996511273166514407E-18 ) ) ;
#932 = ORIENTED_EDGE ( 'NONE', *, *, #658, .F. ) ;
#933 = VECTOR ( 'NONE', #499, 1000.000000000000000 ) ;
#934 = EDGE_CURVE ( 'NONE', #493, #117, #807, .T. ) ;
#935 = CARTESIAN_POINT ( 'NONE',  ( 0.4999999999999865663, 4.649999999999999467, -19.59999999999999787 ) ) ;
#936 = VECTOR ( 'NONE', #120, 1000.000000000000000 ) ;
#937 = LINE ( 'NONE', #373, #1171 ) ;
#938 = VECTOR ( 'NONE', #159, 1000.000000000000000 ) ;
#939 = AXIS2_PLACEMENT_3D ( 'NONE', #633, #895, #50 ) ;
#940 = CARTESIAN_POINT ( 'NONE',  ( 0.4999999999999865663, 4.649999999999999467, -19.59999999999999787 ) ) ;
#941 = EDGE_LOOP ( 'NONE', ( #893, #129, #731, #141, #118 ) ) ;
#942 = CARTESIAN_POINT ( 'NONE',  ( 0.4999999999999865663, 1.199999999999999956, -22.59999999999999432 ) ) ;
#943 = EDGE_CURVE ( 'NONE', #356, #467, #924, .T. ) ;
#944 = LINE ( 'NONE', #478, #1169 ) ;
#945 = DIRECTION ( 'NONE',  ( -0.000000000000000000, 1.000000000000000000, -0.000000000000000000 ) ) ;
#946 = VERTEX_POINT ( 'NONE', #726 ) ;
#947 = ADVANCED_FACE ( 'NONE', ( #157, #267 ), #818, .F. ) ;
#948 = CARTESIAN_POINT ( 'NONE',  ( 35.26538908328470256, 1.199999999999997513, -2.600000000000000089 ) ) ;
#949 = DIRECTION ( 'NONE',  ( -0.000000000000000000, -0.000000000000000000, 1.000000000000000000 ) ) ;
#950 = LINE ( 'NONE', #484, #677 ) ;
#951 = VERTEX_POINT ( 'NONE', #473 ) ;
#952 = CARTESIAN_POINT ( 'NONE',  ( 5.250000000000000888, 2.589130434782608514, -3.500000000000000444 ) ) ;
#953 = MANIFOLD_SOLID_BREP ( 'Chanfrein3', #778 ) ;
#954 = AXIS2_PLACEMENT_3D ( 'NONE', #525, #1173, #315 ) ;
#955 = DIRECTION ( 'NONE',  ( 0.000000000000000000, 0.000000000000000000, 1.000000000000000000 ) ) ;
#956 = DIRECTION ( 'NONE',  ( 0.000000000000000000, 0.000000000000000000, 1.000000000000000000 ) ) ;
#957 = AXIS2_PLACEMENT_3D ( 'NONE', #498, #769, #4 ) ;
#958 = VECTOR ( 'NONE', #789, 1000.000000000000000 ) ;
#959 = FACE_OUTER_BOUND ( 'NONE', #244, .T. ) ;
#960 = ORIENTED_EDGE ( 'NONE', *, *, #709, .F. ) ;
#961 = VERTEX_POINT ( 'NONE', #1184 ) ;
#962 = CARTESIAN_POINT ( 'NONE',  ( 37.59999999999999432, -0.2999999999999999334, -2.899999999999999911 ) ) ;
#963 =( BOUNDED_CURVE ( )  B_SPLINE_CURVE ( 3, ( #859, #983, #125, #521 ),
 .UNSPECIFIED., .F., .T. ) 
 B_SPLINE_CURVE_WITH_KNOTS ( ( 4, 4 ),
 ( 4.712388980384689674, 6.283185307179582679 ),
 .UNSPECIFIED. ) 
 CURVE ( )  GEOMETRIC_REPRESENTATION_ITEM ( )  RATIONAL_B_SPLINE_CURVE ( ( 1.000000000000000000, 0.8047378541243649375, 0.8047378541243649375, 1.000000000000000000 ) ) 
 REPRESENTATION_ITEM ( '' )  );
#964 = EDGE_CURVE ( 'NONE', #951, #718, #747, .T. ) ;
#965 = DIRECTION ( 'NONE',  ( 0.000000000000000000, 1.000000000000000000, -0.000000000000000000 ) ) ;
#966 = CARTESIAN_POINT ( 'NONE',  ( 75.00000000000000000, 0.000000000000000000, 0.000000000000000000 ) ) ;
#967 = EDGE_LOOP ( 'NONE', ( #810, #432, #664, #868 ) ) ;
#968 = ORIENTED_EDGE ( 'NONE', *, *, #989, .T. ) ;
#969 = EDGE_CURVE ( 'NONE', #735, #549, #440, .T. ) ;
#970 = FACE_OUTER_BOUND ( 'NONE', #1030, .T. ) ;
#971 = CARTESIAN_POINT ( 'NONE',  ( 11.89999999999999325, 0.4999999999999935052, 0.000000000000000000 ) ) ;
#972 = LINE ( 'NONE', #108, #365 ) ;
#973 = ORIENTED_EDGE ( 'NONE', *, *, #286, .T. ) ;
#974 = FACE_OUTER_BOUND ( 'NONE', #669, .T. ) ;
#975 = LINE ( 'NONE', #1199, #681 ) ;
#976 = STYLED_ITEM ( 'NONE', ( #1124 ), #953 ) ;
#977 = CARTESIAN_POINT ( 'NONE',  ( 5.000000000000000000, 2.600000000000000089, -3.500000000000000444 ) ) ;
#978 = CARTESIAN_POINT ( 'NONE',  ( 5.250000000000000000, 1.199999999999997957, -6.750000000000000000 ) ) ;
#979 = ORIENTED_EDGE ( 'NONE', *, *, #705, .T. ) ;
#980 = VECTOR ( 'NONE', #79, 1000.000000000000000 ) ;
#981 = ORIENTED_EDGE ( 'NONE', *, *, #1073, .F. ) ;
#982 = LINE ( 'NONE', #682, #469 ) ;
#983 = CARTESIAN_POINT ( 'NONE',  ( 5.103553390593273953, 2.595497678669858477, -6.500000000000001776 ) ) ;
#984 = ADVANCED_FACE ( 'NONE', ( #812 ), #1094, .F. ) ;
#985 = EDGE_LOOP ( 'NONE', ( #786, #869, #979, #565, #806 ) ) ;
#986 = ORIENTED_EDGE ( 'NONE', *, *, #1121, .T. ) ;
#987 = PLANE ( 'NONE',  #723 ) ;
#988 = LINE ( 'NONE', #258, #1209 ) ;
#989 = EDGE_CURVE ( 'NONE', #724, #792, #196, .T. ) ;
#990 = EDGE_LOOP ( 'NONE', ( #693, #485, #1067, #1183 ) ) ;
#991 = EDGE_LOOP ( 'NONE', ( #771, #1085, #1189, #1201 ) ) ;
#992 = DIRECTION ( 'NONE',  ( 0.000000000000000000, 1.000000000000000000, 0.000000000000000000 ) ) ;
#993 = LINE ( 'NONE', #150, #802 ) ;
#994 = ORIENTED_EDGE ( 'NONE', *, *, #609, .T. ) ;
#995 = EDGE_LOOP ( 'NONE', ( #7, #1080, #1196, #653, #226, #824 ) ) ;
#996 = VECTOR ( 'NONE', #1006, 1000.000000000000000 ) ;
#997 = CARTESIAN_POINT ( 'NONE',  ( 5.103553390593275729, 2.595497678669857589, -3.500000000000000444 ) ) ;
#998 = CARTESIAN_POINT ( 'NONE',  ( 0.000000000000000000, 1.700000000000001954, -22.59999999999999432 ) ) ;
#999 = CARTESIAN_POINT ( 'NONE',  ( 11.89999999999999325, 2.299999999999999822, -3.500000000000000444 ) ) ;
#1000 = EDGE_CURVE ( 'NONE', #35, #799, #454, .T. ) ;
#1001 = AXIS2_PLACEMENT_3D ( 'NONE', #137, #1063, #216 ) ;
#1002 = LINE ( 'NONE', #431, #190 ) ;
#1003 = ORIENTED_EDGE ( 'NONE', *, *, #1055, .T. ) ;
#1004 = ORIENTED_EDGE ( 'NONE', *, *, #538, .F. ) ;
#1005 = FACE_OUTER_BOUND ( 'NONE', #368, .T. ) ;
#1006 = DIRECTION ( 'NONE',  ( 0.7071067811865524577, -0.7071067811865426878, -0.000000000000000000 ) ) ;
#1007 = LINE ( 'NONE', #391, #272 ) ;
#1008 = FACE_OUTER_BOUND ( 'NONE', #528, .T. ) ;
#1009 = ORIENTED_EDGE ( 'NONE', *, *, #1177, .F. ) ;
#1010 = DIRECTION ( 'NONE',  ( 1.000000000000000000, 0.000000000000000000, 0.000000000000000000 ) ) ;
#1011 = PLANE ( 'NONE',  #531 ) ;
#1012 = FACE_OUTER_BOUND ( 'NONE', #780, .T. ) ;
#1013 = DIRECTION ( 'NONE',  ( 0.000000000000000000, 7.065269995080883413E-18, 1.000000000000000000 ) ) ;
#1014 = ORIENTED_EDGE ( 'NONE', *, *, #934, .T. ) ;
#1015 = PRODUCT_DEFINITION_FORMATION_WITH_SPECIFIED_SOURCE ( 'ANY', '', #148, .NOT_KNOWN. ) ;
#1016 = EDGE_CURVE ( 'NONE', #760, #535, #643, .T. ) ;
#1017 = DIRECTION ( 'NONE',  ( -0.000000000000000000, -1.000000000000000000, -0.000000000000000000 ) ) ;
#1018 = VECTOR ( 'NONE', #1025, 1000.000000000000227 ) ;
#1019 = DIRECTION ( 'NONE',  ( 0.000000000000000000, 0.000000000000000000, -1.000000000000000000 ) ) ;
#1020 = CIRCLE ( 'NONE', #1150, 0.2500000000000002220 ) ;
#1021 = DIRECTION ( 'NONE',  ( -1.000000000000000000, 0.000000000000000000, 0.000000000000000000 ) ) ;
#1022 = EDGE_CURVE ( 'NONE', #710, #735, #358, .T. ) ;
#1023 = ORIENTED_EDGE ( 'NONE', *, *, #286, .F. ) ;
#1024 = LINE ( 'NONE', #563, #193 ) ;
#1025 = DIRECTION ( 'NONE',  ( -0.9990561583550594538, 0.04343722427630695299, -0.000000000000000000 ) ) ;
#1026 = ORIENTED_EDGE ( 'NONE', *, *, #271, .F. ) ;
#1027 = CARTESIAN_POINT ( 'NONE',  ( 37.39999999999999858, -0.2999999999999999334, -3.673940397442058882E-17 ) ) ;
#1028 = DIRECTION ( 'NONE',  ( 0.000000000000000000, 0.000000000000000000, -1.000000000000000000 ) ) ;
#1029 = LINE ( 'NONE', #445, #1018 ) ;
#1030 = EDGE_LOOP ( 'NONE', ( #1004, #928, #805, #523 ) ) ;
#1031 = EDGE_CURVE ( 'NONE', #235, #356, #434, .T. ) ;
#1032 = CARTESIAN_POINT ( 'NONE',  ( 5.250000000000004441, 1.199999999999997957, -6.999999999999999112 ) ) ;
#1033 = VECTOR ( 'NONE', #497, 1000.000000000000000 ) ;
#1034 = ADVANCED_FACE ( 'NONE', ( #860 ), #128, .F. ) ;
#1035 = CARTESIAN_POINT ( 'NONE',  ( 75.00000000000000000, 4.649999999999999467, -19.59999999999999787 ) ) ;
#1036 =( NAMED_UNIT ( * ) SI_UNIT ( $, .STERADIAN. ) SOLID_ANGLE_UNIT ( ) );
#1037 = ORIENTED_EDGE ( 'NONE', *, *, #667, .T. ) ;
#1038 = LINE ( 'NONE', #1042, #113 ) ;
#1039 = FACE_OUTER_BOUND ( 'NONE', #366, .T. ) ;
#1040 = DIRECTION ( 'NONE',  ( 0.000000000000000000, 0.000000000000000000, -1.000000000000000000 ) ) ;
#1041 = VERTEX_POINT ( 'NONE', #213 ) ;
#1042 = CARTESIAN_POINT ( 'NONE',  ( 11.89999999999999325, 0.4999999999999935052, -2.600000000000000089 ) ) ;
#1043 = CARTESIAN_POINT ( 'NONE',  ( 12.39999999999999503, -1.836970198721029441E-17, -2.600000000000000089 ) ) ;
#1044 = CARTESIAN_POINT ( 'NONE',  ( 39.73461091671529033, 1.199999999999997513, -2.600000000000000089 ) ) ;
#1045 = DIRECTION ( 'NONE',  ( 0.9902680687415708061, -0.1391731009600624958, -0.000000000000000000 ) ) ;
#1046 = ORIENTED_EDGE ( 'NONE', *, *, #1181, .F. ) ;
#1047 = EDGE_CURVE ( 'NONE', #1205, #480, #506, .T. ) ;
#1048 = DIRECTION ( 'NONE',  ( 0.000000000000000000, -1.192622389734055124E-16, 1.000000000000000000 ) ) ;
#1049 = VECTOR ( 'NONE', #422, 1000.000000000000000 ) ;
#1050 = CARTESIAN_POINT ( 'NONE',  ( 72.00000000000000000, 4.599999999999999645, 0.000000000000000000 ) ) ;
#1051 = DIRECTION ( 'NONE',  ( -0.9990561583550594538, 0.04343722427630695299, -0.000000000000000000 ) ) ;
#1052 = VECTOR ( 'NONE', #299, 1000.000000000000000 ) ;
#1053 = VECTOR ( 'NONE', #873, 999.9999999999998863 ) ;
#1054 = PLANE ( 'NONE',  #897 ) ;
#1055 = EDGE_CURVE ( 'NONE', #384, #1041, #758, .T. ) ;
#1056 = VERTEX_POINT ( 'NONE', #5 ) ;
#1057 = DIRECTION ( 'NONE',  ( -1.000000000000000000, -0.000000000000000000, -0.000000000000000000 ) ) ;
#1058 = CARTESIAN_POINT ( 'NONE',  ( 0.000000000000000000, 1.199999999999999956, 0.000000000000000000 ) ) ;
#1059 = PLANE ( 'NONE',  #700 ) ;
#1060 = CARTESIAN_POINT ( 'NONE',  ( 0.4999999999999865663, 1.199999999999999956, -22.59999999999999432 ) ) ;
#1061 = EDGE_LOOP ( 'NONE', ( #765, #898, #589, #43, #342, #145, #680, #562, #220, #1046, #280, #377, #181, #686, #357 ) ) ;
#1062 = VERTEX_POINT ( 'NONE', #867 ) ;
#1063 = DIRECTION ( 'NONE',  ( -0.000000000000000000, 1.000000000000000000, 1.192622389734055124E-16 ) ) ;
#1064 = DIRECTION ( 'NONE',  ( 1.000000000000000000, 0.000000000000000000, 0.000000000000000000 ) ) ;
#1065 = LINE ( 'NONE', #1198, #1093 ) ;
#1066 = CARTESIAN_POINT ( 'NONE',  ( 37.59999999999999432, 1.199999999999997513, -2.899999999999999911 ) ) ;
#1067 = ORIENTED_EDGE ( 'NONE', *, *, #725, .F. ) ;
#1068 = VERTEX_POINT ( 'NONE', #1066 ) ;
#1069 = DIRECTION ( 'NONE',  ( 0.000000000000000000, 7.065269995080883413E-18, 1.000000000000000000 ) ) ;
#1070 = EDGE_CURVE ( 'NONE', #356, #1115, #479, .T. ) ;
#1071 = LINE ( 'NONE', #1050, #821 ) ;
#1072 = AXIS2_PLACEMENT_3D ( 'NONE', #131, #623, #149 ) ;
#1073 = EDGE_CURVE ( 'NONE', #706, #535, #318, .T. ) ;
#1074 = ORIENTED_EDGE ( 'NONE', *, *, #489, .T. ) ;
#1075 = AXIS2_PLACEMENT_3D ( 'NONE', #630, #691, #826 ) ;
#1076 = ORIENTED_EDGE ( 'NONE', *, *, #1070, .T. ) ;
#1077 = LINE ( 'NONE', #241, #409 ) ;
#1078 = DIRECTION ( 'NONE',  ( 0.000000000000000000, 1.000000000000000000, 0.000000000000000000 ) ) ;
#1079 = CARTESIAN_POINT ( 'NONE',  ( 5.000000000000000888, 1.199999999999997513, -3.250000000000000444 ) ) ;
#1080 = ORIENTED_EDGE ( 'NONE', *, *, #819, .T. ) ;
#1081 = VERTEX_POINT ( 'NONE', #382 ) ;
#1082 = DIRECTION ( 'NONE',  ( -0.1391731009600624958, -0.9902680687415708061, 6.996511273166514407E-18 ) ) ;
#1083 = FACE_OUTER_BOUND ( 'NONE', #92, .T. ) ;
#1084 = ORIENTED_EDGE ( 'NONE', *, *, #166, .F. ) ;
#1085 = ORIENTED_EDGE ( 'NONE', *, *, #425, .T. ) ;
#1086 = ADVANCED_FACE ( 'NONE', ( #25 ), #1129, .F. ) ;
#1087 = DIRECTION ( 'NONE',  ( -0.04343722427630695299, -0.9990561583550595648, 0.000000000000000000 ) ) ;
#1088 = DIRECTION ( 'NONE',  ( -0.000000000000000000, -0.000000000000000000, -1.000000000000000000 ) ) ;
#1089 = PRESENTATION_LAYER_ASSIGNMENT (  '', '', ( #976 ) ) ;
#1090 = ORIENTED_EDGE ( 'NONE', *, *, #456, .T. ) ;
#1091 = EDGE_CURVE ( 'NONE', #402, #207, #950, .T. ) ;
#1092 = ORIENTED_EDGE ( 'NONE', *, *, #495, .F. ) ;
#1093 = VECTOR ( 'NONE', #133, 1000.000000000000000 ) ;
#1094 = PLANE ( 'NONE',  #798 ) ;
#1095 = VECTOR ( 'NONE', #1132, 1000.000000000000000 ) ;
#1096 = DIRECTION ( 'NONE',  ( -0.000000000000000000, -0.000000000000000000, 1.000000000000000000 ) ) ;
#1097 = CARTESIAN_POINT ( 'NONE',  ( 5.000000000000000000, 2.600000000000000089, -3.500000000000000444 ) ) ;
#1098 = ORIENTED_EDGE ( 'NONE', *, *, #819, .F. ) ;
#1099 = ORIENTED_EDGE ( 'NONE', *, *, #751, .F. ) ;
#1100 = EDGE_CURVE ( 'NONE', #350, #536, #692, .T. ) ;
#1101 = FILL_AREA_STYLE_COLOUR ( '', #283 ) ;
#1102 = FACE_OUTER_BOUND ( 'NONE', #917, .T. ) ;
#1103 = CARTESIAN_POINT ( 'NONE',  ( 75.00000000000000000, 1.199999999999997513, -2.600000000000000089 ) ) ;
#1104 = EDGE_CURVE ( 'NONE', #1062, #951, #612, .T. ) ;
#1105 = CARTESIAN_POINT ( 'NONE',  ( 37.59999999999999432, -0.2999999999999981570, 2.119580998524252236E-18 ) ) ;
#1106 = ORIENTED_EDGE ( 'NONE', *, *, #376, .T. ) ;
#1107 = DIRECTION ( 'NONE',  ( 1.000000000000000000, 0.000000000000000000, 0.000000000000000000 ) ) ;
#1108 = DIRECTION ( 'NONE',  ( -0.000000000000000000, -1.000000000000000000, -0.000000000000000000 ) ) ;
#1109 = ADVANCED_FACE ( 'NONE', ( #201 ), #1054, .F. ) ;
#1110 = VERTEX_POINT ( 'NONE', #1158 ) ;
#1111 = VECTOR ( 'NONE', #776, 1000.000000000000000 ) ;
#1112 = DIRECTION ( 'NONE',  ( 0.000000000000000000, 1.000000000000000000, 0.000000000000000000 ) ) ;
#1113 = VECTOR ( 'NONE', #714, 1000.000000000000000 ) ;
#1114 = LINE ( 'NONE', #73, #331 ) ;
#1115 = VERTEX_POINT ( 'NONE', #685 ) ;
#1116 = CYLINDRICAL_SURFACE ( 'NONE', #11, 0.2500000000000002220 ) ;
#1117 = CARTESIAN_POINT ( 'NONE',  ( 5.250000000000000000, 1.189130434782606605, -6.500000000000000888 ) ) ;
#1118 = DIRECTION ( 'NONE',  ( 0.000000000000000000, -1.192622389734055124E-16, 1.000000000000000000 ) ) ;
#1119 = EDGE_CURVE ( 'NONE', #350, #946, #972, .T. ) ;
#1120 = ORIENTED_EDGE ( 'NONE', *, *, #907, .T. ) ;
#1121 = EDGE_CURVE ( 'NONE', #88, #402, #855, .T. ) ;
#1122 = DIRECTION ( 'NONE',  ( 0.000000000000000000, 0.000000000000000000, -1.000000000000000000 ) ) ;
#1123 = CARTESIAN_POINT ( 'NONE',  ( 35.26538908328470256, -1.836970198721029441E-17, -2.600000000000000089 ) ) ;
#1124 = PRESENTATION_STYLE_ASSIGNMENT (( #752 ) ) ;
#1125 = ORIENTED_EDGE ( 'NONE', *, *, #742, .T. ) ;
#1126 = DIRECTION ( 'NONE',  ( -0.9808148484639899189, -0.1378445374916257293, -0.1378445374916257293 ) ) ;
#1127 = AXIS2_PLACEMENT_3D ( 'NONE', #768, #490, #600 ) ;
#1128 = LINE ( 'NONE', #580, #428 ) ;
#1129 = PLANE ( 'NONE',  #28 ) ;
#1130 = ORIENTED_EDGE ( 'NONE', *, *, #645, .F. ) ;
#1131 = ORIENTED_EDGE ( 'NONE', *, *, #671, .F. ) ;
#1132 = DIRECTION ( 'NONE',  ( -1.000000000000000000, -0.000000000000000000, -0.000000000000000000 ) ) ;
#1133 = UNCERTAINTY_MEASURE_WITH_UNIT (LENGTH_MEASURE( 1.000000000000000082E-05 ), #1179, 'distance_accuracy_value', 'NONE');
#1134 = CARTESIAN_POINT ( 'NONE',  ( 74.31693931741914128, 4.860229299387031077, 0.000000000000000000 ) ) ;
#1135 = EDGE_CURVE ( 'NONE', #759, #233, #401, .T. ) ;
#1136 = CARTESIAN_POINT ( 'NONE',  ( 75.00000000000000000, 1.199999999999997513, -2.600000000000000089 ) ) ;
#1137 = ORIENTED_EDGE ( 'NONE', *, *, #1119, .T. ) ;
#1138 = CARTESIAN_POINT ( 'NONE',  ( 5.103553390593273953, 1.195497678669856345, -6.500000000000001776 ) ) ;
#1139 = EDGE_CURVE ( 'NONE', #1166, #951, #206, .T. ) ;
#1140 = LINE ( 'NONE', #1058, #76 ) ;
#1141 = LINE ( 'NONE', #282, #1052 ) ;
#1142 = CARTESIAN_POINT ( 'NONE',  ( 11.89999999999999325, 0.000000000000000000, 0.000000000000000000 ) ) ;
#1143 = EDGE_LOOP ( 'NONE', ( #6, #390, #694, #618 ) ) ;
#1144 = EDGE_LOOP ( 'NONE', ( #87, #596, #833, #416 ) ) ;
#1145 = FACE_OUTER_BOUND ( 'NONE', #1176, .T. ) ;
#1146 = AXIS2_PLACEMENT_3D ( 'NONE', #405, #49, #1155 ) ;
#1147 = CARTESIAN_POINT ( 'NONE',  ( 11.89999999999999325, 1.199999999999999956, -2.600000000000000089 ) ) ;
#1148 = CARTESIAN_POINT ( 'NONE',  ( 0.4999999999999865663, 2.600000000000000089, 0.000000000000000000 ) ) ;
#1149 = VECTOR ( 'NONE', #273, 1000.000000000000000 ) ;
#1150 = AXIS2_PLACEMENT_3D ( 'NONE', #851, #194, #1122 ) ;
#1151 = DIRECTION ( 'NONE',  ( 1.000000000000000000, 0.000000000000000000, 0.000000000000000000 ) ) ;
#1152 = ORIENTED_EDGE ( 'NONE', *, *, #398, .T. ) ;
#1153 = AXIS2_PLACEMENT_3D ( 'NONE', #701, #992, #614 ) ;
#1154 = EDGE_LOOP ( 'NONE', ( #717, #214, #932, #904 ) ) ;
#1155 = DIRECTION ( 'NONE',  ( 0.000000000000000000, 0.000000000000000000, -1.000000000000000000 ) ) ;
#1156 = LINE ( 'NONE', #316, #56 ) ;
#1157 = FACE_OUTER_BOUND ( 'NONE', #1061, .T. ) ;
#1158 = CARTESIAN_POINT ( 'NONE',  ( 0.4999999999999865663, 8.199999999999999289, -19.59999999999999787 ) ) ;
#1159 = EDGE_LOOP ( 'NONE', ( #577, #344, #424, #411 ) ) ;
#1160 = ADVANCED_FACE ( 'NONE', ( #959 ), #116, .F. ) ;
#1161 = CARTESIAN_POINT ( 'NONE',  ( 0.4999999999999865663, 8.199999999999999289, -19.59999999999999787 ) ) ;
#1162 = EDGE_CURVE ( 'NONE', #61, #117, #770, .T. ) ;
#1163 = CARTESIAN_POINT ( 'NONE',  ( 0.000000000000000000, 4.649999999999999467, -20.09999999999999432 ) ) ;
#1164 = LINE ( 'NONE', #820, #738 ) ;
#1165 = VERTEX_POINT ( 'NONE', #541 ) ;
#1166 = VERTEX_POINT ( 'NONE', #1079 ) ;
#1167 = PLANE ( 'NONE',  #1153 ) ;
#1168 = CARTESIAN_POINT ( 'NONE',  ( 16.89999999999999858, 2.600000000000000089, -7.000000000000000000 ) ) ;
#1169 = VECTOR ( 'NONE', #756, 1000.000000000000000 ) ;
#1170 = ORIENTED_EDGE ( 'NONE', *, *, #109, .F. ) ;
#1171 = VECTOR ( 'NONE', #845, 1000.000000000000000 ) ;
#1172 = ORIENTED_EDGE ( 'NONE', *, *, #234, .F. ) ;
#1173 = DIRECTION ( 'NONE',  ( 1.000000000000000000, -0.000000000000000000, 0.000000000000000000 ) ) ;
#1174 = DIRECTION ( 'NONE',  ( -1.000000000000000000, -0.000000000000000000, -0.000000000000000000 ) ) ;
#1175 = APPLICATION_PROTOCOL_DEFINITION ( 'draft international standard', 'automotive_design', 1998, #300 ) ;
#1176 = EDGE_LOOP ( 'NONE', ( #688, #423, #494, #14 ) ) ;
#1177 = EDGE_CURVE ( 'NONE', #777, #372, #835, .T. ) ;
#1178 = ORIENTED_EDGE ( 'NONE', *, *, #495, .T. ) ;
#1179 =( LENGTH_UNIT ( ) NAMED_UNIT ( * ) SI_UNIT ( .MILLI., .METRE. ) );
#1180 = CARTESIAN_POINT ( 'NONE',  ( 75.00000000000000000, -1.836970198721029441E-17, -2.600000000000000089 ) ) ;
#1181 = EDGE_CURVE ( 'NONE', #163, #536, #1002, .T. ) ;
#1182 = EDGE_LOOP ( 'NONE', ( #474, #679, #75, #105, #611, #62 ) ) ;
#1183 = ORIENTED_EDGE ( 'NONE', *, *, #1197, .F. ) ;
#1184 = CARTESIAN_POINT ( 'NONE',  ( 0.000000000000000000, 2.099999999999999645, 0.000000000000000000 ) ) ;
#1185 = PLANE ( 'NONE',  #920 ) ;
#1186 = PLANE ( 'NONE',  #592 ) ;
#1187 = AXIS2_PLACEMENT_3D ( 'NONE', #522, #341, #161 ) ;
#1188 =( NAMED_UNIT ( * ) SI_UNIT ( $, .STERADIAN. ) SOLID_ANGLE_UNIT ( ) );
#1189 = ORIENTED_EDGE ( 'NONE', *, *, #74, .F. ) ;
#1190 = ORIENTED_EDGE ( 'NONE', *, *, #460, .F. ) ;
#1191 = VECTOR ( 'NONE', #230, 1000.000000000000000 ) ;
#1192 = CARTESIAN_POINT ( 'NONE',  ( 5.000000000000000888, 2.599999999999999201, -3.396446609406726047 ) ) ;
#1193 = CARTESIAN_POINT ( 'NONE',  ( 5.000000000000000000, 1.199999999999997957, -6.750000000000000888 ) ) ;
#1194 = DIRECTION ( 'NONE',  ( 0.000000000000000000, -1.192622389734055124E-16, 1.000000000000000000 ) ) ;
#1195 = CARTESIAN_POINT ( 'NONE',  ( 37.59999999999999432, -0.2999999999999999334, -3.673940397442058882E-17 ) ) ;
#1196 = ORIENTED_EDGE ( 'NONE', *, *, #1022, .T. ) ;
#1197 = EDGE_CURVE ( 'NONE', #1110, #99, #791, .T. ) ;
#1198 = CARTESIAN_POINT ( 'NONE',  ( 39.73461091671529033, 1.199999999999997513, -2.600000000000000089 ) ) ;
#1199 = CARTESIAN_POINT ( 'NONE',  ( 37.59999999999999432, 1.199999999999997513, -2.899999999999999911 ) ) ;
#1200 = ORIENTED_EDGE ( 'NONE', *, *, #238, .T. ) ;
#1201 = ORIENTED_EDGE ( 'NONE', *, *, #583, .F. ) ;
#1202 = PRODUCT_DEFINITION ( 'UNKNOWN', '', #1015, #3 ) ;
#1203 = FACE_OUTER_BOUND ( 'NONE', #1143, .T. ) ;
#1204 = EDGE_LOOP ( 'NONE', ( #656, #54, #170, #910, #1170, #251 ) ) ;
#1205 = VERTEX_POINT ( 'NONE', #436 ) ;
#1206 = AXIS2_PLACEMENT_3D ( 'NONE', #410, #301, #1151 ) ;
#1207 = AXIS2_PLACEMENT_3D ( 'NONE', #1035, #483, #195 ) ;
#1208 = PLANE ( 'NONE',  #721 ) ;
#1209 = VECTOR ( 'NONE', #625, 1000.000000000000000 ) ;
#1210 = FACE_OUTER_BOUND ( 'NONE', #362, .T. ) ;
#1211 = ORIENTED_EDGE ( 'NONE', *, *, #425, .F. ) ;
#1212 = ADVANCED_FACE ( 'NONE', ( #884 ), #909, .F. ) ;
#1213 = CARTESIAN_POINT ( 'NONE',  ( 37.99207991053916089, -0.2448967621027856312, -2.844896762102784749 ) ) ;
#1214 = CARTESIAN_POINT ( 'NONE',  ( 5.250000000000000888, 2.600000000000000089, -3.000000000000000000 ) ) ;
#1215 = EDGE_CURVE ( 'NONE', #598, #617, #41, .T. ) ;
#1216 = PLANE ( 'NONE',  #529 ) ;
ENDSEC;
END-ISO-10303-21;
