%TF.GenerationSoftware,KiCad,Pcbnew,9.0.0*%
%TF.CreationDate,2025-10-09T14:42:31+02:00*%
%TF.ProjectId,ESP-PowerSunSensor,4553502d-506f-4776-9572-53756e53656e,rev?*%
%TF.SameCoordinates,Original*%
%TF.FileFunction,Copper,L1,Top*%
%TF.FilePolarity,Positive*%
%FSLAX46Y46*%
G04 Gerber Fmt 4.6, Leading zero omitted, Abs format (unit mm)*
G04 Created by KiCad (PCBNEW 9.0.0) date 2025-10-09 14:42:31*
%MOMM*%
%LPD*%
G01*
G04 APERTURE LIST*
G04 Aperture macros list*
%AMRoundRect*
0 Rectangle with rounded corners*
0 $1 Rounding radius*
0 $2 $3 $4 $5 $6 $7 $8 $9 X,Y pos of 4 corners*
0 Add a 4 corners polygon primitive as box body*
4,1,4,$2,$3,$4,$5,$6,$7,$8,$9,$2,$3,0*
0 Add four circle primitives for the rounded corners*
1,1,$1+$1,$2,$3*
1,1,$1+$1,$4,$5*
1,1,$1+$1,$6,$7*
1,1,$1+$1,$8,$9*
0 Add four rect primitives between the rounded corners*
20,1,$1+$1,$2,$3,$4,$5,0*
20,1,$1+$1,$4,$5,$6,$7,0*
20,1,$1+$1,$6,$7,$8,$9,0*
20,1,$1+$1,$8,$9,$2,$3,0*%
%AMFreePoly0*
4,1,6,1.000000,0.000000,0.500000,-0.750000,-0.500000,-0.750000,-0.500000,0.750000,0.500000,0.750000,1.000000,0.000000,1.000000,0.000000,$1*%
%AMFreePoly1*
4,1,7,0.700000,0.000000,1.200000,-0.750000,-1.200000,-0.750000,-0.700000,0.000000,-1.200000,0.750000,1.200000,0.750000,0.700000,0.000000,0.700000,0.000000,$1*%
G04 Aperture macros list end*
%TA.AperFunction,SMDPad,CuDef*%
%ADD10RoundRect,0.237500X-0.250000X-0.237500X0.250000X-0.237500X0.250000X0.237500X-0.250000X0.237500X0*%
%TD*%
%TA.AperFunction,SMDPad,CuDef*%
%ADD11RoundRect,0.237500X0.300000X0.237500X-0.300000X0.237500X-0.300000X-0.237500X0.300000X-0.237500X0*%
%TD*%
%TA.AperFunction,SMDPad,CuDef*%
%ADD12RoundRect,0.150000X0.150000X0.200000X-0.150000X0.200000X-0.150000X-0.200000X0.150000X-0.200000X0*%
%TD*%
%TA.AperFunction,ComponentPad*%
%ADD13R,1.700000X1.700000*%
%TD*%
%TA.AperFunction,ComponentPad*%
%ADD14O,1.700000X1.700000*%
%TD*%
%TA.AperFunction,SMDPad,CuDef*%
%ADD15R,1.500000X0.900000*%
%TD*%
%TA.AperFunction,HeatsinkPad*%
%ADD16C,0.600000*%
%TD*%
%TA.AperFunction,HeatsinkPad*%
%ADD17R,2.900000X2.900000*%
%TD*%
%TA.AperFunction,SMDPad,CuDef*%
%ADD18RoundRect,0.237500X0.250000X0.237500X-0.250000X0.237500X-0.250000X-0.237500X0.250000X-0.237500X0*%
%TD*%
%TA.AperFunction,SMDPad,CuDef*%
%ADD19RoundRect,0.375000X-0.625000X-0.375000X0.625000X-0.375000X0.625000X0.375000X-0.625000X0.375000X0*%
%TD*%
%TA.AperFunction,SMDPad,CuDef*%
%ADD20RoundRect,0.500000X-0.500000X-1.400000X0.500000X-1.400000X0.500000X1.400000X-0.500000X1.400000X0*%
%TD*%
%TA.AperFunction,SMDPad,CuDef*%
%ADD21RoundRect,0.250000X-0.400000X-0.625000X0.400000X-0.625000X0.400000X0.625000X-0.400000X0.625000X0*%
%TD*%
%TA.AperFunction,SMDPad,CuDef*%
%ADD22FreePoly0,90.000000*%
%TD*%
%TA.AperFunction,SMDPad,CuDef*%
%ADD23FreePoly1,90.000000*%
%TD*%
%TA.AperFunction,SMDPad,CuDef*%
%ADD24FreePoly0,270.000000*%
%TD*%
%TA.AperFunction,SMDPad,CuDef*%
%ADD25RoundRect,0.237500X-0.287500X-0.237500X0.287500X-0.237500X0.287500X0.237500X-0.287500X0.237500X0*%
%TD*%
%TA.AperFunction,SMDPad,CuDef*%
%ADD26R,0.600000X1.100000*%
%TD*%
%TA.AperFunction,SMDPad,CuDef*%
%ADD27R,0.300000X1.100000*%
%TD*%
%TA.AperFunction,ComponentPad*%
%ADD28O,1.000000X2.200000*%
%TD*%
%TA.AperFunction,ComponentPad*%
%ADD29O,1.000000X1.800000*%
%TD*%
%TA.AperFunction,SMDPad,CuDef*%
%ADD30RoundRect,0.237500X0.237500X-0.250000X0.237500X0.250000X-0.237500X0.250000X-0.237500X-0.250000X0*%
%TD*%
%TA.AperFunction,SMDPad,CuDef*%
%ADD31RoundRect,0.237500X0.237500X-0.300000X0.237500X0.300000X-0.237500X0.300000X-0.237500X-0.300000X0*%
%TD*%
%TA.AperFunction,SMDPad,CuDef*%
%ADD32RoundRect,0.075000X-0.650000X-0.075000X0.650000X-0.075000X0.650000X0.075000X-0.650000X0.075000X0*%
%TD*%
%TA.AperFunction,SMDPad,CuDef*%
%ADD33RoundRect,0.237500X-0.237500X0.300000X-0.237500X-0.300000X0.237500X-0.300000X0.237500X0.300000X0*%
%TD*%
%TA.AperFunction,SMDPad,CuDef*%
%ADD34RoundRect,0.237500X-0.300000X-0.237500X0.300000X-0.237500X0.300000X0.237500X-0.300000X0.237500X0*%
%TD*%
%TA.AperFunction,SMDPad,CuDef*%
%ADD35RoundRect,0.249999X0.450001X1.425001X-0.450001X1.425001X-0.450001X-1.425001X0.450001X-1.425001X0*%
%TD*%
%TA.AperFunction,SMDPad,CuDef*%
%ADD36RoundRect,0.237500X-0.237500X0.250000X-0.237500X-0.250000X0.237500X-0.250000X0.237500X0.250000X0*%
%TD*%
%TA.AperFunction,ComponentPad*%
%ADD37RoundRect,0.249999X-0.790001X-1.550001X0.790001X-1.550001X0.790001X1.550001X-0.790001X1.550001X0*%
%TD*%
%TA.AperFunction,ComponentPad*%
%ADD38O,2.080000X3.600000*%
%TD*%
%TA.AperFunction,ViaPad*%
%ADD39C,0.800000*%
%TD*%
%TA.AperFunction,Conductor*%
%ADD40C,0.300000*%
%TD*%
%TA.AperFunction,Conductor*%
%ADD41C,1.000000*%
%TD*%
G04 APERTURE END LIST*
D10*
%TO.P,R9,1*%
%TO.N,+3V3*%
X104337500Y-89662000D03*
%TO.P,R9,2*%
%TO.N,Net-(U2-IO8)*%
X106162500Y-89662000D03*
%TD*%
D11*
%TO.P,C2,1*%
%TO.N,+3V3*%
X101112500Y-99500000D03*
%TO.P,C2,2*%
%TO.N,GND*%
X99387500Y-99500000D03*
%TD*%
%TO.P,C4,1*%
%TO.N,+3V3*%
X103325000Y-82000000D03*
%TO.P,C4,2*%
%TO.N,GND*%
X101600000Y-82000000D03*
%TD*%
D12*
%TO.P,D6,1,K*%
%TO.N,Net-(D6-K)*%
X136522000Y-88519000D03*
%TO.P,D6,2,A*%
%TO.N,+3V3*%
X137922000Y-88519000D03*
%TD*%
D13*
%TO.P,J4,1,Pin_1*%
%TO.N,+3V3*%
X137033000Y-91948000D03*
D14*
%TO.P,J4,2,Pin_2*%
%TO.N,Net-(J4-Pin_2)*%
X137033000Y-94488000D03*
%TO.P,J4,3,Pin_3*%
%TO.N,Net-(J4-Pin_3)*%
X137033000Y-97028000D03*
%TO.P,J4,4,Pin_4*%
%TO.N,GND*%
X137033000Y-99568000D03*
%TD*%
D15*
%TO.P,U2,1,3V3*%
%TO.N,+3V3*%
X109000000Y-80500000D03*
%TO.P,U2,2,EN*%
%TO.N,Net-(U2-EN)*%
X109000000Y-82000000D03*
%TO.P,U2,3,IO4*%
%TO.N,Net-(J1-Pin_2)*%
X109000000Y-83500000D03*
%TO.P,U2,4,IO5*%
%TO.N,unconnected-(U2-IO5-Pad4)*%
X109000000Y-85000000D03*
%TO.P,U2,5,IO6*%
%TO.N,Net-(U1-SDA)*%
X109000000Y-86500000D03*
%TO.P,U2,6,IO7*%
%TO.N,Net-(U1-SCL)*%
X109000000Y-88000000D03*
%TO.P,U2,7,IO8*%
%TO.N,Net-(U2-IO8)*%
X109000000Y-89500000D03*
%TO.P,U2,8,IO9*%
%TO.N,Net-(J2-Pin_1)*%
X109000000Y-91000000D03*
%TO.P,U2,9,GND*%
%TO.N,GND*%
X109000000Y-92500000D03*
%TO.P,U2,10,IO10*%
%TO.N,Net-(D2-K)*%
X126500000Y-92500000D03*
%TO.P,U2,11,IO20/RXD*%
%TO.N,Net-(J4-Pin_3)*%
X126500000Y-91000000D03*
%TO.P,U2,12,IO21/TXD*%
%TO.N,Net-(J4-Pin_2)*%
X126500000Y-89500000D03*
%TO.P,U2,13,IO18*%
%TO.N,Net-(U2-IO18)*%
X126500000Y-88000000D03*
%TO.P,U2,14,IO19*%
%TO.N,Net-(U2-IO19)*%
X126500000Y-86500000D03*
%TO.P,U2,15,IO3*%
%TO.N,Net-(D1-K)*%
X126500000Y-85000000D03*
%TO.P,U2,16,IO2*%
%TO.N,Net-(U2-IO2)*%
X126500000Y-83500000D03*
%TO.P,U2,17,IO1*%
%TO.N,unconnected-(U2-IO1-Pad17)*%
X126500000Y-82000000D03*
%TO.P,U2,18,IO0*%
%TO.N,unconnected-(U2-IO0-Pad18)*%
X126500000Y-80500000D03*
D16*
%TO.P,U2,19,GND*%
%TO.N,GND*%
X117610000Y-86150000D03*
X117610000Y-87250000D03*
X118160000Y-85600000D03*
X118160000Y-86700000D03*
X118160000Y-87800000D03*
X118710000Y-86150000D03*
D17*
X118710000Y-86700000D03*
D16*
X118710000Y-87250000D03*
X119260000Y-85600000D03*
X119260000Y-86700000D03*
X119260000Y-87800000D03*
X119810000Y-86150000D03*
X119810000Y-87250000D03*
%TD*%
D18*
%TO.P,R2,1*%
%TO.N,Net-(J3-Pin_2)*%
X107912500Y-95750000D03*
%TO.P,R2,2*%
%TO.N,Net-(U1-Vin+)*%
X106087500Y-95750000D03*
%TD*%
D19*
%TO.P,U4,1,GND*%
%TO.N,GND*%
X131368000Y-81774000D03*
%TO.P,U4,2,VO*%
%TO.N,+3V3*%
X131368000Y-84074000D03*
D20*
X137668000Y-84074000D03*
D19*
%TO.P,U4,3,VI*%
%TO.N,Net-(D6-K)*%
X131368000Y-86374000D03*
%TD*%
D18*
%TO.P,R16,1*%
%TO.N,+3V3*%
X106830500Y-85090000D03*
%TO.P,R16,2*%
%TO.N,Net-(J1-Pin_2)*%
X105005500Y-85090000D03*
%TD*%
D21*
%TO.P,REF\u002A\u002A,1*%
%TO.N,GND*%
X111950000Y-96900000D03*
%TO.P,REF\u002A\u002A,2*%
%TO.N,Net-(J3-Pin_2)*%
X115050000Y-96900000D03*
%TD*%
D10*
%TO.P,R13,1*%
%TO.N,+3V3*%
X124687500Y-96400000D03*
%TO.P,R13,2*%
%TO.N,Net-(D2-A)*%
X126512500Y-96400000D03*
%TD*%
D18*
%TO.P,R4,1*%
%TO.N,+3V3*%
X102662500Y-89662000D03*
%TO.P,R4,2*%
%TO.N,Net-(U1-~{Alert})*%
X100837500Y-89662000D03*
%TD*%
D11*
%TO.P,C5,1*%
%TO.N,+3V3*%
X103325000Y-80500000D03*
%TO.P,C5,2*%
%TO.N,GND*%
X101600000Y-80500000D03*
%TD*%
D22*
%TO.P,JP2,1,A*%
%TO.N,GND*%
X96000000Y-92750000D03*
D23*
%TO.P,JP2,2,C*%
%TO.N,Net-(JP2-C)*%
X96000000Y-90750000D03*
D24*
%TO.P,JP2,3,B*%
%TO.N,+3V3*%
X96000000Y-88750000D03*
%TD*%
D22*
%TO.P,JP1,1,A*%
%TO.N,GND*%
X98850000Y-92750000D03*
D23*
%TO.P,JP1,2,C*%
%TO.N,Net-(JP1-C)*%
X98850000Y-90750000D03*
D24*
%TO.P,JP1,3,B*%
%TO.N,+3V3*%
X98850000Y-88750000D03*
%TD*%
D25*
%TO.P,D2,1,K*%
%TO.N,Net-(D2-K)*%
X124725000Y-94800000D03*
%TO.P,D2,2,A*%
%TO.N,Net-(D2-A)*%
X126475000Y-94800000D03*
%TD*%
D10*
%TO.P,R12,1*%
%TO.N,+3V3*%
X121187500Y-96400000D03*
%TO.P,R12,2*%
%TO.N,Net-(D1-A)*%
X123012500Y-96400000D03*
%TD*%
D26*
%TO.P,J5,A1,GND*%
%TO.N,GND*%
X121880000Y-101693000D03*
%TO.P,J5,A4,VBUS*%
%TO.N,Net-(D6-K)*%
X122680000Y-101693000D03*
D27*
%TO.P,J5,A5,CC1*%
%TO.N,Net-(J5-CC1)*%
X123830000Y-101693000D03*
%TO.P,J5,A6,D+*%
%TO.N,USB_D+*%
X124830000Y-101693000D03*
%TO.P,J5,A7,D-*%
%TO.N,USB_D-*%
X125330000Y-101693000D03*
%TO.P,J5,A8,SBU1*%
%TO.N,unconnected-(J5-SBU1-PadA8)*%
X126330000Y-101693000D03*
D26*
%TO.P,J5,B1,GND*%
%TO.N,GND*%
X128280000Y-101693000D03*
%TO.P,J5,B4,VBUS*%
%TO.N,Net-(D6-K)*%
X127480000Y-101693000D03*
D27*
%TO.P,J5,B5,CC2*%
%TO.N,Net-(J5-CC2)*%
X126830000Y-101693000D03*
%TO.P,J5,B6,D+*%
%TO.N,USB_D+*%
X125830000Y-101693000D03*
%TO.P,J5,B7,D-*%
%TO.N,USB_D-*%
X124330000Y-101693000D03*
%TO.P,J5,B8,SBU2*%
%TO.N,unconnected-(J5-SBU2-PadB8)*%
X123330000Y-101693000D03*
D28*
%TO.P,J5,SH1*%
%TO.N,N/C*%
X119460000Y-106850000D03*
D29*
%TO.P,J5,SH2*%
X130700000Y-102850000D03*
%TO.P,J5,SH3*%
X119460000Y-102850000D03*
D28*
%TO.P,J5,SH4*%
X130700000Y-106850000D03*
%TD*%
D30*
%TO.P,R10,1*%
%TO.N,USB_D+*%
X131723679Y-97077837D03*
%TO.P,R10,2*%
%TO.N,Net-(U2-IO19)*%
X131723679Y-95252837D03*
%TD*%
D31*
%TO.P,C7,1*%
%TO.N,+3V3*%
X128778000Y-86460500D03*
%TO.P,C7,2*%
%TO.N,GND*%
X128778000Y-84735500D03*
%TD*%
D10*
%TO.P,R5,1*%
%TO.N,+3V3*%
X104337500Y-88138000D03*
%TO.P,R5,2*%
%TO.N,Net-(U1-SCL)*%
X106162500Y-88138000D03*
%TD*%
D32*
%TO.P,U1,1,A1*%
%TO.N,Net-(JP1-C)*%
X97859314Y-95750000D03*
%TO.P,U1,2,A0*%
%TO.N,Net-(JP2-C)*%
X97859314Y-96250000D03*
%TO.P,U1,3,~{Alert}*%
%TO.N,Net-(U1-~{Alert})*%
X97859314Y-96750000D03*
%TO.P,U1,4,SDA*%
%TO.N,Net-(U1-SDA)*%
X97859314Y-97250000D03*
%TO.P,U1,5,SCL*%
%TO.N,Net-(U1-SCL)*%
X97859314Y-97750000D03*
%TO.P,U1,6,VS*%
%TO.N,+3V3*%
X102259314Y-97750000D03*
%TO.P,U1,7,GND*%
%TO.N,GND*%
X102259314Y-97250000D03*
%TO.P,U1,8,Vbus*%
%TO.N,Net-(J3-Pin_2)*%
X102259314Y-96750000D03*
%TO.P,U1,9,Vin-*%
%TO.N,Net-(U1-Vin-)*%
X102259314Y-96250000D03*
%TO.P,U1,10,Vin+*%
%TO.N,Net-(U1-Vin+)*%
X102259314Y-95750000D03*
%TD*%
D33*
%TO.P,C1,1*%
%TO.N,Net-(U1-Vin+)*%
X104309314Y-95887500D03*
%TO.P,C1,2*%
%TO.N,Net-(U1-Vin-)*%
X104309314Y-97612500D03*
%TD*%
D30*
%TO.P,R11,1*%
%TO.N,USB_D-*%
X130223679Y-97077837D03*
%TO.P,R11,2*%
%TO.N,Net-(U2-IO18)*%
X130223679Y-95252837D03*
%TD*%
D34*
%TO.P,C6,1*%
%TO.N,Net-(D6-K)*%
X132995500Y-88519000D03*
%TO.P,C6,2*%
%TO.N,GND*%
X134720500Y-88519000D03*
%TD*%
D11*
%TO.P,C3,1*%
%TO.N,Net-(U2-EN)*%
X105510500Y-83566000D03*
%TO.P,C3,2*%
%TO.N,GND*%
X103785500Y-83566000D03*
%TD*%
D10*
%TO.P,R7,1*%
%TO.N,+3V3*%
X105109000Y-82042000D03*
%TO.P,R7,2*%
%TO.N,Net-(U2-EN)*%
X106934000Y-82042000D03*
%TD*%
%TO.P,R6,1*%
%TO.N,+3V3*%
X100337500Y-85000000D03*
%TO.P,R6,2*%
%TO.N,Net-(U1-SDA)*%
X102162500Y-85000000D03*
%TD*%
D13*
%TO.P,J2,1,Pin_1*%
%TO.N,Net-(J2-Pin_1)*%
X102210000Y-92500000D03*
D14*
%TO.P,J2,2,Pin_2*%
%TO.N,GND*%
X104750000Y-92500000D03*
%TD*%
D25*
%TO.P,D1,1,K*%
%TO.N,Net-(D1-K)*%
X121225000Y-94800000D03*
%TO.P,D1,2,A*%
%TO.N,Net-(D1-A)*%
X122975000Y-94800000D03*
%TD*%
D10*
%TO.P,R15,1*%
%TO.N,Net-(J5-CC2)*%
X128651000Y-99000000D03*
%TO.P,R15,2*%
%TO.N,GND*%
X130476000Y-99000000D03*
%TD*%
D35*
%TO.P,R1,1*%
%TO.N,Net-(J3-Pin_2)*%
X116550000Y-96900000D03*
%TO.P,R1,2*%
%TO.N,GND*%
X110450000Y-96900000D03*
%TD*%
D36*
%TO.P,R8,1*%
%TO.N,+3V3*%
X128778000Y-81106000D03*
%TO.P,R8,2*%
%TO.N,Net-(U2-IO2)*%
X128778000Y-82931000D03*
%TD*%
D18*
%TO.P,R14,1*%
%TO.N,Net-(J5-CC1)*%
X123012500Y-98200000D03*
%TO.P,R14,2*%
%TO.N,GND*%
X121187500Y-98200000D03*
%TD*%
D37*
%TO.P,J3,1,Pin_1*%
%TO.N,GND*%
X109220000Y-104222500D03*
D38*
%TO.P,J3,2,Pin_2*%
%TO.N,Net-(J3-Pin_2)*%
X114300000Y-104222500D03*
%TD*%
D13*
%TO.P,J1,1,Pin_1*%
%TO.N,GND*%
X103378000Y-105156000D03*
D14*
%TO.P,J1,2,Pin_2*%
%TO.N,Net-(J1-Pin_2)*%
X103378000Y-102616000D03*
%TD*%
D18*
%TO.P,R3,1*%
%TO.N,GND*%
X107912500Y-97250000D03*
%TO.P,R3,2*%
%TO.N,Net-(U1-Vin-)*%
X106087500Y-97250000D03*
%TD*%
D39*
%TO.N,GND*%
X98750000Y-94500000D03*
X130048000Y-80264000D03*
X111150002Y-92500000D03*
X129768000Y-83821322D03*
X105749293Y-86012000D03*
X131700000Y-104100000D03*
X120400000Y-99600000D03*
X111506000Y-86000000D03*
X135509000Y-89789000D03*
X96000000Y-94500000D03*
X100100000Y-98100000D03*
%TO.N,+3V3*%
X101500000Y-86750000D03*
X129986495Y-89426505D03*
X103251000Y-88265000D03*
X129413000Y-87376000D03*
%TO.N,Net-(U1-SCL)*%
X107250000Y-88000000D03*
X107250000Y-93250000D03*
%TO.N,USB_D+*%
X126743203Y-100061316D03*
X124992286Y-99981248D03*
%TO.N,Net-(J4-Pin_3)*%
X129032000Y-91000000D03*
X132592926Y-91126092D03*
%TO.N,Net-(J4-Pin_2)*%
X133350000Y-89916000D03*
X128824697Y-89966576D03*
%TO.N,Net-(D6-K)*%
X129726000Y-92533760D03*
X128800000Y-96800000D03*
X122200000Y-99250000D03*
X128524000Y-100330000D03*
X131826000Y-92075000D03*
%TO.N,Net-(J1-Pin_2)*%
X106680000Y-99568000D03*
X110350002Y-91186000D03*
%TD*%
D40*
%TO.N,Net-(U1-Vin+)*%
X102259314Y-95750000D02*
X104171814Y-95750000D01*
X105700000Y-95887500D02*
X105837500Y-95750000D01*
X104171814Y-95750000D02*
X104309314Y-95887500D01*
X105837500Y-95750000D02*
X106087500Y-95750000D01*
X104309314Y-95887500D02*
X105700000Y-95887500D01*
%TO.N,Net-(U1-Vin-)*%
X104309314Y-97409314D02*
X104309314Y-97612500D01*
X106087500Y-97250000D02*
X105587500Y-97750000D01*
X105587500Y-97750000D02*
X104446814Y-97750000D01*
X104446814Y-97750000D02*
X104309314Y-97612500D01*
X103150000Y-96250000D02*
X104309314Y-97409314D01*
X102259314Y-96250000D02*
X103150000Y-96250000D01*
%TO.N,GND*%
X98250000Y-99500000D02*
X99387500Y-99500000D01*
X118710000Y-86700000D02*
X112910000Y-92500000D01*
X128280000Y-101693000D02*
X129707000Y-101693000D01*
X130250000Y-101150000D02*
X132650000Y-101150000D01*
X112457894Y-94750000D02*
X113284000Y-95576106D01*
X102108000Y-83566000D02*
X101600000Y-83058000D01*
X107912500Y-97250000D02*
X108750000Y-97250000D01*
X121880000Y-101693000D02*
X120943000Y-101693000D01*
X100696814Y-97553186D02*
X101000000Y-97250000D01*
X105697816Y-86081805D02*
X105720627Y-86058994D01*
X132650000Y-101150000D02*
X133000000Y-101500000D01*
X103785500Y-85751500D02*
X104122732Y-86088732D01*
X134720500Y-88646000D02*
X134720500Y-89000500D01*
X136359000Y-99441000D02*
X135300000Y-100500000D01*
D41*
X110450000Y-102800000D02*
X110450000Y-96900000D01*
D40*
X137033000Y-99441000D02*
X136359000Y-99441000D01*
X117460000Y-86000000D02*
X111506000Y-86000000D01*
X101000000Y-97250000D02*
X102259314Y-97250000D01*
D41*
X109220000Y-104030000D02*
X110450000Y-102800000D01*
D40*
X133000000Y-101500000D02*
X133000000Y-102800000D01*
X113284000Y-96393000D02*
X112777000Y-96900000D01*
X120943000Y-101693000D02*
X120350000Y-101100000D01*
X109000000Y-92500000D02*
X111150002Y-92500000D01*
X113284000Y-95576106D02*
X113284000Y-96393000D01*
X96000000Y-94500000D02*
X96000000Y-97250000D01*
X96000000Y-97250000D02*
X98250000Y-99500000D01*
X120400000Y-101050000D02*
X120400000Y-99600000D01*
X107050000Y-98600000D02*
X107710000Y-99260000D01*
X128685000Y-101693000D02*
X130476000Y-99902000D01*
X103785500Y-83566000D02*
X103785500Y-85751500D01*
X121187500Y-98200000D02*
X119500000Y-98200000D01*
X133000000Y-102800000D02*
X131700000Y-104100000D01*
X101600000Y-83058000D02*
X101600000Y-82000000D01*
X108750000Y-97250000D02*
X109250000Y-96750000D01*
X129707000Y-101693000D02*
X130250000Y-101150000D01*
X103400000Y-97500000D02*
X103400000Y-98104410D01*
X135300000Y-100500000D02*
X131700000Y-104100000D01*
X102259314Y-97250000D02*
X103150000Y-97250000D01*
X103150000Y-97250000D02*
X103400000Y-97500000D01*
X120350000Y-101100000D02*
X120400000Y-101050000D01*
X98750000Y-94500000D02*
X98750000Y-92750000D01*
D41*
X109220000Y-104222500D02*
X109220000Y-104030000D01*
D40*
X105749293Y-86053042D02*
X105749293Y-86012000D01*
X121880000Y-100838000D02*
X120642000Y-99600000D01*
X107710000Y-99260000D02*
X107710000Y-102712500D01*
X128280000Y-101693000D02*
X128685000Y-101693000D01*
X119300000Y-87290000D02*
X118710000Y-86700000D01*
X104122732Y-86088732D02*
X105614252Y-86088732D01*
X107710000Y-102712500D02*
X109220000Y-104222500D01*
X100696814Y-98190686D02*
X100696814Y-97553186D01*
X104750000Y-92500000D02*
X109000000Y-92500000D01*
X112777000Y-96900000D02*
X110450000Y-96900000D01*
X96000000Y-92750000D02*
X96000000Y-94500000D01*
X105743341Y-86058994D02*
X105749293Y-86053042D01*
X99387500Y-99500000D02*
X100696814Y-98190686D01*
X105621179Y-86081805D02*
X105697816Y-86081805D01*
X119300000Y-98000000D02*
X119300000Y-87290000D01*
X128853822Y-84735500D02*
X129768000Y-83821322D01*
X121880000Y-101693000D02*
X121880000Y-100838000D01*
X109250000Y-96750000D02*
X109250000Y-95200000D01*
X118160000Y-86700000D02*
X117460000Y-86000000D01*
X105720627Y-86058994D02*
X105743341Y-86058994D01*
X134720500Y-89000500D02*
X135509000Y-89789000D01*
X128778000Y-84735500D02*
X128853822Y-84735500D01*
X119500000Y-98200000D02*
X119300000Y-98000000D01*
X101600000Y-80500000D02*
X101600000Y-82000000D01*
X112910000Y-92500000D02*
X111150002Y-92500000D01*
X105614252Y-86088732D02*
X105621179Y-86081805D01*
X103895590Y-98600000D02*
X107050000Y-98600000D01*
X131368000Y-81774000D02*
X131368000Y-81584000D01*
X109700000Y-94750000D02*
X112457894Y-94750000D01*
X120642000Y-99600000D02*
X120400000Y-99600000D01*
X130476000Y-99902000D02*
X130476000Y-99000000D01*
X103400000Y-98104410D02*
X103895590Y-98600000D01*
X109250000Y-95200000D02*
X109700000Y-94750000D01*
X103785500Y-83566000D02*
X102108000Y-83566000D01*
X131368000Y-81584000D02*
X130048000Y-80264000D01*
%TO.N,+3V3*%
X94800000Y-96950000D02*
X94800000Y-88550000D01*
X103378000Y-88138000D02*
X103251000Y-88265000D01*
X102662500Y-89500000D02*
X102662500Y-88853500D01*
X124850000Y-97350000D02*
X126900000Y-97350000D01*
X105150000Y-79650000D02*
X106000000Y-80500000D01*
X124687500Y-96400000D02*
X124687500Y-97187500D01*
X109000000Y-80500000D02*
X109900000Y-79600000D01*
X121187500Y-96987500D02*
X121187500Y-96400000D01*
X128926000Y-92402433D02*
X128926000Y-92202389D01*
X101500000Y-86750000D02*
X101500000Y-86300000D01*
X98750000Y-88750000D02*
X100750000Y-86750000D01*
X128250000Y-96000000D02*
X128250000Y-93078433D01*
X124625000Y-97250000D02*
X121450000Y-97250000D01*
X100944000Y-79650000D02*
X105150000Y-79650000D01*
X128778000Y-81106000D02*
X128778000Y-81593500D01*
X137668000Y-84074000D02*
X131368000Y-84074000D01*
X130048000Y-89789266D02*
X130048000Y-89488010D01*
X98350000Y-100500000D02*
X94800000Y-96950000D01*
X127502000Y-79600000D02*
X128778000Y-80876000D01*
X100750000Y-86750000D02*
X101500000Y-86750000D01*
X104337500Y-88138000D02*
X104337500Y-89662000D01*
X99803000Y-80791000D02*
X100944000Y-79650000D01*
X124687500Y-97187500D02*
X124850000Y-97350000D01*
X102662500Y-88853500D02*
X103251000Y-88265000D01*
X102662846Y-84174000D02*
X103284500Y-84795654D01*
X137922000Y-84328000D02*
X137668000Y-84074000D01*
X100337500Y-85000000D02*
X100337500Y-84418134D01*
X104084000Y-86812000D02*
X106228000Y-86812000D01*
X130048000Y-89488010D02*
X129986495Y-89426505D01*
X98750000Y-88750000D02*
X96000000Y-88750000D01*
X100337500Y-85137500D02*
X100337500Y-85000000D01*
X105109000Y-82042000D02*
X103367000Y-82042000D01*
X103284500Y-84795654D02*
X103284500Y-86012500D01*
X104337500Y-88138000D02*
X103378000Y-88138000D01*
X100581634Y-84174000D02*
X102662846Y-84174000D01*
X128250000Y-93078433D02*
X128926000Y-92402433D01*
X100337500Y-84418134D02*
X100581634Y-84174000D01*
X106830500Y-86209500D02*
X106830500Y-85090000D01*
X137922000Y-90932000D02*
X137922000Y-84328000D01*
X101200000Y-99587500D02*
X101200000Y-100500000D01*
X99803000Y-83547000D02*
X99803000Y-80791000D01*
X129794000Y-91334389D02*
X129794000Y-90043266D01*
X129794000Y-90043266D02*
X130048000Y-89789266D01*
X103284500Y-86012500D02*
X104084000Y-86812000D01*
X124687500Y-96400000D02*
X124675000Y-96412500D01*
X100337500Y-84418134D02*
X99634683Y-83715317D01*
X102259314Y-97750000D02*
X102259314Y-99337500D01*
X128926000Y-92202389D02*
X129794000Y-91334389D01*
X106000000Y-80500000D02*
X103325000Y-80500000D01*
X101112500Y-99500000D02*
X101200000Y-99587500D01*
X103325000Y-80500000D02*
X103325000Y-82000000D01*
X124687500Y-97187500D02*
X124625000Y-97250000D01*
X128778000Y-80876000D02*
X128778000Y-81106000D01*
X131164500Y-84074000D02*
X128778000Y-86460500D01*
X106228000Y-86812000D02*
X106830500Y-86209500D01*
X109900000Y-79600000D02*
X127502000Y-79600000D01*
X126900000Y-97350000D02*
X128250000Y-96000000D01*
X99634683Y-83715317D02*
X99803000Y-83547000D01*
X128778000Y-86741000D02*
X129413000Y-87376000D01*
X106000000Y-80500000D02*
X109000000Y-80500000D01*
X101500000Y-86300000D02*
X100337500Y-85137500D01*
X128778000Y-86460500D02*
X128778000Y-86741000D01*
X121450000Y-97250000D02*
X121187500Y-96987500D01*
X102096814Y-99500000D02*
X101112500Y-99500000D01*
X101200000Y-100500000D02*
X98350000Y-100500000D01*
X131258500Y-84074000D02*
X131368000Y-84074000D01*
X131368000Y-84074000D02*
X131164500Y-84074000D01*
X103367000Y-82042000D02*
X103325000Y-82000000D01*
X102259314Y-99337500D02*
X102096814Y-99500000D01*
X137033000Y-91821000D02*
X137922000Y-90932000D01*
X128778000Y-81593500D02*
X131258500Y-84074000D01*
X94800000Y-88550000D02*
X99634683Y-83715317D01*
%TO.N,Net-(U2-EN)*%
X108000000Y-82000000D02*
X107958000Y-82042000D01*
X106000000Y-82976000D02*
X106000000Y-83500000D01*
X106934000Y-82042000D02*
X106000000Y-82976000D01*
X109000000Y-82000000D02*
X108000000Y-82000000D01*
X107958000Y-82042000D02*
X106830500Y-82042000D01*
%TO.N,Net-(J2-Pin_1)*%
X103710000Y-91000000D02*
X102210000Y-92500000D01*
X109000000Y-91000000D02*
X103710000Y-91000000D01*
%TO.N,Net-(JP1-C)*%
X98750000Y-90750000D02*
X97694000Y-91806000D01*
X97694000Y-91806000D02*
X97694000Y-95584686D01*
X97694000Y-95584686D02*
X97859314Y-95750000D01*
%TO.N,Net-(JP2-C)*%
X96750000Y-96000000D02*
X96750000Y-94000000D01*
X97859314Y-96250000D02*
X97000000Y-96250000D01*
X97150000Y-93600000D02*
X97150000Y-91900000D01*
X97000000Y-96250000D02*
X96750000Y-96000000D01*
X96750000Y-94000000D02*
X97150000Y-93600000D01*
X97150000Y-91900000D02*
X96000000Y-90750000D01*
%TO.N,Net-(J3-Pin_2)*%
X113919000Y-96520000D02*
X114300000Y-96901000D01*
X115824000Y-101600000D02*
X115824000Y-102426000D01*
X101100000Y-95200000D02*
X102050000Y-94250000D01*
X117750000Y-95000000D02*
X117750000Y-99674000D01*
X115315000Y-96900000D02*
X116550000Y-96900000D01*
X113919000Y-95504000D02*
X113919000Y-96520000D01*
X101100000Y-96450000D02*
X101100000Y-95200000D01*
X108987500Y-94200000D02*
X112615000Y-94200000D01*
X114300000Y-96901000D02*
X114301000Y-96900000D01*
X112615000Y-94200000D02*
X113919000Y-95504000D01*
X114700000Y-94100000D02*
X116850000Y-94100000D01*
X107912500Y-95275000D02*
X108987500Y-94200000D01*
X115824000Y-102426000D02*
X114300000Y-103950000D01*
X102050000Y-94250000D02*
X108050000Y-94250000D01*
X117750000Y-99674000D02*
X115824000Y-101600000D01*
X114300000Y-103950000D02*
X114300000Y-104222500D01*
X107912500Y-95750000D02*
X107912500Y-95275000D01*
D41*
X114300000Y-101600000D02*
X114300000Y-104222500D01*
D40*
X114301000Y-96900000D02*
X115315000Y-96900000D01*
X114300000Y-93700000D02*
X114700000Y-94100000D01*
D41*
X116550000Y-96900000D02*
X116550000Y-99350000D01*
D40*
X108050000Y-94250000D02*
X108600000Y-93700000D01*
X116850000Y-94100000D02*
X117750000Y-95000000D01*
X108600000Y-93700000D02*
X114300000Y-93700000D01*
X101400000Y-96750000D02*
X101100000Y-96450000D01*
D41*
X116550000Y-99350000D02*
X114300000Y-101600000D01*
D40*
X102259314Y-96750000D02*
X101400000Y-96750000D01*
%TO.N,Net-(U1-~{Alert})*%
X98700000Y-96750000D02*
X97859314Y-96750000D01*
X100400000Y-93778682D02*
X99600000Y-94578682D01*
X100675000Y-89500000D02*
X100675000Y-90975000D01*
X99600000Y-94578682D02*
X99600000Y-95850000D01*
X100675000Y-90975000D02*
X100400000Y-91250000D01*
X99600000Y-95850000D02*
X98700000Y-96750000D01*
X100400000Y-91250000D02*
X100400000Y-93778682D01*
%TO.N,Net-(U1-SCL)*%
X107250000Y-88000000D02*
X109000000Y-88000000D01*
X100600000Y-96500000D02*
X100600000Y-94992894D01*
X100600000Y-94992894D02*
X101892894Y-93700000D01*
X97859314Y-97750000D02*
X99350000Y-97750000D01*
X99350000Y-97750000D02*
X100600000Y-96500000D01*
X101892894Y-93700000D02*
X106800000Y-93700000D01*
X106162500Y-88000000D02*
X107250000Y-88000000D01*
X106800000Y-93700000D02*
X107250000Y-93250000D01*
%TO.N,Net-(U1-SDA)*%
X107247107Y-86500000D02*
X109000000Y-86500000D01*
X106435106Y-87312000D02*
X107247107Y-86500000D01*
X101798784Y-87801216D02*
X101798784Y-90610631D01*
X103686894Y-87122000D02*
X103876894Y-87312000D01*
X103130748Y-87122000D02*
X103686894Y-87122000D01*
X100100000Y-96150000D02*
X99000000Y-97250000D01*
X102250000Y-85000000D02*
X102162500Y-85000000D01*
X103876894Y-87312000D02*
X106435106Y-87312000D01*
X102804374Y-86500000D02*
X102804374Y-86795626D01*
X101798784Y-90610631D02*
X101003000Y-91406415D01*
X102804374Y-86795626D02*
X101798784Y-87801216D01*
X102804374Y-86795626D02*
X103130748Y-87122000D01*
X99000000Y-97250000D02*
X97859314Y-97250000D01*
X101003000Y-91406415D02*
X101003000Y-93882788D01*
X102162500Y-85000000D02*
X102162500Y-85858126D01*
X102162500Y-85858126D02*
X102804374Y-86500000D01*
X100100000Y-94785788D02*
X100100000Y-96150000D01*
X101003000Y-93882788D02*
X100100000Y-94785788D01*
%TO.N,Net-(U2-IO2)*%
X128209000Y-83500000D02*
X126500000Y-83500000D01*
X128778000Y-82931000D02*
X128209000Y-83500000D01*
%TO.N,Net-(U2-IO8)*%
X106162500Y-89500000D02*
X109000000Y-89500000D01*
%TO.N,USB_D-*%
X124200000Y-100300000D02*
X124330000Y-100430000D01*
X125900000Y-99100000D02*
X124700000Y-99100000D01*
X125330000Y-100774905D02*
X125330000Y-101693000D01*
X124330000Y-100430000D02*
X124330000Y-101693000D01*
X125900000Y-99100000D02*
X125792286Y-99207714D01*
X124700000Y-99100000D02*
X124200000Y-99600000D01*
X124200000Y-99600000D02*
X124200000Y-100300000D01*
X125792286Y-100312619D02*
X125330000Y-100774905D01*
X130223679Y-97077837D02*
X129751516Y-97550000D01*
X127450000Y-97550000D02*
X125900000Y-99100000D01*
X129751516Y-97550000D02*
X127450000Y-97550000D01*
X125792286Y-99207714D02*
X125792286Y-100312619D01*
%TO.N,Net-(U2-IO19)*%
X131723679Y-93406376D02*
X131026000Y-92708697D01*
X130721000Y-88176000D02*
X128476000Y-88176000D01*
X131326000Y-88781000D02*
X130721000Y-88176000D01*
X131026000Y-90225478D02*
X131326000Y-89925478D01*
X128476000Y-88176000D02*
X126800000Y-86500000D01*
X131326000Y-89925478D02*
X131326000Y-88781000D01*
X131026000Y-92708697D02*
X131026000Y-90225478D01*
X126800000Y-86500000D02*
X126500000Y-86500000D01*
X131723679Y-95252837D02*
X131723679Y-93406376D01*
%TO.N,USB_D+*%
X127682900Y-98050000D02*
X126743203Y-98989697D01*
X125830000Y-100982011D02*
X125830000Y-101693000D01*
X131723679Y-97077837D02*
X130751516Y-98050000D01*
X126743203Y-100061316D02*
X126743203Y-100068808D01*
X126743203Y-98989697D02*
X126743203Y-100061316D01*
X130751516Y-98050000D02*
X127682900Y-98050000D01*
X124992286Y-100404098D02*
X124992286Y-99981248D01*
X124830000Y-100566384D02*
X124992286Y-100404098D01*
X126743203Y-100068808D02*
X125830000Y-100982011D01*
X124830000Y-101693000D02*
X124830000Y-100566384D01*
%TO.N,Net-(U2-IO18)*%
X127550000Y-88000000D02*
X128226000Y-88676000D01*
X126500000Y-88000000D02*
X127550000Y-88000000D01*
X130826000Y-89043000D02*
X130826000Y-89718372D01*
X130526000Y-90018372D02*
X130526000Y-93046745D01*
X128226000Y-88676000D02*
X130459000Y-88676000D01*
X130459000Y-88676000D02*
X130826000Y-89043000D01*
X130526000Y-93046745D02*
X130223679Y-93349066D01*
X130826000Y-89718372D02*
X130526000Y-90018372D01*
X130223679Y-93349066D02*
X130223679Y-95252837D01*
%TO.N,Net-(J4-Pin_3)*%
X129032000Y-91000000D02*
X126500000Y-91000000D01*
X135832000Y-94176000D02*
X132811966Y-91155966D01*
X135832000Y-95700000D02*
X135832000Y-94176000D01*
X132700013Y-91155966D02*
X132670139Y-91126092D01*
X137033000Y-96901000D02*
X135832000Y-95700000D01*
X132811966Y-91155966D02*
X132700013Y-91155966D01*
X132670139Y-91126092D02*
X132592926Y-91126092D01*
%TO.N,Net-(D1-A)*%
X123012500Y-94837500D02*
X123012500Y-96400000D01*
X122975000Y-94800000D02*
X123012500Y-94837500D01*
%TO.N,Net-(J4-Pin_2)*%
X137033000Y-94361000D02*
X133350000Y-90678000D01*
X126500000Y-89500000D02*
X127764681Y-89500000D01*
X127764681Y-89500000D02*
X128264681Y-90000000D01*
X128791273Y-90000000D02*
X128824697Y-89966576D01*
X128264681Y-90000000D02*
X128791273Y-90000000D01*
X133350000Y-90678000D02*
X133350000Y-89916000D01*
%TO.N,Net-(D6-K)*%
X136522000Y-87881000D02*
X135015000Y-86374000D01*
X128524000Y-100330000D02*
X128315523Y-100538477D01*
X131826000Y-89815500D02*
X131826000Y-92075000D01*
X132995500Y-88001500D02*
X132995500Y-88646000D01*
X122500000Y-99550000D02*
X122500000Y-100400000D01*
X122200000Y-99250000D02*
X122500000Y-99550000D01*
X127480000Y-101108478D02*
X127480000Y-101693000D01*
X136522000Y-88646000D02*
X136522000Y-87881000D01*
X128800000Y-96800000D02*
X128800000Y-93459760D01*
X128800000Y-93459760D02*
X129726000Y-92533760D01*
X128315523Y-100538477D02*
X128050000Y-100538477D01*
X135015000Y-86374000D02*
X131368000Y-86374000D01*
X122500000Y-100400000D02*
X122680000Y-100580000D01*
X132995500Y-88646000D02*
X131826000Y-89815500D01*
X131368000Y-86374000D02*
X132995500Y-88001500D01*
X122680000Y-100580000D02*
X122680000Y-101693000D01*
X128050000Y-100538477D02*
X127480000Y-101108478D01*
%TO.N,Net-(D1-K)*%
X125250000Y-92150000D02*
X125250000Y-85950000D01*
X126200000Y-85000000D02*
X126500000Y-85000000D01*
X121225000Y-94375000D02*
X121800000Y-93800000D01*
X121800000Y-93800000D02*
X123600000Y-93800000D01*
X125250000Y-85950000D02*
X126200000Y-85000000D01*
X121225000Y-94800000D02*
X121225000Y-94375000D01*
X123600000Y-93800000D02*
X125250000Y-92150000D01*
%TO.N,Net-(D2-A)*%
X126507500Y-96395000D02*
X126512500Y-96400000D01*
X126507500Y-94832500D02*
X126507500Y-96395000D01*
X126475000Y-94800000D02*
X126507500Y-94832500D01*
%TO.N,Net-(D2-K)*%
X125900000Y-92500000D02*
X124757500Y-93642500D01*
X124757500Y-93642500D02*
X124757500Y-94767500D01*
X126500000Y-92500000D02*
X125900000Y-92500000D01*
X124757500Y-94767500D02*
X124725000Y-94800000D01*
%TO.N,Net-(J1-Pin_2)*%
X110350002Y-84550002D02*
X109300000Y-83500000D01*
X106952846Y-83500000D02*
X105362846Y-85090000D01*
X105362846Y-85090000D02*
X105005500Y-85090000D01*
X103891000Y-102616000D02*
X106680000Y-99827000D01*
X109000000Y-83500000D02*
X106952846Y-83500000D01*
X110350002Y-91186000D02*
X110350002Y-84550002D01*
X109300000Y-83500000D02*
X109000000Y-83500000D01*
X103378000Y-102616000D02*
X103891000Y-102616000D01*
X106680000Y-99827000D02*
X106680000Y-99568000D01*
%TO.N,Net-(J5-CC1)*%
X123830000Y-101693000D02*
X123830000Y-100980000D01*
X123830000Y-100980000D02*
X123012500Y-100162500D01*
X123012500Y-100162500D02*
X123012500Y-98200000D01*
%TO.N,Net-(J5-CC2)*%
X126830000Y-100843000D02*
X126873000Y-100800000D01*
X127949000Y-99000000D02*
X128651000Y-99000000D01*
X126873000Y-100800000D02*
X127081371Y-100800000D01*
X127081371Y-100800000D02*
X127550000Y-100331371D01*
X127550000Y-99399000D02*
X127949000Y-99000000D01*
X127550000Y-100331371D02*
X127550000Y-99399000D01*
X126830000Y-101693000D02*
X126830000Y-100843000D01*
%TD*%
%TA.AperFunction,Conductor*%
%TO.N,GND*%
G36*
X125192539Y-80270185D02*
G01*
X125238294Y-80322989D01*
X125249500Y-80374500D01*
X125249500Y-80997870D01*
X125249501Y-80997876D01*
X125255908Y-81057483D01*
X125309303Y-81200641D01*
X125307575Y-81201285D01*
X125320095Y-81258853D01*
X125308310Y-81298988D01*
X125309303Y-81299359D01*
X125255908Y-81442517D01*
X125255267Y-81448484D01*
X125249501Y-81502123D01*
X125249500Y-81502135D01*
X125249500Y-82497870D01*
X125249501Y-82497876D01*
X125255908Y-82557483D01*
X125309303Y-82700641D01*
X125307575Y-82701285D01*
X125320095Y-82758853D01*
X125308310Y-82798988D01*
X125309303Y-82799359D01*
X125255908Y-82942517D01*
X125249501Y-83002116D01*
X125249501Y-83002123D01*
X125249500Y-83002135D01*
X125249500Y-83997870D01*
X125249501Y-83997876D01*
X125255908Y-84057483D01*
X125309303Y-84200641D01*
X125307575Y-84201285D01*
X125320095Y-84258853D01*
X125308310Y-84298988D01*
X125309303Y-84299359D01*
X125255908Y-84442517D01*
X125249501Y-84502116D01*
X125249500Y-84502135D01*
X125249500Y-84979191D01*
X125229815Y-85046230D01*
X125213181Y-85066872D01*
X124744722Y-85535331D01*
X124697367Y-85606203D01*
X124697368Y-85606204D01*
X124673534Y-85641874D01*
X124624499Y-85760255D01*
X124624497Y-85760261D01*
X124599500Y-85885928D01*
X124599500Y-91829192D01*
X124579815Y-91896231D01*
X124563181Y-91916873D01*
X123366873Y-93113181D01*
X123305550Y-93146666D01*
X123279192Y-93149500D01*
X121735929Y-93149500D01*
X121610261Y-93174497D01*
X121610255Y-93174499D01*
X121561429Y-93194724D01*
X121561428Y-93194724D01*
X121491876Y-93223532D01*
X121385326Y-93294726D01*
X120883017Y-93797035D01*
X120821694Y-93830520D01*
X120807939Y-93832712D01*
X120787249Y-93834825D01*
X120787248Y-93834825D01*
X120787247Y-93834826D01*
X120706088Y-93861719D01*
X120623486Y-93889091D01*
X120623481Y-93889093D01*
X120476648Y-93979661D01*
X120354661Y-94101648D01*
X120264093Y-94248481D01*
X120264091Y-94248486D01*
X120239688Y-94322129D01*
X120209826Y-94412247D01*
X120209826Y-94412248D01*
X120209825Y-94412248D01*
X120199500Y-94513315D01*
X120199500Y-95086669D01*
X120199501Y-95086687D01*
X120209825Y-95187752D01*
X120212499Y-95195820D01*
X120264092Y-95351516D01*
X120349999Y-95490794D01*
X120354661Y-95498351D01*
X120368629Y-95512319D01*
X120402114Y-95573642D01*
X120397130Y-95643334D01*
X120368629Y-95687681D01*
X120354661Y-95701648D01*
X120264093Y-95848481D01*
X120264091Y-95848486D01*
X120252727Y-95882781D01*
X120209826Y-96012247D01*
X120209826Y-96012248D01*
X120209825Y-96012248D01*
X120199500Y-96113315D01*
X120199500Y-96686669D01*
X120199501Y-96686687D01*
X120209825Y-96787752D01*
X120264092Y-96951515D01*
X120264093Y-96951518D01*
X120354661Y-97098351D01*
X120468982Y-97212672D01*
X120502467Y-97273995D01*
X120497483Y-97343687D01*
X120468983Y-97388034D01*
X120355052Y-97501965D01*
X120264551Y-97648688D01*
X120264546Y-97648699D01*
X120210319Y-97812347D01*
X120200000Y-97913345D01*
X120200000Y-97950000D01*
X121063500Y-97950000D01*
X121130539Y-97969685D01*
X121176294Y-98022489D01*
X121187500Y-98074000D01*
X121187500Y-98200000D01*
X121313500Y-98200000D01*
X121380539Y-98219685D01*
X121426294Y-98272489D01*
X121437500Y-98324000D01*
X121437500Y-98732689D01*
X121417815Y-98799728D01*
X121416602Y-98801580D01*
X121401990Y-98823447D01*
X121401983Y-98823460D01*
X121334106Y-98987332D01*
X121334103Y-98987341D01*
X121299500Y-99161304D01*
X121299500Y-99338695D01*
X121334103Y-99512658D01*
X121334106Y-99512667D01*
X121401983Y-99676540D01*
X121401990Y-99676553D01*
X121500535Y-99824034D01*
X121500538Y-99824038D01*
X121625961Y-99949461D01*
X121625965Y-99949464D01*
X121773449Y-100048011D01*
X121778819Y-100050881D01*
X121778200Y-100052038D01*
X121827348Y-100091635D01*
X121849420Y-100157926D01*
X121849500Y-100162366D01*
X121849500Y-100464069D01*
X121849500Y-100464071D01*
X121849499Y-100464071D01*
X121855614Y-100494808D01*
X121849387Y-100564400D01*
X121806524Y-100619577D01*
X121740634Y-100642822D01*
X121733997Y-100643000D01*
X121532155Y-100643000D01*
X121472627Y-100649401D01*
X121472620Y-100649403D01*
X121337913Y-100699645D01*
X121337906Y-100699649D01*
X121222812Y-100785809D01*
X121222809Y-100785812D01*
X121136649Y-100900906D01*
X121136645Y-100900913D01*
X121086403Y-101035620D01*
X121086401Y-101035627D01*
X121080000Y-101095155D01*
X121080000Y-101443000D01*
X121755500Y-101443000D01*
X121822539Y-101462685D01*
X121868294Y-101515489D01*
X121879500Y-101567000D01*
X121879501Y-101819000D01*
X121859817Y-101886039D01*
X121807013Y-101931794D01*
X121755501Y-101943000D01*
X121085621Y-101943000D01*
X121031827Y-101930724D01*
X121021505Y-101925754D01*
X121020803Y-101924854D01*
X120984189Y-101900135D01*
X120974297Y-101890902D01*
X120965804Y-101887722D01*
X120944491Y-101873333D01*
X120870948Y-101852209D01*
X120867226Y-101850816D01*
X120866037Y-101850799D01*
X120865526Y-101850652D01*
X120864062Y-101849947D01*
X120858374Y-101848597D01*
X120855999Y-101847915D01*
X120855987Y-101847913D01*
X120812904Y-101849400D01*
X120812156Y-101849426D01*
X120807882Y-101849500D01*
X120763856Y-101849500D01*
X120674713Y-101873385D01*
X120666862Y-101877917D01*
X120666861Y-101877916D01*
X120655585Y-101884426D01*
X120650113Y-101886204D01*
X120640855Y-101892929D01*
X120635226Y-101896180D01*
X120635218Y-101896186D01*
X120594788Y-101919531D01*
X120576565Y-101937753D01*
X120576564Y-101937752D01*
X120569658Y-101944657D01*
X120560970Y-101950970D01*
X120554657Y-101959658D01*
X120547757Y-101966559D01*
X120547752Y-101966566D01*
X120530219Y-101984100D01*
X120468897Y-102017586D01*
X120399205Y-102012604D01*
X120343270Y-101970734D01*
X120339433Y-101965311D01*
X120237142Y-101812222D01*
X120237136Y-101812214D01*
X120097785Y-101672863D01*
X120097781Y-101672860D01*
X119933920Y-101563371D01*
X119933907Y-101563364D01*
X119751839Y-101487950D01*
X119751829Y-101487947D01*
X119558543Y-101449500D01*
X119558541Y-101449500D01*
X119361459Y-101449500D01*
X119361457Y-101449500D01*
X119168170Y-101487947D01*
X119168160Y-101487950D01*
X118986092Y-101563364D01*
X118986079Y-101563371D01*
X118822218Y-101672860D01*
X118822214Y-101672863D01*
X118682863Y-101812214D01*
X118682860Y-101812218D01*
X118573371Y-101976079D01*
X118573364Y-101976092D01*
X118497950Y-102158160D01*
X118497947Y-102158170D01*
X118459500Y-102351456D01*
X118459500Y-102351459D01*
X118459500Y-103348541D01*
X118459500Y-103348543D01*
X118459499Y-103348543D01*
X118497947Y-103541829D01*
X118497950Y-103541839D01*
X118573364Y-103723907D01*
X118573371Y-103723920D01*
X118682860Y-103887781D01*
X118682863Y-103887785D01*
X118822214Y-104027136D01*
X118822218Y-104027139D01*
X118986079Y-104136628D01*
X118986092Y-104136635D01*
X119135739Y-104198620D01*
X119168165Y-104212051D01*
X119168169Y-104212051D01*
X119168170Y-104212052D01*
X119361456Y-104250500D01*
X119361459Y-104250500D01*
X119558543Y-104250500D01*
X119688582Y-104224632D01*
X119751835Y-104212051D01*
X119933914Y-104136632D01*
X120097782Y-104027139D01*
X120237139Y-103887782D01*
X120237145Y-103887772D01*
X120239643Y-103884730D01*
X120241365Y-103883556D01*
X120241447Y-103883475D01*
X120241462Y-103883490D01*
X120297387Y-103845393D01*
X120367232Y-103843520D01*
X120427002Y-103879704D01*
X120457721Y-103942459D01*
X120459500Y-103963391D01*
X120459500Y-105536608D01*
X120439815Y-105603647D01*
X120387011Y-105649402D01*
X120317853Y-105659346D01*
X120254297Y-105630321D01*
X120239648Y-105615275D01*
X120237134Y-105612212D01*
X120097785Y-105472863D01*
X120097781Y-105472860D01*
X119933920Y-105363371D01*
X119933907Y-105363364D01*
X119751839Y-105287950D01*
X119751829Y-105287947D01*
X119558543Y-105249500D01*
X119558541Y-105249500D01*
X119361459Y-105249500D01*
X119361457Y-105249500D01*
X119168170Y-105287947D01*
X119168160Y-105287950D01*
X118986092Y-105363364D01*
X118986079Y-105363371D01*
X118822218Y-105472860D01*
X118822214Y-105472863D01*
X118682863Y-105612214D01*
X118682860Y-105612218D01*
X118573371Y-105776079D01*
X118573364Y-105776092D01*
X118497950Y-105958160D01*
X118497947Y-105958170D01*
X118459500Y-106151456D01*
X118459500Y-106151459D01*
X118459500Y-107548541D01*
X118459500Y-107548543D01*
X118459499Y-107548543D01*
X118497947Y-107741829D01*
X118497950Y-107741839D01*
X118573364Y-107923907D01*
X118573371Y-107923920D01*
X118682860Y-108087781D01*
X118682863Y-108087785D01*
X118822214Y-108227136D01*
X118822218Y-108227139D01*
X118889952Y-108272398D01*
X118934757Y-108326010D01*
X118943464Y-108395335D01*
X118913309Y-108458363D01*
X118853866Y-108495082D01*
X118821061Y-108499500D01*
X94374500Y-108499500D01*
X94307461Y-108479815D01*
X94261706Y-108427011D01*
X94250500Y-108375500D01*
X94250500Y-104878711D01*
X95899500Y-104878711D01*
X95899500Y-105121288D01*
X95931161Y-105361785D01*
X95993947Y-105596104D01*
X96068498Y-105776086D01*
X96086776Y-105820212D01*
X96208064Y-106030289D01*
X96208066Y-106030292D01*
X96208067Y-106030293D01*
X96355733Y-106222736D01*
X96355739Y-106222743D01*
X96527256Y-106394260D01*
X96527263Y-106394266D01*
X96640321Y-106481018D01*
X96719711Y-106541936D01*
X96929788Y-106663224D01*
X97153900Y-106756054D01*
X97388211Y-106818838D01*
X97568586Y-106842584D01*
X97628711Y-106850500D01*
X97628712Y-106850500D01*
X97871289Y-106850500D01*
X97919388Y-106844167D01*
X98111789Y-106818838D01*
X98346100Y-106756054D01*
X98570212Y-106663224D01*
X98780289Y-106541936D01*
X98972738Y-106394265D01*
X99144265Y-106222738D01*
X99291936Y-106030289D01*
X99413224Y-105820212D01*
X99506054Y-105596100D01*
X99568838Y-105361789D01*
X99600500Y-105121288D01*
X99600500Y-104878712D01*
X99596587Y-104848993D01*
X99568838Y-104638214D01*
X99568838Y-104638211D01*
X99506054Y-104403900D01*
X99413224Y-104179788D01*
X99291936Y-103969711D01*
X99196544Y-103845393D01*
X99144266Y-103777263D01*
X99144260Y-103777256D01*
X98972743Y-103605739D01*
X98972736Y-103605733D01*
X98780293Y-103458067D01*
X98780292Y-103458066D01*
X98780289Y-103458064D01*
X98570212Y-103336776D01*
X98570205Y-103336773D01*
X98346104Y-103243947D01*
X98111785Y-103181161D01*
X97871289Y-103149500D01*
X97871288Y-103149500D01*
X97628712Y-103149500D01*
X97628711Y-103149500D01*
X97388214Y-103181161D01*
X97153895Y-103243947D01*
X96929794Y-103336773D01*
X96929785Y-103336777D01*
X96719706Y-103458067D01*
X96527263Y-103605733D01*
X96527256Y-103605739D01*
X96355739Y-103777256D01*
X96355733Y-103777263D01*
X96208067Y-103969706D01*
X96086777Y-104179785D01*
X96086773Y-104179794D01*
X95993947Y-104403895D01*
X95931161Y-104638214D01*
X95899500Y-104878711D01*
X94250500Y-104878711D01*
X94250500Y-97619808D01*
X94270185Y-97552769D01*
X94322989Y-97507014D01*
X94392147Y-97497070D01*
X94455703Y-97526095D01*
X94462181Y-97532127D01*
X96162863Y-99232808D01*
X97844724Y-100914669D01*
X97919504Y-100989449D01*
X97935332Y-101005277D01*
X98041866Y-101076461D01*
X98041872Y-101076464D01*
X98041873Y-101076465D01*
X98160256Y-101125501D01*
X98160260Y-101125501D01*
X98160261Y-101125502D01*
X98285928Y-101150500D01*
X98285931Y-101150500D01*
X101264071Y-101150500D01*
X101348615Y-101133682D01*
X101389744Y-101125501D01*
X101508127Y-101076465D01*
X101607110Y-101010326D01*
X101673786Y-100989449D01*
X101741166Y-101007933D01*
X101787857Y-101059912D01*
X101800000Y-101113429D01*
X101800000Y-101200000D01*
X102023961Y-101487950D01*
X102227464Y-101749597D01*
X102253084Y-101814600D01*
X102239494Y-101883136D01*
X102229906Y-101898605D01*
X102222957Y-101908170D01*
X102222953Y-101908176D01*
X102126444Y-102097585D01*
X102060753Y-102299760D01*
X102027500Y-102509713D01*
X102027500Y-102722286D01*
X102060753Y-102932239D01*
X102126444Y-103134414D01*
X102222951Y-103323820D01*
X102347890Y-103495786D01*
X102461818Y-103609714D01*
X102495303Y-103671037D01*
X102490319Y-103740729D01*
X102448447Y-103796662D01*
X102417471Y-103813577D01*
X102285912Y-103862646D01*
X102285906Y-103862649D01*
X102170812Y-103948809D01*
X102170809Y-103948812D01*
X102084649Y-104063906D01*
X102084645Y-104063913D01*
X102034403Y-104198620D01*
X102034401Y-104198627D01*
X102028000Y-104258155D01*
X102028000Y-104906000D01*
X102944988Y-104906000D01*
X102912075Y-104963007D01*
X102878000Y-105090174D01*
X102878000Y-105221826D01*
X102912075Y-105348993D01*
X102944988Y-105406000D01*
X102028000Y-105406000D01*
X102028000Y-106053844D01*
X102034401Y-106113372D01*
X102034403Y-106113379D01*
X102084645Y-106248086D01*
X102084649Y-106248093D01*
X102170809Y-106363187D01*
X102170812Y-106363190D01*
X102285906Y-106449350D01*
X102285913Y-106449354D01*
X102420620Y-106499596D01*
X102420627Y-106499598D01*
X102480155Y-106505999D01*
X102480172Y-106506000D01*
X103128000Y-106506000D01*
X103128000Y-105589012D01*
X103185007Y-105621925D01*
X103312174Y-105656000D01*
X103443826Y-105656000D01*
X103570993Y-105621925D01*
X103628000Y-105589012D01*
X103628000Y-106506000D01*
X104275828Y-106506000D01*
X104275844Y-106505999D01*
X104335372Y-106499598D01*
X104335379Y-106499596D01*
X104470086Y-106449354D01*
X104470093Y-106449350D01*
X104585187Y-106363190D01*
X104585190Y-106363187D01*
X104671350Y-106248093D01*
X104671354Y-106248086D01*
X104721596Y-106113379D01*
X104721598Y-106113372D01*
X104727999Y-106053844D01*
X104728000Y-106053827D01*
X104728000Y-105325974D01*
X104747685Y-105258935D01*
X104800489Y-105213180D01*
X104869647Y-105203236D01*
X104933203Y-105232261D01*
X104949876Y-105249841D01*
X106000000Y-106600000D01*
X106000001Y-106600000D01*
X115854000Y-106600000D01*
X116616000Y-105838000D01*
X116616000Y-101779308D01*
X116635685Y-101712269D01*
X116652319Y-101691627D01*
X118255271Y-100088675D01*
X118255276Y-100088670D01*
X118326465Y-99982127D01*
X118375501Y-99863744D01*
X118383499Y-99823535D01*
X118400500Y-99738069D01*
X118400500Y-98486654D01*
X120200001Y-98486654D01*
X120210319Y-98587652D01*
X120264546Y-98751300D01*
X120264551Y-98751311D01*
X120355052Y-98898034D01*
X120355055Y-98898038D01*
X120476961Y-99019944D01*
X120476965Y-99019947D01*
X120623688Y-99110448D01*
X120623699Y-99110453D01*
X120787347Y-99164680D01*
X120888351Y-99174999D01*
X120937499Y-99174998D01*
X120937500Y-99174998D01*
X120937500Y-98450000D01*
X120200001Y-98450000D01*
X120200001Y-98486654D01*
X118400500Y-98486654D01*
X118400500Y-94935931D01*
X118400500Y-94935928D01*
X118375502Y-94810261D01*
X118375501Y-94810260D01*
X118375501Y-94810256D01*
X118326465Y-94691873D01*
X118326464Y-94691872D01*
X118326461Y-94691866D01*
X118255277Y-94585332D01*
X118211932Y-94541987D01*
X118164669Y-94494724D01*
X117940494Y-94270549D01*
X117264674Y-93594727D01*
X117264673Y-93594726D01*
X117264669Y-93594723D01*
X117158127Y-93523535D01*
X117123606Y-93509236D01*
X117039744Y-93474499D01*
X117039738Y-93474497D01*
X116914071Y-93449500D01*
X116914069Y-93449500D01*
X115020808Y-93449500D01*
X114953769Y-93429815D01*
X114933127Y-93413181D01*
X114714674Y-93194727D01*
X114714673Y-93194726D01*
X114684398Y-93174497D01*
X114608127Y-93123535D01*
X114583130Y-93113181D01*
X114489744Y-93074499D01*
X114489738Y-93074497D01*
X114364071Y-93049500D01*
X114364069Y-93049500D01*
X110374000Y-93049500D01*
X110306961Y-93029815D01*
X110261206Y-92977011D01*
X110250000Y-92925500D01*
X110250000Y-92750000D01*
X109124000Y-92750000D01*
X109056961Y-92730315D01*
X109011206Y-92677511D01*
X109000000Y-92626000D01*
X109000000Y-92374000D01*
X109019685Y-92306961D01*
X109072489Y-92261206D01*
X109124000Y-92250000D01*
X110250000Y-92250000D01*
X110250000Y-92210500D01*
X110269685Y-92143461D01*
X110322489Y-92097706D01*
X110374000Y-92086500D01*
X110438695Y-92086500D01*
X110438696Y-92086499D01*
X110524429Y-92069446D01*
X110612660Y-92051896D01*
X110612663Y-92051894D01*
X110612668Y-92051894D01*
X110776549Y-91984013D01*
X110779888Y-91981782D01*
X110924039Y-91885463D01*
X110924043Y-91885459D01*
X111049463Y-91760038D01*
X111049466Y-91760035D01*
X111148015Y-91612547D01*
X111215896Y-91448666D01*
X111217261Y-91441808D01*
X111250501Y-91274695D01*
X111250502Y-91274693D01*
X111250502Y-91097306D01*
X111250501Y-91097304D01*
X111215898Y-90923341D01*
X111215895Y-90923332D01*
X111148018Y-90759459D01*
X111148011Y-90759446D01*
X111049466Y-90611965D01*
X111049463Y-90611961D01*
X111036821Y-90599319D01*
X111003336Y-90537996D01*
X111000502Y-90511638D01*
X111000502Y-84485930D01*
X110975504Y-84360263D01*
X110975503Y-84360262D01*
X110975503Y-84360258D01*
X110926467Y-84241875D01*
X110893363Y-84192331D01*
X110855279Y-84135333D01*
X110855277Y-84135330D01*
X110286818Y-83566871D01*
X110253333Y-83505548D01*
X110250499Y-83479190D01*
X110250499Y-83002129D01*
X110250498Y-83002123D01*
X110250497Y-83002116D01*
X110244091Y-82942517D01*
X110193796Y-82807669D01*
X110193794Y-82807666D01*
X110190696Y-82799360D01*
X110192426Y-82798714D01*
X110179902Y-82741163D01*
X110191691Y-82701011D01*
X110190696Y-82700640D01*
X110193794Y-82692333D01*
X110193796Y-82692331D01*
X110244091Y-82557483D01*
X110250500Y-82497873D01*
X110250499Y-81502128D01*
X110244091Y-81442517D01*
X110193796Y-81307669D01*
X110193794Y-81307666D01*
X110190696Y-81299360D01*
X110192426Y-81298714D01*
X110179902Y-81241163D01*
X110191691Y-81201011D01*
X110190696Y-81200640D01*
X110193794Y-81192333D01*
X110193796Y-81192331D01*
X110244091Y-81057483D01*
X110250500Y-80997873D01*
X110250499Y-80374499D01*
X110270183Y-80307461D01*
X110322987Y-80261706D01*
X110374499Y-80250500D01*
X125125500Y-80250500D01*
X125192539Y-80270185D01*
G37*
%TD.AperFunction*%
%TA.AperFunction,Conductor*%
G36*
X138930365Y-86236846D02*
G01*
X138981775Y-86284161D01*
X138999500Y-86348048D01*
X138999500Y-108375500D01*
X138979815Y-108442539D01*
X138927011Y-108488294D01*
X138875500Y-108499500D01*
X131338939Y-108499500D01*
X131271900Y-108479815D01*
X131226145Y-108427011D01*
X131216201Y-108357853D01*
X131245226Y-108294297D01*
X131270048Y-108272398D01*
X131302871Y-108250465D01*
X131337782Y-108227139D01*
X131477139Y-108087782D01*
X131586632Y-107923914D01*
X131662051Y-107741835D01*
X131700500Y-107548541D01*
X131700500Y-106151459D01*
X131700500Y-106151456D01*
X131662052Y-105958170D01*
X131662051Y-105958169D01*
X131662051Y-105958165D01*
X131662049Y-105958160D01*
X131586635Y-105776092D01*
X131586628Y-105776079D01*
X131477139Y-105612218D01*
X131477136Y-105612214D01*
X131337785Y-105472863D01*
X131337781Y-105472860D01*
X131173920Y-105363371D01*
X131173907Y-105363364D01*
X130991839Y-105287950D01*
X130991829Y-105287947D01*
X130798543Y-105249500D01*
X130798541Y-105249500D01*
X130601459Y-105249500D01*
X130601457Y-105249500D01*
X130408170Y-105287947D01*
X130408160Y-105287950D01*
X130226092Y-105363364D01*
X130226079Y-105363371D01*
X130062218Y-105472860D01*
X130062214Y-105472863D01*
X129922865Y-105612212D01*
X129920352Y-105615275D01*
X129918630Y-105616447D01*
X129918553Y-105616525D01*
X129918538Y-105616510D01*
X129862605Y-105654608D01*
X129792761Y-105656477D01*
X129732993Y-105620289D01*
X129702278Y-105557532D01*
X129700500Y-105536608D01*
X129700500Y-104878711D01*
X133649500Y-104878711D01*
X133649500Y-105121288D01*
X133681161Y-105361785D01*
X133743947Y-105596104D01*
X133818498Y-105776086D01*
X133836776Y-105820212D01*
X133958064Y-106030289D01*
X133958066Y-106030292D01*
X133958067Y-106030293D01*
X134105733Y-106222736D01*
X134105739Y-106222743D01*
X134277256Y-106394260D01*
X134277263Y-106394266D01*
X134390321Y-106481018D01*
X134469711Y-106541936D01*
X134679788Y-106663224D01*
X134903900Y-106756054D01*
X135138211Y-106818838D01*
X135318586Y-106842584D01*
X135378711Y-106850500D01*
X135378712Y-106850500D01*
X135621289Y-106850500D01*
X135669388Y-106844167D01*
X135861789Y-106818838D01*
X136096100Y-106756054D01*
X136320212Y-106663224D01*
X136530289Y-106541936D01*
X136722738Y-106394265D01*
X136894265Y-106222738D01*
X137041936Y-106030289D01*
X137163224Y-105820212D01*
X137256054Y-105596100D01*
X137318838Y-105361789D01*
X137350500Y-105121288D01*
X137350500Y-104878712D01*
X137346587Y-104848993D01*
X137318838Y-104638214D01*
X137318838Y-104638211D01*
X137256054Y-104403900D01*
X137163224Y-104179788D01*
X137041936Y-103969711D01*
X136946544Y-103845393D01*
X136894266Y-103777263D01*
X136894260Y-103777256D01*
X136722743Y-103605739D01*
X136722736Y-103605733D01*
X136530293Y-103458067D01*
X136530292Y-103458066D01*
X136530289Y-103458064D01*
X136320212Y-103336776D01*
X136320205Y-103336773D01*
X136096104Y-103243947D01*
X135861785Y-103181161D01*
X135621289Y-103149500D01*
X135621288Y-103149500D01*
X135378712Y-103149500D01*
X135378711Y-103149500D01*
X135138214Y-103181161D01*
X134903895Y-103243947D01*
X134679794Y-103336773D01*
X134679785Y-103336777D01*
X134469706Y-103458067D01*
X134277263Y-103605733D01*
X134277256Y-103605739D01*
X134105739Y-103777256D01*
X134105733Y-103777263D01*
X133958067Y-103969706D01*
X133836777Y-104179785D01*
X133836773Y-104179794D01*
X133743947Y-104403895D01*
X133681161Y-104638214D01*
X133649500Y-104878711D01*
X129700500Y-104878711D01*
X129700500Y-103963391D01*
X129720185Y-103896352D01*
X129772989Y-103850597D01*
X129842147Y-103840653D01*
X129905703Y-103869678D01*
X129920357Y-103884730D01*
X129922859Y-103887779D01*
X129922860Y-103887781D01*
X129922868Y-103887790D01*
X130062214Y-104027136D01*
X130062218Y-104027139D01*
X130226079Y-104136628D01*
X130226092Y-104136635D01*
X130375739Y-104198620D01*
X130408165Y-104212051D01*
X130408169Y-104212051D01*
X130408170Y-104212052D01*
X130601456Y-104250500D01*
X130601459Y-104250500D01*
X130798543Y-104250500D01*
X130928582Y-104224632D01*
X130991835Y-104212051D01*
X131173914Y-104136632D01*
X131337782Y-104027139D01*
X131477139Y-103887782D01*
X131586632Y-103723914D01*
X131662051Y-103541835D01*
X131700500Y-103348541D01*
X131700500Y-102351459D01*
X131700500Y-102351456D01*
X131662052Y-102158170D01*
X131662051Y-102158169D01*
X131662051Y-102158165D01*
X131650598Y-102130515D01*
X131586635Y-101976092D01*
X131586628Y-101976079D01*
X131477139Y-101812218D01*
X131477136Y-101812214D01*
X131337785Y-101672863D01*
X131337781Y-101672860D01*
X131173920Y-101563371D01*
X131173907Y-101563364D01*
X130991839Y-101487950D01*
X130991829Y-101487947D01*
X130798543Y-101449500D01*
X130798541Y-101449500D01*
X130601459Y-101449500D01*
X130601457Y-101449500D01*
X130408170Y-101487947D01*
X130408160Y-101487950D01*
X130226092Y-101563364D01*
X130226079Y-101563371D01*
X130062218Y-101672860D01*
X130062214Y-101672863D01*
X129922863Y-101812214D01*
X129922860Y-101812218D01*
X129820566Y-101965312D01*
X129804399Y-101978822D01*
X129791774Y-101995688D01*
X129778129Y-102000777D01*
X129766954Y-102010117D01*
X129746049Y-102012742D01*
X129726310Y-102020105D01*
X129712078Y-102017009D01*
X129697629Y-102018824D01*
X129678624Y-102009731D01*
X129658037Y-102005253D01*
X129638155Y-101990369D01*
X129634601Y-101988669D01*
X129629783Y-101984102D01*
X129612252Y-101966571D01*
X129599614Y-101951774D01*
X129599029Y-101950969D01*
X129598214Y-101950377D01*
X129583429Y-101937747D01*
X129565215Y-101919533D01*
X129565206Y-101919527D01*
X129524795Y-101896194D01*
X129524795Y-101896195D01*
X129519162Y-101892943D01*
X129509887Y-101886204D01*
X129504405Y-101884422D01*
X129493123Y-101877909D01*
X129485292Y-101873388D01*
X129485290Y-101873387D01*
X129485288Y-101873386D01*
X129396144Y-101849500D01*
X129396141Y-101849500D01*
X129354987Y-101849500D01*
X129350000Y-101849500D01*
X129349988Y-101849500D01*
X129304007Y-101847914D01*
X129293962Y-101850799D01*
X129292774Y-101850816D01*
X129289045Y-101852211D01*
X129287652Y-101852611D01*
X129287151Y-101852635D01*
X129284381Y-101853550D01*
X129215507Y-101873333D01*
X129194192Y-101887723D01*
X129185703Y-101890902D01*
X129175812Y-101900132D01*
X129143765Y-101921770D01*
X129077188Y-101942968D01*
X129074380Y-101943000D01*
X128404500Y-101943000D01*
X128337461Y-101923315D01*
X128291706Y-101870511D01*
X128280500Y-101819000D01*
X128280499Y-101567000D01*
X128300183Y-101499961D01*
X128352987Y-101454206D01*
X128404499Y-101443000D01*
X129080000Y-101443000D01*
X129080000Y-101098862D01*
X129099685Y-101031823D01*
X129116319Y-101011181D01*
X129223461Y-100904038D01*
X129223464Y-100904035D01*
X129322013Y-100756547D01*
X129389894Y-100592666D01*
X129390476Y-100589744D01*
X129424499Y-100418695D01*
X129424500Y-100418693D01*
X129424500Y-100241306D01*
X129424499Y-100241304D01*
X129389896Y-100067341D01*
X129389893Y-100067332D01*
X129341044Y-99949398D01*
X129338907Y-99929522D01*
X129331921Y-99910792D01*
X129335248Y-99895495D01*
X129333575Y-99879929D01*
X129342523Y-99862052D01*
X129346773Y-99842519D01*
X129363460Y-99820226D01*
X129364851Y-99817450D01*
X129367896Y-99814293D01*
X129476174Y-99706015D01*
X129537495Y-99672532D01*
X129607187Y-99677516D01*
X129651534Y-99706017D01*
X129765461Y-99819944D01*
X129765465Y-99819947D01*
X129912188Y-99910448D01*
X129912199Y-99910453D01*
X130075847Y-99964680D01*
X130176851Y-99974999D01*
X130726000Y-99974999D01*
X130775140Y-99974999D01*
X130775154Y-99974998D01*
X130876152Y-99964680D01*
X131039800Y-99910453D01*
X131039811Y-99910448D01*
X131186534Y-99819947D01*
X131186538Y-99819944D01*
X131308444Y-99698038D01*
X131308447Y-99698034D01*
X131398948Y-99551311D01*
X131398953Y-99551300D01*
X131453180Y-99387652D01*
X131463499Y-99286654D01*
X131463500Y-99286641D01*
X131463500Y-99250000D01*
X130726000Y-99250000D01*
X130726000Y-99974999D01*
X130176851Y-99974999D01*
X130225999Y-99974998D01*
X130226000Y-99974998D01*
X130226000Y-99124000D01*
X130245685Y-99056961D01*
X130298489Y-99011206D01*
X130350000Y-99000000D01*
X130476000Y-99000000D01*
X130476000Y-98874000D01*
X130495685Y-98806961D01*
X130548489Y-98761206D01*
X130600000Y-98750000D01*
X131463499Y-98750000D01*
X131463499Y-98713360D01*
X131463498Y-98713345D01*
X131453180Y-98612347D01*
X131398953Y-98448699D01*
X131395899Y-98442149D01*
X131398666Y-98440858D01*
X131383843Y-98386734D01*
X131404749Y-98320065D01*
X131420134Y-98301327D01*
X131619306Y-98102154D01*
X131680629Y-98068670D01*
X131706987Y-98065836D01*
X132010349Y-98065836D01*
X132010355Y-98065836D01*
X132111432Y-98055511D01*
X132275195Y-98001245D01*
X132422029Y-97910677D01*
X132544019Y-97788687D01*
X132634587Y-97641853D01*
X132688853Y-97478090D01*
X132699179Y-97377014D01*
X132699178Y-96778661D01*
X132688853Y-96677584D01*
X132634587Y-96513821D01*
X132544019Y-96366987D01*
X132430050Y-96253018D01*
X132396565Y-96191695D01*
X132401549Y-96122003D01*
X132430050Y-96077656D01*
X132473679Y-96034027D01*
X132544019Y-95963687D01*
X132634587Y-95816853D01*
X132688853Y-95653090D01*
X132699179Y-95552014D01*
X132699178Y-94953661D01*
X132688853Y-94852584D01*
X132634587Y-94688821D01*
X132544019Y-94541987D01*
X132422029Y-94419997D01*
X132422028Y-94419996D01*
X132422026Y-94419994D01*
X132421272Y-94419398D01*
X132420888Y-94418856D01*
X132416922Y-94414890D01*
X132417599Y-94414212D01*
X132380893Y-94362378D01*
X132374179Y-94322129D01*
X132374179Y-93342304D01*
X132349181Y-93216637D01*
X132349180Y-93216636D01*
X132349180Y-93216632D01*
X132300144Y-93098249D01*
X132286530Y-93077874D01*
X132250297Y-93023647D01*
X132229420Y-92956972D01*
X132247904Y-92889592D01*
X132284507Y-92851657D01*
X132400035Y-92774464D01*
X132525464Y-92649035D01*
X132624013Y-92501547D01*
X132691894Y-92337666D01*
X132697993Y-92307007D01*
X132709985Y-92246719D01*
X132742370Y-92184808D01*
X132803085Y-92150234D01*
X132872855Y-92153973D01*
X132919283Y-92183229D01*
X135145181Y-94409127D01*
X135178666Y-94470450D01*
X135181500Y-94496808D01*
X135181500Y-95764069D01*
X135181500Y-95764071D01*
X135181499Y-95764071D01*
X135202270Y-95868486D01*
X135204230Y-95878338D01*
X135206499Y-95889744D01*
X135255535Y-96008127D01*
X135325824Y-96113323D01*
X135326726Y-96114673D01*
X135326727Y-96114674D01*
X135713045Y-96500991D01*
X135746530Y-96562314D01*
X135743295Y-96626989D01*
X135715754Y-96711753D01*
X135682500Y-96921713D01*
X135682500Y-97134286D01*
X135711342Y-97316391D01*
X135715754Y-97344243D01*
X135771791Y-97516707D01*
X135781444Y-97546414D01*
X135877951Y-97735820D01*
X136002890Y-97907786D01*
X136153213Y-98058109D01*
X136325179Y-98183048D01*
X136325181Y-98183049D01*
X136325184Y-98183051D01*
X136334493Y-98187794D01*
X136385290Y-98235766D01*
X136402087Y-98303587D01*
X136379552Y-98369722D01*
X136334502Y-98408762D01*
X136325443Y-98413378D01*
X136153540Y-98538272D01*
X136153535Y-98538276D01*
X136003276Y-98688535D01*
X136003272Y-98688540D01*
X135878379Y-98860442D01*
X135781904Y-99049782D01*
X135716242Y-99251870D01*
X135716242Y-99251873D01*
X135705769Y-99318000D01*
X136599988Y-99318000D01*
X136567075Y-99375007D01*
X136533000Y-99502174D01*
X136533000Y-99633826D01*
X136567075Y-99760993D01*
X136599988Y-99818000D01*
X135705769Y-99818000D01*
X135716242Y-99884126D01*
X135716242Y-99884129D01*
X135781904Y-100086217D01*
X135878379Y-100275557D01*
X136003272Y-100447459D01*
X136003276Y-100447464D01*
X136153535Y-100597723D01*
X136153540Y-100597727D01*
X136325442Y-100722620D01*
X136514782Y-100819095D01*
X136716871Y-100884757D01*
X136783000Y-100895231D01*
X136783000Y-100001012D01*
X136840007Y-100033925D01*
X136967174Y-100068000D01*
X137098826Y-100068000D01*
X137225993Y-100033925D01*
X137283000Y-100001012D01*
X137283000Y-100895230D01*
X137349126Y-100884757D01*
X137349129Y-100884757D01*
X137551217Y-100819095D01*
X137740557Y-100722620D01*
X137912459Y-100597727D01*
X137912464Y-100597723D01*
X138062723Y-100447464D01*
X138062727Y-100447459D01*
X138187620Y-100275557D01*
X138284095Y-100086217D01*
X138349757Y-99884129D01*
X138349757Y-99884126D01*
X138360231Y-99818000D01*
X137466012Y-99818000D01*
X137498925Y-99760993D01*
X137533000Y-99633826D01*
X137533000Y-99502174D01*
X137498925Y-99375007D01*
X137466012Y-99318000D01*
X138360231Y-99318000D01*
X138349757Y-99251873D01*
X138349757Y-99251870D01*
X138284095Y-99049782D01*
X138187620Y-98860442D01*
X138062727Y-98688540D01*
X138062723Y-98688535D01*
X137912464Y-98538276D01*
X137912459Y-98538272D01*
X137740555Y-98413377D01*
X137731500Y-98408763D01*
X137680706Y-98360788D01*
X137663912Y-98292966D01*
X137686451Y-98226832D01*
X137731508Y-98187793D01*
X137740816Y-98183051D01*
X137852161Y-98102155D01*
X137912786Y-98058109D01*
X137912788Y-98058106D01*
X137912792Y-98058104D01*
X138063104Y-97907792D01*
X138063106Y-97907788D01*
X138063109Y-97907786D01*
X138188048Y-97735820D01*
X138188047Y-97735820D01*
X138188051Y-97735816D01*
X138284557Y-97546412D01*
X138350246Y-97344243D01*
X138383500Y-97134287D01*
X138383500Y-96921713D01*
X138350246Y-96711757D01*
X138284557Y-96509588D01*
X138188051Y-96320184D01*
X138188049Y-96320181D01*
X138188048Y-96320179D01*
X138063109Y-96148213D01*
X137912786Y-95997890D01*
X137740820Y-95872951D01*
X137740115Y-95872591D01*
X137732054Y-95868485D01*
X137681259Y-95820512D01*
X137664463Y-95752692D01*
X137686999Y-95686556D01*
X137732054Y-95647515D01*
X137740816Y-95643051D01*
X137836350Y-95573642D01*
X137912786Y-95518109D01*
X137912788Y-95518106D01*
X137912792Y-95518104D01*
X138063104Y-95367792D01*
X138063106Y-95367788D01*
X138063109Y-95367786D01*
X138188048Y-95195820D01*
X138188047Y-95195820D01*
X138188051Y-95195816D01*
X138284557Y-95006412D01*
X138350246Y-94804243D01*
X138383500Y-94594287D01*
X138383500Y-94381713D01*
X138350246Y-94171757D01*
X138284557Y-93969588D01*
X138188051Y-93780184D01*
X138188049Y-93780181D01*
X138188048Y-93780179D01*
X138063109Y-93608213D01*
X137949569Y-93494673D01*
X137916084Y-93433350D01*
X137921068Y-93363658D01*
X137962940Y-93307725D01*
X137993915Y-93290810D01*
X138125331Y-93241796D01*
X138240546Y-93155546D01*
X138326796Y-93040331D01*
X138377091Y-92905483D01*
X138383500Y-92845873D01*
X138383499Y-91441807D01*
X138403184Y-91374769D01*
X138419813Y-91354132D01*
X138427277Y-91346669D01*
X138498465Y-91240127D01*
X138547501Y-91121744D01*
X138552167Y-91098288D01*
X138556399Y-91077011D01*
X138572500Y-90996071D01*
X138572500Y-89184515D01*
X138589768Y-89121394D01*
X138606679Y-89092799D01*
X138673744Y-88979398D01*
X138719598Y-88821569D01*
X138722500Y-88784694D01*
X138722500Y-88253306D01*
X138719598Y-88216431D01*
X138673744Y-88058602D01*
X138619857Y-87967484D01*
X138589768Y-87916605D01*
X138572500Y-87853484D01*
X138572500Y-86466605D01*
X138592185Y-86399566D01*
X138639086Y-86356698D01*
X138721407Y-86313698D01*
X138797140Y-86251945D01*
X138861535Y-86224837D01*
X138930365Y-86236846D01*
G37*
%TD.AperFunction*%
%TA.AperFunction,Conductor*%
G36*
X98709993Y-98420185D02*
G01*
X98755748Y-98472989D01*
X98765692Y-98542147D01*
X98736667Y-98605703D01*
X98708051Y-98630038D01*
X98626965Y-98680052D01*
X98626961Y-98680055D01*
X98505055Y-98801961D01*
X98505052Y-98801965D01*
X98414551Y-98948688D01*
X98414546Y-98948699D01*
X98360319Y-99112347D01*
X98350000Y-99213345D01*
X98350000Y-99280692D01*
X98330315Y-99347731D01*
X98277511Y-99393486D01*
X98208353Y-99403430D01*
X98144797Y-99374405D01*
X98138319Y-99368373D01*
X97382127Y-98612181D01*
X97348642Y-98550858D01*
X97353626Y-98481166D01*
X97395498Y-98425233D01*
X97460962Y-98400816D01*
X97469808Y-98400500D01*
X98642954Y-98400500D01*
X98709993Y-98420185D01*
G37*
%TD.AperFunction*%
%TA.AperFunction,Conductor*%
G36*
X100918332Y-97204126D02*
G01*
X100962680Y-97232627D01*
X100984769Y-97254716D01*
X100984773Y-97254719D01*
X100985331Y-97255277D01*
X100986180Y-97255844D01*
X100990317Y-97259152D01*
X101007427Y-97283594D01*
X101026572Y-97306497D01*
X101027253Y-97311917D01*
X101030385Y-97316391D01*
X101031491Y-97344349D01*
X101031892Y-97344297D01*
X101050118Y-97482729D01*
X101047909Y-97516472D01*
X101049688Y-97516707D01*
X101033814Y-97637272D01*
X101033814Y-97862727D01*
X101048627Y-97975235D01*
X101048627Y-97975236D01*
X101089536Y-98074000D01*
X101106616Y-98115233D01*
X101198863Y-98235451D01*
X101285755Y-98302126D01*
X101326956Y-98358552D01*
X101331111Y-98428298D01*
X101296899Y-98489219D01*
X101235181Y-98521971D01*
X101210267Y-98524500D01*
X100763330Y-98524500D01*
X100763312Y-98524501D01*
X100662247Y-98534825D01*
X100498484Y-98589092D01*
X100498481Y-98589093D01*
X100351648Y-98679661D01*
X100337325Y-98693984D01*
X100276001Y-98727468D01*
X100206309Y-98722482D01*
X100161965Y-98693982D01*
X100148038Y-98680055D01*
X100148034Y-98680052D01*
X100001311Y-98589551D01*
X100001300Y-98589546D01*
X99837651Y-98535318D01*
X99753614Y-98526733D01*
X99688922Y-98500336D01*
X99648771Y-98443155D01*
X99645908Y-98373344D01*
X99681243Y-98313068D01*
X99697320Y-98300276D01*
X99764669Y-98255277D01*
X100787320Y-97232625D01*
X100848641Y-97199142D01*
X100918332Y-97204126D01*
G37*
%TD.AperFunction*%
%TA.AperFunction,Conductor*%
G36*
X96065276Y-92101137D02*
G01*
X96068782Y-92103390D01*
X96189507Y-92183873D01*
X96444284Y-92353724D01*
X96489144Y-92407288D01*
X96499500Y-92456897D01*
X96499500Y-93279192D01*
X96479815Y-93346231D01*
X96463181Y-93366873D01*
X96244725Y-93585328D01*
X96244724Y-93585329D01*
X96238445Y-93594727D01*
X96201845Y-93649504D01*
X96187690Y-93670688D01*
X96173535Y-93691872D01*
X96173533Y-93691875D01*
X96124499Y-93810255D01*
X96124497Y-93810261D01*
X96099500Y-93935928D01*
X96099500Y-93935931D01*
X96099500Y-96064069D01*
X96099500Y-96064071D01*
X96099499Y-96064071D01*
X96119644Y-96165337D01*
X96121275Y-96173535D01*
X96124499Y-96189744D01*
X96173535Y-96308127D01*
X96244723Y-96414669D01*
X96244726Y-96414673D01*
X96244727Y-96414674D01*
X96457043Y-96626989D01*
X96585330Y-96755276D01*
X96585333Y-96755278D01*
X96588478Y-96757859D01*
X96605149Y-96782333D01*
X96623939Y-96805221D01*
X96625303Y-96811920D01*
X96627813Y-96815605D01*
X96632978Y-96839338D01*
X96633814Y-96846500D01*
X96633814Y-96862720D01*
X96648627Y-96975236D01*
X96648922Y-96975950D01*
X96650052Y-96985625D01*
X96646713Y-97005145D01*
X96646713Y-97016316D01*
X96649688Y-97016708D01*
X96633814Y-97137272D01*
X96633814Y-97362727D01*
X96649373Y-97480900D01*
X96649426Y-97481013D01*
X96649415Y-97481218D01*
X96649688Y-97483292D01*
X96649301Y-97483342D01*
X96648572Y-97497027D01*
X96649811Y-97516305D01*
X96648718Y-97524543D01*
X96648627Y-97524764D01*
X96640424Y-97587070D01*
X96640257Y-97588331D01*
X96626295Y-97619808D01*
X96612005Y-97652110D01*
X96611952Y-97652144D01*
X96611928Y-97652200D01*
X96583465Y-97670934D01*
X96553680Y-97690580D01*
X96553616Y-97690580D01*
X96553566Y-97690614D01*
X96519008Y-97690991D01*
X96483815Y-97691410D01*
X96483759Y-97691377D01*
X96483701Y-97691378D01*
X96482874Y-97690859D01*
X96429653Y-97659707D01*
X95486819Y-96716873D01*
X95453334Y-96655550D01*
X95450500Y-96629192D01*
X95450500Y-92486952D01*
X95470185Y-92419913D01*
X95521102Y-92375039D01*
X95530394Y-92370605D01*
X95530399Y-92370602D01*
X95530399Y-92370601D01*
X95530401Y-92370601D01*
X95931218Y-92103389D01*
X95997915Y-92082582D01*
X96065276Y-92101137D01*
G37*
%TD.AperFunction*%
%TA.AperFunction,Conductor*%
G36*
X98915276Y-92101137D02*
G01*
X98918782Y-92103390D01*
X99039507Y-92183873D01*
X99319599Y-92370601D01*
X99390008Y-92409819D01*
X99423220Y-92419571D01*
X99528059Y-92450355D01*
X99625500Y-92450355D01*
X99692539Y-92470040D01*
X99738294Y-92522844D01*
X99749500Y-92574355D01*
X99749500Y-93457874D01*
X99729815Y-93524913D01*
X99713181Y-93545555D01*
X99094725Y-94164010D01*
X99094724Y-94164011D01*
X99053640Y-94225500D01*
X99053639Y-94225501D01*
X99023538Y-94270549D01*
X99023533Y-94270557D01*
X98974499Y-94388937D01*
X98974497Y-94388943D01*
X98949500Y-94514610D01*
X98949500Y-95048835D01*
X98929815Y-95115874D01*
X98877011Y-95161629D01*
X98807853Y-95171573D01*
X98778048Y-95163396D01*
X98659553Y-95114314D01*
X98659551Y-95114313D01*
X98659550Y-95114313D01*
X98645485Y-95112461D01*
X98547041Y-95099500D01*
X98547034Y-95099500D01*
X98468500Y-95099500D01*
X98401461Y-95079815D01*
X98355706Y-95027011D01*
X98344500Y-94975500D01*
X98344500Y-92460897D01*
X98364185Y-92393858D01*
X98399715Y-92357724D01*
X98781218Y-92103389D01*
X98847915Y-92082582D01*
X98915276Y-92101137D01*
G37*
%TD.AperFunction*%
%TA.AperFunction,Conductor*%
G36*
X107753803Y-91670185D02*
G01*
X107799558Y-91722989D01*
X107809502Y-91792147D01*
X107802946Y-91817833D01*
X107756403Y-91942620D01*
X107756401Y-91942627D01*
X107750000Y-92002155D01*
X107750000Y-92296833D01*
X107730315Y-92363872D01*
X107677511Y-92409627D01*
X107608353Y-92419571D01*
X107578549Y-92411395D01*
X107556184Y-92402131D01*
X107512666Y-92384106D01*
X107512662Y-92384105D01*
X107512658Y-92384103D01*
X107338694Y-92349500D01*
X107338691Y-92349500D01*
X107161309Y-92349500D01*
X107161306Y-92349500D01*
X106987341Y-92384103D01*
X106987332Y-92384106D01*
X106823459Y-92451983D01*
X106823446Y-92451990D01*
X106675965Y-92550535D01*
X106675961Y-92550538D01*
X106550538Y-92675961D01*
X106550535Y-92675965D01*
X106451990Y-92823446D01*
X106451983Y-92823459D01*
X106390063Y-92972952D01*
X106377520Y-92988517D01*
X106369215Y-93006703D01*
X106356045Y-93015166D01*
X106346223Y-93027356D01*
X106327253Y-93033669D01*
X106310437Y-93044477D01*
X106282877Y-93048439D01*
X106279929Y-93049421D01*
X106275502Y-93049500D01*
X106161602Y-93049500D01*
X106094563Y-93029815D01*
X106048808Y-92977011D01*
X106038864Y-92907853D01*
X106043671Y-92887182D01*
X106066757Y-92816129D01*
X106066757Y-92816126D01*
X106077231Y-92750000D01*
X105183012Y-92750000D01*
X105215925Y-92692993D01*
X105250000Y-92565826D01*
X105250000Y-92434174D01*
X105215925Y-92307007D01*
X105183012Y-92250000D01*
X106077231Y-92250000D01*
X106066757Y-92183873D01*
X106066757Y-92183870D01*
X106001095Y-91981782D01*
X105924163Y-91830795D01*
X105911267Y-91762126D01*
X105937543Y-91697385D01*
X105994650Y-91657128D01*
X106034648Y-91650500D01*
X107686764Y-91650500D01*
X107753803Y-91670185D01*
G37*
%TD.AperFunction*%
%TA.AperFunction,Conductor*%
G36*
X134761231Y-87044185D02*
G01*
X134781873Y-87060819D01*
X135053373Y-87332319D01*
X135086858Y-87393642D01*
X135081874Y-87463334D01*
X135040002Y-87519267D01*
X134974538Y-87543684D01*
X134970678Y-87543821D01*
X134970500Y-87544000D01*
X134970500Y-89493999D01*
X135069640Y-89493999D01*
X135069654Y-89493998D01*
X135170652Y-89483680D01*
X135334300Y-89429453D01*
X135334311Y-89429448D01*
X135481034Y-89338947D01*
X135481038Y-89338944D01*
X135602943Y-89217039D01*
X135653263Y-89135459D01*
X135705211Y-89088735D01*
X135774174Y-89077512D01*
X135838256Y-89105356D01*
X135848145Y-89115605D01*
X135848402Y-89115349D01*
X135970129Y-89237076D01*
X135970133Y-89237079D01*
X135970135Y-89237081D01*
X136111602Y-89320744D01*
X136153224Y-89332836D01*
X136269426Y-89366597D01*
X136269429Y-89366597D01*
X136269431Y-89366598D01*
X136306306Y-89369500D01*
X136306314Y-89369500D01*
X136737686Y-89369500D01*
X136737694Y-89369500D01*
X136774569Y-89366598D01*
X136774571Y-89366597D01*
X136774573Y-89366597D01*
X136816191Y-89354505D01*
X136932398Y-89320744D01*
X137057048Y-89247026D01*
X137080580Y-89233110D01*
X137081655Y-89234928D01*
X137136532Y-89213381D01*
X137205050Y-89227059D01*
X137255296Y-89275609D01*
X137271500Y-89336895D01*
X137271500Y-90473500D01*
X137251815Y-90540539D01*
X137199011Y-90586294D01*
X137147500Y-90597500D01*
X136135129Y-90597500D01*
X136135123Y-90597501D01*
X136075516Y-90603908D01*
X135940671Y-90654202D01*
X135940664Y-90654206D01*
X135825455Y-90740452D01*
X135825452Y-90740455D01*
X135739206Y-90855664D01*
X135739202Y-90855671D01*
X135688908Y-90990517D01*
X135682501Y-91050116D01*
X135682500Y-91050135D01*
X135682500Y-91791192D01*
X135662815Y-91858231D01*
X135610011Y-91903986D01*
X135540853Y-91913930D01*
X135477297Y-91884905D01*
X135470819Y-91878873D01*
X134134446Y-90542500D01*
X134100961Y-90481177D01*
X134105945Y-90411485D01*
X134119020Y-90385936D01*
X134148013Y-90342547D01*
X134215894Y-90178666D01*
X134250500Y-90004691D01*
X134250500Y-89827309D01*
X134250500Y-89827306D01*
X134250499Y-89827304D01*
X134215896Y-89653346D01*
X134215894Y-89653334D01*
X134215887Y-89653319D01*
X134215128Y-89650812D01*
X134215115Y-89649417D01*
X134214706Y-89647359D01*
X134215096Y-89647281D01*
X134214499Y-89580945D01*
X134251743Y-89521829D01*
X134315035Y-89492233D01*
X134346392Y-89491449D01*
X134371355Y-89493999D01*
X134470500Y-89493998D01*
X134470500Y-87543999D01*
X134371360Y-87544000D01*
X134371344Y-87544001D01*
X134270347Y-87554319D01*
X134106699Y-87608546D01*
X134106688Y-87608551D01*
X133959965Y-87699052D01*
X133946032Y-87712985D01*
X133884708Y-87746468D01*
X133815016Y-87741482D01*
X133770672Y-87712982D01*
X133756351Y-87698661D01*
X133756350Y-87698660D01*
X133609516Y-87608092D01*
X133553488Y-87589526D01*
X133506578Y-87573981D01*
X133457902Y-87543956D01*
X133150127Y-87236181D01*
X133116642Y-87174858D01*
X133121626Y-87105166D01*
X133163498Y-87049233D01*
X133228962Y-87024816D01*
X133237808Y-87024500D01*
X134694192Y-87024500D01*
X134761231Y-87044185D01*
G37*
%TD.AperFunction*%
%TA.AperFunction,Conductor*%
G36*
X129818528Y-83554682D02*
G01*
X129826756Y-83562202D01*
X129831181Y-83566627D01*
X129864666Y-83627950D01*
X129867500Y-83654308D01*
X129867500Y-83974741D01*
X129859617Y-84001586D01*
X129854915Y-84029171D01*
X129849907Y-84034655D01*
X129847815Y-84041780D01*
X129826670Y-84060101D01*
X129807801Y-84080766D01*
X129800622Y-84082672D01*
X129795011Y-84087535D01*
X129767316Y-84091517D01*
X129740272Y-84098699D01*
X129733203Y-84096422D01*
X129725853Y-84097479D01*
X129700399Y-84085854D01*
X129673768Y-84077276D01*
X129667683Y-84070913D01*
X129662297Y-84068454D01*
X129647705Y-84053477D01*
X129511153Y-83887339D01*
X129499742Y-83860527D01*
X129485782Y-83834961D01*
X129486225Y-83828765D01*
X129483792Y-83823049D01*
X129488687Y-83794328D01*
X129490766Y-83765269D01*
X129494679Y-83759179D01*
X129495533Y-83754173D01*
X129503513Y-83745432D01*
X129519263Y-83720926D01*
X129598340Y-83641850D01*
X129633537Y-83584785D01*
X129685483Y-83538062D01*
X129754446Y-83526839D01*
X129818528Y-83554682D01*
G37*
%TD.AperFunction*%
%TA.AperFunction,Conductor*%
G36*
X101793039Y-80519685D02*
G01*
X101838794Y-80572489D01*
X101850000Y-80624000D01*
X101850000Y-82974999D01*
X101949140Y-82974999D01*
X101949154Y-82974998D01*
X102050152Y-82964680D01*
X102213800Y-82910453D01*
X102213811Y-82910448D01*
X102360535Y-82819947D01*
X102374460Y-82806021D01*
X102435782Y-82772533D01*
X102505473Y-82777514D01*
X102549827Y-82806017D01*
X102564150Y-82820340D01*
X102710984Y-82910908D01*
X102715779Y-82912497D01*
X102773224Y-82952266D01*
X102800049Y-83016781D01*
X102794484Y-83069206D01*
X102758319Y-83178345D01*
X102758319Y-83178346D01*
X102748000Y-83279345D01*
X102748000Y-83399500D01*
X102728315Y-83466539D01*
X102675511Y-83512294D01*
X102624000Y-83523500D01*
X100577500Y-83523500D01*
X100510461Y-83503815D01*
X100464706Y-83451011D01*
X100453500Y-83399500D01*
X100453500Y-82707175D01*
X100473185Y-82640136D01*
X100525989Y-82594381D01*
X100595147Y-82584437D01*
X100658703Y-82613462D01*
X100683039Y-82642078D01*
X100717556Y-82698039D01*
X100839461Y-82819944D01*
X100839465Y-82819947D01*
X100986188Y-82910448D01*
X100986199Y-82910453D01*
X101149847Y-82964680D01*
X101250851Y-82974999D01*
X101350000Y-82974998D01*
X101350000Y-80624000D01*
X101369685Y-80556961D01*
X101422489Y-80511206D01*
X101474000Y-80500000D01*
X101726000Y-80500000D01*
X101793039Y-80519685D01*
G37*
%TD.AperFunction*%
%TA.AperFunction,Conductor*%
G36*
X138942539Y-73270185D02*
G01*
X138988294Y-73322989D01*
X138999500Y-73374500D01*
X138999500Y-81799951D01*
X138979815Y-81866990D01*
X138927011Y-81912745D01*
X138857853Y-81922689D01*
X138797140Y-81896053D01*
X138721412Y-81834305D01*
X138721408Y-81834303D01*
X138721407Y-81834302D01*
X138541049Y-81740091D01*
X138541048Y-81740090D01*
X138541045Y-81740089D01*
X138423829Y-81706550D01*
X138345418Y-81684114D01*
X138345415Y-81684113D01*
X138345413Y-81684113D01*
X138279102Y-81678217D01*
X138226037Y-81673500D01*
X138226032Y-81673500D01*
X137109971Y-81673500D01*
X137109965Y-81673500D01*
X137109964Y-81673501D01*
X137098316Y-81674536D01*
X136990584Y-81684113D01*
X136794954Y-81740089D01*
X136730035Y-81774000D01*
X136614593Y-81834302D01*
X136614591Y-81834303D01*
X136614590Y-81834304D01*
X136456890Y-81962890D01*
X136328304Y-82120590D01*
X136234089Y-82300954D01*
X136178114Y-82496583D01*
X136178113Y-82496586D01*
X136172699Y-82557483D01*
X136167723Y-82613462D01*
X136167500Y-82615966D01*
X136167500Y-83299500D01*
X136147815Y-83366539D01*
X136095011Y-83412294D01*
X136043500Y-83423500D01*
X132910537Y-83423500D01*
X132843498Y-83403815D01*
X132799450Y-83354597D01*
X132735030Y-83224704D01*
X132615722Y-83076278D01*
X132546112Y-83020324D01*
X132506196Y-82962985D01*
X132503616Y-82893163D01*
X132539194Y-82833030D01*
X132546115Y-82827033D01*
X132615366Y-82771367D01*
X132615367Y-82771366D01*
X132734607Y-82623025D01*
X132734609Y-82623022D01*
X132819168Y-82452523D01*
X132865102Y-82267824D01*
X132868000Y-82225096D01*
X132868000Y-82024000D01*
X131492000Y-82024000D01*
X131424961Y-82004315D01*
X131379206Y-81951511D01*
X131368000Y-81900000D01*
X131368000Y-81774000D01*
X131242000Y-81774000D01*
X131174961Y-81754315D01*
X131129206Y-81701511D01*
X131118000Y-81650000D01*
X131118000Y-81524000D01*
X131618000Y-81524000D01*
X132868000Y-81524000D01*
X132868000Y-81322903D01*
X132865102Y-81280175D01*
X132819168Y-81095476D01*
X132734609Y-80924977D01*
X132734607Y-80924974D01*
X132615367Y-80776633D01*
X132615366Y-80776632D01*
X132467025Y-80657392D01*
X132467022Y-80657390D01*
X132296523Y-80572831D01*
X132111824Y-80526897D01*
X132069097Y-80524000D01*
X131618000Y-80524000D01*
X131618000Y-81524000D01*
X131118000Y-81524000D01*
X131118000Y-80524000D01*
X130666903Y-80524000D01*
X130624175Y-80526897D01*
X130439476Y-80572831D01*
X130268977Y-80657390D01*
X130268974Y-80657392D01*
X130120633Y-80776632D01*
X130120632Y-80776633D01*
X130001393Y-80924973D01*
X129988587Y-80950795D01*
X129941165Y-81002107D01*
X129873530Y-81019635D01*
X129807155Y-80997815D01*
X129763114Y-80943574D01*
X129753499Y-80895699D01*
X129753499Y-80806830D01*
X129753498Y-80806812D01*
X129743174Y-80705747D01*
X129688908Y-80541984D01*
X129598340Y-80395150D01*
X129476350Y-80273160D01*
X129329516Y-80182592D01*
X129165753Y-80128326D01*
X129165751Y-80128325D01*
X129064684Y-80118000D01*
X129064677Y-80118000D01*
X128991308Y-80118000D01*
X128924269Y-80098315D01*
X128903627Y-80081681D01*
X128433627Y-79611681D01*
X128400142Y-79550358D01*
X128405126Y-79480666D01*
X128446998Y-79424733D01*
X128512462Y-79400316D01*
X128521308Y-79400000D01*
X131750000Y-79400000D01*
X131750000Y-76628711D01*
X133649500Y-76628711D01*
X133649500Y-76871288D01*
X133681161Y-77111785D01*
X133743947Y-77346104D01*
X133836773Y-77570205D01*
X133836776Y-77570212D01*
X133958064Y-77780289D01*
X133958066Y-77780292D01*
X133958067Y-77780293D01*
X134105733Y-77972736D01*
X134105739Y-77972743D01*
X134277256Y-78144260D01*
X134277262Y-78144265D01*
X134469711Y-78291936D01*
X134679788Y-78413224D01*
X134903900Y-78506054D01*
X135138211Y-78568838D01*
X135318586Y-78592584D01*
X135378711Y-78600500D01*
X135378712Y-78600500D01*
X135621289Y-78600500D01*
X135669388Y-78594167D01*
X135861789Y-78568838D01*
X136096100Y-78506054D01*
X136320212Y-78413224D01*
X136530289Y-78291936D01*
X136722738Y-78144265D01*
X136894265Y-77972738D01*
X137041936Y-77780289D01*
X137163224Y-77570212D01*
X137256054Y-77346100D01*
X137318838Y-77111789D01*
X137350500Y-76871288D01*
X137350500Y-76628712D01*
X137318838Y-76388211D01*
X137256054Y-76153900D01*
X137163224Y-75929788D01*
X137041936Y-75719711D01*
X136894265Y-75527262D01*
X136894260Y-75527256D01*
X136722743Y-75355739D01*
X136722736Y-75355733D01*
X136530293Y-75208067D01*
X136530292Y-75208066D01*
X136530289Y-75208064D01*
X136320212Y-75086776D01*
X136320205Y-75086773D01*
X136096104Y-74993947D01*
X135861785Y-74931161D01*
X135621289Y-74899500D01*
X135621288Y-74899500D01*
X135378712Y-74899500D01*
X135378711Y-74899500D01*
X135138214Y-74931161D01*
X134903895Y-74993947D01*
X134679794Y-75086773D01*
X134679785Y-75086777D01*
X134469706Y-75208067D01*
X134277263Y-75355733D01*
X134277256Y-75355739D01*
X134105739Y-75527256D01*
X134105733Y-75527263D01*
X133958067Y-75719706D01*
X133836777Y-75929785D01*
X133836773Y-75929794D01*
X133743947Y-76153895D01*
X133681161Y-76388214D01*
X133649500Y-76628711D01*
X131750000Y-76628711D01*
X131750000Y-73374500D01*
X131769685Y-73307461D01*
X131822489Y-73261706D01*
X131874000Y-73250500D01*
X138875500Y-73250500D01*
X138942539Y-73270185D01*
G37*
%TD.AperFunction*%
%TD*%
M02*
