M48
; DRILL file {KiCad 9.0.0} date 2025-10-09T14:42:29+0200
; FORMAT={-:-/ absolute / inch / decimal}
; #@! TF.CreationDate,2025-10-09T14:42:29+02:00
; #@! TF.GenerationSoftware,Kicad,Pcbnew,9.0.0
; #@! TF.FileFunction,Plated,1,2,PTH
FMAT,2
INCH
; #@! TA.AperFunction,Plated,PTH,ComponentDrill
T1C0.0079
; #@! TA.AperFunction,Plated,PTH,ViaDrill
T2C0.0157
; #@! TA.AperFunction,Plated,PTH,ComponentDrill
T3C0.0236
; #@! TA.AperFunction,Plated,PTH,ComponentDrill
T4C0.0394
; #@! TA.AperFunction,Plated,PTH,ComponentDrill
T5C0.0551
%
G90
G05
T1
X4.6303Y-3.3917
X4.6303Y-3.435
X4.652Y-3.3701
X4.652Y-3.4134
X4.652Y-3.4567
X4.6736Y-3.3917
X4.6736Y-3.435
X4.6953Y-3.3701
X4.6953Y-3.4134
X4.6953Y-3.4567
X4.7169Y-3.3917
X4.7169Y-3.435
T2
X3.7795Y-3.7205
X3.8878Y-3.7205
X3.9409Y-3.8622
X3.9961Y-3.4154
X4.065Y-3.475
X4.1634Y-3.3863
X4.2Y-3.92
X4.2224Y-3.4646
X4.2224Y-3.6713
X4.3445Y-3.59
X4.376Y-3.6417
X4.39Y-3.3858
X4.7402Y-3.9213
X4.811Y-3.9075
X4.921Y-3.9363
X4.9899Y-3.9394
X5.06Y-3.95
X5.0709Y-3.811
X5.0718Y-3.542
X5.08Y-3.5827
X5.095Y-3.44
X5.1073Y-3.6431
X5.109Y-3.3001
X5.1176Y-3.5207
X5.12Y-3.16
X5.185Y-4.0984
X5.19Y-3.625
X5.2202Y-3.5876
X5.25Y-3.54
X5.335Y-3.535
T4
X4.024Y-3.6417
X4.07Y-4.04
X4.07Y-4.14
X4.124Y-3.6417
X5.395Y-3.62
X5.395Y-3.72
X5.395Y-3.82
X5.395Y-3.92
T5
X4.3Y-4.1032
X4.5Y-4.1032
T3
G00X4.7031Y-4.0335
M15
G01X4.7031Y-4.065
M16
G05
G00X4.7031Y-4.1831
M15
G01X4.7031Y-4.2303
M16
G05
G00X5.1457Y-4.0335
M15
G01X5.1457Y-4.065
M16
G05
G00X5.1457Y-4.1831
M15
G01X5.1457Y-4.2303
M16
G05
M30
