%TF.GenerationSoftware,KiCad,Pcbnew,9.0.0*%
%TF.CreationDate,2025-10-09T14:42:31+02:00*%
%TF.ProjectId,ESP-PowerSunSensor,4553502d-506f-4776-9572-53756e53656e,rev?*%
%TF.SameCoordinates,Original*%
%TF.FileFunction,Copper,L2,Bot*%
%TF.FilePolarity,Positive*%
%FSLAX46Y46*%
G04 Gerber Fmt 4.6, Leading zero omitted, Abs format (unit mm)*
G04 Created by KiCad (PCBNEW 9.0.0) date 2025-10-09 14:42:31*
%MOMM*%
%LPD*%
G01*
G04 APERTURE LIST*
G04 Aperture macros list*
%AMRoundRect*
0 Rectangle with rounded corners*
0 $1 Rounding radius*
0 $2 $3 $4 $5 $6 $7 $8 $9 X,Y pos of 4 corners*
0 Add a 4 corners polygon primitive as box body*
4,1,4,$2,$3,$4,$5,$6,$7,$8,$9,$2,$3,0*
0 Add four circle primitives for the rounded corners*
1,1,$1+$1,$2,$3*
1,1,$1+$1,$4,$5*
1,1,$1+$1,$6,$7*
1,1,$1+$1,$8,$9*
0 Add four rect primitives between the rounded corners*
20,1,$1+$1,$2,$3,$4,$5,0*
20,1,$1+$1,$4,$5,$6,$7,0*
20,1,$1+$1,$6,$7,$8,$9,0*
20,1,$1+$1,$8,$9,$2,$3,0*%
G04 Aperture macros list end*
%TA.AperFunction,ComponentPad*%
%ADD10R,1.700000X1.700000*%
%TD*%
%TA.AperFunction,ComponentPad*%
%ADD11O,1.700000X1.700000*%
%TD*%
%TA.AperFunction,HeatsinkPad*%
%ADD12C,0.600000*%
%TD*%
%TA.AperFunction,ComponentPad*%
%ADD13O,1.000000X2.200000*%
%TD*%
%TA.AperFunction,ComponentPad*%
%ADD14O,1.000000X1.800000*%
%TD*%
%TA.AperFunction,ComponentPad*%
%ADD15RoundRect,0.249999X-0.790001X-1.550001X0.790001X-1.550001X0.790001X1.550001X-0.790001X1.550001X0*%
%TD*%
%TA.AperFunction,ComponentPad*%
%ADD16O,2.080000X3.600000*%
%TD*%
%TA.AperFunction,ViaPad*%
%ADD17C,0.800000*%
%TD*%
%TA.AperFunction,Conductor*%
%ADD18C,0.300000*%
%TD*%
G04 APERTURE END LIST*
D10*
%TO.P,J4,1,Pin_1*%
%TO.N,+3V3*%
X137033000Y-91948000D03*
D11*
%TO.P,J4,2,Pin_2*%
%TO.N,Net-(J4-Pin_2)*%
X137033000Y-94488000D03*
%TO.P,J4,3,Pin_3*%
%TO.N,Net-(J4-Pin_3)*%
X137033000Y-97028000D03*
%TO.P,J4,4,Pin_4*%
%TO.N,GND*%
X137033000Y-99568000D03*
%TD*%
D12*
%TO.P,U2,19,GND*%
%TO.N,GND*%
X117610000Y-86150000D03*
X117610000Y-87250000D03*
X118160000Y-85600000D03*
X118160000Y-86700000D03*
X118160000Y-87800000D03*
X118710000Y-86150000D03*
X118710000Y-87250000D03*
X119260000Y-85600000D03*
X119260000Y-86700000D03*
X119260000Y-87800000D03*
X119810000Y-86150000D03*
X119810000Y-87250000D03*
%TD*%
D13*
%TO.P,J5,SH1*%
%TO.N,N/C*%
X119460000Y-106850000D03*
D14*
%TO.P,J5,SH2*%
X130700000Y-102850000D03*
%TO.P,J5,SH3*%
X119460000Y-102850000D03*
D13*
%TO.P,J5,SH4*%
X130700000Y-106850000D03*
%TD*%
D10*
%TO.P,J2,1,Pin_1*%
%TO.N,Net-(J2-Pin_1)*%
X102210000Y-92500000D03*
D11*
%TO.P,J2,2,Pin_2*%
%TO.N,GND*%
X104750000Y-92500000D03*
%TD*%
D15*
%TO.P,J3,1,Pin_1*%
%TO.N,GND*%
X109220000Y-104222500D03*
D16*
%TO.P,J3,2,Pin_2*%
%TO.N,Net-(J3-Pin_2)*%
X114300000Y-104222500D03*
%TD*%
D10*
%TO.P,J1,1,Pin_1*%
%TO.N,GND*%
X103378000Y-105156000D03*
D11*
%TO.P,J1,2,Pin_2*%
%TO.N,Net-(J1-Pin_2)*%
X103378000Y-102616000D03*
%TD*%
D17*
%TO.N,GND*%
X98750000Y-94500000D03*
X130048000Y-80264000D03*
X111150002Y-92500000D03*
X129768000Y-83821322D03*
X105749293Y-86012000D03*
X131700000Y-104100000D03*
X120400000Y-99600000D03*
X111506000Y-86000000D03*
X135509000Y-89789000D03*
X96000000Y-94500000D03*
X100100000Y-98100000D03*
%TO.N,+3V3*%
X101500000Y-86750000D03*
X129986495Y-89426505D03*
X103251000Y-88265000D03*
X129413000Y-87376000D03*
%TO.N,Net-(U1-SCL)*%
X107250000Y-88000000D03*
X107250000Y-93250000D03*
%TO.N,USB_D+*%
X126743203Y-100061316D03*
X124992286Y-99981248D03*
%TO.N,Net-(J4-Pin_3)*%
X129032000Y-91000000D03*
X132592926Y-91126092D03*
%TO.N,Net-(J4-Pin_2)*%
X133350000Y-89916000D03*
X128824697Y-89966576D03*
%TO.N,Net-(D6-K)*%
X129726000Y-92533760D03*
X128800000Y-96800000D03*
X122200000Y-99250000D03*
X128524000Y-100330000D03*
X131826000Y-92075000D03*
%TO.N,Net-(J1-Pin_2)*%
X106680000Y-99568000D03*
X110350002Y-91186000D03*
%TD*%
D18*
%TO.N,GND*%
X96000000Y-94500000D02*
X98750000Y-94500000D01*
X111506000Y-86000000D02*
X105761293Y-86000000D01*
X105761293Y-86000000D02*
X105749293Y-86012000D01*
X130048000Y-80264000D02*
X130048000Y-83541322D01*
X130048000Y-83541322D02*
X129768000Y-83821322D01*
%TO.N,+3V3*%
X101500000Y-86750000D02*
X101990000Y-86750000D01*
X129413000Y-87376000D02*
X130048000Y-88011000D01*
X130048000Y-88011000D02*
X130048000Y-89365000D01*
X101990000Y-86750000D02*
X103251000Y-88011000D01*
X103251000Y-88011000D02*
X103251000Y-88265000D01*
X130048000Y-89365000D02*
X129986495Y-89426505D01*
%TO.N,Net-(U1-SCL)*%
X107250000Y-93250000D02*
X107250000Y-88000000D01*
%TO.N,USB_D+*%
X126743203Y-100061316D02*
X125072354Y-100061316D01*
X125072354Y-100061316D02*
X124992286Y-99981248D01*
%TO.N,Net-(J4-Pin_3)*%
X132592926Y-91126092D02*
X132466834Y-91000000D01*
X132466834Y-91000000D02*
X129032000Y-91000000D01*
%TO.N,Net-(J4-Pin_2)*%
X130444123Y-90100248D02*
X133165752Y-90100248D01*
X133165752Y-90100248D02*
X133350000Y-89916000D01*
X129084626Y-90226505D02*
X130317866Y-90226505D01*
X128824697Y-89966576D02*
X129084626Y-90226505D01*
X130317866Y-90226505D02*
X130444123Y-90100248D01*
%TO.N,Net-(D6-K)*%
X131367240Y-92533760D02*
X131826000Y-92075000D01*
X128588678Y-99650000D02*
X128729852Y-99791174D01*
X128800000Y-96800000D02*
X128600000Y-97000000D01*
X128600000Y-98870461D02*
X128500000Y-98970461D01*
X129726000Y-92533760D02*
X131367240Y-92533760D01*
X128729852Y-99791174D02*
X128729852Y-100124148D01*
X122450000Y-99500000D02*
X123050000Y-99500000D01*
X128500000Y-99561322D02*
X128729852Y-99791174D01*
X127430000Y-99100000D02*
X127980000Y-99650000D01*
X127980000Y-99650000D02*
X128588678Y-99650000D01*
X128600000Y-97000000D02*
X128600000Y-98870461D01*
X123450000Y-99100000D02*
X127430000Y-99100000D01*
X128729852Y-100124148D02*
X128524000Y-100330000D01*
X123050000Y-99500000D02*
X123450000Y-99100000D01*
X128500000Y-98970461D02*
X128500000Y-99561322D01*
X122200000Y-99250000D02*
X122450000Y-99500000D01*
%TO.N,Net-(J1-Pin_2)*%
X110350002Y-95897998D02*
X110350002Y-91186000D01*
X106680000Y-99568000D02*
X110350002Y-95897998D01*
%TD*%
%TA.AperFunction,Conductor*%
%TO.N,GND*%
G36*
X103693039Y-73270185D02*
G01*
X103738794Y-73322989D01*
X103750000Y-73374500D01*
X103750000Y-79400000D01*
X131750000Y-79400000D01*
X131750000Y-76628711D01*
X133649500Y-76628711D01*
X133649500Y-76871288D01*
X133681161Y-77111785D01*
X133743947Y-77346104D01*
X133836773Y-77570205D01*
X133836776Y-77570212D01*
X133958064Y-77780289D01*
X133958066Y-77780292D01*
X133958067Y-77780293D01*
X134105733Y-77972736D01*
X134105739Y-77972743D01*
X134277256Y-78144260D01*
X134277262Y-78144265D01*
X134469711Y-78291936D01*
X134679788Y-78413224D01*
X134903900Y-78506054D01*
X135138211Y-78568838D01*
X135318586Y-78592584D01*
X135378711Y-78600500D01*
X135378712Y-78600500D01*
X135621289Y-78600500D01*
X135669388Y-78594167D01*
X135861789Y-78568838D01*
X136096100Y-78506054D01*
X136320212Y-78413224D01*
X136530289Y-78291936D01*
X136722738Y-78144265D01*
X136894265Y-77972738D01*
X137041936Y-77780289D01*
X137163224Y-77570212D01*
X137256054Y-77346100D01*
X137318838Y-77111789D01*
X137350500Y-76871288D01*
X137350500Y-76628712D01*
X137318838Y-76388211D01*
X137256054Y-76153900D01*
X137163224Y-75929788D01*
X137041936Y-75719711D01*
X136894265Y-75527262D01*
X136894260Y-75527256D01*
X136722743Y-75355739D01*
X136722736Y-75355733D01*
X136530293Y-75208067D01*
X136530292Y-75208066D01*
X136530289Y-75208064D01*
X136320212Y-75086776D01*
X136320205Y-75086773D01*
X136096104Y-74993947D01*
X135861785Y-74931161D01*
X135621289Y-74899500D01*
X135621288Y-74899500D01*
X135378712Y-74899500D01*
X135378711Y-74899500D01*
X135138214Y-74931161D01*
X134903895Y-74993947D01*
X134679794Y-75086773D01*
X134679785Y-75086777D01*
X134469706Y-75208067D01*
X134277263Y-75355733D01*
X134277256Y-75355739D01*
X134105739Y-75527256D01*
X134105733Y-75527263D01*
X133958067Y-75719706D01*
X133836777Y-75929785D01*
X133836773Y-75929794D01*
X133743947Y-76153895D01*
X133681161Y-76388214D01*
X133649500Y-76628711D01*
X131750000Y-76628711D01*
X131750000Y-73374500D01*
X131769685Y-73307461D01*
X131822489Y-73261706D01*
X131874000Y-73250500D01*
X138875500Y-73250500D01*
X138942539Y-73270185D01*
X138988294Y-73322989D01*
X138999500Y-73374500D01*
X138999500Y-108375500D01*
X138979815Y-108442539D01*
X138927011Y-108488294D01*
X138875500Y-108499500D01*
X131338939Y-108499500D01*
X131271900Y-108479815D01*
X131226145Y-108427011D01*
X131216201Y-108357853D01*
X131245226Y-108294297D01*
X131270048Y-108272398D01*
X131302871Y-108250465D01*
X131337782Y-108227139D01*
X131477139Y-108087782D01*
X131586632Y-107923914D01*
X131662051Y-107741835D01*
X131700500Y-107548541D01*
X131700500Y-106151459D01*
X131700500Y-106151456D01*
X131662052Y-105958170D01*
X131662051Y-105958169D01*
X131662051Y-105958165D01*
X131662049Y-105958160D01*
X131586635Y-105776092D01*
X131586628Y-105776079D01*
X131477139Y-105612218D01*
X131477136Y-105612214D01*
X131337785Y-105472863D01*
X131337781Y-105472860D01*
X131173920Y-105363371D01*
X131173907Y-105363364D01*
X130991839Y-105287950D01*
X130991829Y-105287947D01*
X130798543Y-105249500D01*
X130798541Y-105249500D01*
X130601459Y-105249500D01*
X130601457Y-105249500D01*
X130408170Y-105287947D01*
X130408160Y-105287950D01*
X130226092Y-105363364D01*
X130226079Y-105363371D01*
X130062218Y-105472860D01*
X130062214Y-105472863D01*
X129922865Y-105612212D01*
X129920352Y-105615275D01*
X129918630Y-105616447D01*
X129918553Y-105616525D01*
X129918538Y-105616510D01*
X129862605Y-105654608D01*
X129792761Y-105656477D01*
X129732993Y-105620289D01*
X129702278Y-105557532D01*
X129700500Y-105536608D01*
X129700500Y-104878711D01*
X133649500Y-104878711D01*
X133649500Y-105121288D01*
X133681161Y-105361785D01*
X133743947Y-105596104D01*
X133824221Y-105789901D01*
X133836776Y-105820212D01*
X133958064Y-106030289D01*
X133958066Y-106030292D01*
X133958067Y-106030293D01*
X134105733Y-106222736D01*
X134105739Y-106222743D01*
X134277256Y-106394260D01*
X134277263Y-106394266D01*
X134390321Y-106481018D01*
X134469711Y-106541936D01*
X134679788Y-106663224D01*
X134903900Y-106756054D01*
X135138211Y-106818838D01*
X135318586Y-106842584D01*
X135378711Y-106850500D01*
X135378712Y-106850500D01*
X135621289Y-106850500D01*
X135669388Y-106844167D01*
X135861789Y-106818838D01*
X136096100Y-106756054D01*
X136320212Y-106663224D01*
X136530289Y-106541936D01*
X136722738Y-106394265D01*
X136894265Y-106222738D01*
X137041936Y-106030289D01*
X137163224Y-105820212D01*
X137256054Y-105596100D01*
X137318838Y-105361789D01*
X137350500Y-105121288D01*
X137350500Y-104878712D01*
X137346587Y-104848993D01*
X137318838Y-104638214D01*
X137318838Y-104638211D01*
X137256054Y-104403900D01*
X137163224Y-104179788D01*
X137041936Y-103969711D01*
X136946544Y-103845393D01*
X136894266Y-103777263D01*
X136894260Y-103777256D01*
X136722743Y-103605739D01*
X136722736Y-103605733D01*
X136530293Y-103458067D01*
X136530292Y-103458066D01*
X136530289Y-103458064D01*
X136320212Y-103336776D01*
X136320205Y-103336773D01*
X136096104Y-103243947D01*
X135861785Y-103181161D01*
X135621289Y-103149500D01*
X135621288Y-103149500D01*
X135378712Y-103149500D01*
X135378711Y-103149500D01*
X135138214Y-103181161D01*
X134903895Y-103243947D01*
X134679794Y-103336773D01*
X134679785Y-103336777D01*
X134469706Y-103458067D01*
X134277263Y-103605733D01*
X134277256Y-103605739D01*
X134105739Y-103777256D01*
X134105733Y-103777263D01*
X133958067Y-103969706D01*
X133836777Y-104179785D01*
X133836773Y-104179794D01*
X133743947Y-104403895D01*
X133681161Y-104638214D01*
X133649500Y-104878711D01*
X129700500Y-104878711D01*
X129700500Y-103963391D01*
X129720185Y-103896352D01*
X129772989Y-103850597D01*
X129842147Y-103840653D01*
X129905703Y-103869678D01*
X129920357Y-103884730D01*
X129922859Y-103887779D01*
X129922860Y-103887781D01*
X129922868Y-103887790D01*
X130062214Y-104027136D01*
X130062218Y-104027139D01*
X130226079Y-104136628D01*
X130226092Y-104136635D01*
X130375739Y-104198620D01*
X130408165Y-104212051D01*
X130408169Y-104212051D01*
X130408170Y-104212052D01*
X130601456Y-104250500D01*
X130601459Y-104250500D01*
X130798543Y-104250500D01*
X130928582Y-104224632D01*
X130991835Y-104212051D01*
X131173914Y-104136632D01*
X131337782Y-104027139D01*
X131477139Y-103887782D01*
X131586632Y-103723914D01*
X131662051Y-103541835D01*
X131700500Y-103348541D01*
X131700500Y-102351459D01*
X131700500Y-102351456D01*
X131662052Y-102158170D01*
X131662051Y-102158169D01*
X131662051Y-102158165D01*
X131650598Y-102130515D01*
X131586635Y-101976092D01*
X131586628Y-101976079D01*
X131477139Y-101812218D01*
X131477136Y-101812214D01*
X131337785Y-101672863D01*
X131337781Y-101672860D01*
X131173920Y-101563371D01*
X131173907Y-101563364D01*
X130991839Y-101487950D01*
X130991829Y-101487947D01*
X130798543Y-101449500D01*
X130798541Y-101449500D01*
X130601459Y-101449500D01*
X130601457Y-101449500D01*
X130408170Y-101487947D01*
X130408160Y-101487950D01*
X130226092Y-101563364D01*
X130226079Y-101563371D01*
X130062218Y-101672860D01*
X130062214Y-101672863D01*
X129922863Y-101812214D01*
X129922860Y-101812218D01*
X129820566Y-101965312D01*
X129804399Y-101978822D01*
X129791774Y-101995688D01*
X129778129Y-102000777D01*
X129766954Y-102010117D01*
X129746049Y-102012742D01*
X129726310Y-102020105D01*
X129712078Y-102017009D01*
X129697629Y-102018824D01*
X129678624Y-102009731D01*
X129658037Y-102005253D01*
X129638155Y-101990369D01*
X129634601Y-101988669D01*
X129629783Y-101984102D01*
X129612252Y-101966571D01*
X129599614Y-101951774D01*
X129599029Y-101950969D01*
X129598214Y-101950377D01*
X129583429Y-101937747D01*
X129565215Y-101919533D01*
X129565206Y-101919527D01*
X129524795Y-101896194D01*
X129524795Y-101896195D01*
X129519162Y-101892943D01*
X129509887Y-101886204D01*
X129504405Y-101884422D01*
X129493123Y-101877909D01*
X129485292Y-101873388D01*
X129485290Y-101873387D01*
X129485288Y-101873386D01*
X129396144Y-101849500D01*
X129396141Y-101849500D01*
X129354987Y-101849500D01*
X129350000Y-101849500D01*
X129349988Y-101849500D01*
X129304007Y-101847914D01*
X129293962Y-101850799D01*
X129292774Y-101850816D01*
X129289045Y-101852211D01*
X129287652Y-101852611D01*
X129287151Y-101852635D01*
X129284382Y-101853550D01*
X129215509Y-101873333D01*
X129206351Y-101879516D01*
X129206350Y-101879515D01*
X129194189Y-101887724D01*
X129185703Y-101890902D01*
X129175819Y-101900126D01*
X129167731Y-101905587D01*
X129167728Y-101905590D01*
X129139196Y-101924854D01*
X129118017Y-101951985D01*
X129118018Y-101951986D01*
X129112013Y-101959678D01*
X129102122Y-101968910D01*
X129098366Y-101977160D01*
X129089339Y-101988725D01*
X129082543Y-101997432D01*
X129082540Y-101997436D01*
X129058057Y-102064791D01*
X129056390Y-102069374D01*
X129054756Y-102072966D01*
X129054657Y-102074141D01*
X129051938Y-102081624D01*
X129051937Y-102081630D01*
X129051088Y-102083964D01*
X129051086Y-102083976D01*
X129050087Y-102112951D01*
X129044365Y-102146144D01*
X129041000Y-102156760D01*
X129017653Y-102199155D01*
X129015416Y-102201812D01*
X129005125Y-102210044D01*
X129001979Y-102214718D01*
X128996133Y-102217238D01*
X128977650Y-102232025D01*
X128974567Y-102233624D01*
X128928089Y-102247093D01*
X128912187Y-102248459D01*
X128887941Y-102248162D01*
X128874160Y-102246637D01*
X128868712Y-102248860D01*
X128856127Y-102249500D01*
X121303873Y-102249500D01*
X121302274Y-102249490D01*
X121256825Y-102248904D01*
X121255089Y-102248369D01*
X121247811Y-102248459D01*
X121231910Y-102247093D01*
X121185461Y-102233639D01*
X121182376Y-102232040D01*
X121144575Y-102201805D01*
X121142339Y-102199148D01*
X121118998Y-102156758D01*
X121115633Y-102146141D01*
X121109912Y-102112948D01*
X121108913Y-102083975D01*
X121108913Y-102083972D01*
X121105341Y-102074146D01*
X121105244Y-102072966D01*
X121103601Y-102069359D01*
X121077459Y-101997436D01*
X121061633Y-101977162D01*
X121057878Y-101968910D01*
X121047984Y-101959676D01*
X121020803Y-101924854D01*
X120992265Y-101905587D01*
X120984189Y-101900134D01*
X120974297Y-101890902D01*
X120965804Y-101887722D01*
X120953642Y-101879511D01*
X120953641Y-101879510D01*
X120944490Y-101873332D01*
X120875621Y-101853551D01*
X120875621Y-101853550D01*
X120870929Y-101852202D01*
X120867226Y-101850816D01*
X120866042Y-101850799D01*
X120858379Y-101848598D01*
X120858374Y-101848597D01*
X120855999Y-101847915D01*
X120855987Y-101847913D01*
X120812904Y-101849400D01*
X120812156Y-101849426D01*
X120807882Y-101849500D01*
X120763856Y-101849500D01*
X120674713Y-101873385D01*
X120666862Y-101877917D01*
X120666861Y-101877916D01*
X120655585Y-101884426D01*
X120650113Y-101886204D01*
X120640855Y-101892929D01*
X120635226Y-101896180D01*
X120635218Y-101896186D01*
X120594788Y-101919531D01*
X120576565Y-101937753D01*
X120576564Y-101937752D01*
X120569658Y-101944657D01*
X120560970Y-101950970D01*
X120554657Y-101959658D01*
X120547757Y-101966559D01*
X120547752Y-101966566D01*
X120530219Y-101984100D01*
X120468897Y-102017586D01*
X120399205Y-102012604D01*
X120343270Y-101970734D01*
X120339433Y-101965311D01*
X120237142Y-101812222D01*
X120237136Y-101812214D01*
X120097785Y-101672863D01*
X120097781Y-101672860D01*
X119933920Y-101563371D01*
X119933907Y-101563364D01*
X119751839Y-101487950D01*
X119751829Y-101487947D01*
X119558543Y-101449500D01*
X119558541Y-101449500D01*
X119361459Y-101449500D01*
X119361457Y-101449500D01*
X119168170Y-101487947D01*
X119168160Y-101487950D01*
X118986092Y-101563364D01*
X118986079Y-101563371D01*
X118822218Y-101672860D01*
X118822214Y-101672863D01*
X118682863Y-101812214D01*
X118682860Y-101812218D01*
X118573371Y-101976079D01*
X118573364Y-101976092D01*
X118497950Y-102158160D01*
X118497947Y-102158170D01*
X118459500Y-102351456D01*
X118459500Y-102351459D01*
X118459500Y-103348541D01*
X118459500Y-103348543D01*
X118459499Y-103348543D01*
X118497947Y-103541829D01*
X118497950Y-103541839D01*
X118573364Y-103723907D01*
X118573371Y-103723920D01*
X118682860Y-103887781D01*
X118682863Y-103887785D01*
X118822214Y-104027136D01*
X118822218Y-104027139D01*
X118986079Y-104136628D01*
X118986092Y-104136635D01*
X119135739Y-104198620D01*
X119168165Y-104212051D01*
X119168169Y-104212051D01*
X119168170Y-104212052D01*
X119361456Y-104250500D01*
X119361459Y-104250500D01*
X119558543Y-104250500D01*
X119688582Y-104224632D01*
X119751835Y-104212051D01*
X119933914Y-104136632D01*
X120097782Y-104027139D01*
X120237139Y-103887782D01*
X120237145Y-103887772D01*
X120239643Y-103884730D01*
X120241365Y-103883556D01*
X120241447Y-103883475D01*
X120241462Y-103883490D01*
X120297387Y-103845393D01*
X120367232Y-103843520D01*
X120427002Y-103879704D01*
X120457721Y-103942459D01*
X120459500Y-103963391D01*
X120459500Y-105536608D01*
X120439815Y-105603647D01*
X120387011Y-105649402D01*
X120317853Y-105659346D01*
X120254297Y-105630321D01*
X120239648Y-105615275D01*
X120237134Y-105612212D01*
X120097785Y-105472863D01*
X120097781Y-105472860D01*
X119933920Y-105363371D01*
X119933907Y-105363364D01*
X119751839Y-105287950D01*
X119751829Y-105287947D01*
X119558543Y-105249500D01*
X119558541Y-105249500D01*
X119361459Y-105249500D01*
X119361457Y-105249500D01*
X119168170Y-105287947D01*
X119168160Y-105287950D01*
X118986092Y-105363364D01*
X118986079Y-105363371D01*
X118822218Y-105472860D01*
X118822214Y-105472863D01*
X118682863Y-105612214D01*
X118682860Y-105612218D01*
X118573371Y-105776079D01*
X118573364Y-105776092D01*
X118497950Y-105958160D01*
X118497947Y-105958170D01*
X118459500Y-106151456D01*
X118459500Y-106151459D01*
X118459500Y-107548541D01*
X118459500Y-107548543D01*
X118459499Y-107548543D01*
X118497947Y-107741829D01*
X118497950Y-107741839D01*
X118573364Y-107923907D01*
X118573371Y-107923920D01*
X118682860Y-108087781D01*
X118682863Y-108087785D01*
X118822214Y-108227136D01*
X118822218Y-108227139D01*
X118889952Y-108272398D01*
X118934757Y-108326010D01*
X118943464Y-108395335D01*
X118913309Y-108458363D01*
X118853866Y-108495082D01*
X118821061Y-108499500D01*
X94374500Y-108499500D01*
X94307461Y-108479815D01*
X94261706Y-108427011D01*
X94250500Y-108375500D01*
X94250500Y-104878711D01*
X95899500Y-104878711D01*
X95899500Y-105121288D01*
X95931161Y-105361785D01*
X95993947Y-105596104D01*
X96074221Y-105789901D01*
X96086776Y-105820212D01*
X96208064Y-106030289D01*
X96208066Y-106030292D01*
X96208067Y-106030293D01*
X96355733Y-106222736D01*
X96355739Y-106222743D01*
X96527256Y-106394260D01*
X96527263Y-106394266D01*
X96640321Y-106481018D01*
X96719711Y-106541936D01*
X96929788Y-106663224D01*
X97153900Y-106756054D01*
X97388211Y-106818838D01*
X97568586Y-106842584D01*
X97628711Y-106850500D01*
X97628712Y-106850500D01*
X97871289Y-106850500D01*
X97919388Y-106844167D01*
X98111789Y-106818838D01*
X98346100Y-106756054D01*
X98570212Y-106663224D01*
X98780289Y-106541936D01*
X98972738Y-106394265D01*
X99144265Y-106222738D01*
X99291936Y-106030289D01*
X99413224Y-105820212D01*
X99506054Y-105596100D01*
X99568838Y-105361789D01*
X99600500Y-105121288D01*
X99600500Y-104878712D01*
X99596587Y-104848993D01*
X99568838Y-104638214D01*
X99568838Y-104638211D01*
X99506054Y-104403900D01*
X99413224Y-104179788D01*
X99291936Y-103969711D01*
X99196544Y-103845393D01*
X99144266Y-103777263D01*
X99144260Y-103777256D01*
X98972743Y-103605739D01*
X98972736Y-103605733D01*
X98780293Y-103458067D01*
X98780292Y-103458066D01*
X98780289Y-103458064D01*
X98570212Y-103336776D01*
X98570205Y-103336773D01*
X98346104Y-103243947D01*
X98111785Y-103181161D01*
X97871289Y-103149500D01*
X97871288Y-103149500D01*
X97628712Y-103149500D01*
X97628711Y-103149500D01*
X97388214Y-103181161D01*
X97153895Y-103243947D01*
X96929794Y-103336773D01*
X96929785Y-103336777D01*
X96719706Y-103458067D01*
X96527263Y-103605733D01*
X96527256Y-103605739D01*
X96355739Y-103777256D01*
X96355733Y-103777263D01*
X96208067Y-103969706D01*
X96086777Y-104179785D01*
X96086773Y-104179794D01*
X95993947Y-104403895D01*
X95931161Y-104638214D01*
X95899500Y-104878711D01*
X94250500Y-104878711D01*
X94250500Y-102509713D01*
X102027500Y-102509713D01*
X102027500Y-102722286D01*
X102051078Y-102871155D01*
X102060754Y-102932243D01*
X102115835Y-103101765D01*
X102126444Y-103134414D01*
X102222951Y-103323820D01*
X102347890Y-103495786D01*
X102461818Y-103609714D01*
X102495303Y-103671037D01*
X102490319Y-103740729D01*
X102448447Y-103796662D01*
X102417471Y-103813577D01*
X102285912Y-103862646D01*
X102285906Y-103862649D01*
X102170812Y-103948809D01*
X102170809Y-103948812D01*
X102084649Y-104063906D01*
X102084645Y-104063913D01*
X102034403Y-104198620D01*
X102034401Y-104198627D01*
X102028000Y-104258155D01*
X102028000Y-104906000D01*
X102944988Y-104906000D01*
X102912075Y-104963007D01*
X102878000Y-105090174D01*
X102878000Y-105221826D01*
X102912075Y-105348993D01*
X102944988Y-105406000D01*
X102028000Y-105406000D01*
X102028000Y-106053844D01*
X102034401Y-106113372D01*
X102034403Y-106113379D01*
X102084645Y-106248086D01*
X102084649Y-106248093D01*
X102170809Y-106363187D01*
X102170812Y-106363190D01*
X102285906Y-106449350D01*
X102285913Y-106449354D01*
X102420620Y-106499596D01*
X102420627Y-106499598D01*
X102480155Y-106505999D01*
X102480172Y-106506000D01*
X103128000Y-106506000D01*
X103128000Y-105589012D01*
X103185007Y-105621925D01*
X103312174Y-105656000D01*
X103443826Y-105656000D01*
X103570993Y-105621925D01*
X103628000Y-105589012D01*
X103628000Y-106506000D01*
X104275828Y-106506000D01*
X104275844Y-106505999D01*
X104335372Y-106499598D01*
X104335379Y-106499596D01*
X104470086Y-106449354D01*
X104470093Y-106449350D01*
X104585187Y-106363190D01*
X104585190Y-106363187D01*
X104671350Y-106248093D01*
X104671354Y-106248086D01*
X104721596Y-106113379D01*
X104721598Y-106113372D01*
X104727999Y-106053844D01*
X104728000Y-106053827D01*
X104728000Y-105999999D01*
X107195999Y-105999999D01*
X107612332Y-106499598D01*
X107696000Y-106600000D01*
X107696001Y-106600000D01*
X110945999Y-106600000D01*
X110946000Y-106600000D01*
X111446000Y-106250000D01*
X111446000Y-103341254D01*
X112759500Y-103341254D01*
X112759500Y-105103745D01*
X112797432Y-105343236D01*
X112872360Y-105573844D01*
X112896025Y-105620289D01*
X112975411Y-105776092D01*
X112982448Y-105789901D01*
X113124966Y-105986062D01*
X113124970Y-105986067D01*
X113296432Y-106157529D01*
X113296437Y-106157533D01*
X113423707Y-106249999D01*
X113492602Y-106300054D01*
X113677491Y-106394260D01*
X113708655Y-106410139D01*
X113823959Y-106447603D01*
X113939265Y-106485068D01*
X114050186Y-106502636D01*
X114178755Y-106523000D01*
X114178760Y-106523000D01*
X114421245Y-106523000D01*
X114537347Y-106504610D01*
X114660735Y-106485068D01*
X114891347Y-106410138D01*
X115107398Y-106300054D01*
X115303569Y-106157528D01*
X115475028Y-105986069D01*
X115617554Y-105789898D01*
X115727638Y-105573847D01*
X115802568Y-105343235D01*
X115837721Y-105121288D01*
X115840500Y-105103745D01*
X115840500Y-103341254D01*
X115807739Y-103134414D01*
X115802568Y-103101765D01*
X115727638Y-102871153D01*
X115617554Y-102655102D01*
X115599345Y-102630039D01*
X115475033Y-102458937D01*
X115475029Y-102458932D01*
X115303567Y-102287470D01*
X115303562Y-102287466D01*
X115107401Y-102144948D01*
X115107400Y-102144947D01*
X115107398Y-102144946D01*
X114966130Y-102072966D01*
X114891344Y-102034860D01*
X114660736Y-101959932D01*
X114421245Y-101922000D01*
X114421240Y-101922000D01*
X114178760Y-101922000D01*
X114178755Y-101922000D01*
X113939263Y-101959932D01*
X113708655Y-102034860D01*
X113492598Y-102144948D01*
X113296437Y-102287466D01*
X113296432Y-102287470D01*
X113124970Y-102458932D01*
X113124966Y-102458937D01*
X112982448Y-102655098D01*
X112872360Y-102871155D01*
X112797432Y-103101763D01*
X112759500Y-103341254D01*
X111446000Y-103341254D01*
X111446000Y-102000000D01*
X110946000Y-101500000D01*
X107696000Y-101500000D01*
X107695999Y-101500000D01*
X107196000Y-101999999D01*
X107196000Y-105999999D01*
X107195999Y-105999999D01*
X104728000Y-105999999D01*
X104728000Y-105406000D01*
X103811012Y-105406000D01*
X103843925Y-105348993D01*
X103878000Y-105221826D01*
X103878000Y-105090174D01*
X103843925Y-104963007D01*
X103811012Y-104906000D01*
X104728000Y-104906000D01*
X104728000Y-104258172D01*
X104727999Y-104258155D01*
X104721598Y-104198627D01*
X104721596Y-104198620D01*
X104671354Y-104063913D01*
X104671350Y-104063906D01*
X104585190Y-103948812D01*
X104585187Y-103948809D01*
X104470093Y-103862649D01*
X104470088Y-103862646D01*
X104338528Y-103813577D01*
X104282595Y-103771705D01*
X104258178Y-103706241D01*
X104273030Y-103637968D01*
X104294175Y-103609720D01*
X104408104Y-103495792D01*
X104533051Y-103323816D01*
X104629557Y-103134412D01*
X104695246Y-102932243D01*
X104728500Y-102722287D01*
X104728500Y-102509713D01*
X104695246Y-102299757D01*
X104629557Y-102097588D01*
X104533051Y-101908184D01*
X104511055Y-101877909D01*
X104408109Y-101736213D01*
X104257786Y-101585890D01*
X104085820Y-101460951D01*
X103896414Y-101364444D01*
X103896413Y-101364443D01*
X103896412Y-101364443D01*
X103694243Y-101298754D01*
X103694241Y-101298753D01*
X103694240Y-101298753D01*
X103532957Y-101273208D01*
X103484287Y-101265500D01*
X103271713Y-101265500D01*
X103223042Y-101273208D01*
X103061760Y-101298753D01*
X102859585Y-101364444D01*
X102670179Y-101460951D01*
X102498213Y-101585890D01*
X102347890Y-101736213D01*
X102222951Y-101908179D01*
X102126444Y-102097585D01*
X102060753Y-102299760D01*
X102027500Y-102509713D01*
X94250500Y-102509713D01*
X94250500Y-99479304D01*
X105779500Y-99479304D01*
X105779500Y-99656695D01*
X105814103Y-99830658D01*
X105814106Y-99830667D01*
X105881983Y-99994540D01*
X105881990Y-99994553D01*
X105980535Y-100142034D01*
X105980538Y-100142038D01*
X106105961Y-100267461D01*
X106105965Y-100267464D01*
X106253446Y-100366009D01*
X106253459Y-100366016D01*
X106354308Y-100407788D01*
X106417334Y-100433894D01*
X106417336Y-100433894D01*
X106417341Y-100433896D01*
X106591304Y-100468499D01*
X106591307Y-100468500D01*
X106591309Y-100468500D01*
X106768693Y-100468500D01*
X106768694Y-100468499D01*
X106826682Y-100456964D01*
X106942658Y-100433896D01*
X106942661Y-100433894D01*
X106942666Y-100433894D01*
X107106547Y-100366013D01*
X107254035Y-100267464D01*
X107379464Y-100142035D01*
X107478013Y-99994547D01*
X107545894Y-99830666D01*
X107547213Y-99824038D01*
X107580499Y-99656695D01*
X107580500Y-99656693D01*
X107580500Y-99638808D01*
X107600185Y-99571769D01*
X107616819Y-99551127D01*
X108006642Y-99161304D01*
X121299500Y-99161304D01*
X121299500Y-99338695D01*
X121334103Y-99512658D01*
X121334106Y-99512667D01*
X121401983Y-99676540D01*
X121401990Y-99676553D01*
X121500535Y-99824034D01*
X121500538Y-99824038D01*
X121625961Y-99949461D01*
X121625965Y-99949464D01*
X121773446Y-100048009D01*
X121773459Y-100048016D01*
X121896363Y-100098923D01*
X121937334Y-100115894D01*
X121937336Y-100115894D01*
X121937341Y-100115896D01*
X122111304Y-100150499D01*
X122111307Y-100150500D01*
X122111309Y-100150500D01*
X122288692Y-100150500D01*
X122293979Y-100149447D01*
X122313117Y-100145641D01*
X122361505Y-100145641D01*
X122380642Y-100149447D01*
X122385930Y-100150500D01*
X122385931Y-100150500D01*
X123114071Y-100150500D01*
X123198615Y-100133682D01*
X123239744Y-100125501D01*
X123358127Y-100076465D01*
X123375780Y-100064670D01*
X123375781Y-100064670D01*
X123443186Y-100019631D01*
X123464669Y-100005277D01*
X123683127Y-99786819D01*
X123710054Y-99772115D01*
X123735873Y-99755523D01*
X123742073Y-99754631D01*
X123744450Y-99753334D01*
X123770808Y-99750500D01*
X123968964Y-99750500D01*
X124036003Y-99770185D01*
X124081758Y-99822989D01*
X124092367Y-99886650D01*
X124091786Y-99892551D01*
X124091786Y-100069943D01*
X124126389Y-100243906D01*
X124126392Y-100243915D01*
X124194269Y-100407788D01*
X124194276Y-100407801D01*
X124292821Y-100555282D01*
X124292824Y-100555286D01*
X124418247Y-100680709D01*
X124418251Y-100680712D01*
X124565732Y-100779257D01*
X124565745Y-100779264D01*
X124661908Y-100819095D01*
X124729620Y-100847142D01*
X124729622Y-100847142D01*
X124729627Y-100847144D01*
X124903590Y-100881747D01*
X124903593Y-100881748D01*
X124903595Y-100881748D01*
X125080979Y-100881748D01*
X125080980Y-100881747D01*
X125138968Y-100870212D01*
X125254944Y-100847144D01*
X125254947Y-100847142D01*
X125254952Y-100847142D01*
X125418833Y-100779261D01*
X125488496Y-100732713D01*
X125555172Y-100711836D01*
X125557386Y-100711816D01*
X126068841Y-100711816D01*
X126135880Y-100731501D01*
X126156522Y-100748135D01*
X126169164Y-100760777D01*
X126169168Y-100760780D01*
X126316649Y-100859325D01*
X126316662Y-100859332D01*
X126424587Y-100904035D01*
X126480537Y-100927210D01*
X126480539Y-100927210D01*
X126480544Y-100927212D01*
X126654507Y-100961815D01*
X126654510Y-100961816D01*
X126654512Y-100961816D01*
X126831896Y-100961816D01*
X126831897Y-100961815D01*
X126889885Y-100950280D01*
X127005861Y-100927212D01*
X127005864Y-100927210D01*
X127005869Y-100927210D01*
X127169750Y-100859329D01*
X127317238Y-100760780D01*
X127442667Y-100635351D01*
X127457689Y-100612868D01*
X127511300Y-100568063D01*
X127580625Y-100559354D01*
X127643653Y-100589508D01*
X127675353Y-100634306D01*
X127725983Y-100756540D01*
X127725990Y-100756553D01*
X127824535Y-100904034D01*
X127824538Y-100904038D01*
X127949961Y-101029461D01*
X127949965Y-101029464D01*
X128097446Y-101128009D01*
X128097459Y-101128016D01*
X128220363Y-101178923D01*
X128261334Y-101195894D01*
X128261336Y-101195894D01*
X128261341Y-101195896D01*
X128435304Y-101230499D01*
X128435307Y-101230500D01*
X128435309Y-101230500D01*
X128612693Y-101230500D01*
X128612694Y-101230499D01*
X128670682Y-101218964D01*
X128786658Y-101195896D01*
X128786661Y-101195894D01*
X128786666Y-101195894D01*
X128950547Y-101128013D01*
X129098035Y-101029464D01*
X129223464Y-100904035D01*
X129322013Y-100756547D01*
X129389894Y-100592666D01*
X129390523Y-100589508D01*
X129414592Y-100468500D01*
X129424500Y-100418691D01*
X129424500Y-100241309D01*
X129424500Y-100241306D01*
X129424499Y-100241304D01*
X129389895Y-100067336D01*
X129389892Y-100067328D01*
X129389790Y-100067081D01*
X129389737Y-100066817D01*
X129388125Y-100061501D01*
X129388648Y-100061342D01*
X129388163Y-100058905D01*
X129385375Y-100054566D01*
X129380352Y-100019631D01*
X129380352Y-99727102D01*
X129355354Y-99601435D01*
X129355353Y-99601434D01*
X129355353Y-99601430D01*
X129306317Y-99483047D01*
X129282182Y-99446926D01*
X129282182Y-99446925D01*
X129235127Y-99376502D01*
X129192646Y-99334021D01*
X129159161Y-99272698D01*
X129164145Y-99203006D01*
X129164992Y-99200800D01*
X129169858Y-99188475D01*
X129176465Y-99178588D01*
X129225501Y-99060205D01*
X129228392Y-99045672D01*
X129239995Y-98987341D01*
X129250500Y-98934532D01*
X129250500Y-97648287D01*
X129270185Y-97581248D01*
X129305609Y-97545185D01*
X129374035Y-97499464D01*
X129499461Y-97374038D01*
X129499464Y-97374035D01*
X129598013Y-97226547D01*
X129665894Y-97062666D01*
X129700500Y-96888691D01*
X129700500Y-96711309D01*
X129700500Y-96711306D01*
X129700499Y-96711304D01*
X129665896Y-96537341D01*
X129665893Y-96537332D01*
X129598016Y-96373459D01*
X129598009Y-96373446D01*
X129499464Y-96225965D01*
X129499461Y-96225961D01*
X129374038Y-96100538D01*
X129374034Y-96100535D01*
X129226553Y-96001990D01*
X129226540Y-96001983D01*
X129062667Y-95934106D01*
X129062658Y-95934103D01*
X128888694Y-95899500D01*
X128888691Y-95899500D01*
X128711309Y-95899500D01*
X128711306Y-95899500D01*
X128537341Y-95934103D01*
X128537332Y-95934106D01*
X128373459Y-96001983D01*
X128373446Y-96001990D01*
X128225965Y-96100535D01*
X128225961Y-96100538D01*
X128100538Y-96225961D01*
X128100535Y-96225965D01*
X128001990Y-96373446D01*
X128001983Y-96373459D01*
X127934106Y-96537332D01*
X127934103Y-96537341D01*
X127899500Y-96711304D01*
X127899500Y-96888695D01*
X127934104Y-97062658D01*
X127934106Y-97062666D01*
X127940061Y-97077042D01*
X127949500Y-97124495D01*
X127949500Y-98432782D01*
X127929815Y-98499821D01*
X127877011Y-98545576D01*
X127807853Y-98555520D01*
X127756610Y-98535885D01*
X127738127Y-98523535D01*
X127619744Y-98474499D01*
X127619738Y-98474497D01*
X127494071Y-98449500D01*
X127494069Y-98449500D01*
X123385931Y-98449500D01*
X123385929Y-98449500D01*
X123260261Y-98474497D01*
X123260255Y-98474499D01*
X123141870Y-98523535D01*
X123035335Y-98594720D01*
X123035330Y-98594723D01*
X123014454Y-98615599D01*
X122953129Y-98649081D01*
X122883438Y-98644094D01*
X122839095Y-98615595D01*
X122774038Y-98550538D01*
X122774034Y-98550535D01*
X122626553Y-98451990D01*
X122626540Y-98451983D01*
X122462667Y-98384106D01*
X122462658Y-98384103D01*
X122288694Y-98349500D01*
X122288691Y-98349500D01*
X122111309Y-98349500D01*
X122111306Y-98349500D01*
X121937341Y-98384103D01*
X121937332Y-98384106D01*
X121773459Y-98451983D01*
X121773446Y-98451990D01*
X121625965Y-98550535D01*
X121625961Y-98550538D01*
X121500538Y-98675961D01*
X121500535Y-98675965D01*
X121401990Y-98823446D01*
X121401983Y-98823459D01*
X121334106Y-98987332D01*
X121334103Y-98987341D01*
X121299500Y-99161304D01*
X108006642Y-99161304D01*
X110855274Y-96312672D01*
X110855279Y-96312667D01*
X110926468Y-96206124D01*
X110959482Y-96126420D01*
X110975503Y-96087742D01*
X111000502Y-95962067D01*
X111000502Y-91860361D01*
X111020187Y-91793322D01*
X111036818Y-91772682D01*
X111049466Y-91760035D01*
X111148015Y-91612547D01*
X111148057Y-91612447D01*
X111178231Y-91539598D01*
X111215896Y-91448666D01*
X111224051Y-91407671D01*
X111250501Y-91274695D01*
X111250502Y-91274693D01*
X111250502Y-91097306D01*
X111250501Y-91097304D01*
X111215898Y-90923341D01*
X111215895Y-90923332D01*
X111148018Y-90759459D01*
X111148011Y-90759446D01*
X111049466Y-90611965D01*
X111049463Y-90611961D01*
X110924040Y-90486538D01*
X110924036Y-90486535D01*
X110776555Y-90387990D01*
X110776542Y-90387983D01*
X110612669Y-90320106D01*
X110612660Y-90320103D01*
X110438696Y-90285500D01*
X110438693Y-90285500D01*
X110261311Y-90285500D01*
X110261308Y-90285500D01*
X110087343Y-90320103D01*
X110087334Y-90320106D01*
X109923461Y-90387983D01*
X109923448Y-90387990D01*
X109775967Y-90486535D01*
X109775963Y-90486538D01*
X109650540Y-90611961D01*
X109650537Y-90611965D01*
X109551992Y-90759446D01*
X109551985Y-90759459D01*
X109484108Y-90923332D01*
X109484105Y-90923341D01*
X109449502Y-91097304D01*
X109449502Y-91274695D01*
X109484105Y-91448658D01*
X109484108Y-91448667D01*
X109551985Y-91612540D01*
X109551992Y-91612553D01*
X109650536Y-91760033D01*
X109650537Y-91760034D01*
X109650538Y-91760035D01*
X109663182Y-91772679D01*
X109696667Y-91833999D01*
X109699502Y-91860361D01*
X109699502Y-95577190D01*
X109679817Y-95644229D01*
X109663183Y-95664871D01*
X106696873Y-98631181D01*
X106635550Y-98664666D01*
X106609192Y-98667500D01*
X106591306Y-98667500D01*
X106417341Y-98702103D01*
X106417332Y-98702106D01*
X106253459Y-98769983D01*
X106253446Y-98769990D01*
X106105965Y-98868535D01*
X106105961Y-98868538D01*
X105980538Y-98993961D01*
X105980535Y-98993965D01*
X105881990Y-99141446D01*
X105881983Y-99141459D01*
X105814106Y-99305332D01*
X105814103Y-99305341D01*
X105779500Y-99479304D01*
X94250500Y-99479304D01*
X94250500Y-91602135D01*
X100859500Y-91602135D01*
X100859500Y-93397870D01*
X100859501Y-93397876D01*
X100865908Y-93457483D01*
X100916202Y-93592328D01*
X100916206Y-93592335D01*
X101002452Y-93707544D01*
X101002455Y-93707547D01*
X101117664Y-93793793D01*
X101117671Y-93793797D01*
X101252517Y-93844091D01*
X101252516Y-93844091D01*
X101259444Y-93844835D01*
X101312127Y-93850500D01*
X103107872Y-93850499D01*
X103167483Y-93844091D01*
X103302331Y-93793796D01*
X103417546Y-93707546D01*
X103503796Y-93592331D01*
X103553002Y-93460401D01*
X103594872Y-93404468D01*
X103660337Y-93380050D01*
X103728610Y-93394901D01*
X103756865Y-93416053D01*
X103870535Y-93529723D01*
X103870540Y-93529727D01*
X104042442Y-93654620D01*
X104231782Y-93751095D01*
X104433871Y-93816757D01*
X104500000Y-93827231D01*
X104500000Y-92933012D01*
X104557007Y-92965925D01*
X104684174Y-93000000D01*
X104815826Y-93000000D01*
X104942993Y-92965925D01*
X105000000Y-92933012D01*
X105000000Y-93827230D01*
X105066126Y-93816757D01*
X105066129Y-93816757D01*
X105268217Y-93751095D01*
X105457557Y-93654620D01*
X105629459Y-93529727D01*
X105629464Y-93529723D01*
X105779723Y-93379464D01*
X105779727Y-93379459D01*
X105904620Y-93207557D01*
X106001095Y-93018217D01*
X106066757Y-92816129D01*
X106066757Y-92816126D01*
X106077231Y-92750000D01*
X105183012Y-92750000D01*
X105215925Y-92692993D01*
X105250000Y-92565826D01*
X105250000Y-92434174D01*
X105215925Y-92307007D01*
X105183012Y-92250000D01*
X106077231Y-92250000D01*
X106066757Y-92183873D01*
X106066757Y-92183870D01*
X106001095Y-91981782D01*
X105904620Y-91792442D01*
X105779727Y-91620540D01*
X105779723Y-91620535D01*
X105629464Y-91470276D01*
X105629459Y-91470272D01*
X105457557Y-91345379D01*
X105268215Y-91248903D01*
X105066124Y-91183241D01*
X105000000Y-91172768D01*
X105000000Y-92066988D01*
X104942993Y-92034075D01*
X104815826Y-92000000D01*
X104684174Y-92000000D01*
X104557007Y-92034075D01*
X104500000Y-92066988D01*
X104500000Y-91172768D01*
X104499999Y-91172768D01*
X104433875Y-91183241D01*
X104231784Y-91248903D01*
X104042442Y-91345379D01*
X103870541Y-91470271D01*
X103756865Y-91583947D01*
X103695542Y-91617431D01*
X103625850Y-91612447D01*
X103569917Y-91570575D01*
X103553002Y-91539598D01*
X103503797Y-91407671D01*
X103503793Y-91407664D01*
X103417547Y-91292455D01*
X103417544Y-91292452D01*
X103302335Y-91206206D01*
X103302328Y-91206202D01*
X103167482Y-91155908D01*
X103167483Y-91155908D01*
X103107883Y-91149501D01*
X103107881Y-91149500D01*
X103107873Y-91149500D01*
X103107864Y-91149500D01*
X101312129Y-91149500D01*
X101312123Y-91149501D01*
X101252516Y-91155908D01*
X101117671Y-91206202D01*
X101117664Y-91206206D01*
X101002455Y-91292452D01*
X101002452Y-91292455D01*
X100916206Y-91407664D01*
X100916202Y-91407671D01*
X100865908Y-91542517D01*
X100859501Y-91602116D01*
X100859500Y-91602135D01*
X94250500Y-91602135D01*
X94250500Y-86661304D01*
X100599500Y-86661304D01*
X100599500Y-86838695D01*
X100634103Y-87012658D01*
X100634106Y-87012667D01*
X100701983Y-87176540D01*
X100701990Y-87176553D01*
X100800535Y-87324034D01*
X100800538Y-87324038D01*
X100925961Y-87449461D01*
X100925965Y-87449464D01*
X101073446Y-87548009D01*
X101073459Y-87548016D01*
X101173318Y-87589378D01*
X101237334Y-87615894D01*
X101237336Y-87615894D01*
X101237341Y-87615896D01*
X101411304Y-87650499D01*
X101411307Y-87650500D01*
X101411309Y-87650500D01*
X101588693Y-87650500D01*
X101588694Y-87650499D01*
X101762666Y-87615894D01*
X101808647Y-87596847D01*
X101878115Y-87589378D01*
X101940595Y-87620652D01*
X101943781Y-87623727D01*
X102327833Y-88007779D01*
X102361318Y-88069102D01*
X102361770Y-88119650D01*
X102350958Y-88174009D01*
X102350500Y-88176310D01*
X102350500Y-88353695D01*
X102385103Y-88527658D01*
X102385106Y-88527667D01*
X102452983Y-88691540D01*
X102452990Y-88691553D01*
X102551535Y-88839034D01*
X102551538Y-88839038D01*
X102676961Y-88964461D01*
X102676965Y-88964464D01*
X102824446Y-89063009D01*
X102824459Y-89063016D01*
X102915395Y-89100682D01*
X102988334Y-89130894D01*
X102988336Y-89130894D01*
X102988341Y-89130896D01*
X103162304Y-89165499D01*
X103162307Y-89165500D01*
X103162309Y-89165500D01*
X103339693Y-89165500D01*
X103339694Y-89165499D01*
X103397682Y-89153964D01*
X103513658Y-89130896D01*
X103513661Y-89130894D01*
X103513666Y-89130894D01*
X103677547Y-89063013D01*
X103825035Y-88964464D01*
X103950464Y-88839035D01*
X104049013Y-88691547D01*
X104116894Y-88527666D01*
X104151500Y-88353691D01*
X104151500Y-88176309D01*
X104151500Y-88176306D01*
X104151499Y-88176304D01*
X104116896Y-88002341D01*
X104116894Y-88002336D01*
X104116894Y-88002334D01*
X104079189Y-87911304D01*
X106349500Y-87911304D01*
X106349500Y-88088695D01*
X106384103Y-88262658D01*
X106384106Y-88262667D01*
X106451983Y-88426540D01*
X106451990Y-88426553D01*
X106550534Y-88574033D01*
X106550535Y-88574034D01*
X106550536Y-88574035D01*
X106563180Y-88586679D01*
X106596665Y-88647999D01*
X106599500Y-88674361D01*
X106599500Y-92575638D01*
X106579815Y-92642677D01*
X106563181Y-92663319D01*
X106550538Y-92675961D01*
X106550535Y-92675965D01*
X106451990Y-92823446D01*
X106451983Y-92823459D01*
X106384106Y-92987332D01*
X106384103Y-92987341D01*
X106349500Y-93161304D01*
X106349500Y-93338695D01*
X106384103Y-93512658D01*
X106384106Y-93512667D01*
X106451983Y-93676540D01*
X106451990Y-93676553D01*
X106550535Y-93824034D01*
X106550538Y-93824038D01*
X106675961Y-93949461D01*
X106675965Y-93949464D01*
X106823446Y-94048009D01*
X106823459Y-94048016D01*
X106946363Y-94098923D01*
X106987334Y-94115894D01*
X106987336Y-94115894D01*
X106987341Y-94115896D01*
X107161304Y-94150499D01*
X107161307Y-94150500D01*
X107161309Y-94150500D01*
X107338693Y-94150500D01*
X107338694Y-94150499D01*
X107396682Y-94138964D01*
X107512658Y-94115896D01*
X107512661Y-94115894D01*
X107512666Y-94115894D01*
X107676547Y-94048013D01*
X107824035Y-93949464D01*
X107949464Y-93824035D01*
X108048013Y-93676547D01*
X108115894Y-93512666D01*
X108125094Y-93466418D01*
X108150499Y-93338695D01*
X108150500Y-93338693D01*
X108150500Y-93161306D01*
X108150499Y-93161304D01*
X108115896Y-92987341D01*
X108115893Y-92987332D01*
X108048016Y-92823459D01*
X108048009Y-92823446D01*
X107949464Y-92675965D01*
X107949461Y-92675961D01*
X107936819Y-92663319D01*
X107903334Y-92601996D01*
X107900500Y-92575638D01*
X107900500Y-89877880D01*
X127924197Y-89877880D01*
X127924197Y-90055271D01*
X127958800Y-90229234D01*
X127958803Y-90229243D01*
X128026680Y-90393116D01*
X128026687Y-90393129D01*
X128125232Y-90540610D01*
X128125235Y-90540614D01*
X128153166Y-90568545D01*
X128186651Y-90629868D01*
X128181667Y-90699560D01*
X128180047Y-90703676D01*
X128166106Y-90737333D01*
X128166103Y-90737341D01*
X128131500Y-90911304D01*
X128131500Y-91088695D01*
X128166103Y-91262658D01*
X128166106Y-91262667D01*
X128233983Y-91426540D01*
X128233990Y-91426553D01*
X128332535Y-91574034D01*
X128332538Y-91574038D01*
X128457961Y-91699461D01*
X128457965Y-91699464D01*
X128605446Y-91798009D01*
X128605459Y-91798016D01*
X128728363Y-91848923D01*
X128769334Y-91865894D01*
X128769336Y-91865894D01*
X128769341Y-91865896D01*
X128869687Y-91885856D01*
X128931598Y-91918241D01*
X128966172Y-91978956D01*
X128962433Y-92048726D01*
X128948600Y-92076362D01*
X128927988Y-92107210D01*
X128927983Y-92107219D01*
X128860106Y-92271092D01*
X128860103Y-92271101D01*
X128825500Y-92445064D01*
X128825500Y-92622455D01*
X128860103Y-92796418D01*
X128860106Y-92796427D01*
X128927983Y-92960300D01*
X128927990Y-92960313D01*
X129026535Y-93107794D01*
X129026538Y-93107798D01*
X129151961Y-93233221D01*
X129151965Y-93233224D01*
X129299446Y-93331769D01*
X129299459Y-93331776D01*
X129416005Y-93380050D01*
X129463334Y-93399654D01*
X129463336Y-93399654D01*
X129463341Y-93399656D01*
X129637304Y-93434259D01*
X129637307Y-93434260D01*
X129637309Y-93434260D01*
X129814693Y-93434260D01*
X129814694Y-93434259D01*
X129872682Y-93422724D01*
X129988658Y-93399656D01*
X129988661Y-93399654D01*
X129988666Y-93399654D01*
X130135836Y-93338695D01*
X130152540Y-93331776D01*
X130152540Y-93331775D01*
X130152547Y-93331773D01*
X130300035Y-93233224D01*
X130300038Y-93233221D01*
X130312681Y-93220579D01*
X130374004Y-93187094D01*
X130400362Y-93184260D01*
X131431311Y-93184260D01*
X131546713Y-93161304D01*
X131556984Y-93159261D01*
X131675367Y-93110225D01*
X131723784Y-93077874D01*
X131781909Y-93039037D01*
X131814461Y-93006484D01*
X131820399Y-93001839D01*
X131846144Y-92991606D01*
X131870451Y-92978334D01*
X131882908Y-92976994D01*
X131885328Y-92976033D01*
X131887644Y-92976485D01*
X131896809Y-92975500D01*
X131914693Y-92975500D01*
X131914694Y-92975499D01*
X131991106Y-92960300D01*
X132088658Y-92940896D01*
X132088661Y-92940894D01*
X132088666Y-92940894D01*
X132252547Y-92873013D01*
X132400035Y-92774464D01*
X132525464Y-92649035D01*
X132624013Y-92501547D01*
X132691894Y-92337666D01*
X132697993Y-92307007D01*
X132720671Y-92192993D01*
X132726500Y-92163691D01*
X132726500Y-92119428D01*
X132746185Y-92052389D01*
X132798989Y-92006634D01*
X132826305Y-91997811D01*
X132855592Y-91991986D01*
X133019473Y-91924105D01*
X133166961Y-91825556D01*
X133292390Y-91700127D01*
X133390939Y-91552639D01*
X133458820Y-91388758D01*
X133493426Y-91214783D01*
X133493426Y-91050135D01*
X135682500Y-91050135D01*
X135682500Y-92845870D01*
X135682501Y-92845876D01*
X135688908Y-92905483D01*
X135739202Y-93040328D01*
X135739206Y-93040335D01*
X135825452Y-93155544D01*
X135825455Y-93155547D01*
X135940664Y-93241793D01*
X135940671Y-93241797D01*
X136072082Y-93290810D01*
X136128016Y-93332681D01*
X136152433Y-93398145D01*
X136137582Y-93466418D01*
X136116431Y-93494673D01*
X136002889Y-93608215D01*
X135877951Y-93780179D01*
X135781444Y-93969585D01*
X135715753Y-94171760D01*
X135682500Y-94381713D01*
X135682500Y-94594286D01*
X135715753Y-94804239D01*
X135781444Y-95006414D01*
X135877951Y-95195820D01*
X136002890Y-95367786D01*
X136153213Y-95518109D01*
X136325182Y-95643050D01*
X136333946Y-95647516D01*
X136384742Y-95695491D01*
X136401536Y-95763312D01*
X136378998Y-95829447D01*
X136333946Y-95868484D01*
X136325182Y-95872949D01*
X136153213Y-95997890D01*
X136002890Y-96148213D01*
X135877951Y-96320179D01*
X135781444Y-96509585D01*
X135715753Y-96711760D01*
X135682500Y-96921713D01*
X135682500Y-97134286D01*
X135697111Y-97226540D01*
X135715754Y-97344243D01*
X135781044Y-97545185D01*
X135781444Y-97546414D01*
X135877951Y-97735820D01*
X136002890Y-97907786D01*
X136153213Y-98058109D01*
X136325179Y-98183048D01*
X136325181Y-98183049D01*
X136325184Y-98183051D01*
X136334493Y-98187794D01*
X136385290Y-98235766D01*
X136402087Y-98303587D01*
X136379552Y-98369722D01*
X136334502Y-98408762D01*
X136325443Y-98413378D01*
X136153540Y-98538272D01*
X136153535Y-98538276D01*
X136003276Y-98688535D01*
X136003272Y-98688540D01*
X135878379Y-98860442D01*
X135781904Y-99049782D01*
X135716242Y-99251870D01*
X135716242Y-99251873D01*
X135705769Y-99318000D01*
X136599988Y-99318000D01*
X136567075Y-99375007D01*
X136533000Y-99502174D01*
X136533000Y-99633826D01*
X136567075Y-99760993D01*
X136599988Y-99818000D01*
X135705769Y-99818000D01*
X135716242Y-99884126D01*
X135716242Y-99884129D01*
X135781904Y-100086217D01*
X135878379Y-100275557D01*
X136003272Y-100447459D01*
X136003276Y-100447464D01*
X136153535Y-100597723D01*
X136153540Y-100597727D01*
X136325442Y-100722620D01*
X136514782Y-100819095D01*
X136716871Y-100884757D01*
X136783000Y-100895231D01*
X136783000Y-100001012D01*
X136840007Y-100033925D01*
X136967174Y-100068000D01*
X137098826Y-100068000D01*
X137225993Y-100033925D01*
X137283000Y-100001012D01*
X137283000Y-100895230D01*
X137349126Y-100884757D01*
X137349129Y-100884757D01*
X137551217Y-100819095D01*
X137740557Y-100722620D01*
X137912459Y-100597727D01*
X137912464Y-100597723D01*
X138062723Y-100447464D01*
X138062727Y-100447459D01*
X138187620Y-100275557D01*
X138284095Y-100086217D01*
X138349757Y-99884129D01*
X138349757Y-99884126D01*
X138360231Y-99818000D01*
X137466012Y-99818000D01*
X137498925Y-99760993D01*
X137533000Y-99633826D01*
X137533000Y-99502174D01*
X137498925Y-99375007D01*
X137466012Y-99318000D01*
X138360231Y-99318000D01*
X138349757Y-99251873D01*
X138349757Y-99251870D01*
X138284095Y-99049782D01*
X138187620Y-98860442D01*
X138062727Y-98688540D01*
X138062723Y-98688535D01*
X137912464Y-98538276D01*
X137912459Y-98538272D01*
X137740555Y-98413377D01*
X137731500Y-98408763D01*
X137680706Y-98360788D01*
X137663912Y-98292966D01*
X137686451Y-98226832D01*
X137731508Y-98187793D01*
X137740816Y-98183051D01*
X137820007Y-98125515D01*
X137912786Y-98058109D01*
X137912788Y-98058106D01*
X137912792Y-98058104D01*
X138063104Y-97907792D01*
X138063106Y-97907788D01*
X138063109Y-97907786D01*
X138188048Y-97735820D01*
X138188047Y-97735820D01*
X138188051Y-97735816D01*
X138284557Y-97546412D01*
X138350246Y-97344243D01*
X138383500Y-97134287D01*
X138383500Y-96921713D01*
X138350246Y-96711757D01*
X138284557Y-96509588D01*
X138188051Y-96320184D01*
X138188049Y-96320181D01*
X138188048Y-96320179D01*
X138063109Y-96148213D01*
X137912786Y-95997890D01*
X137740820Y-95872951D01*
X137740115Y-95872591D01*
X137732054Y-95868485D01*
X137681259Y-95820512D01*
X137664463Y-95752692D01*
X137686999Y-95686556D01*
X137732054Y-95647515D01*
X137740816Y-95643051D01*
X137831467Y-95577190D01*
X137912786Y-95518109D01*
X137912788Y-95518106D01*
X137912792Y-95518104D01*
X138063104Y-95367792D01*
X138063106Y-95367788D01*
X138063109Y-95367786D01*
X138188048Y-95195820D01*
X138188047Y-95195820D01*
X138188051Y-95195816D01*
X138284557Y-95006412D01*
X138350246Y-94804243D01*
X138383500Y-94594287D01*
X138383500Y-94381713D01*
X138350246Y-94171757D01*
X138284557Y-93969588D01*
X138188051Y-93780184D01*
X138188049Y-93780181D01*
X138188048Y-93780179D01*
X138063109Y-93608213D01*
X137949569Y-93494673D01*
X137916084Y-93433350D01*
X137921068Y-93363658D01*
X137962940Y-93307725D01*
X137993915Y-93290810D01*
X138125331Y-93241796D01*
X138240546Y-93155546D01*
X138326796Y-93040331D01*
X138377091Y-92905483D01*
X138383500Y-92845873D01*
X138383499Y-91050128D01*
X138377091Y-90990517D01*
X138352033Y-90923334D01*
X138326797Y-90855671D01*
X138326793Y-90855664D01*
X138240547Y-90740455D01*
X138240544Y-90740452D01*
X138125335Y-90654206D01*
X138125328Y-90654202D01*
X137990482Y-90603908D01*
X137990483Y-90603908D01*
X137930883Y-90597501D01*
X137930881Y-90597500D01*
X137930873Y-90597500D01*
X137930864Y-90597500D01*
X136135129Y-90597500D01*
X136135123Y-90597501D01*
X136075516Y-90603908D01*
X135940671Y-90654202D01*
X135940664Y-90654206D01*
X135825455Y-90740452D01*
X135825452Y-90740455D01*
X135739206Y-90855664D01*
X135739202Y-90855671D01*
X135688908Y-90990517D01*
X135683868Y-91037401D01*
X135682501Y-91050123D01*
X135682500Y-91050135D01*
X133493426Y-91050135D01*
X133493426Y-91037401D01*
X133472891Y-90934168D01*
X133472578Y-90932291D01*
X133476543Y-90899421D01*
X133479493Y-90866461D01*
X133480709Y-90864895D01*
X133480947Y-90862925D01*
X133502046Y-90837426D01*
X133522355Y-90811283D01*
X133524426Y-90810381D01*
X133525491Y-90809095D01*
X133532536Y-90806851D01*
X133570689Y-90790243D01*
X133612666Y-90781894D01*
X133776547Y-90714013D01*
X133924035Y-90615464D01*
X134049464Y-90490035D01*
X134148013Y-90342547D01*
X134215894Y-90178666D01*
X134250500Y-90004691D01*
X134250500Y-89827309D01*
X134250500Y-89827306D01*
X134250499Y-89827304D01*
X134215896Y-89653341D01*
X134215893Y-89653332D01*
X134148016Y-89489459D01*
X134148009Y-89489446D01*
X134049464Y-89341965D01*
X134049461Y-89341961D01*
X133924038Y-89216538D01*
X133924034Y-89216535D01*
X133776553Y-89117990D01*
X133776540Y-89117983D01*
X133612667Y-89050106D01*
X133612658Y-89050103D01*
X133438694Y-89015500D01*
X133438691Y-89015500D01*
X133261309Y-89015500D01*
X133261306Y-89015500D01*
X133087341Y-89050103D01*
X133087332Y-89050106D01*
X132923459Y-89117983D01*
X132923446Y-89117990D01*
X132775965Y-89216535D01*
X132775961Y-89216538D01*
X132650538Y-89341961D01*
X132650535Y-89341965D01*
X132615340Y-89394639D01*
X132561728Y-89439444D01*
X132512238Y-89449748D01*
X131010407Y-89449748D01*
X130943368Y-89430063D01*
X130897613Y-89377259D01*
X130888569Y-89343711D01*
X130888184Y-89343788D01*
X130887042Y-89338047D01*
X130887004Y-89337906D01*
X130886994Y-89337806D01*
X130852391Y-89163846D01*
X130852388Y-89163837D01*
X130784508Y-88999958D01*
X130784506Y-88999956D01*
X130784506Y-88999954D01*
X130719398Y-88902513D01*
X130698520Y-88835835D01*
X130698500Y-88833622D01*
X130698500Y-87946928D01*
X130673502Y-87821260D01*
X130673500Y-87821254D01*
X130665753Y-87802553D01*
X130653189Y-87772221D01*
X130624466Y-87702874D01*
X130566349Y-87615895D01*
X130553278Y-87596332D01*
X130553272Y-87596325D01*
X130349819Y-87392872D01*
X130316334Y-87331549D01*
X130313500Y-87305191D01*
X130313500Y-87287306D01*
X130313499Y-87287304D01*
X130278896Y-87113341D01*
X130278893Y-87113332D01*
X130211016Y-86949459D01*
X130211009Y-86949446D01*
X130112464Y-86801965D01*
X130112461Y-86801961D01*
X129987038Y-86676538D01*
X129987034Y-86676535D01*
X129839553Y-86577990D01*
X129839540Y-86577983D01*
X129675667Y-86510106D01*
X129675658Y-86510103D01*
X129501694Y-86475500D01*
X129501691Y-86475500D01*
X129324309Y-86475500D01*
X129324306Y-86475500D01*
X129150341Y-86510103D01*
X129150332Y-86510106D01*
X128986459Y-86577983D01*
X128986446Y-86577990D01*
X128838965Y-86676535D01*
X128838961Y-86676538D01*
X128713538Y-86801961D01*
X128713535Y-86801965D01*
X128614990Y-86949446D01*
X128614983Y-86949459D01*
X128547106Y-87113332D01*
X128547103Y-87113341D01*
X128512500Y-87287304D01*
X128512500Y-87464695D01*
X128547103Y-87638658D01*
X128547106Y-87638667D01*
X128614983Y-87802540D01*
X128614990Y-87802553D01*
X128713535Y-87950034D01*
X128713538Y-87950038D01*
X128838961Y-88075461D01*
X128838965Y-88075464D01*
X128986446Y-88174009D01*
X128986459Y-88174016D01*
X129109363Y-88224923D01*
X129150334Y-88241894D01*
X129297691Y-88271205D01*
X129359602Y-88303589D01*
X129394176Y-88364305D01*
X129397500Y-88392822D01*
X129397500Y-88690638D01*
X129377815Y-88757677D01*
X129361181Y-88778319D01*
X129287033Y-88852466D01*
X129287030Y-88852470D01*
X129188480Y-88999960D01*
X129188478Y-88999963D01*
X129181180Y-89017583D01*
X129137337Y-89071985D01*
X129071043Y-89094047D01*
X129042430Y-89091743D01*
X128913392Y-89066076D01*
X128913388Y-89066076D01*
X128736006Y-89066076D01*
X128736003Y-89066076D01*
X128562038Y-89100679D01*
X128562029Y-89100682D01*
X128398156Y-89168559D01*
X128398143Y-89168566D01*
X128250662Y-89267111D01*
X128250658Y-89267114D01*
X128125235Y-89392537D01*
X128125232Y-89392541D01*
X128026687Y-89540022D01*
X128026680Y-89540035D01*
X127958803Y-89703908D01*
X127958800Y-89703917D01*
X127924197Y-89877880D01*
X107900500Y-89877880D01*
X107900500Y-88674361D01*
X107920185Y-88607322D01*
X107936816Y-88586682D01*
X107949464Y-88574035D01*
X108048013Y-88426547D01*
X108115894Y-88262666D01*
X108150500Y-88088691D01*
X108150500Y-87911309D01*
X108150500Y-87911306D01*
X108150499Y-87911304D01*
X108115896Y-87737341D01*
X108115893Y-87737332D01*
X108048016Y-87573459D01*
X108048009Y-87573446D01*
X107949464Y-87425965D01*
X107949461Y-87425961D01*
X107824038Y-87300538D01*
X107824034Y-87300535D01*
X107676553Y-87201990D01*
X107676540Y-87201983D01*
X107512667Y-87134106D01*
X107512658Y-87134103D01*
X107338694Y-87099500D01*
X107338691Y-87099500D01*
X107161309Y-87099500D01*
X107161306Y-87099500D01*
X106987341Y-87134103D01*
X106987332Y-87134106D01*
X106823459Y-87201983D01*
X106823446Y-87201990D01*
X106675965Y-87300535D01*
X106675961Y-87300538D01*
X106550538Y-87425961D01*
X106550535Y-87425965D01*
X106451990Y-87573446D01*
X106451983Y-87573459D01*
X106384106Y-87737332D01*
X106384103Y-87737341D01*
X106349500Y-87911304D01*
X104079189Y-87911304D01*
X104049013Y-87838453D01*
X104049011Y-87838450D01*
X104049009Y-87838446D01*
X103950464Y-87690965D01*
X103950461Y-87690961D01*
X103825038Y-87565538D01*
X103825034Y-87565535D01*
X103677553Y-87466990D01*
X103677540Y-87466983D01*
X103613931Y-87440636D01*
X103573702Y-87413756D01*
X102404674Y-86244727D01*
X102404673Y-86244726D01*
X102404669Y-86244723D01*
X102298127Y-86173535D01*
X102179744Y-86124499D01*
X102179742Y-86124498D01*
X102179735Y-86124496D01*
X102176995Y-86123951D01*
X102175693Y-86123270D01*
X102173910Y-86122729D01*
X102174012Y-86122390D01*
X102115087Y-86091560D01*
X102113517Y-86090017D01*
X102074038Y-86050538D01*
X102074034Y-86050535D01*
X101926553Y-85951990D01*
X101926540Y-85951983D01*
X101762667Y-85884106D01*
X101762658Y-85884103D01*
X101588694Y-85849500D01*
X101588691Y-85849500D01*
X101411309Y-85849500D01*
X101411306Y-85849500D01*
X101237341Y-85884103D01*
X101237332Y-85884106D01*
X101073459Y-85951983D01*
X101073446Y-85951990D01*
X100925965Y-86050535D01*
X100925961Y-86050538D01*
X100800538Y-86175961D01*
X100800535Y-86175965D01*
X100701990Y-86323446D01*
X100701983Y-86323459D01*
X100634106Y-86487332D01*
X100634103Y-86487341D01*
X100599500Y-86661304D01*
X94250500Y-86661304D01*
X94250500Y-76628711D01*
X95899500Y-76628711D01*
X95899500Y-76871288D01*
X95931161Y-77111785D01*
X95993947Y-77346104D01*
X96086773Y-77570205D01*
X96086776Y-77570212D01*
X96208064Y-77780289D01*
X96208066Y-77780292D01*
X96208067Y-77780293D01*
X96355733Y-77972736D01*
X96355739Y-77972743D01*
X96527256Y-78144260D01*
X96527262Y-78144265D01*
X96719711Y-78291936D01*
X96929788Y-78413224D01*
X97153900Y-78506054D01*
X97388211Y-78568838D01*
X97568586Y-78592584D01*
X97628711Y-78600500D01*
X97628712Y-78600500D01*
X97871289Y-78600500D01*
X97919388Y-78594167D01*
X98111789Y-78568838D01*
X98346100Y-78506054D01*
X98570212Y-78413224D01*
X98780289Y-78291936D01*
X98972738Y-78144265D01*
X99144265Y-77972738D01*
X99291936Y-77780289D01*
X99413224Y-77570212D01*
X99506054Y-77346100D01*
X99568838Y-77111789D01*
X99600500Y-76871288D01*
X99600500Y-76628712D01*
X99568838Y-76388211D01*
X99506054Y-76153900D01*
X99413224Y-75929788D01*
X99291936Y-75719711D01*
X99144265Y-75527262D01*
X99144260Y-75527256D01*
X98972743Y-75355739D01*
X98972736Y-75355733D01*
X98780293Y-75208067D01*
X98780292Y-75208066D01*
X98780289Y-75208064D01*
X98570212Y-75086776D01*
X98570205Y-75086773D01*
X98346104Y-74993947D01*
X98111785Y-74931161D01*
X97871289Y-74899500D01*
X97871288Y-74899500D01*
X97628712Y-74899500D01*
X97628711Y-74899500D01*
X97388214Y-74931161D01*
X97153895Y-74993947D01*
X96929794Y-75086773D01*
X96929785Y-75086777D01*
X96719706Y-75208067D01*
X96527263Y-75355733D01*
X96527256Y-75355739D01*
X96355739Y-75527256D01*
X96355733Y-75527263D01*
X96208067Y-75719706D01*
X96086777Y-75929785D01*
X96086773Y-75929794D01*
X95993947Y-76153895D01*
X95931161Y-76388214D01*
X95899500Y-76628711D01*
X94250500Y-76628711D01*
X94250500Y-73374500D01*
X94270185Y-73307461D01*
X94322989Y-73261706D01*
X94374500Y-73250500D01*
X103626000Y-73250500D01*
X103693039Y-73270185D01*
G37*
%TD.AperFunction*%
%TD*%
M02*
