%TF.GenerationSoftware,KiCad,Pcbnew,9.0.0*%
%TF.CreationDate,2025-10-09T14:42:32+02:00*%
%TF.ProjectId,ESP-PowerSunSensor,4553502d-506f-4776-9572-53756e53656e,rev?*%
%TF.SameCoordinates,Original*%
%TF.FileFunction,Legend,Bot*%
%TF.FilePolarity,Positive*%
%FSLAX46Y46*%
G04 Gerber Fmt 4.6, Leading zero omitted, Abs format (unit mm)*
G04 Created by KiCad (PCBNEW 9.0.0) date 2025-10-09 14:42:32*
%MOMM*%
%LPD*%
G01*
G04 APERTURE LIST*
%ADD10C,0.200000*%
%ADD11C,0.150000*%
G04 APERTURE END LIST*
D10*
G36*
X121188980Y-89225951D02*
G01*
X121220561Y-89232912D01*
X121236974Y-89243976D01*
X121241444Y-89258704D01*
X121241444Y-89654891D01*
X121292163Y-89611337D01*
X121340655Y-89581471D01*
X121392851Y-89562824D01*
X121452103Y-89556412D01*
X121526809Y-89564081D01*
X121589856Y-89585941D01*
X121644607Y-89621734D01*
X121689800Y-89670498D01*
X121724499Y-89729785D01*
X121750910Y-89803415D01*
X121766313Y-89884085D01*
X121771793Y-89978903D01*
X121767630Y-90058933D01*
X121755453Y-90133582D01*
X121733589Y-90203428D01*
X121702550Y-90261956D01*
X121660758Y-90311260D01*
X121608248Y-90349371D01*
X121568467Y-90366828D01*
X121521788Y-90377851D01*
X121466831Y-90381757D01*
X121394242Y-90373207D01*
X121329591Y-90348125D01*
X121270231Y-90308683D01*
X121211109Y-90253750D01*
X121211109Y-90334936D01*
X121206639Y-90350103D01*
X121191838Y-90360288D01*
X121165240Y-90366004D01*
X121122595Y-90367689D01*
X121081196Y-90366004D01*
X121054525Y-90360288D01*
X121040603Y-90350030D01*
X121036499Y-90334863D01*
X121036499Y-89845986D01*
X121241444Y-89845986D01*
X121241444Y-90088886D01*
X121289804Y-90144866D01*
X121332888Y-90181722D01*
X121373848Y-90202019D01*
X121415247Y-90208247D01*
X121455073Y-90202827D01*
X121485735Y-90187658D01*
X121510568Y-90163928D01*
X121530432Y-90132776D01*
X121544638Y-90096928D01*
X121554612Y-90054887D01*
X121561939Y-89964981D01*
X121553366Y-89879618D01*
X121542304Y-89839385D01*
X121527135Y-89804147D01*
X121506408Y-89773515D01*
X121480386Y-89750145D01*
X121449075Y-89735138D01*
X121411144Y-89729922D01*
X121368501Y-89737152D01*
X121326294Y-89759817D01*
X121286763Y-89794274D01*
X121241444Y-89845986D01*
X121036499Y-89845986D01*
X121036499Y-89258704D01*
X121041409Y-89243976D01*
X121057822Y-89232912D01*
X121089036Y-89225951D01*
X121138935Y-89223460D01*
X121188980Y-89225951D01*
G37*
G36*
X120582010Y-89563859D02*
G01*
X120654235Y-89585135D01*
X120718455Y-89620464D01*
X120771838Y-89668446D01*
X120813902Y-89727924D01*
X120845624Y-89801363D01*
X120864418Y-89882629D01*
X120871049Y-89977291D01*
X120864609Y-90076171D01*
X120846869Y-90156150D01*
X120815843Y-90226898D01*
X120773523Y-90282473D01*
X120719050Y-90325710D01*
X120651011Y-90357138D01*
X120574095Y-90375232D01*
X120480065Y-90381757D01*
X120378436Y-90374870D01*
X120294026Y-90358823D01*
X120233356Y-90339845D01*
X120204266Y-90324385D01*
X120195620Y-90312368D01*
X120190711Y-90297054D01*
X120188220Y-90275145D01*
X120187414Y-90244078D01*
X120188659Y-90209786D01*
X120193202Y-90188683D01*
X120201335Y-90178352D01*
X120213645Y-90175421D01*
X120245666Y-90183481D01*
X120295198Y-90201213D01*
X120366126Y-90219018D01*
X120408738Y-90224869D01*
X120461161Y-90227005D01*
X120512304Y-90223235D01*
X120552606Y-90212937D01*
X120587676Y-90195310D01*
X120614887Y-90171904D01*
X120635571Y-90142466D01*
X120650132Y-90106471D01*
X120658314Y-90066640D01*
X120661196Y-90020669D01*
X120216063Y-90020669D01*
X120189236Y-90015949D01*
X120169828Y-90002644D01*
X120157676Y-89981260D01*
X120152975Y-89946956D01*
X120152975Y-89914203D01*
X120154652Y-89889364D01*
X120353010Y-89889364D01*
X120661196Y-89889364D01*
X120657362Y-89851297D01*
X120649326Y-89816237D01*
X120636594Y-89783776D01*
X120619797Y-89756740D01*
X120598158Y-89734189D01*
X120571437Y-89716660D01*
X120540581Y-89705680D01*
X120503000Y-89701785D01*
X120453540Y-89707891D01*
X120416137Y-89724726D01*
X120387815Y-89751831D01*
X120368262Y-89787054D01*
X120356244Y-89832009D01*
X120353010Y-89889364D01*
X120154652Y-89889364D01*
X120158047Y-89839091D01*
X120172686Y-89771761D01*
X120198149Y-89710163D01*
X120234162Y-89658408D01*
X120281098Y-89616194D01*
X120341140Y-89583450D01*
X120410292Y-89563638D01*
X120498091Y-89556412D01*
X120582010Y-89563859D01*
G37*
G36*
X119468387Y-90128233D02*
G01*
X119474469Y-90188014D01*
X119491761Y-90238216D01*
X119519927Y-90281855D01*
X119557780Y-90317790D01*
X119603485Y-90345368D01*
X119658603Y-90365711D01*
X119718304Y-90377626D01*
X119784779Y-90381757D01*
X119863035Y-90375822D01*
X119929860Y-90360801D01*
X119979099Y-90342263D01*
X120007749Y-90324458D01*
X120021670Y-90297494D01*
X120026580Y-90242319D01*
X120024968Y-90203778D01*
X120020058Y-90180550D01*
X120011852Y-90168973D01*
X119999542Y-90166042D01*
X119972944Y-90176227D01*
X119929054Y-90198502D01*
X119868017Y-90221143D01*
X119831775Y-90228924D01*
X119788883Y-90231695D01*
X119739350Y-90225979D01*
X119701615Y-90209566D01*
X119687514Y-90197362D01*
X119677435Y-90182455D01*
X119669228Y-90144646D01*
X119673076Y-90121629D01*
X119684396Y-90102441D01*
X119701532Y-90086292D01*
X119724549Y-90071667D01*
X119781116Y-90047047D01*
X119845889Y-90021621D01*
X119910662Y-89989601D01*
X119940546Y-89969519D01*
X119967155Y-89945344D01*
X119989451Y-89916753D01*
X120007309Y-89882110D01*
X120018429Y-89842961D01*
X120022476Y-89793523D01*
X120017263Y-89742666D01*
X120002033Y-89697096D01*
X119977092Y-89656496D01*
X119942975Y-89622064D01*
X119901147Y-89594819D01*
X119849113Y-89573631D01*
X119791758Y-89560907D01*
X119724915Y-89556412D01*
X119658164Y-89561541D01*
X119599546Y-89574364D01*
X119555289Y-89590923D01*
X119529423Y-89606311D01*
X119518359Y-89618840D01*
X119513450Y-89633495D01*
X119510592Y-89654744D01*
X119509347Y-89686178D01*
X119510592Y-89722155D01*
X119514696Y-89744210D01*
X119522462Y-89755201D01*
X119533966Y-89758059D01*
X119556901Y-89749120D01*
X119595809Y-89729922D01*
X119649957Y-89710725D01*
X119681888Y-89704141D01*
X119720006Y-89701785D01*
X119768439Y-89707574D01*
X119801998Y-89724133D01*
X119821709Y-89749413D01*
X119828230Y-89780407D01*
X119824255Y-89804032D01*
X119812696Y-89823052D01*
X119795178Y-89838859D01*
X119771663Y-89853460D01*
X119713924Y-89878080D01*
X119648345Y-89903066D01*
X119582766Y-89934646D01*
X119552074Y-89954776D01*
X119524954Y-89978976D01*
X119502207Y-90007459D01*
X119483994Y-90041698D01*
X119472523Y-90080301D01*
X119468387Y-90128233D01*
G37*
G36*
X119107152Y-90334863D02*
G01*
X119112061Y-90349224D01*
X119128914Y-90359482D01*
X119160495Y-90365637D01*
X119210393Y-90367689D01*
X119260439Y-90365637D01*
X119292019Y-90359482D01*
X119308799Y-90349224D01*
X119313708Y-90334863D01*
X119313708Y-89604919D01*
X119308799Y-89590557D01*
X119292019Y-89579933D01*
X119260439Y-89572972D01*
X119210393Y-89570480D01*
X119160495Y-89572972D01*
X119128914Y-89579933D01*
X119112061Y-89590557D01*
X119107152Y-89604919D01*
X119107152Y-90334863D01*
G37*
G36*
X119091618Y-89357842D02*
G01*
X119095106Y-89398556D01*
X119104050Y-89425900D01*
X119117044Y-89443645D01*
X119149044Y-89460249D01*
X119211273Y-89467312D01*
X119274171Y-89460393D01*
X119305135Y-89444451D01*
X119322272Y-89415596D01*
X119329315Y-89361872D01*
X119322046Y-89305965D01*
X119304329Y-89275704D01*
X119285821Y-89263634D01*
X119255864Y-89255026D01*
X119209661Y-89251597D01*
X119147467Y-89258599D01*
X119116238Y-89274898D01*
X119098752Y-89304160D01*
X119091618Y-89357842D01*
G37*
G36*
X118696302Y-89565874D02*
G01*
X118753904Y-89579566D01*
X118806296Y-89602452D01*
X118849818Y-89632909D01*
X118885427Y-89671414D01*
X118912539Y-89718125D01*
X118929202Y-89770880D01*
X118935034Y-89832504D01*
X118930369Y-89889482D01*
X118917815Y-89932521D01*
X118897516Y-89970123D01*
X118871873Y-90001398D01*
X118904006Y-90035492D01*
X118929319Y-90073132D01*
X118945832Y-90114735D01*
X118951447Y-90161279D01*
X118946605Y-90198391D01*
X118932176Y-90232281D01*
X118909110Y-90261093D01*
X118877661Y-90283498D01*
X118922797Y-90322846D01*
X118955990Y-90365857D01*
X118976433Y-90413045D01*
X118983394Y-90464702D01*
X118978515Y-90506666D01*
X118964123Y-90544643D01*
X118939835Y-90577833D01*
X118902647Y-90607364D01*
X118856674Y-90629891D01*
X118794497Y-90648324D01*
X118725012Y-90659101D01*
X118634982Y-90663125D01*
X118542376Y-90657635D01*
X118467333Y-90642535D01*
X118399900Y-90617488D01*
X118348118Y-90586702D01*
X118306080Y-90547683D01*
X118276824Y-90503317D01*
X118258981Y-90453841D01*
X118254279Y-90412312D01*
X118459566Y-90412312D01*
X118467773Y-90452979D01*
X118478543Y-90470994D01*
X118495690Y-90487930D01*
X118517461Y-90501536D01*
X118547274Y-90512989D01*
X118581166Y-90519862D01*
X118625969Y-90522441D01*
X118696562Y-90516387D01*
X118742766Y-90501046D01*
X118766402Y-90483980D01*
X118779668Y-90463564D01*
X118784165Y-90438617D01*
X118781747Y-90413118D01*
X118771489Y-90387692D01*
X118751046Y-90360215D01*
X118716974Y-90330173D01*
X118570208Y-90334277D01*
X118522173Y-90340964D01*
X118489095Y-90355672D01*
X118467028Y-90379537D01*
X118459566Y-90412312D01*
X118254279Y-90412312D01*
X118253010Y-90401101D01*
X118257591Y-90353646D01*
X118270669Y-90313174D01*
X118292109Y-90277406D01*
X118321447Y-90247082D01*
X118357674Y-90223081D01*
X118403439Y-90204364D01*
X118454140Y-90192559D01*
X118514521Y-90186705D01*
X118692354Y-90180110D01*
X118727352Y-90174722D01*
X118751046Y-90163478D01*
X118766831Y-90146030D01*
X118771929Y-90124789D01*
X118764162Y-90092183D01*
X118746503Y-90066977D01*
X118697337Y-90087127D01*
X118630072Y-90095700D01*
X118563146Y-90091128D01*
X118505069Y-90078115D01*
X118452335Y-90055997D01*
X118409155Y-90026457D01*
X118374113Y-89988654D01*
X118348118Y-89942780D01*
X118332355Y-89890786D01*
X118326796Y-89829207D01*
X118327190Y-89826496D01*
X118507927Y-89826496D01*
X118515767Y-89873610D01*
X118538701Y-89913397D01*
X118555612Y-89928643D01*
X118576803Y-89940508D01*
X118601029Y-89947732D01*
X118630878Y-89950327D01*
X118668420Y-89946387D01*
X118698202Y-89935427D01*
X118721957Y-89917940D01*
X118739751Y-89894477D01*
X118750779Y-89865590D01*
X118754710Y-89829720D01*
X118747309Y-89780920D01*
X118737892Y-89758858D01*
X118724741Y-89739960D01*
X118707810Y-89724282D01*
X118686639Y-89712043D01*
X118662485Y-89704473D01*
X118633370Y-89701785D01*
X118594772Y-89705810D01*
X118564530Y-89716943D01*
X118540753Y-89734612D01*
X118523046Y-89758417D01*
X118511931Y-89788443D01*
X118507927Y-89826496D01*
X118327190Y-89826496D01*
X118334563Y-89775791D01*
X118344877Y-89751531D01*
X118360355Y-89729922D01*
X118274333Y-89729922D01*
X118262969Y-89725841D01*
X118252204Y-89711237D01*
X118245839Y-89689780D01*
X118243192Y-89653352D01*
X118245807Y-89614171D01*
X118251838Y-89593122D01*
X118262321Y-89579214D01*
X118274333Y-89575170D01*
X118506315Y-89575170D01*
X118564933Y-89564838D01*
X118630878Y-89561101D01*
X118696302Y-89565874D01*
G37*
G36*
X117407808Y-90334863D02*
G01*
X117412717Y-90349224D01*
X117429130Y-90359482D01*
X117460711Y-90365637D01*
X117510243Y-90367689D01*
X117560728Y-90365637D01*
X117592309Y-90359482D01*
X117608649Y-90349224D01*
X117613558Y-90334789D01*
X117613558Y-89916328D01*
X117615800Y-89865726D01*
X117621398Y-89832431D01*
X117631158Y-89803602D01*
X117643893Y-89780260D01*
X117660793Y-89760907D01*
X117681995Y-89746555D01*
X117706728Y-89737726D01*
X117736510Y-89734612D01*
X117774902Y-89741397D01*
X117816011Y-89763408D01*
X117855044Y-89796788D01*
X117899615Y-89847232D01*
X117899615Y-90334789D01*
X117904525Y-90349224D01*
X117921377Y-90359482D01*
X117952958Y-90365637D01*
X118002857Y-90367689D01*
X118052902Y-90365637D01*
X118084483Y-90359482D01*
X118101262Y-90349224D01*
X118106172Y-90334863D01*
X118106172Y-89603307D01*
X118102068Y-89588945D01*
X118087340Y-89578687D01*
X118059863Y-89572532D01*
X118017658Y-89570480D01*
X117974207Y-89572532D01*
X117947609Y-89578687D01*
X117934054Y-89588945D01*
X117929950Y-89603307D01*
X117929950Y-89687790D01*
X117866926Y-89628811D01*
X117806632Y-89589238D01*
X117742259Y-89564540D01*
X117675840Y-89556412D01*
X117604901Y-89563004D01*
X117550031Y-89581032D01*
X117503345Y-89610371D01*
X117467232Y-89647930D01*
X117440350Y-89693130D01*
X117421730Y-89746775D01*
X117411582Y-89806292D01*
X117407808Y-89882916D01*
X117407808Y-90334863D01*
G37*
G36*
X116958228Y-89563859D02*
G01*
X117030453Y-89585135D01*
X117094672Y-89620464D01*
X117148056Y-89668446D01*
X117190120Y-89727924D01*
X117221841Y-89801363D01*
X117240636Y-89882629D01*
X117247267Y-89977291D01*
X117240826Y-90076171D01*
X117223087Y-90156150D01*
X117192060Y-90226898D01*
X117149741Y-90282473D01*
X117095268Y-90325710D01*
X117027229Y-90357138D01*
X116950313Y-90375232D01*
X116856283Y-90381757D01*
X116754654Y-90374870D01*
X116670243Y-90358823D01*
X116609573Y-90339845D01*
X116580484Y-90324385D01*
X116571838Y-90312368D01*
X116566929Y-90297054D01*
X116564437Y-90275145D01*
X116563631Y-90244078D01*
X116564877Y-90209786D01*
X116569420Y-90188683D01*
X116577553Y-90178352D01*
X116589863Y-90175421D01*
X116621883Y-90183481D01*
X116671416Y-90201213D01*
X116742344Y-90219018D01*
X116784956Y-90224869D01*
X116837379Y-90227005D01*
X116888522Y-90223235D01*
X116928823Y-90212937D01*
X116963894Y-90195310D01*
X116991105Y-90171904D01*
X117011789Y-90142466D01*
X117026349Y-90106471D01*
X117034531Y-90066640D01*
X117037414Y-90020669D01*
X116592281Y-90020669D01*
X116565454Y-90015949D01*
X116546046Y-90002644D01*
X116533894Y-89981260D01*
X116529193Y-89946956D01*
X116529193Y-89914203D01*
X116530870Y-89889364D01*
X116729228Y-89889364D01*
X117037414Y-89889364D01*
X117033580Y-89851297D01*
X117025543Y-89816237D01*
X117012812Y-89783776D01*
X116996014Y-89756740D01*
X116974375Y-89734189D01*
X116947654Y-89716660D01*
X116916798Y-89705680D01*
X116879218Y-89701785D01*
X116829758Y-89707891D01*
X116792355Y-89724726D01*
X116764033Y-89751831D01*
X116744479Y-89787054D01*
X116732461Y-89832009D01*
X116729228Y-89889364D01*
X116530870Y-89889364D01*
X116534265Y-89839091D01*
X116548904Y-89771761D01*
X116574367Y-89710163D01*
X116610379Y-89658408D01*
X116657316Y-89616194D01*
X116717358Y-89583450D01*
X116786510Y-89563638D01*
X116874308Y-89556412D01*
X116958228Y-89563859D01*
G37*
G36*
X115818373Y-89225951D02*
G01*
X115849954Y-89232912D01*
X115866367Y-89243976D01*
X115870837Y-89258704D01*
X115870837Y-89654891D01*
X115921556Y-89611337D01*
X115970048Y-89581471D01*
X116022244Y-89562824D01*
X116081496Y-89556412D01*
X116156202Y-89564081D01*
X116219249Y-89585941D01*
X116274000Y-89621734D01*
X116319193Y-89670498D01*
X116353891Y-89729785D01*
X116380303Y-89803415D01*
X116395706Y-89884085D01*
X116401185Y-89978903D01*
X116397023Y-90058933D01*
X116384846Y-90133582D01*
X116362982Y-90203428D01*
X116331943Y-90261956D01*
X116290151Y-90311260D01*
X116237640Y-90349371D01*
X116197860Y-90366828D01*
X116151181Y-90377851D01*
X116096224Y-90381757D01*
X116023635Y-90373207D01*
X115958984Y-90348125D01*
X115899624Y-90308683D01*
X115840502Y-90253750D01*
X115840502Y-90334936D01*
X115836032Y-90350103D01*
X115821231Y-90360288D01*
X115794633Y-90366004D01*
X115751988Y-90367689D01*
X115710589Y-90366004D01*
X115683917Y-90360288D01*
X115669996Y-90350030D01*
X115665892Y-90334863D01*
X115665892Y-89845986D01*
X115870837Y-89845986D01*
X115870837Y-90088886D01*
X115919197Y-90144866D01*
X115962281Y-90181722D01*
X116003241Y-90202019D01*
X116044640Y-90208247D01*
X116084466Y-90202827D01*
X116115128Y-90187658D01*
X116139961Y-90163928D01*
X116159825Y-90132776D01*
X116174031Y-90096928D01*
X116184005Y-90054887D01*
X116191332Y-89964981D01*
X116182759Y-89879618D01*
X116171697Y-89839385D01*
X116156527Y-89804147D01*
X116135801Y-89773515D01*
X116109779Y-89750145D01*
X116078468Y-89735138D01*
X116040536Y-89729922D01*
X115997894Y-89737152D01*
X115955687Y-89759817D01*
X115916156Y-89794274D01*
X115870837Y-89845986D01*
X115665892Y-89845986D01*
X115665892Y-89258704D01*
X115670802Y-89243976D01*
X115687215Y-89232912D01*
X115718429Y-89225951D01*
X115768328Y-89223460D01*
X115818373Y-89225951D01*
G37*
G36*
X115025854Y-89225951D02*
G01*
X115057435Y-89232912D01*
X115074214Y-89243976D01*
X115079123Y-89258631D01*
X115079123Y-90334936D01*
X115075020Y-90350103D01*
X115060659Y-90360362D01*
X115033621Y-90366004D01*
X114991416Y-90367689D01*
X114949650Y-90366004D01*
X114922173Y-90360288D01*
X114907445Y-90350103D01*
X114902902Y-90334936D01*
X114902902Y-90255435D01*
X114845090Y-90312881D01*
X114787717Y-90352228D01*
X114726681Y-90374796D01*
X114657804Y-90381757D01*
X114586151Y-90374139D01*
X114524594Y-90352228D01*
X114470812Y-90316530D01*
X114425823Y-90267745D01*
X114391034Y-90208416D01*
X114364347Y-90134828D01*
X114348615Y-90054074D01*
X114344009Y-89975972D01*
X114556981Y-89975972D01*
X114565188Y-90059723D01*
X114576164Y-90099881D01*
X114591859Y-90134388D01*
X114612866Y-90164406D01*
X114638167Y-90187731D01*
X114668447Y-90202923D01*
X114706165Y-90208247D01*
X114748004Y-90201092D01*
X114789402Y-90178645D01*
X114828035Y-90144274D01*
X114872567Y-90092183D01*
X114872567Y-89849284D01*
X114825819Y-89795208D01*
X114782808Y-89759671D01*
X114742288Y-89740254D01*
X114702061Y-89734612D01*
X114662972Y-89739914D01*
X114632818Y-89754762D01*
X114608199Y-89777893D01*
X114588122Y-89808544D01*
X114573701Y-89843906D01*
X114563942Y-89885700D01*
X114556981Y-89975972D01*
X114344009Y-89975972D01*
X114343024Y-89959266D01*
X114347205Y-89879238D01*
X114359437Y-89804587D01*
X114381060Y-89734687D01*
X114411461Y-89676213D01*
X114452395Y-89626872D01*
X114503712Y-89588872D01*
X114542676Y-89571336D01*
X114588133Y-89560308D01*
X114641391Y-89556412D01*
X114703747Y-89562200D01*
X114761119Y-89580665D01*
X114816880Y-89613052D01*
X114872567Y-89660606D01*
X114872567Y-89258558D01*
X114877476Y-89243830D01*
X114894329Y-89232839D01*
X114925910Y-89225951D01*
X114975809Y-89223460D01*
X115025854Y-89225951D01*
G37*
G36*
X113763143Y-90363000D02*
G01*
X113851730Y-90620187D01*
X113864265Y-90636781D01*
X113891957Y-90649496D01*
X113928504Y-90655828D01*
X113987797Y-90658436D01*
X114040261Y-90655578D01*
X114069790Y-90646199D01*
X114080414Y-90629933D01*
X114075505Y-90606339D01*
X113977979Y-90363000D01*
X113997250Y-90347832D01*
X114009926Y-90326070D01*
X114261545Y-89653352D01*
X114272243Y-89609461D01*
X114269689Y-89595707D01*
X114262424Y-89585721D01*
X114250444Y-89578888D01*
X114229158Y-89573778D01*
X114167316Y-89570480D01*
X114111555Y-89571726D01*
X114079608Y-89577881D01*
X114062389Y-89593048D01*
X114050885Y-89622138D01*
X113878767Y-90111967D01*
X113876276Y-90111967D01*
X113718886Y-89612319D01*
X113712626Y-89593218D01*
X113706210Y-89584036D01*
X113680345Y-89573778D01*
X113617257Y-89570480D01*
X113558712Y-89573778D01*
X113537277Y-89578922D01*
X113524273Y-89586087D01*
X113515962Y-89596548D01*
X113513136Y-89610267D01*
X113519730Y-89645951D01*
X113763143Y-90363000D01*
G37*
G36*
X119459814Y-92349324D02*
G01*
X119464357Y-92364052D01*
X119480697Y-92374676D01*
X119512277Y-92381198D01*
X119562249Y-92383689D01*
X119611489Y-92381198D01*
X119642630Y-92374676D01*
X119658970Y-92364052D01*
X119663879Y-92349324D01*
X119663879Y-91488002D01*
X119665564Y-91488002D01*
X119972944Y-92348445D01*
X119983642Y-92366103D01*
X120003718Y-92377168D01*
X120036105Y-92382443D01*
X120083659Y-92383689D01*
X120131213Y-92381637D01*
X120163600Y-92375116D01*
X120183676Y-92364052D01*
X120193495Y-92348445D01*
X120490177Y-91488002D01*
X120491862Y-91488002D01*
X120491862Y-92349324D01*
X120496405Y-92364052D01*
X120513184Y-92374676D01*
X120544765Y-92381198D01*
X120594371Y-92383689D01*
X120643537Y-92381198D01*
X120675117Y-92374676D01*
X120691531Y-92364052D01*
X120696000Y-92349324D01*
X120696000Y-91405130D01*
X120690037Y-91367080D01*
X120673872Y-91341309D01*
X120648677Y-91324954D01*
X120614814Y-91319181D01*
X120473837Y-91319181D01*
X120409064Y-91325336D01*
X120383436Y-91333712D01*
X120362316Y-91345852D01*
X120344448Y-91362190D01*
X120329489Y-91383515D01*
X120306555Y-91441180D01*
X120077064Y-92072499D01*
X120073767Y-92072499D01*
X119836070Y-91442792D01*
X119812769Y-91384687D01*
X119783240Y-91346219D01*
X119765011Y-91333710D01*
X119743453Y-91325336D01*
X119690184Y-91319181D01*
X119545030Y-91319181D01*
X119506928Y-91324896D01*
X119480697Y-91341676D01*
X119465163Y-91368713D01*
X119459814Y-91405130D01*
X119459814Y-92349324D01*
G37*
G36*
X118565006Y-92066784D02*
G01*
X118572873Y-92143438D01*
X118595341Y-92208420D01*
X118631646Y-92265210D01*
X118679824Y-92312101D01*
X118738135Y-92348507D01*
X118809297Y-92375922D01*
X118886853Y-92392122D01*
X118974015Y-92397757D01*
X119075718Y-92389624D01*
X119159762Y-92369621D01*
X119219992Y-92344928D01*
X119251133Y-92325584D01*
X119262197Y-92310856D01*
X119268718Y-92291658D01*
X119272822Y-92263888D01*
X119274067Y-92223368D01*
X119272049Y-92187214D01*
X119267546Y-92169073D01*
X119258993Y-92157450D01*
X119247836Y-92153905D01*
X119219552Y-92165116D01*
X119168334Y-92189076D01*
X119095428Y-92213110D01*
X119051995Y-92221311D01*
X119000247Y-92224247D01*
X118956698Y-92221436D01*
X118920745Y-92213623D01*
X118888311Y-92200494D01*
X118862127Y-92183654D01*
X118840950Y-92162179D01*
X118826077Y-92136833D01*
X118817258Y-92108192D01*
X118814207Y-92075650D01*
X118817902Y-92040089D01*
X118828568Y-92009191D01*
X118846237Y-91981975D01*
X118871213Y-91958706D01*
X118902059Y-91940610D01*
X118942508Y-91926247D01*
X118987537Y-91917824D01*
X119043697Y-91914743D01*
X119135508Y-91914743D01*
X119153533Y-91911885D01*
X119165843Y-91899868D01*
X119172804Y-91874662D01*
X119174856Y-91832970D01*
X119172804Y-91793769D01*
X119166283Y-91770175D01*
X119154779Y-91758598D01*
X119138000Y-91755301D01*
X119045383Y-91755301D01*
X118999342Y-91752458D01*
X118960972Y-91744530D01*
X118926313Y-91731037D01*
X118899057Y-91713682D01*
X118876984Y-91691447D01*
X118860955Y-91665175D01*
X118851195Y-91635539D01*
X118847839Y-91602161D01*
X118856852Y-91552115D01*
X118868069Y-91529994D01*
X118883523Y-91511229D01*
X118903159Y-91496126D01*
X118929025Y-91483972D01*
X118958320Y-91476602D01*
X118994605Y-91473933D01*
X119036306Y-91477081D01*
X119074912Y-91486316D01*
X119142542Y-91513427D01*
X119193394Y-91540905D01*
X119224095Y-91553654D01*
X119235599Y-91550796D01*
X119243806Y-91539659D01*
X119248715Y-91515699D01*
X119250327Y-91475179D01*
X119249521Y-91440887D01*
X119246224Y-91418173D01*
X119240069Y-91402492D01*
X119228198Y-91387984D01*
X119194566Y-91364830D01*
X119130672Y-91335081D01*
X119041719Y-91310535D01*
X118990113Y-91303041D01*
X118932249Y-91300423D01*
X118857683Y-91305165D01*
X118795742Y-91318375D01*
X118740033Y-91340754D01*
X118695798Y-91370032D01*
X118660180Y-91407612D01*
X118634322Y-91453050D01*
X118618795Y-91504444D01*
X118613366Y-91564132D01*
X118616522Y-91611140D01*
X118625676Y-91653745D01*
X118641000Y-91693304D01*
X118661726Y-91727750D01*
X118688272Y-91757679D01*
X118721150Y-91783071D01*
X118758885Y-91802745D01*
X118803509Y-91817290D01*
X118803509Y-91819781D01*
X118749826Y-91830414D01*
X118703491Y-91848211D01*
X118662210Y-91873079D01*
X118628533Y-91902946D01*
X118601346Y-91938059D01*
X118581419Y-91977464D01*
X118569176Y-92020202D01*
X118565006Y-92066784D01*
G37*
G36*
X117836014Y-92236191D02*
G01*
X117837260Y-92271801D01*
X117840557Y-92295908D01*
X117845466Y-92311882D01*
X117858143Y-92327415D01*
X117891775Y-92350203D01*
X117945850Y-92374163D01*
X118011869Y-92391236D01*
X118085215Y-92397757D01*
X118166541Y-92390876D01*
X118234838Y-92371452D01*
X118294995Y-92338714D01*
X118344235Y-92293783D01*
X118382522Y-92237781D01*
X118411060Y-92168413D01*
X118427625Y-92091344D01*
X118433554Y-91999080D01*
X118426226Y-91893158D01*
X118406150Y-91808790D01*
X118372470Y-91734171D01*
X118329507Y-91676020D01*
X118275761Y-91630175D01*
X118213076Y-91597911D01*
X118143603Y-91578963D01*
X118065505Y-91572412D01*
X118001244Y-91578274D01*
X117942187Y-91594101D01*
X117893020Y-91616595D01*
X117862246Y-91638284D01*
X117849570Y-91653672D01*
X117843854Y-91669792D01*
X117840557Y-91694191D01*
X117839311Y-91729362D01*
X117841824Y-91773745D01*
X117847518Y-91796847D01*
X117857687Y-91812051D01*
X117868840Y-91816264D01*
X117882538Y-91813601D01*
X117898369Y-91804614D01*
X117935226Y-91778748D01*
X117986077Y-91752956D01*
X118017252Y-91744360D01*
X118056492Y-91741233D01*
X118106837Y-91748397D01*
X118147009Y-91768804D01*
X118179517Y-91803075D01*
X118201655Y-91846471D01*
X118216513Y-91905411D01*
X118222089Y-91984352D01*
X118219261Y-92041508D01*
X118211464Y-92088399D01*
X118197759Y-92130817D01*
X118179884Y-92163724D01*
X118156170Y-92190347D01*
X118127420Y-92209153D01*
X118094104Y-92220305D01*
X118054074Y-92224247D01*
X118013221Y-92220966D01*
X117980728Y-92211937D01*
X117927019Y-92184387D01*
X117888478Y-92156909D01*
X117873016Y-92147121D01*
X117862246Y-92144526D01*
X117849936Y-92148630D01*
X117842169Y-92163797D01*
X117837699Y-92192007D01*
X117836014Y-92236191D01*
G37*
G36*
X117318195Y-91316177D02*
G01*
X117362891Y-91321452D01*
X117390369Y-91330392D01*
X117404291Y-91343068D01*
X117733799Y-91921191D01*
X117747354Y-91950866D01*
X117755487Y-91980542D01*
X117759591Y-92015566D01*
X117760836Y-92061288D01*
X117757979Y-92112872D01*
X117748966Y-92142548D01*
X117733799Y-92155737D01*
X117713282Y-92158595D01*
X117307570Y-92158595D01*
X117307570Y-92350863D01*
X117303101Y-92365224D01*
X117286688Y-92375482D01*
X117254667Y-92381637D01*
X117205062Y-92383689D01*
X117154284Y-92381637D01*
X117122263Y-92375482D01*
X117105044Y-92365224D01*
X117100135Y-92350863D01*
X117100135Y-92158595D01*
X117005833Y-92158595D01*
X116993443Y-92153837D01*
X116982532Y-92136686D01*
X116976393Y-92112158D01*
X116973886Y-92072646D01*
X116976736Y-92029070D01*
X116983338Y-92005381D01*
X116994516Y-91989413D01*
X117005833Y-91985085D01*
X117100135Y-91985085D01*
X117307570Y-91985085D01*
X117588718Y-91985085D01*
X117309182Y-91502070D01*
X117307570Y-91502070D01*
X117307570Y-91985085D01*
X117100135Y-91985085D01*
X117100135Y-91349589D01*
X117108341Y-91334055D01*
X117134207Y-91323064D01*
X117181321Y-91316543D01*
X117252616Y-91314491D01*
X117318195Y-91316177D01*
G37*
G36*
X116403090Y-92280960D02*
G01*
X116407633Y-92336501D01*
X116419503Y-92363685D01*
X116441192Y-92377607D01*
X116474824Y-92388305D01*
X116516663Y-92395266D01*
X116562092Y-92397757D01*
X116621219Y-92393597D01*
X116668704Y-92382150D01*
X116710266Y-92362083D01*
X116743296Y-92334083D01*
X116768502Y-92298199D01*
X116786747Y-92252311D01*
X116796933Y-92200569D01*
X116800669Y-92135587D01*
X116800669Y-91759990D01*
X116888450Y-91759990D01*
X116901628Y-91755552D01*
X116912190Y-91740573D01*
X116917913Y-91717770D01*
X116920397Y-91675580D01*
X116918345Y-91635060D01*
X116912190Y-91608975D01*
X116901932Y-91595346D01*
X116887570Y-91591170D01*
X116800669Y-91591170D01*
X116800669Y-91428504D01*
X116796199Y-91413849D01*
X116779786Y-91402785D01*
X116747839Y-91396264D01*
X116698233Y-91394212D01*
X116647822Y-91396264D01*
X116616241Y-91402785D01*
X116599828Y-91413849D01*
X116594919Y-91428504D01*
X116594919Y-91591170D01*
X116435916Y-91591170D01*
X116421555Y-91595346D01*
X116411297Y-91608975D01*
X116405142Y-91635060D01*
X116403090Y-91675580D01*
X116405574Y-91717770D01*
X116411297Y-91740573D01*
X116421859Y-91755552D01*
X116435037Y-91759990D01*
X116594919Y-91759990D01*
X116594919Y-92104300D01*
X116589530Y-92159871D01*
X116576087Y-92194279D01*
X116561100Y-92210297D01*
X116539490Y-92220458D01*
X116508823Y-92224247D01*
X116479294Y-92221390D01*
X116455993Y-92214868D01*
X116438774Y-92208274D01*
X116426025Y-92205416D01*
X116416646Y-92208274D01*
X116409685Y-92219778D01*
X116405142Y-92243152D01*
X116403090Y-92280960D01*
G37*
G36*
X115784741Y-91686498D02*
G01*
X115786426Y-91734565D01*
X115791335Y-91763874D01*
X115799908Y-91778602D01*
X115813464Y-91782705D01*
X115828191Y-91779847D01*
X115846656Y-91773692D01*
X115869151Y-91767538D01*
X115896189Y-91764680D01*
X115930627Y-91771714D01*
X115966311Y-91793696D01*
X116004852Y-91833556D01*
X116047863Y-91894886D01*
X116047863Y-92350863D01*
X116052773Y-92365224D01*
X116069625Y-92375482D01*
X116101206Y-92381637D01*
X116151105Y-92383689D01*
X116201150Y-92381637D01*
X116232731Y-92375482D01*
X116249510Y-92365224D01*
X116254420Y-92350863D01*
X116254420Y-91619307D01*
X116250316Y-91604945D01*
X116235588Y-91594687D01*
X116208111Y-91588532D01*
X116165906Y-91586480D01*
X116122455Y-91588532D01*
X116095857Y-91594687D01*
X116082302Y-91604945D01*
X116078198Y-91619307D01*
X116078198Y-91710311D01*
X116024123Y-91642607D01*
X115975763Y-91600329D01*
X115929821Y-91578567D01*
X115883952Y-91572412D01*
X115861018Y-91573658D01*
X115835592Y-91577688D01*
X115812658Y-91584209D01*
X115798296Y-91591976D01*
X115791702Y-91600915D01*
X115788038Y-91614397D01*
X115785547Y-91640043D01*
X115784741Y-91686498D01*
G37*
G36*
X115395072Y-91305084D02*
G01*
X115454766Y-91318224D01*
X115505644Y-91338965D01*
X115551911Y-91368290D01*
X115591893Y-91404934D01*
X115626105Y-91449533D01*
X115665206Y-91527010D01*
X115693369Y-91624362D01*
X115708777Y-91730184D01*
X115714252Y-91853193D01*
X115709810Y-91977592D01*
X115697473Y-92082098D01*
X115673531Y-92177940D01*
X115638854Y-92253263D01*
X115607520Y-92296476D01*
X115570001Y-92332022D01*
X115525721Y-92360535D01*
X115476788Y-92380375D01*
X115417392Y-92393157D01*
X115345397Y-92397757D01*
X115274600Y-92393090D01*
X115214661Y-92379960D01*
X115163826Y-92359289D01*
X115117506Y-92329921D01*
X115077501Y-92293274D01*
X115043293Y-92248720D01*
X115004287Y-92171225D01*
X114976541Y-92074258D01*
X114961419Y-91968684D01*
X114956405Y-91853706D01*
X115173279Y-91853706D01*
X115176136Y-91967426D01*
X115186834Y-92059823D01*
X115206911Y-92131850D01*
X115221078Y-92160886D01*
X115237612Y-92183361D01*
X115257701Y-92201318D01*
X115280697Y-92214062D01*
X115306441Y-92221582D01*
X115337190Y-92224247D01*
X115377657Y-92219631D01*
X115410170Y-92206662D01*
X115436737Y-92183759D01*
X115459776Y-92145332D01*
X115475643Y-92097399D01*
X115488059Y-92027510D01*
X115494577Y-91948634D01*
X115497071Y-91840591D01*
X115489744Y-91678658D01*
X115479002Y-91612307D01*
X115463879Y-91562520D01*
X115441360Y-91520588D01*
X115413907Y-91492545D01*
X115379194Y-91475384D01*
X115333966Y-91469244D01*
X115283115Y-91476644D01*
X115261520Y-91486468D01*
X115242155Y-91501557D01*
X115225943Y-91521386D01*
X115211454Y-91548598D01*
X115190131Y-91620625D01*
X115177382Y-91720789D01*
X115173279Y-91853706D01*
X114956405Y-91853706D01*
X114956025Y-91844987D01*
X114960371Y-91720588D01*
X114972438Y-91616156D01*
X114996007Y-91520277D01*
X115030616Y-91444990D01*
X115061981Y-91401767D01*
X115099639Y-91366220D01*
X115144189Y-91337719D01*
X115193362Y-91317826D01*
X115252893Y-91305025D01*
X115324880Y-91300423D01*
X115395072Y-91305084D01*
G37*
G36*
X114171272Y-92336135D02*
G01*
X114165191Y-92359069D01*
X114168053Y-92366905D01*
X114177061Y-92373870D01*
X114212305Y-92381637D01*
X114275393Y-92383689D01*
X114334817Y-92382443D01*
X114370062Y-92377534D01*
X114388893Y-92368521D01*
X114398345Y-92354966D01*
X114533607Y-92094994D01*
X114668868Y-92354966D01*
X114677881Y-92368521D01*
X114695540Y-92377534D01*
X114728732Y-92382443D01*
X114784420Y-92383689D01*
X114841792Y-92381637D01*
X114873006Y-92373870D01*
X114880641Y-92367039D01*
X114883265Y-92359069D01*
X114876230Y-92336135D01*
X114673778Y-91976072D01*
X114860697Y-91638138D01*
X114868464Y-91613152D01*
X114866251Y-91604211D01*
X114858279Y-91597178D01*
X114824207Y-91588972D01*
X114760679Y-91586480D01*
X114702867Y-91587726D01*
X114668868Y-91591463D01*
X114650843Y-91599230D01*
X114640951Y-91612712D01*
X114510672Y-91857150D01*
X114381126Y-91612712D01*
X114373725Y-91601281D01*
X114358191Y-91593075D01*
X114329102Y-91588166D01*
X114278617Y-91586480D01*
X114220878Y-91588166D01*
X114189737Y-91595493D01*
X114182713Y-91602425D01*
X114180725Y-91611466D01*
X114190103Y-91638138D01*
X114372113Y-91970357D01*
X114171272Y-92336135D01*
G37*
D11*
X128695220Y-83420009D02*
X128361887Y-83420009D01*
X128219030Y-83943819D02*
X128695220Y-83943819D01*
X128695220Y-83943819D02*
X128695220Y-82943819D01*
X128695220Y-82943819D02*
X128219030Y-82943819D01*
X127838077Y-83896200D02*
X127695220Y-83943819D01*
X127695220Y-83943819D02*
X127457125Y-83943819D01*
X127457125Y-83943819D02*
X127361887Y-83896200D01*
X127361887Y-83896200D02*
X127314268Y-83848580D01*
X127314268Y-83848580D02*
X127266649Y-83753342D01*
X127266649Y-83753342D02*
X127266649Y-83658104D01*
X127266649Y-83658104D02*
X127314268Y-83562866D01*
X127314268Y-83562866D02*
X127361887Y-83515247D01*
X127361887Y-83515247D02*
X127457125Y-83467628D01*
X127457125Y-83467628D02*
X127647601Y-83420009D01*
X127647601Y-83420009D02*
X127742839Y-83372390D01*
X127742839Y-83372390D02*
X127790458Y-83324771D01*
X127790458Y-83324771D02*
X127838077Y-83229533D01*
X127838077Y-83229533D02*
X127838077Y-83134295D01*
X127838077Y-83134295D02*
X127790458Y-83039057D01*
X127790458Y-83039057D02*
X127742839Y-82991438D01*
X127742839Y-82991438D02*
X127647601Y-82943819D01*
X127647601Y-82943819D02*
X127409506Y-82943819D01*
X127409506Y-82943819D02*
X127266649Y-82991438D01*
X126838077Y-83943819D02*
X126838077Y-82943819D01*
X126838077Y-82943819D02*
X126457125Y-82943819D01*
X126457125Y-82943819D02*
X126361887Y-82991438D01*
X126361887Y-82991438D02*
X126314268Y-83039057D01*
X126314268Y-83039057D02*
X126266649Y-83134295D01*
X126266649Y-83134295D02*
X126266649Y-83277152D01*
X126266649Y-83277152D02*
X126314268Y-83372390D01*
X126314268Y-83372390D02*
X126361887Y-83420009D01*
X126361887Y-83420009D02*
X126457125Y-83467628D01*
X126457125Y-83467628D02*
X126838077Y-83467628D01*
X125838077Y-83562866D02*
X125076173Y-83562866D01*
X124599982Y-83943819D02*
X124599982Y-82943819D01*
X124599982Y-82943819D02*
X124219030Y-82943819D01*
X124219030Y-82943819D02*
X124123792Y-82991438D01*
X124123792Y-82991438D02*
X124076173Y-83039057D01*
X124076173Y-83039057D02*
X124028554Y-83134295D01*
X124028554Y-83134295D02*
X124028554Y-83277152D01*
X124028554Y-83277152D02*
X124076173Y-83372390D01*
X124076173Y-83372390D02*
X124123792Y-83420009D01*
X124123792Y-83420009D02*
X124219030Y-83467628D01*
X124219030Y-83467628D02*
X124599982Y-83467628D01*
X123457125Y-83943819D02*
X123552363Y-83896200D01*
X123552363Y-83896200D02*
X123599982Y-83848580D01*
X123599982Y-83848580D02*
X123647601Y-83753342D01*
X123647601Y-83753342D02*
X123647601Y-83467628D01*
X123647601Y-83467628D02*
X123599982Y-83372390D01*
X123599982Y-83372390D02*
X123552363Y-83324771D01*
X123552363Y-83324771D02*
X123457125Y-83277152D01*
X123457125Y-83277152D02*
X123314268Y-83277152D01*
X123314268Y-83277152D02*
X123219030Y-83324771D01*
X123219030Y-83324771D02*
X123171411Y-83372390D01*
X123171411Y-83372390D02*
X123123792Y-83467628D01*
X123123792Y-83467628D02*
X123123792Y-83753342D01*
X123123792Y-83753342D02*
X123171411Y-83848580D01*
X123171411Y-83848580D02*
X123219030Y-83896200D01*
X123219030Y-83896200D02*
X123314268Y-83943819D01*
X123314268Y-83943819D02*
X123457125Y-83943819D01*
X122790458Y-83277152D02*
X122599982Y-83943819D01*
X122599982Y-83943819D02*
X122409506Y-83467628D01*
X122409506Y-83467628D02*
X122219030Y-83943819D01*
X122219030Y-83943819D02*
X122028554Y-83277152D01*
X121266649Y-83896200D02*
X121361887Y-83943819D01*
X121361887Y-83943819D02*
X121552363Y-83943819D01*
X121552363Y-83943819D02*
X121647601Y-83896200D01*
X121647601Y-83896200D02*
X121695220Y-83800961D01*
X121695220Y-83800961D02*
X121695220Y-83420009D01*
X121695220Y-83420009D02*
X121647601Y-83324771D01*
X121647601Y-83324771D02*
X121552363Y-83277152D01*
X121552363Y-83277152D02*
X121361887Y-83277152D01*
X121361887Y-83277152D02*
X121266649Y-83324771D01*
X121266649Y-83324771D02*
X121219030Y-83420009D01*
X121219030Y-83420009D02*
X121219030Y-83515247D01*
X121219030Y-83515247D02*
X121695220Y-83610485D01*
X120790458Y-83943819D02*
X120790458Y-83277152D01*
X120790458Y-83467628D02*
X120742839Y-83372390D01*
X120742839Y-83372390D02*
X120695220Y-83324771D01*
X120695220Y-83324771D02*
X120599982Y-83277152D01*
X120599982Y-83277152D02*
X120504744Y-83277152D01*
X120219029Y-83896200D02*
X120076172Y-83943819D01*
X120076172Y-83943819D02*
X119838077Y-83943819D01*
X119838077Y-83943819D02*
X119742839Y-83896200D01*
X119742839Y-83896200D02*
X119695220Y-83848580D01*
X119695220Y-83848580D02*
X119647601Y-83753342D01*
X119647601Y-83753342D02*
X119647601Y-83658104D01*
X119647601Y-83658104D02*
X119695220Y-83562866D01*
X119695220Y-83562866D02*
X119742839Y-83515247D01*
X119742839Y-83515247D02*
X119838077Y-83467628D01*
X119838077Y-83467628D02*
X120028553Y-83420009D01*
X120028553Y-83420009D02*
X120123791Y-83372390D01*
X120123791Y-83372390D02*
X120171410Y-83324771D01*
X120171410Y-83324771D02*
X120219029Y-83229533D01*
X120219029Y-83229533D02*
X120219029Y-83134295D01*
X120219029Y-83134295D02*
X120171410Y-83039057D01*
X120171410Y-83039057D02*
X120123791Y-82991438D01*
X120123791Y-82991438D02*
X120028553Y-82943819D01*
X120028553Y-82943819D02*
X119790458Y-82943819D01*
X119790458Y-82943819D02*
X119647601Y-82991438D01*
X118790458Y-83277152D02*
X118790458Y-83943819D01*
X119219029Y-83277152D02*
X119219029Y-83800961D01*
X119219029Y-83800961D02*
X119171410Y-83896200D01*
X119171410Y-83896200D02*
X119076172Y-83943819D01*
X119076172Y-83943819D02*
X118933315Y-83943819D01*
X118933315Y-83943819D02*
X118838077Y-83896200D01*
X118838077Y-83896200D02*
X118790458Y-83848580D01*
X118314267Y-83277152D02*
X118314267Y-83943819D01*
X118314267Y-83372390D02*
X118266648Y-83324771D01*
X118266648Y-83324771D02*
X118171410Y-83277152D01*
X118171410Y-83277152D02*
X118028553Y-83277152D01*
X118028553Y-83277152D02*
X117933315Y-83324771D01*
X117933315Y-83324771D02*
X117885696Y-83420009D01*
X117885696Y-83420009D02*
X117885696Y-83943819D01*
X117457124Y-83896200D02*
X117314267Y-83943819D01*
X117314267Y-83943819D02*
X117076172Y-83943819D01*
X117076172Y-83943819D02*
X116980934Y-83896200D01*
X116980934Y-83896200D02*
X116933315Y-83848580D01*
X116933315Y-83848580D02*
X116885696Y-83753342D01*
X116885696Y-83753342D02*
X116885696Y-83658104D01*
X116885696Y-83658104D02*
X116933315Y-83562866D01*
X116933315Y-83562866D02*
X116980934Y-83515247D01*
X116980934Y-83515247D02*
X117076172Y-83467628D01*
X117076172Y-83467628D02*
X117266648Y-83420009D01*
X117266648Y-83420009D02*
X117361886Y-83372390D01*
X117361886Y-83372390D02*
X117409505Y-83324771D01*
X117409505Y-83324771D02*
X117457124Y-83229533D01*
X117457124Y-83229533D02*
X117457124Y-83134295D01*
X117457124Y-83134295D02*
X117409505Y-83039057D01*
X117409505Y-83039057D02*
X117361886Y-82991438D01*
X117361886Y-82991438D02*
X117266648Y-82943819D01*
X117266648Y-82943819D02*
X117028553Y-82943819D01*
X117028553Y-82943819D02*
X116885696Y-82991438D01*
X116076172Y-83896200D02*
X116171410Y-83943819D01*
X116171410Y-83943819D02*
X116361886Y-83943819D01*
X116361886Y-83943819D02*
X116457124Y-83896200D01*
X116457124Y-83896200D02*
X116504743Y-83800961D01*
X116504743Y-83800961D02*
X116504743Y-83420009D01*
X116504743Y-83420009D02*
X116457124Y-83324771D01*
X116457124Y-83324771D02*
X116361886Y-83277152D01*
X116361886Y-83277152D02*
X116171410Y-83277152D01*
X116171410Y-83277152D02*
X116076172Y-83324771D01*
X116076172Y-83324771D02*
X116028553Y-83420009D01*
X116028553Y-83420009D02*
X116028553Y-83515247D01*
X116028553Y-83515247D02*
X116504743Y-83610485D01*
X115599981Y-83277152D02*
X115599981Y-83943819D01*
X115599981Y-83372390D02*
X115552362Y-83324771D01*
X115552362Y-83324771D02*
X115457124Y-83277152D01*
X115457124Y-83277152D02*
X115314267Y-83277152D01*
X115314267Y-83277152D02*
X115219029Y-83324771D01*
X115219029Y-83324771D02*
X115171410Y-83420009D01*
X115171410Y-83420009D02*
X115171410Y-83943819D01*
X114742838Y-83896200D02*
X114647600Y-83943819D01*
X114647600Y-83943819D02*
X114457124Y-83943819D01*
X114457124Y-83943819D02*
X114361886Y-83896200D01*
X114361886Y-83896200D02*
X114314267Y-83800961D01*
X114314267Y-83800961D02*
X114314267Y-83753342D01*
X114314267Y-83753342D02*
X114361886Y-83658104D01*
X114361886Y-83658104D02*
X114457124Y-83610485D01*
X114457124Y-83610485D02*
X114599981Y-83610485D01*
X114599981Y-83610485D02*
X114695219Y-83562866D01*
X114695219Y-83562866D02*
X114742838Y-83467628D01*
X114742838Y-83467628D02*
X114742838Y-83420009D01*
X114742838Y-83420009D02*
X114695219Y-83324771D01*
X114695219Y-83324771D02*
X114599981Y-83277152D01*
X114599981Y-83277152D02*
X114457124Y-83277152D01*
X114457124Y-83277152D02*
X114361886Y-83324771D01*
X113742838Y-83943819D02*
X113838076Y-83896200D01*
X113838076Y-83896200D02*
X113885695Y-83848580D01*
X113885695Y-83848580D02*
X113933314Y-83753342D01*
X113933314Y-83753342D02*
X113933314Y-83467628D01*
X113933314Y-83467628D02*
X113885695Y-83372390D01*
X113885695Y-83372390D02*
X113838076Y-83324771D01*
X113838076Y-83324771D02*
X113742838Y-83277152D01*
X113742838Y-83277152D02*
X113599981Y-83277152D01*
X113599981Y-83277152D02*
X113504743Y-83324771D01*
X113504743Y-83324771D02*
X113457124Y-83372390D01*
X113457124Y-83372390D02*
X113409505Y-83467628D01*
X113409505Y-83467628D02*
X113409505Y-83753342D01*
X113409505Y-83753342D02*
X113457124Y-83848580D01*
X113457124Y-83848580D02*
X113504743Y-83896200D01*
X113504743Y-83896200D02*
X113599981Y-83943819D01*
X113599981Y-83943819D02*
X113742838Y-83943819D01*
X112980933Y-83943819D02*
X112980933Y-83277152D01*
X112980933Y-83467628D02*
X112933314Y-83372390D01*
X112933314Y-83372390D02*
X112885695Y-83324771D01*
X112885695Y-83324771D02*
X112790457Y-83277152D01*
X112790457Y-83277152D02*
X112695219Y-83277152D01*
X112361885Y-83562866D02*
X111599981Y-83562866D01*
X111266647Y-82943819D02*
X110933314Y-83943819D01*
X110933314Y-83943819D02*
X110599981Y-82943819D01*
X109742838Y-83943819D02*
X110314266Y-83943819D01*
X110028552Y-83943819D02*
X110028552Y-82943819D01*
X110028552Y-82943819D02*
X110123790Y-83086676D01*
X110123790Y-83086676D02*
X110219028Y-83181914D01*
X110219028Y-83181914D02*
X110314266Y-83229533D01*
X109314266Y-83848580D02*
X109266647Y-83896200D01*
X109266647Y-83896200D02*
X109314266Y-83943819D01*
X109314266Y-83943819D02*
X109361885Y-83896200D01*
X109361885Y-83896200D02*
X109314266Y-83848580D01*
X109314266Y-83848580D02*
X109314266Y-83943819D01*
X108647600Y-82943819D02*
X108552362Y-82943819D01*
X108552362Y-82943819D02*
X108457124Y-82991438D01*
X108457124Y-82991438D02*
X108409505Y-83039057D01*
X108409505Y-83039057D02*
X108361886Y-83134295D01*
X108361886Y-83134295D02*
X108314267Y-83324771D01*
X108314267Y-83324771D02*
X108314267Y-83562866D01*
X108314267Y-83562866D02*
X108361886Y-83753342D01*
X108361886Y-83753342D02*
X108409505Y-83848580D01*
X108409505Y-83848580D02*
X108457124Y-83896200D01*
X108457124Y-83896200D02*
X108552362Y-83943819D01*
X108552362Y-83943819D02*
X108647600Y-83943819D01*
X108647600Y-83943819D02*
X108742838Y-83896200D01*
X108742838Y-83896200D02*
X108790457Y-83848580D01*
X108790457Y-83848580D02*
X108838076Y-83753342D01*
X108838076Y-83753342D02*
X108885695Y-83562866D01*
X108885695Y-83562866D02*
X108885695Y-83324771D01*
X108885695Y-83324771D02*
X108838076Y-83134295D01*
X108838076Y-83134295D02*
X108790457Y-83039057D01*
X108790457Y-83039057D02*
X108742838Y-82991438D01*
X108742838Y-82991438D02*
X108647600Y-82943819D01*
M02*
