%TF.GenerationSoftware,KiCad,Pcbnew,9.0.0*%
%TF.CreationDate,2025-10-09T14:42:32+02:00*%
%TF.ProjectId,ESP-PowerSunSensor,4553502d-506f-4776-9572-53756e53656e,rev?*%
%TF.SameCoordinates,Original*%
%TF.FileFunction,Legend,Top*%
%TF.FilePolarity,Positive*%
%FSLAX46Y46*%
G04 Gerber Fmt 4.6, Leading zero omitted, Abs format (unit mm)*
G04 Created by KiCad (PCBNEW 9.0.0) date 2025-10-09 14:42:32*
%MOMM*%
%LPD*%
G01*
G04 APERTURE LIST*
%ADD10C,0.150000*%
%ADD11C,0.200000*%
%ADD12C,0.080000*%
%ADD13C,0.120000*%
G04 APERTURE END LIST*
D10*
X132793922Y-96445819D02*
X133365350Y-96445819D01*
X133079636Y-97445819D02*
X133079636Y-96445819D01*
X133603446Y-96445819D02*
X134270112Y-97445819D01*
X134270112Y-96445819D02*
X133603446Y-97445819D01*
X134651065Y-97445819D02*
X134651065Y-96445819D01*
X134651065Y-96445819D02*
X134889160Y-96445819D01*
X134889160Y-96445819D02*
X135032017Y-96493438D01*
X135032017Y-96493438D02*
X135127255Y-96588676D01*
X135127255Y-96588676D02*
X135174874Y-96683914D01*
X135174874Y-96683914D02*
X135222493Y-96874390D01*
X135222493Y-96874390D02*
X135222493Y-97017247D01*
X135222493Y-97017247D02*
X135174874Y-97207723D01*
X135174874Y-97207723D02*
X135127255Y-97302961D01*
X135127255Y-97302961D02*
X135032017Y-97398200D01*
X135032017Y-97398200D02*
X134889160Y-97445819D01*
X134889160Y-97445819D02*
X134651065Y-97445819D01*
D11*
G36*
X101890302Y-75307459D02*
G01*
X101916314Y-75313260D01*
X101929992Y-75322480D01*
X101934083Y-75334754D01*
X101934083Y-76231552D01*
X101930663Y-76244192D01*
X101919062Y-76252740D01*
X101896836Y-76257503D01*
X101862336Y-76258907D01*
X101826799Y-76257503D01*
X101804634Y-76252740D01*
X101792300Y-76244253D01*
X101788575Y-76231613D01*
X101788575Y-76163958D01*
X101739306Y-76209735D01*
X101689840Y-76242604D01*
X101635964Y-76263505D01*
X101575473Y-76270631D01*
X101529675Y-76267376D01*
X101490776Y-76258190D01*
X101457626Y-76243642D01*
X101413867Y-76211883D01*
X101379041Y-76170797D01*
X101353175Y-76122023D01*
X101334955Y-76063818D01*
X101324807Y-76001611D01*
X101321338Y-75934919D01*
X101322009Y-75923318D01*
X101496216Y-75923318D01*
X101502322Y-75998239D01*
X101510634Y-76033273D01*
X101522472Y-76063147D01*
X101539025Y-76089107D01*
X101559719Y-76108881D01*
X101585272Y-76121523D01*
X101618460Y-76126039D01*
X101652959Y-76120849D01*
X101687092Y-76103935D01*
X101722996Y-76073222D01*
X101763296Y-76026571D01*
X101763296Y-75824155D01*
X101725530Y-75781061D01*
X101692588Y-75752348D01*
X101657415Y-75733460D01*
X101621879Y-75727435D01*
X101590270Y-75731782D01*
X101564177Y-75744288D01*
X101542492Y-75763762D01*
X101525220Y-75789289D01*
X101512579Y-75818654D01*
X101503360Y-75852182D01*
X101496216Y-75923318D01*
X101322009Y-75923318D01*
X101325905Y-75855904D01*
X101338741Y-75788679D01*
X101360750Y-75727321D01*
X101389665Y-75677915D01*
X101427326Y-75637279D01*
X101472952Y-75607451D01*
X101525492Y-75589234D01*
X101587746Y-75582843D01*
X101637123Y-75588187D01*
X101680620Y-75603726D01*
X101721030Y-75628614D01*
X101763296Y-75664909D01*
X101763296Y-75334754D01*
X101767021Y-75322480D01*
X101780698Y-75313260D01*
X101807015Y-75307459D01*
X101848720Y-75305383D01*
X101890302Y-75307459D01*
G37*
G36*
X102455922Y-75588865D02*
G01*
X102513549Y-75605375D01*
X102563584Y-75632661D01*
X102602697Y-75667840D01*
X102632708Y-75710969D01*
X102653927Y-75762301D01*
X102666126Y-75818409D01*
X102670353Y-75881003D01*
X102670353Y-75908297D01*
X102666436Y-75936883D01*
X102656309Y-75954703D01*
X102640135Y-75965790D01*
X102617779Y-75969724D01*
X102246836Y-75969724D01*
X102249237Y-76008033D01*
X102256056Y-76041226D01*
X102268190Y-76071222D01*
X102285426Y-76095753D01*
X102308102Y-76115259D01*
X102337328Y-76129947D01*
X102370912Y-76138529D01*
X102413531Y-76141671D01*
X102457217Y-76139891D01*
X102492727Y-76135015D01*
X102551834Y-76120177D01*
X102593111Y-76105401D01*
X102619794Y-76098684D01*
X102630053Y-76101127D01*
X102636830Y-76109736D01*
X102640616Y-76127322D01*
X102641654Y-76155898D01*
X102640983Y-76181788D01*
X102638906Y-76200045D01*
X102634815Y-76212807D01*
X102627610Y-76222821D01*
X102603369Y-76235704D01*
X102552811Y-76251519D01*
X102482469Y-76264891D01*
X102397778Y-76270631D01*
X102319420Y-76265193D01*
X102255323Y-76250115D01*
X102198624Y-76223925D01*
X102153230Y-76187894D01*
X102117963Y-76141582D01*
X102092108Y-76082625D01*
X102077325Y-76015976D01*
X102071958Y-75933576D01*
X102077091Y-75860303D01*
X102246836Y-75860303D01*
X102503657Y-75860303D01*
X102500963Y-75812508D01*
X102490947Y-75775045D01*
X102474653Y-75745692D01*
X102451051Y-75723105D01*
X102419882Y-75709076D01*
X102378666Y-75703988D01*
X102347348Y-75707233D01*
X102321635Y-75716383D01*
X102299368Y-75730990D01*
X102281335Y-75749783D01*
X102267337Y-75772313D01*
X102256727Y-75799364D01*
X102250030Y-75828581D01*
X102246836Y-75860303D01*
X102077091Y-75860303D01*
X102077484Y-75854691D01*
X102093146Y-75786969D01*
X102119580Y-75725770D01*
X102154634Y-75676205D01*
X102199120Y-75636220D01*
X102252636Y-75606779D01*
X102312824Y-75589049D01*
X102382757Y-75582843D01*
X102455922Y-75588865D01*
G37*
G36*
X103240843Y-76059361D02*
G01*
X103235775Y-76109178D01*
X103221365Y-76151013D01*
X103197893Y-76187379D01*
X103166349Y-76217325D01*
X103128261Y-76240307D01*
X103082329Y-76257259D01*
X103032579Y-76267188D01*
X102977183Y-76270631D01*
X102911970Y-76265685D01*
X102856283Y-76253168D01*
X102815250Y-76237719D01*
X102791375Y-76222882D01*
X102779774Y-76200411D01*
X102775682Y-76154433D01*
X102777026Y-76122315D01*
X102781117Y-76102958D01*
X102787956Y-76093311D01*
X102798214Y-76090868D01*
X102820379Y-76099356D01*
X102856954Y-76117918D01*
X102907818Y-76136786D01*
X102938020Y-76143270D01*
X102973763Y-76145579D01*
X103015040Y-76140816D01*
X103046487Y-76127138D01*
X103058238Y-76116968D01*
X103066637Y-76104546D01*
X103073476Y-76073039D01*
X103070269Y-76053857D01*
X103060836Y-76037868D01*
X103046556Y-76024410D01*
X103027375Y-76012222D01*
X102980236Y-75991706D01*
X102926258Y-75970518D01*
X102872281Y-75943834D01*
X102847377Y-75927099D01*
X102825203Y-75906953D01*
X102806623Y-75883128D01*
X102791741Y-75854258D01*
X102782475Y-75821634D01*
X102779102Y-75780436D01*
X102783447Y-75738055D01*
X102796138Y-75700080D01*
X102816923Y-75666246D01*
X102845353Y-75637554D01*
X102880210Y-75614849D01*
X102923572Y-75597192D01*
X102971367Y-75586589D01*
X103027069Y-75582843D01*
X103082696Y-75587117D01*
X103131544Y-75597803D01*
X103168425Y-75611603D01*
X103189979Y-75624426D01*
X103199200Y-75634867D01*
X103203291Y-75647079D01*
X103205672Y-75664787D01*
X103206710Y-75690982D01*
X103205672Y-75720963D01*
X103202253Y-75739342D01*
X103195780Y-75748501D01*
X103186194Y-75750882D01*
X103167082Y-75743433D01*
X103134658Y-75727435D01*
X103089535Y-75711437D01*
X103062926Y-75705951D01*
X103031160Y-75703988D01*
X102990799Y-75708811D01*
X102962834Y-75722611D01*
X102946408Y-75743677D01*
X102940974Y-75769506D01*
X102944287Y-75789193D01*
X102953919Y-75805043D01*
X102968517Y-75818216D01*
X102988113Y-75830383D01*
X103036229Y-75850900D01*
X103090878Y-75871721D01*
X103145527Y-75898039D01*
X103171104Y-75914813D01*
X103193704Y-75934980D01*
X103212660Y-75958715D01*
X103227837Y-75987248D01*
X103237397Y-76019418D01*
X103240843Y-76059361D01*
G37*
G36*
X103541872Y-76231552D02*
G01*
X103537781Y-76243520D01*
X103523737Y-76252069D01*
X103497420Y-76257198D01*
X103455838Y-76258907D01*
X103414133Y-76257198D01*
X103387816Y-76252069D01*
X103373833Y-76243520D01*
X103369742Y-76231552D01*
X103369742Y-75623265D01*
X103373833Y-75611297D01*
X103387816Y-75602444D01*
X103414133Y-75596643D01*
X103455838Y-75594567D01*
X103497420Y-75596643D01*
X103523737Y-75602444D01*
X103537781Y-75611297D01*
X103541872Y-75623265D01*
X103541872Y-76231552D01*
G37*
G36*
X103554817Y-75417369D02*
G01*
X103551911Y-75451297D01*
X103544457Y-75474083D01*
X103533629Y-75488871D01*
X103506962Y-75502707D01*
X103455105Y-75508593D01*
X103402690Y-75502828D01*
X103376886Y-75489542D01*
X103362605Y-75465496D01*
X103356736Y-75420727D01*
X103362794Y-75374138D01*
X103377558Y-75348920D01*
X103392981Y-75338861D01*
X103417946Y-75331688D01*
X103456448Y-75328831D01*
X103508276Y-75334666D01*
X103534301Y-75348248D01*
X103548872Y-75372633D01*
X103554817Y-75417369D01*
G37*
G36*
X103993722Y-75589865D02*
G01*
X104042570Y-75598475D01*
X104235888Y-75598475D01*
X104245898Y-75601845D01*
X104254634Y-75613435D01*
X104259660Y-75630976D01*
X104261839Y-75663627D01*
X104259633Y-75693983D01*
X104254329Y-75711864D01*
X104245358Y-75724034D01*
X104235888Y-75727435D01*
X104164203Y-75727435D01*
X104177101Y-75745443D01*
X104185696Y-75765659D01*
X104192169Y-75810172D01*
X104187536Y-75861488D01*
X104174400Y-75904816D01*
X104152738Y-75943045D01*
X104123537Y-75974548D01*
X104087553Y-75999164D01*
X104043608Y-76017595D01*
X103995211Y-76028440D01*
X103939439Y-76032250D01*
X103883385Y-76025106D01*
X103842413Y-76008314D01*
X103827697Y-76029319D01*
X103821225Y-76056491D01*
X103825473Y-76074191D01*
X103838627Y-76088731D01*
X103858372Y-76098102D01*
X103887537Y-76102592D01*
X104035731Y-76108087D01*
X104086049Y-76112966D01*
X104128299Y-76122803D01*
X104166437Y-76138401D01*
X104196626Y-76158401D01*
X104221075Y-76183671D01*
X104238941Y-76213478D01*
X104249840Y-76247205D01*
X104253657Y-76286751D01*
X104248681Y-76330701D01*
X104233812Y-76371931D01*
X104209432Y-76408903D01*
X104174400Y-76441418D01*
X104131249Y-76467073D01*
X104075054Y-76487946D01*
X104012519Y-76500529D01*
X103935348Y-76505104D01*
X103860322Y-76501751D01*
X103802418Y-76492770D01*
X103750604Y-76477409D01*
X103712293Y-76458637D01*
X103681303Y-76434027D01*
X103661063Y-76406369D01*
X103649070Y-76374721D01*
X103645004Y-76339752D01*
X103647933Y-76318014D01*
X103811028Y-76318014D01*
X103814775Y-76338803D01*
X103825830Y-76355817D01*
X103845527Y-76370038D01*
X103884031Y-76382823D01*
X103942858Y-76387868D01*
X103980194Y-76385718D01*
X104008437Y-76379991D01*
X104033282Y-76370446D01*
X104051424Y-76359108D01*
X104065713Y-76344995D01*
X104074688Y-76329982D01*
X104081527Y-76296093D01*
X104075309Y-76268780D01*
X104056919Y-76248893D01*
X104029354Y-76236637D01*
X103989325Y-76231064D01*
X103867021Y-76227644D01*
X103838627Y-76252679D01*
X103821591Y-76275577D01*
X103813043Y-76296765D01*
X103811028Y-76318014D01*
X103647933Y-76318014D01*
X103650805Y-76296704D01*
X103667841Y-76257381D01*
X103695501Y-76221538D01*
X103733114Y-76188749D01*
X103706908Y-76170077D01*
X103687685Y-76146067D01*
X103675662Y-76117826D01*
X103671626Y-76086899D01*
X103676305Y-76048112D01*
X103690067Y-76013443D01*
X103711161Y-75982076D01*
X103737938Y-75953665D01*
X103716569Y-75927602D01*
X103699653Y-75896268D01*
X103689191Y-75860402D01*
X103685304Y-75812920D01*
X103685524Y-75810600D01*
X103835574Y-75810600D01*
X103838850Y-75840492D01*
X103848040Y-75864564D01*
X103862868Y-75884117D01*
X103882664Y-75898689D01*
X103907482Y-75907822D01*
X103938767Y-75911106D01*
X103963641Y-75908943D01*
X103983830Y-75902923D01*
X104001489Y-75893036D01*
X104015581Y-75880331D01*
X104034693Y-75847175D01*
X104041227Y-75807913D01*
X104037890Y-75776203D01*
X104028627Y-75751180D01*
X104013872Y-75731343D01*
X103994057Y-75716619D01*
X103968856Y-75707341D01*
X103936691Y-75703988D01*
X103912428Y-75706227D01*
X103892300Y-75712536D01*
X103874658Y-75722735D01*
X103860548Y-75735800D01*
X103849589Y-75751548D01*
X103841741Y-75769933D01*
X103835574Y-75810600D01*
X103685524Y-75810600D01*
X103690164Y-75761566D01*
X103704050Y-75717604D01*
X103726643Y-75678679D01*
X103756318Y-75646591D01*
X103792586Y-75621210D01*
X103836246Y-75602138D01*
X103884248Y-75590728D01*
X103938767Y-75586751D01*
X103993722Y-75589865D01*
G37*
G36*
X104957992Y-76231552D02*
G01*
X104953901Y-76243520D01*
X104940224Y-76252069D01*
X104913906Y-76257198D01*
X104872629Y-76258907D01*
X104830559Y-76257198D01*
X104804241Y-76252069D01*
X104790625Y-76243520D01*
X104786534Y-76231491D01*
X104786534Y-75882773D01*
X104784666Y-75840605D01*
X104780000Y-75812859D01*
X104771867Y-75788835D01*
X104761255Y-75769384D01*
X104747171Y-75753256D01*
X104729503Y-75741296D01*
X104708892Y-75733939D01*
X104684074Y-75731343D01*
X104652081Y-75736998D01*
X104617823Y-75755340D01*
X104585296Y-75783156D01*
X104548153Y-75825193D01*
X104548153Y-76231491D01*
X104544062Y-76243520D01*
X104530018Y-76252069D01*
X104503701Y-76257198D01*
X104462118Y-76258907D01*
X104420414Y-76257198D01*
X104394097Y-76252069D01*
X104380114Y-76243520D01*
X104376023Y-76231552D01*
X104376023Y-75621922D01*
X104379442Y-75609954D01*
X104391715Y-75601406D01*
X104414613Y-75596277D01*
X104449784Y-75594567D01*
X104485993Y-75596277D01*
X104508158Y-75601406D01*
X104519454Y-75609954D01*
X104522874Y-75621922D01*
X104522874Y-75692325D01*
X104575394Y-75643176D01*
X104625639Y-75610198D01*
X104679283Y-75589616D01*
X104734632Y-75582843D01*
X104793748Y-75588337D01*
X104839473Y-75603360D01*
X104878378Y-75627809D01*
X104908472Y-75659108D01*
X104930874Y-75696775D01*
X104946391Y-75741479D01*
X104954847Y-75791077D01*
X104957992Y-75854930D01*
X104957992Y-76231552D01*
G37*
G36*
X105475741Y-75588865D02*
G01*
X105533367Y-75605375D01*
X105583402Y-75632661D01*
X105622516Y-75667840D01*
X105652527Y-75710969D01*
X105673746Y-75762301D01*
X105685945Y-75818409D01*
X105690171Y-75881003D01*
X105690171Y-75908297D01*
X105686254Y-75936883D01*
X105676127Y-75954703D01*
X105659954Y-75965790D01*
X105637598Y-75969724D01*
X105266654Y-75969724D01*
X105269056Y-76008033D01*
X105275874Y-76041226D01*
X105288008Y-76071222D01*
X105305245Y-76095753D01*
X105327920Y-76115259D01*
X105357146Y-76129947D01*
X105390731Y-76138529D01*
X105433350Y-76141671D01*
X105477035Y-76139891D01*
X105512546Y-76135015D01*
X105571652Y-76120177D01*
X105612930Y-76105401D01*
X105639613Y-76098684D01*
X105649871Y-76101127D01*
X105656649Y-76109736D01*
X105660435Y-76127322D01*
X105661473Y-76155898D01*
X105660801Y-76181788D01*
X105658725Y-76200045D01*
X105654634Y-76212807D01*
X105647429Y-76222821D01*
X105623188Y-76235704D01*
X105572629Y-76251519D01*
X105502287Y-76264891D01*
X105417596Y-76270631D01*
X105339238Y-76265193D01*
X105275142Y-76250115D01*
X105218442Y-76223925D01*
X105173048Y-76187894D01*
X105137782Y-76141582D01*
X105111926Y-76082625D01*
X105097144Y-76015976D01*
X105091776Y-75933576D01*
X105096909Y-75860303D01*
X105266654Y-75860303D01*
X105523476Y-75860303D01*
X105520781Y-75812508D01*
X105510766Y-75775045D01*
X105494472Y-75745692D01*
X105470870Y-75723105D01*
X105439700Y-75709076D01*
X105398484Y-75703988D01*
X105367167Y-75707233D01*
X105341454Y-75716383D01*
X105319186Y-75730990D01*
X105301154Y-75749783D01*
X105287155Y-75772313D01*
X105276546Y-75799364D01*
X105269849Y-75828581D01*
X105266654Y-75860303D01*
X105096909Y-75860303D01*
X105097302Y-75854691D01*
X105112964Y-75786969D01*
X105139399Y-75725770D01*
X105174453Y-75676205D01*
X105218939Y-75636220D01*
X105272455Y-75606779D01*
X105332643Y-75589049D01*
X105402575Y-75582843D01*
X105475741Y-75588865D01*
G37*
G36*
X106365808Y-75307459D02*
G01*
X106391820Y-75313260D01*
X106405498Y-75322480D01*
X106409589Y-75334754D01*
X106409589Y-76231552D01*
X106406169Y-76244192D01*
X106394568Y-76252740D01*
X106372342Y-76257503D01*
X106337842Y-76258907D01*
X106302305Y-76257503D01*
X106280140Y-76252740D01*
X106267806Y-76244253D01*
X106264081Y-76231613D01*
X106264081Y-76163958D01*
X106214812Y-76209735D01*
X106165346Y-76242604D01*
X106111470Y-76263505D01*
X106050979Y-76270631D01*
X106005181Y-76267376D01*
X105966282Y-76258190D01*
X105933132Y-76243642D01*
X105889373Y-76211883D01*
X105854547Y-76170797D01*
X105828681Y-76122023D01*
X105810461Y-76063818D01*
X105800313Y-76001611D01*
X105796844Y-75934919D01*
X105797515Y-75923318D01*
X105971722Y-75923318D01*
X105977828Y-75998239D01*
X105986140Y-76033273D01*
X105997978Y-76063147D01*
X106014531Y-76089107D01*
X106035225Y-76108881D01*
X106060777Y-76121523D01*
X106093966Y-76126039D01*
X106128465Y-76120849D01*
X106162598Y-76103935D01*
X106198502Y-76073222D01*
X106238802Y-76026571D01*
X106238802Y-75824155D01*
X106201035Y-75781061D01*
X106168093Y-75752348D01*
X106132921Y-75733460D01*
X106097385Y-75727435D01*
X106065775Y-75731782D01*
X106039683Y-75744288D01*
X106017998Y-75763762D01*
X106000726Y-75789289D01*
X105988085Y-75818654D01*
X105978866Y-75852182D01*
X105971722Y-75923318D01*
X105797515Y-75923318D01*
X105801411Y-75855904D01*
X105814247Y-75788679D01*
X105836256Y-75727321D01*
X105865171Y-75677915D01*
X105902832Y-75637279D01*
X105948458Y-75607451D01*
X106000998Y-75589234D01*
X106063252Y-75582843D01*
X106112629Y-75588187D01*
X106156126Y-75603726D01*
X106196536Y-75628614D01*
X106238802Y-75664909D01*
X106238802Y-75334754D01*
X106242527Y-75322480D01*
X106256204Y-75313260D01*
X106282521Y-75307459D01*
X106324226Y-75305383D01*
X106365808Y-75307459D01*
G37*
G36*
X107026241Y-75307459D02*
G01*
X107052558Y-75313199D01*
X107066602Y-75322358D01*
X107070693Y-75334631D01*
X107070693Y-75669672D01*
X107117099Y-75630043D01*
X107163566Y-75603054D01*
X107211377Y-75587667D01*
X107263339Y-75582843D01*
X107307722Y-75586090D01*
X107345602Y-75595280D01*
X107378073Y-75609893D01*
X107420836Y-75641560D01*
X107454948Y-75682677D01*
X107480283Y-75731406D01*
X107498301Y-75789656D01*
X107508495Y-75851865D01*
X107511979Y-75918555D01*
X107507319Y-75997561D01*
X107494210Y-76064856D01*
X107471970Y-76126180D01*
X107442980Y-76175621D01*
X107405489Y-76216275D01*
X107360670Y-76246024D01*
X107309373Y-76264283D01*
X107249662Y-76270631D01*
X107192265Y-76264830D01*
X107141401Y-76246024D01*
X107093591Y-76213234D01*
X107045414Y-76165362D01*
X107045414Y-76231613D01*
X107041628Y-76244253D01*
X107029355Y-76252740D01*
X107006457Y-76257503D01*
X106971652Y-76258907D01*
X106936481Y-76257503D01*
X106913950Y-76252801D01*
X106901982Y-76244253D01*
X106898563Y-76231613D01*
X106898563Y-75826903D01*
X107070693Y-75826903D01*
X107070693Y-76029319D01*
X107107803Y-76072728D01*
X107139997Y-76101371D01*
X107174496Y-76120076D01*
X107209362Y-76126039D01*
X107240793Y-76121602D01*
X107266026Y-76108942D01*
X107287110Y-76089505D01*
X107304617Y-76064490D01*
X107317696Y-76035734D01*
X107326843Y-76002269D01*
X107333681Y-75932477D01*
X107327881Y-75857250D01*
X107319748Y-75822422D01*
X107307731Y-75792953D01*
X107290999Y-75767411D01*
X107270484Y-75748135D01*
X107245356Y-75735761D01*
X107212781Y-75731343D01*
X107179259Y-75736045D01*
X107145492Y-75752226D01*
X107109650Y-75781840D01*
X107070693Y-75826903D01*
X106898563Y-75826903D01*
X106898563Y-75334692D01*
X106902654Y-75322480D01*
X106916637Y-75313260D01*
X106942954Y-75307459D01*
X106984658Y-75305383D01*
X107026241Y-75307459D01*
G37*
G36*
X107995213Y-76255000D02*
G01*
X107921391Y-76469323D01*
X107910945Y-76483150D01*
X107887868Y-76493747D01*
X107857413Y-76499024D01*
X107808001Y-76501196D01*
X107764282Y-76498815D01*
X107739674Y-76490999D01*
X107730820Y-76477444D01*
X107734911Y-76457782D01*
X107816183Y-76255000D01*
X107800124Y-76242360D01*
X107789561Y-76224225D01*
X107579878Y-75663627D01*
X107570963Y-75627051D01*
X107573091Y-75615589D01*
X107579145Y-75607267D01*
X107589129Y-75601573D01*
X107606867Y-75597315D01*
X107658402Y-75594567D01*
X107704869Y-75595605D01*
X107731492Y-75600734D01*
X107745841Y-75613374D01*
X107755428Y-75637615D01*
X107898859Y-76045806D01*
X107900935Y-76045806D01*
X108032094Y-75629433D01*
X108037311Y-75613515D01*
X108042657Y-75605863D01*
X108064212Y-75597315D01*
X108116785Y-75594567D01*
X108165573Y-75597315D01*
X108183435Y-75601601D01*
X108194271Y-75607573D01*
X108201197Y-75616290D01*
X108203552Y-75627723D01*
X108198057Y-75657459D01*
X107995213Y-76255000D01*
G37*
G36*
X103247988Y-77910270D02*
G01*
X103244202Y-77922543D01*
X103230585Y-77931397D01*
X103204268Y-77936831D01*
X103162625Y-77938907D01*
X103121592Y-77936831D01*
X103095641Y-77931397D01*
X103082024Y-77922543D01*
X103077933Y-77910270D01*
X103077933Y-77192501D01*
X103076529Y-77192501D01*
X102820379Y-77909537D01*
X102811464Y-77924253D01*
X102794734Y-77933473D01*
X102767745Y-77937869D01*
X102728117Y-77938907D01*
X102688488Y-77937198D01*
X102661499Y-77931763D01*
X102644769Y-77922543D01*
X102636587Y-77909537D01*
X102389352Y-77192501D01*
X102387947Y-77192501D01*
X102387947Y-77910270D01*
X102384162Y-77922543D01*
X102370179Y-77931397D01*
X102343862Y-77936831D01*
X102302523Y-77938907D01*
X102261552Y-77936831D01*
X102235235Y-77931397D01*
X102221557Y-77922543D01*
X102217832Y-77910270D01*
X102217832Y-77123442D01*
X102222801Y-77091733D01*
X102236273Y-77070258D01*
X102257268Y-77056628D01*
X102285488Y-77051817D01*
X102402968Y-77051817D01*
X102456946Y-77056946D01*
X102478303Y-77063927D01*
X102495903Y-77074043D01*
X102510792Y-77087658D01*
X102523258Y-77105429D01*
X102542370Y-77153483D01*
X102733612Y-77679583D01*
X102736360Y-77679583D01*
X102934441Y-77154827D01*
X102953858Y-77106406D01*
X102978466Y-77074349D01*
X102993656Y-77063925D01*
X103011621Y-77056946D01*
X103056013Y-77051817D01*
X103176974Y-77051817D01*
X103208725Y-77056580D01*
X103230585Y-77070563D01*
X103243530Y-77093094D01*
X103247988Y-77123442D01*
X103247988Y-77910270D01*
G37*
G36*
X103993661Y-77674820D02*
G01*
X103987105Y-77738698D01*
X103968382Y-77792850D01*
X103938127Y-77840175D01*
X103897979Y-77879251D01*
X103849387Y-77909589D01*
X103790085Y-77932435D01*
X103725455Y-77945935D01*
X103652820Y-77950631D01*
X103568068Y-77943853D01*
X103498031Y-77927184D01*
X103447839Y-77906606D01*
X103421888Y-77890486D01*
X103412668Y-77878213D01*
X103407234Y-77862215D01*
X103403814Y-77839073D01*
X103402776Y-77805307D01*
X103404458Y-77775178D01*
X103408211Y-77760061D01*
X103415338Y-77750375D01*
X103424636Y-77747421D01*
X103448206Y-77756763D01*
X103490887Y-77776730D01*
X103551642Y-77796758D01*
X103587837Y-77803592D01*
X103630960Y-77806039D01*
X103667251Y-77803697D01*
X103697211Y-77797185D01*
X103724240Y-77786245D01*
X103746060Y-77772212D01*
X103763708Y-77754316D01*
X103776102Y-77733194D01*
X103783450Y-77709327D01*
X103785993Y-77682208D01*
X103782914Y-77652574D01*
X103774026Y-77626826D01*
X103759302Y-77604146D01*
X103738488Y-77584755D01*
X103712784Y-77569675D01*
X103679076Y-77557705D01*
X103641552Y-77550687D01*
X103594751Y-77548119D01*
X103518242Y-77548119D01*
X103503221Y-77545737D01*
X103492963Y-77535724D01*
X103487162Y-77514719D01*
X103485453Y-77479975D01*
X103487162Y-77447308D01*
X103492597Y-77427646D01*
X103502183Y-77417998D01*
X103516166Y-77415251D01*
X103593347Y-77415251D01*
X103631714Y-77412881D01*
X103663689Y-77406275D01*
X103692572Y-77395031D01*
X103715285Y-77380568D01*
X103733679Y-77362039D01*
X103747037Y-77340146D01*
X103755170Y-77315449D01*
X103757967Y-77287634D01*
X103750456Y-77245929D01*
X103741109Y-77227495D01*
X103728230Y-77211857D01*
X103711867Y-77199272D01*
X103690311Y-77189143D01*
X103665899Y-77183002D01*
X103635662Y-77180778D01*
X103600911Y-77183401D01*
X103568739Y-77191097D01*
X103512380Y-77213689D01*
X103470004Y-77236587D01*
X103444420Y-77247212D01*
X103434833Y-77244830D01*
X103427994Y-77235549D01*
X103423903Y-77215582D01*
X103422560Y-77181816D01*
X103423232Y-77153239D01*
X103425979Y-77134310D01*
X103431109Y-77121243D01*
X103441000Y-77109153D01*
X103469027Y-77089858D01*
X103522272Y-77065068D01*
X103596400Y-77044612D01*
X103639405Y-77038368D01*
X103687625Y-77036186D01*
X103749764Y-77040137D01*
X103801381Y-77051146D01*
X103847805Y-77069795D01*
X103884668Y-77094193D01*
X103914349Y-77125510D01*
X103935897Y-77163375D01*
X103948837Y-77206203D01*
X103953361Y-77255943D01*
X103950730Y-77295116D01*
X103943103Y-77330621D01*
X103930332Y-77363587D01*
X103913061Y-77392292D01*
X103890939Y-77417233D01*
X103863541Y-77438393D01*
X103832095Y-77454787D01*
X103794908Y-77466908D01*
X103794908Y-77468984D01*
X103839644Y-77477845D01*
X103878256Y-77492676D01*
X103912658Y-77513399D01*
X103940721Y-77538288D01*
X103963377Y-77567549D01*
X103979983Y-77600387D01*
X103990185Y-77636002D01*
X103993661Y-77674820D01*
G37*
G36*
X104601154Y-77815992D02*
G01*
X104600116Y-77845668D01*
X104597368Y-77865757D01*
X104593277Y-77879068D01*
X104582714Y-77892013D01*
X104554687Y-77911003D01*
X104509624Y-77930969D01*
X104454608Y-77945197D01*
X104393486Y-77950631D01*
X104325715Y-77944896D01*
X104268800Y-77928710D01*
X104218670Y-77901428D01*
X104177637Y-77863986D01*
X104145731Y-77817318D01*
X104121949Y-77759511D01*
X104108145Y-77695286D01*
X104103204Y-77618400D01*
X104109311Y-77530131D01*
X104126041Y-77459825D01*
X104154108Y-77397643D01*
X104189910Y-77349183D01*
X104234699Y-77310979D01*
X104286936Y-77284092D01*
X104344830Y-77268303D01*
X104409912Y-77262843D01*
X104463462Y-77267728D01*
X104512677Y-77280917D01*
X104553649Y-77299663D01*
X104579294Y-77317737D01*
X104589858Y-77330560D01*
X104594620Y-77343993D01*
X104597368Y-77364326D01*
X104598406Y-77393635D01*
X104596313Y-77430621D01*
X104591567Y-77449872D01*
X104583093Y-77462543D01*
X104573799Y-77466053D01*
X104562384Y-77463834D01*
X104549191Y-77456345D01*
X104518478Y-77434790D01*
X104476102Y-77413297D01*
X104450123Y-77406133D01*
X104417422Y-77403527D01*
X104375468Y-77409497D01*
X104341991Y-77426503D01*
X104314901Y-77455062D01*
X104296454Y-77491226D01*
X104284072Y-77540342D01*
X104279425Y-77606127D01*
X104281782Y-77653757D01*
X104288279Y-77692833D01*
X104299700Y-77728181D01*
X104314596Y-77755603D01*
X104334357Y-77777789D01*
X104358315Y-77793461D01*
X104386079Y-77802754D01*
X104419437Y-77806039D01*
X104453481Y-77803305D01*
X104480559Y-77795781D01*
X104525317Y-77772822D01*
X104557434Y-77749924D01*
X104570319Y-77741767D01*
X104579294Y-77739605D01*
X104589552Y-77743025D01*
X104596025Y-77755664D01*
X104599750Y-77779173D01*
X104601154Y-77815992D01*
G37*
G36*
X105146731Y-77049619D02*
G01*
X105185993Y-77055054D01*
X105207548Y-77064213D01*
X105214387Y-77077158D01*
X105214387Y-77606737D01*
X105292972Y-77606737D01*
X105302402Y-77610344D01*
X105311717Y-77623651D01*
X105317219Y-77643391D01*
X105319594Y-77679705D01*
X105317505Y-77712631D01*
X105312389Y-77733072D01*
X105303297Y-77747364D01*
X105292972Y-77751329D01*
X105214387Y-77751329D01*
X105214387Y-77911552D01*
X105210296Y-77923520D01*
X105195946Y-77932069D01*
X105169263Y-77937198D01*
X105126948Y-77938907D01*
X105085610Y-77937198D01*
X105058926Y-77932069D01*
X105045249Y-77923520D01*
X105041524Y-77911552D01*
X105041524Y-77751329D01*
X104703431Y-77751329D01*
X104686334Y-77748948D01*
X104673694Y-77737957D01*
X104666184Y-77713227D01*
X104663802Y-77670240D01*
X104664840Y-77632138D01*
X104667816Y-77606737D01*
X104807234Y-77606737D01*
X105041524Y-77606737D01*
X105041524Y-77204225D01*
X105040180Y-77204225D01*
X104807234Y-77606737D01*
X104667816Y-77606737D01*
X104668260Y-77602951D01*
X104675037Y-77578222D01*
X104686334Y-77553492D01*
X104960924Y-77071723D01*
X104972525Y-77061160D01*
X104995423Y-77053710D01*
X105032670Y-77049314D01*
X105087319Y-77047909D01*
X105146731Y-77049619D01*
G37*
G36*
X105795257Y-77853300D02*
G01*
X105791471Y-77899584D01*
X105781580Y-77922238D01*
X105763506Y-77933839D01*
X105735479Y-77942754D01*
X105700613Y-77948555D01*
X105662755Y-77950631D01*
X105613483Y-77947164D01*
X105573912Y-77937625D01*
X105539277Y-77920902D01*
X105511752Y-77897569D01*
X105490747Y-77867666D01*
X105475543Y-77829426D01*
X105467055Y-77786307D01*
X105463942Y-77732156D01*
X105463942Y-77419159D01*
X105390791Y-77419159D01*
X105379809Y-77415460D01*
X105371007Y-77402978D01*
X105366238Y-77383975D01*
X105364169Y-77348817D01*
X105365878Y-77315050D01*
X105371007Y-77293312D01*
X105379556Y-77281955D01*
X105391524Y-77278475D01*
X105463942Y-77278475D01*
X105463942Y-77142920D01*
X105467667Y-77130708D01*
X105481344Y-77121488D01*
X105507967Y-77116053D01*
X105549305Y-77114344D01*
X105591314Y-77116053D01*
X105617632Y-77121488D01*
X105631309Y-77130708D01*
X105635400Y-77142920D01*
X105635400Y-77278475D01*
X105767902Y-77278475D01*
X105779870Y-77281955D01*
X105788418Y-77293312D01*
X105793548Y-77315050D01*
X105795257Y-77348817D01*
X105793188Y-77383975D01*
X105788418Y-77402978D01*
X105779617Y-77415460D01*
X105768635Y-77419159D01*
X105635400Y-77419159D01*
X105635400Y-77706083D01*
X105639891Y-77752393D01*
X105651093Y-77781065D01*
X105663582Y-77794414D01*
X105681591Y-77802882D01*
X105707147Y-77806039D01*
X105731754Y-77803658D01*
X105751171Y-77798224D01*
X105765521Y-77792728D01*
X105776145Y-77790347D01*
X105783961Y-77792728D01*
X105789762Y-77802315D01*
X105793548Y-77821793D01*
X105795257Y-77853300D01*
G37*
G36*
X106310549Y-77357915D02*
G01*
X106309144Y-77397971D01*
X106305053Y-77422395D01*
X106297909Y-77434668D01*
X106286613Y-77438087D01*
X106274340Y-77435706D01*
X106258952Y-77430577D01*
X106240207Y-77425448D01*
X106217675Y-77423066D01*
X106188977Y-77428928D01*
X106159240Y-77447247D01*
X106127122Y-77480464D01*
X106091280Y-77531571D01*
X106091280Y-77911552D01*
X106087188Y-77923520D01*
X106073145Y-77932069D01*
X106046827Y-77937198D01*
X106005245Y-77938907D01*
X105963541Y-77937198D01*
X105937223Y-77932069D01*
X105923240Y-77923520D01*
X105919149Y-77911552D01*
X105919149Y-77301922D01*
X105922569Y-77289954D01*
X105934842Y-77281406D01*
X105957740Y-77276277D01*
X105992911Y-77274567D01*
X106029120Y-77276277D01*
X106051285Y-77281406D01*
X106062581Y-77289954D01*
X106066000Y-77301922D01*
X106066000Y-77377759D01*
X106111063Y-77321339D01*
X106151363Y-77286107D01*
X106189648Y-77267972D01*
X106227872Y-77262843D01*
X106246984Y-77263881D01*
X106268172Y-77267240D01*
X106287284Y-77272674D01*
X106299252Y-77279146D01*
X106304748Y-77286596D01*
X106307801Y-77297831D01*
X106309877Y-77319202D01*
X106310549Y-77357915D01*
G37*
G36*
X106753755Y-77040021D02*
G01*
X106803364Y-77050688D01*
X106844341Y-77067266D01*
X106881467Y-77091016D01*
X106912848Y-77120639D01*
X106938985Y-77156659D01*
X106967826Y-77219397D01*
X106987468Y-77299296D01*
X106997523Y-77386323D01*
X107001145Y-77489989D01*
X106996650Y-77593070D01*
X106984048Y-77681048D01*
X106960927Y-77761854D01*
X106928422Y-77826434D01*
X106899915Y-77863561D01*
X106866577Y-77894101D01*
X106827977Y-77918574D01*
X106785615Y-77935800D01*
X106735665Y-77946742D01*
X106676669Y-77950631D01*
X106616673Y-77946798D01*
X106567176Y-77936146D01*
X106526398Y-77919612D01*
X106489498Y-77895851D01*
X106458232Y-77866230D01*
X106432120Y-77830219D01*
X106403224Y-77767450D01*
X106383272Y-77687581D01*
X106372990Y-77600493D01*
X106369289Y-77496828D01*
X106369756Y-77486325D01*
X106550273Y-77486325D01*
X106552352Y-77576362D01*
X106557783Y-77642091D01*
X106568130Y-77700332D01*
X106581353Y-77740277D01*
X106600551Y-77772299D01*
X106622691Y-77791385D01*
X106649785Y-77802192D01*
X106683507Y-77806039D01*
X106709132Y-77803818D01*
X106730585Y-77797552D01*
X106749749Y-77786932D01*
X106766489Y-77771967D01*
X106780267Y-77753238D01*
X106792073Y-77729042D01*
X106808804Y-77669019D01*
X106817719Y-77592021D01*
X106820100Y-77497255D01*
X106816681Y-77386491D01*
X106806056Y-77303021D01*
X106788288Y-77242998D01*
X106776213Y-77220321D01*
X106762703Y-77203797D01*
X106746566Y-77191223D01*
X106728570Y-77183037D01*
X106686194Y-77176870D01*
X106648504Y-77181986D01*
X106619577Y-77196287D01*
X106596699Y-77219657D01*
X106577933Y-77254600D01*
X106565331Y-77296089D01*
X106556379Y-77351381D01*
X106550273Y-77486325D01*
X106369756Y-77486325D01*
X106373851Y-77394320D01*
X106386691Y-77306135D01*
X106410161Y-77225009D01*
X106442745Y-77160444D01*
X106471255Y-77123279D01*
X106504573Y-77092742D01*
X106543129Y-77068304D01*
X106585528Y-77051020D01*
X106635273Y-77040070D01*
X106693766Y-77036186D01*
X106753755Y-77040021D01*
G37*
G36*
X107655105Y-77899279D02*
G01*
X107660173Y-77918391D01*
X107657788Y-77924921D01*
X107650282Y-77930725D01*
X107620911Y-77937198D01*
X107568338Y-77938907D01*
X107518818Y-77937869D01*
X107489448Y-77933778D01*
X107473755Y-77926268D01*
X107465878Y-77914972D01*
X107353160Y-77698328D01*
X107240442Y-77914972D01*
X107232932Y-77926268D01*
X107218216Y-77933778D01*
X107190556Y-77937869D01*
X107144149Y-77938907D01*
X107096339Y-77937198D01*
X107070327Y-77930725D01*
X107063965Y-77925033D01*
X107061779Y-77918391D01*
X107067640Y-77899279D01*
X107236351Y-77599227D01*
X107080585Y-77317615D01*
X107074113Y-77296793D01*
X107075956Y-77289342D01*
X107082600Y-77283482D01*
X107110993Y-77276643D01*
X107163933Y-77274567D01*
X107212110Y-77275605D01*
X107240442Y-77278719D01*
X107255463Y-77285191D01*
X107263706Y-77296427D01*
X107372272Y-77500125D01*
X107480228Y-77296427D01*
X107486395Y-77286901D01*
X107499340Y-77280062D01*
X107523581Y-77275971D01*
X107565652Y-77274567D01*
X107613767Y-77275971D01*
X107639718Y-77282077D01*
X107645572Y-77287854D01*
X107647229Y-77295389D01*
X107639413Y-77317615D01*
X107487738Y-77594464D01*
X107655105Y-77899279D01*
G37*
D10*
X133260588Y-98993438D02*
X133165350Y-98945819D01*
X133165350Y-98945819D02*
X133022493Y-98945819D01*
X133022493Y-98945819D02*
X132879636Y-98993438D01*
X132879636Y-98993438D02*
X132784398Y-99088676D01*
X132784398Y-99088676D02*
X132736779Y-99183914D01*
X132736779Y-99183914D02*
X132689160Y-99374390D01*
X132689160Y-99374390D02*
X132689160Y-99517247D01*
X132689160Y-99517247D02*
X132736779Y-99707723D01*
X132736779Y-99707723D02*
X132784398Y-99802961D01*
X132784398Y-99802961D02*
X132879636Y-99898200D01*
X132879636Y-99898200D02*
X133022493Y-99945819D01*
X133022493Y-99945819D02*
X133117731Y-99945819D01*
X133117731Y-99945819D02*
X133260588Y-99898200D01*
X133260588Y-99898200D02*
X133308207Y-99850580D01*
X133308207Y-99850580D02*
X133308207Y-99517247D01*
X133308207Y-99517247D02*
X133117731Y-99517247D01*
X133736779Y-99945819D02*
X133736779Y-98945819D01*
X133736779Y-98945819D02*
X134308207Y-99945819D01*
X134308207Y-99945819D02*
X134308207Y-98945819D01*
X134784398Y-99945819D02*
X134784398Y-98945819D01*
X134784398Y-98945819D02*
X135022493Y-98945819D01*
X135022493Y-98945819D02*
X135165350Y-98993438D01*
X135165350Y-98993438D02*
X135260588Y-99088676D01*
X135260588Y-99088676D02*
X135308207Y-99183914D01*
X135308207Y-99183914D02*
X135355826Y-99374390D01*
X135355826Y-99374390D02*
X135355826Y-99517247D01*
X135355826Y-99517247D02*
X135308207Y-99707723D01*
X135308207Y-99707723D02*
X135260588Y-99802961D01*
X135260588Y-99802961D02*
X135165350Y-99898200D01*
X135165350Y-99898200D02*
X135022493Y-99945819D01*
X135022493Y-99945819D02*
X134784398Y-99945819D01*
X132941541Y-91345819D02*
X133560588Y-91345819D01*
X133560588Y-91345819D02*
X133227255Y-91726771D01*
X133227255Y-91726771D02*
X133370112Y-91726771D01*
X133370112Y-91726771D02*
X133465350Y-91774390D01*
X133465350Y-91774390D02*
X133512969Y-91822009D01*
X133512969Y-91822009D02*
X133560588Y-91917247D01*
X133560588Y-91917247D02*
X133560588Y-92155342D01*
X133560588Y-92155342D02*
X133512969Y-92250580D01*
X133512969Y-92250580D02*
X133465350Y-92298200D01*
X133465350Y-92298200D02*
X133370112Y-92345819D01*
X133370112Y-92345819D02*
X133084398Y-92345819D01*
X133084398Y-92345819D02*
X132989160Y-92298200D01*
X132989160Y-92298200D02*
X132941541Y-92250580D01*
X133846303Y-91345819D02*
X134179636Y-92345819D01*
X134179636Y-92345819D02*
X134512969Y-91345819D01*
X134751065Y-91345819D02*
X135370112Y-91345819D01*
X135370112Y-91345819D02*
X135036779Y-91726771D01*
X135036779Y-91726771D02*
X135179636Y-91726771D01*
X135179636Y-91726771D02*
X135274874Y-91774390D01*
X135274874Y-91774390D02*
X135322493Y-91822009D01*
X135322493Y-91822009D02*
X135370112Y-91917247D01*
X135370112Y-91917247D02*
X135370112Y-92155342D01*
X135370112Y-92155342D02*
X135322493Y-92250580D01*
X135322493Y-92250580D02*
X135274874Y-92298200D01*
X135274874Y-92298200D02*
X135179636Y-92345819D01*
X135179636Y-92345819D02*
X134893922Y-92345819D01*
X134893922Y-92345819D02*
X134798684Y-92298200D01*
X134798684Y-92298200D02*
X134751065Y-92250580D01*
D12*
X102573345Y-90731744D02*
X102644773Y-90755554D01*
X102644773Y-90755554D02*
X102668583Y-90779363D01*
X102668583Y-90779363D02*
X102692392Y-90826982D01*
X102692392Y-90826982D02*
X102692392Y-90898411D01*
X102692392Y-90898411D02*
X102668583Y-90946030D01*
X102668583Y-90946030D02*
X102644773Y-90969840D01*
X102644773Y-90969840D02*
X102597154Y-90993649D01*
X102597154Y-90993649D02*
X102406678Y-90993649D01*
X102406678Y-90993649D02*
X102406678Y-90493649D01*
X102406678Y-90493649D02*
X102573345Y-90493649D01*
X102573345Y-90493649D02*
X102620964Y-90517459D01*
X102620964Y-90517459D02*
X102644773Y-90541268D01*
X102644773Y-90541268D02*
X102668583Y-90588887D01*
X102668583Y-90588887D02*
X102668583Y-90636506D01*
X102668583Y-90636506D02*
X102644773Y-90684125D01*
X102644773Y-90684125D02*
X102620964Y-90707935D01*
X102620964Y-90707935D02*
X102573345Y-90731744D01*
X102573345Y-90731744D02*
X102406678Y-90731744D01*
X103001916Y-90493649D02*
X103097154Y-90493649D01*
X103097154Y-90493649D02*
X103144773Y-90517459D01*
X103144773Y-90517459D02*
X103192392Y-90565078D01*
X103192392Y-90565078D02*
X103216202Y-90660316D01*
X103216202Y-90660316D02*
X103216202Y-90826982D01*
X103216202Y-90826982D02*
X103192392Y-90922220D01*
X103192392Y-90922220D02*
X103144773Y-90969840D01*
X103144773Y-90969840D02*
X103097154Y-90993649D01*
X103097154Y-90993649D02*
X103001916Y-90993649D01*
X103001916Y-90993649D02*
X102954297Y-90969840D01*
X102954297Y-90969840D02*
X102906678Y-90922220D01*
X102906678Y-90922220D02*
X102882869Y-90826982D01*
X102882869Y-90826982D02*
X102882869Y-90660316D01*
X102882869Y-90660316D02*
X102906678Y-90565078D01*
X102906678Y-90565078D02*
X102954297Y-90517459D01*
X102954297Y-90517459D02*
X103001916Y-90493649D01*
X103525726Y-90493649D02*
X103620964Y-90493649D01*
X103620964Y-90493649D02*
X103668583Y-90517459D01*
X103668583Y-90517459D02*
X103716202Y-90565078D01*
X103716202Y-90565078D02*
X103740012Y-90660316D01*
X103740012Y-90660316D02*
X103740012Y-90826982D01*
X103740012Y-90826982D02*
X103716202Y-90922220D01*
X103716202Y-90922220D02*
X103668583Y-90969840D01*
X103668583Y-90969840D02*
X103620964Y-90993649D01*
X103620964Y-90993649D02*
X103525726Y-90993649D01*
X103525726Y-90993649D02*
X103478107Y-90969840D01*
X103478107Y-90969840D02*
X103430488Y-90922220D01*
X103430488Y-90922220D02*
X103406679Y-90826982D01*
X103406679Y-90826982D02*
X103406679Y-90660316D01*
X103406679Y-90660316D02*
X103430488Y-90565078D01*
X103430488Y-90565078D02*
X103478107Y-90517459D01*
X103478107Y-90517459D02*
X103525726Y-90493649D01*
X103882870Y-90493649D02*
X104168584Y-90493649D01*
X104025727Y-90993649D02*
X104025727Y-90493649D01*
D10*
X133508207Y-94845819D02*
X133174874Y-94369628D01*
X132936779Y-94845819D02*
X132936779Y-93845819D01*
X132936779Y-93845819D02*
X133317731Y-93845819D01*
X133317731Y-93845819D02*
X133412969Y-93893438D01*
X133412969Y-93893438D02*
X133460588Y-93941057D01*
X133460588Y-93941057D02*
X133508207Y-94036295D01*
X133508207Y-94036295D02*
X133508207Y-94179152D01*
X133508207Y-94179152D02*
X133460588Y-94274390D01*
X133460588Y-94274390D02*
X133412969Y-94322009D01*
X133412969Y-94322009D02*
X133317731Y-94369628D01*
X133317731Y-94369628D02*
X132936779Y-94369628D01*
X133841541Y-93845819D02*
X134508207Y-94845819D01*
X134508207Y-93845819D02*
X133841541Y-94845819D01*
X134889160Y-94845819D02*
X134889160Y-93845819D01*
X134889160Y-93845819D02*
X135127255Y-93845819D01*
X135127255Y-93845819D02*
X135270112Y-93893438D01*
X135270112Y-93893438D02*
X135365350Y-93988676D01*
X135365350Y-93988676D02*
X135412969Y-94083914D01*
X135412969Y-94083914D02*
X135460588Y-94274390D01*
X135460588Y-94274390D02*
X135460588Y-94417247D01*
X135460588Y-94417247D02*
X135412969Y-94607723D01*
X135412969Y-94607723D02*
X135365350Y-94702961D01*
X135365350Y-94702961D02*
X135270112Y-94798200D01*
X135270112Y-94798200D02*
X135127255Y-94845819D01*
X135127255Y-94845819D02*
X134889160Y-94845819D01*
X102063779Y-108073819D02*
X102063779Y-107073819D01*
X102063779Y-107073819D02*
X102635207Y-108073819D01*
X102635207Y-108073819D02*
X102635207Y-107073819D01*
X102968541Y-107073819D02*
X103539969Y-107073819D01*
X103254255Y-108073819D02*
X103254255Y-107073819D01*
X104444731Y-107978580D02*
X104397112Y-108026200D01*
X104397112Y-108026200D02*
X104254255Y-108073819D01*
X104254255Y-108073819D02*
X104159017Y-108073819D01*
X104159017Y-108073819D02*
X104016160Y-108026200D01*
X104016160Y-108026200D02*
X103920922Y-107930961D01*
X103920922Y-107930961D02*
X103873303Y-107835723D01*
X103873303Y-107835723D02*
X103825684Y-107645247D01*
X103825684Y-107645247D02*
X103825684Y-107502390D01*
X103825684Y-107502390D02*
X103873303Y-107311914D01*
X103873303Y-107311914D02*
X103920922Y-107216676D01*
X103920922Y-107216676D02*
X104016160Y-107121438D01*
X104016160Y-107121438D02*
X104159017Y-107073819D01*
X104159017Y-107073819D02*
X104254255Y-107073819D01*
X104254255Y-107073819D02*
X104397112Y-107121438D01*
X104397112Y-107121438D02*
X104444731Y-107169057D01*
X102583333Y-88866819D02*
X102250000Y-88390628D01*
X102011905Y-88866819D02*
X102011905Y-87866819D01*
X102011905Y-87866819D02*
X102392857Y-87866819D01*
X102392857Y-87866819D02*
X102488095Y-87914438D01*
X102488095Y-87914438D02*
X102535714Y-87962057D01*
X102535714Y-87962057D02*
X102583333Y-88057295D01*
X102583333Y-88057295D02*
X102583333Y-88200152D01*
X102583333Y-88200152D02*
X102535714Y-88295390D01*
X102535714Y-88295390D02*
X102488095Y-88343009D01*
X102488095Y-88343009D02*
X102392857Y-88390628D01*
X102392857Y-88390628D02*
X102011905Y-88390628D01*
X103059524Y-88866819D02*
X103250000Y-88866819D01*
X103250000Y-88866819D02*
X103345238Y-88819200D01*
X103345238Y-88819200D02*
X103392857Y-88771580D01*
X103392857Y-88771580D02*
X103488095Y-88628723D01*
X103488095Y-88628723D02*
X103535714Y-88438247D01*
X103535714Y-88438247D02*
X103535714Y-88057295D01*
X103535714Y-88057295D02*
X103488095Y-87962057D01*
X103488095Y-87962057D02*
X103440476Y-87914438D01*
X103440476Y-87914438D02*
X103345238Y-87866819D01*
X103345238Y-87866819D02*
X103154762Y-87866819D01*
X103154762Y-87866819D02*
X103059524Y-87914438D01*
X103059524Y-87914438D02*
X103011905Y-87962057D01*
X103011905Y-87962057D02*
X102964286Y-88057295D01*
X102964286Y-88057295D02*
X102964286Y-88295390D01*
X102964286Y-88295390D02*
X103011905Y-88390628D01*
X103011905Y-88390628D02*
X103059524Y-88438247D01*
X103059524Y-88438247D02*
X103154762Y-88485866D01*
X103154762Y-88485866D02*
X103345238Y-88485866D01*
X103345238Y-88485866D02*
X103440476Y-88438247D01*
X103440476Y-88438247D02*
X103488095Y-88390628D01*
X103488095Y-88390628D02*
X103535714Y-88295390D01*
X100083333Y-101289580D02*
X100035714Y-101337200D01*
X100035714Y-101337200D02*
X99892857Y-101384819D01*
X99892857Y-101384819D02*
X99797619Y-101384819D01*
X99797619Y-101384819D02*
X99654762Y-101337200D01*
X99654762Y-101337200D02*
X99559524Y-101241961D01*
X99559524Y-101241961D02*
X99511905Y-101146723D01*
X99511905Y-101146723D02*
X99464286Y-100956247D01*
X99464286Y-100956247D02*
X99464286Y-100813390D01*
X99464286Y-100813390D02*
X99511905Y-100622914D01*
X99511905Y-100622914D02*
X99559524Y-100527676D01*
X99559524Y-100527676D02*
X99654762Y-100432438D01*
X99654762Y-100432438D02*
X99797619Y-100384819D01*
X99797619Y-100384819D02*
X99892857Y-100384819D01*
X99892857Y-100384819D02*
X100035714Y-100432438D01*
X100035714Y-100432438D02*
X100083333Y-100480057D01*
X100464286Y-100480057D02*
X100511905Y-100432438D01*
X100511905Y-100432438D02*
X100607143Y-100384819D01*
X100607143Y-100384819D02*
X100845238Y-100384819D01*
X100845238Y-100384819D02*
X100940476Y-100432438D01*
X100940476Y-100432438D02*
X100988095Y-100480057D01*
X100988095Y-100480057D02*
X101035714Y-100575295D01*
X101035714Y-100575295D02*
X101035714Y-100670533D01*
X101035714Y-100670533D02*
X100988095Y-100813390D01*
X100988095Y-100813390D02*
X100416667Y-101384819D01*
X100416667Y-101384819D02*
X101035714Y-101384819D01*
X99408333Y-80609580D02*
X99360714Y-80657200D01*
X99360714Y-80657200D02*
X99217857Y-80704819D01*
X99217857Y-80704819D02*
X99122619Y-80704819D01*
X99122619Y-80704819D02*
X98979762Y-80657200D01*
X98979762Y-80657200D02*
X98884524Y-80561961D01*
X98884524Y-80561961D02*
X98836905Y-80466723D01*
X98836905Y-80466723D02*
X98789286Y-80276247D01*
X98789286Y-80276247D02*
X98789286Y-80133390D01*
X98789286Y-80133390D02*
X98836905Y-79942914D01*
X98836905Y-79942914D02*
X98884524Y-79847676D01*
X98884524Y-79847676D02*
X98979762Y-79752438D01*
X98979762Y-79752438D02*
X99122619Y-79704819D01*
X99122619Y-79704819D02*
X99217857Y-79704819D01*
X99217857Y-79704819D02*
X99360714Y-79752438D01*
X99360714Y-79752438D02*
X99408333Y-79800057D01*
X100265476Y-80038152D02*
X100265476Y-80704819D01*
X100027381Y-79657200D02*
X99789286Y-80371485D01*
X99789286Y-80371485D02*
X100408333Y-80371485D01*
X136483905Y-90370819D02*
X136483905Y-89370819D01*
X136483905Y-89370819D02*
X136722000Y-89370819D01*
X136722000Y-89370819D02*
X136864857Y-89418438D01*
X136864857Y-89418438D02*
X136960095Y-89513676D01*
X136960095Y-89513676D02*
X137007714Y-89608914D01*
X137007714Y-89608914D02*
X137055333Y-89799390D01*
X137055333Y-89799390D02*
X137055333Y-89942247D01*
X137055333Y-89942247D02*
X137007714Y-90132723D01*
X137007714Y-90132723D02*
X136960095Y-90227961D01*
X136960095Y-90227961D02*
X136864857Y-90323200D01*
X136864857Y-90323200D02*
X136722000Y-90370819D01*
X136722000Y-90370819D02*
X136483905Y-90370819D01*
X137912476Y-89370819D02*
X137722000Y-89370819D01*
X137722000Y-89370819D02*
X137626762Y-89418438D01*
X137626762Y-89418438D02*
X137579143Y-89466057D01*
X137579143Y-89466057D02*
X137483905Y-89608914D01*
X137483905Y-89608914D02*
X137436286Y-89799390D01*
X137436286Y-89799390D02*
X137436286Y-90180342D01*
X137436286Y-90180342D02*
X137483905Y-90275580D01*
X137483905Y-90275580D02*
X137531524Y-90323200D01*
X137531524Y-90323200D02*
X137626762Y-90370819D01*
X137626762Y-90370819D02*
X137817238Y-90370819D01*
X137817238Y-90370819D02*
X137912476Y-90323200D01*
X137912476Y-90323200D02*
X137960095Y-90275580D01*
X137960095Y-90275580D02*
X138007714Y-90180342D01*
X138007714Y-90180342D02*
X138007714Y-89942247D01*
X138007714Y-89942247D02*
X137960095Y-89847009D01*
X137960095Y-89847009D02*
X137912476Y-89799390D01*
X137912476Y-89799390D02*
X137817238Y-89751771D01*
X137817238Y-89751771D02*
X137626762Y-89751771D01*
X137626762Y-89751771D02*
X137531524Y-89799390D01*
X137531524Y-89799390D02*
X137483905Y-89847009D01*
X137483905Y-89847009D02*
X137436286Y-89942247D01*
X134540666Y-100927819D02*
X134540666Y-101642104D01*
X134540666Y-101642104D02*
X134493047Y-101784961D01*
X134493047Y-101784961D02*
X134397809Y-101880200D01*
X134397809Y-101880200D02*
X134254952Y-101927819D01*
X134254952Y-101927819D02*
X134159714Y-101927819D01*
X135445428Y-101261152D02*
X135445428Y-101927819D01*
X135207333Y-100880200D02*
X134969238Y-101594485D01*
X134969238Y-101594485D02*
X135588285Y-101594485D01*
X127127095Y-76543819D02*
X127127095Y-77353342D01*
X127127095Y-77353342D02*
X127174714Y-77448580D01*
X127174714Y-77448580D02*
X127222333Y-77496200D01*
X127222333Y-77496200D02*
X127317571Y-77543819D01*
X127317571Y-77543819D02*
X127508047Y-77543819D01*
X127508047Y-77543819D02*
X127603285Y-77496200D01*
X127603285Y-77496200D02*
X127650904Y-77448580D01*
X127650904Y-77448580D02*
X127698523Y-77353342D01*
X127698523Y-77353342D02*
X127698523Y-76543819D01*
X128127095Y-76639057D02*
X128174714Y-76591438D01*
X128174714Y-76591438D02*
X128269952Y-76543819D01*
X128269952Y-76543819D02*
X128508047Y-76543819D01*
X128508047Y-76543819D02*
X128603285Y-76591438D01*
X128603285Y-76591438D02*
X128650904Y-76639057D01*
X128650904Y-76639057D02*
X128698523Y-76734295D01*
X128698523Y-76734295D02*
X128698523Y-76829533D01*
X128698523Y-76829533D02*
X128650904Y-76972390D01*
X128650904Y-76972390D02*
X128079476Y-77543819D01*
X128079476Y-77543819D02*
X128698523Y-77543819D01*
X106833333Y-94954819D02*
X106500000Y-94478628D01*
X106261905Y-94954819D02*
X106261905Y-93954819D01*
X106261905Y-93954819D02*
X106642857Y-93954819D01*
X106642857Y-93954819D02*
X106738095Y-94002438D01*
X106738095Y-94002438D02*
X106785714Y-94050057D01*
X106785714Y-94050057D02*
X106833333Y-94145295D01*
X106833333Y-94145295D02*
X106833333Y-94288152D01*
X106833333Y-94288152D02*
X106785714Y-94383390D01*
X106785714Y-94383390D02*
X106738095Y-94431009D01*
X106738095Y-94431009D02*
X106642857Y-94478628D01*
X106642857Y-94478628D02*
X106261905Y-94478628D01*
X107214286Y-94050057D02*
X107261905Y-94002438D01*
X107261905Y-94002438D02*
X107357143Y-93954819D01*
X107357143Y-93954819D02*
X107595238Y-93954819D01*
X107595238Y-93954819D02*
X107690476Y-94002438D01*
X107690476Y-94002438D02*
X107738095Y-94050057D01*
X107738095Y-94050057D02*
X107785714Y-94145295D01*
X107785714Y-94145295D02*
X107785714Y-94240533D01*
X107785714Y-94240533D02*
X107738095Y-94383390D01*
X107738095Y-94383390D02*
X107166667Y-94954819D01*
X107166667Y-94954819D02*
X107785714Y-94954819D01*
X133756095Y-79028819D02*
X133756095Y-79838342D01*
X133756095Y-79838342D02*
X133803714Y-79933580D01*
X133803714Y-79933580D02*
X133851333Y-79981200D01*
X133851333Y-79981200D02*
X133946571Y-80028819D01*
X133946571Y-80028819D02*
X134137047Y-80028819D01*
X134137047Y-80028819D02*
X134232285Y-79981200D01*
X134232285Y-79981200D02*
X134279904Y-79933580D01*
X134279904Y-79933580D02*
X134327523Y-79838342D01*
X134327523Y-79838342D02*
X134327523Y-79028819D01*
X135232285Y-79362152D02*
X135232285Y-80028819D01*
X134994190Y-78981200D02*
X134756095Y-79695485D01*
X134756095Y-79695485D02*
X135375142Y-79695485D01*
X105529142Y-86974819D02*
X105195809Y-86498628D01*
X104957714Y-86974819D02*
X104957714Y-85974819D01*
X104957714Y-85974819D02*
X105338666Y-85974819D01*
X105338666Y-85974819D02*
X105433904Y-86022438D01*
X105433904Y-86022438D02*
X105481523Y-86070057D01*
X105481523Y-86070057D02*
X105529142Y-86165295D01*
X105529142Y-86165295D02*
X105529142Y-86308152D01*
X105529142Y-86308152D02*
X105481523Y-86403390D01*
X105481523Y-86403390D02*
X105433904Y-86451009D01*
X105433904Y-86451009D02*
X105338666Y-86498628D01*
X105338666Y-86498628D02*
X104957714Y-86498628D01*
X106481523Y-86974819D02*
X105910095Y-86974819D01*
X106195809Y-86974819D02*
X106195809Y-85974819D01*
X106195809Y-85974819D02*
X106100571Y-86117676D01*
X106100571Y-86117676D02*
X106005333Y-86212914D01*
X106005333Y-86212914D02*
X105910095Y-86260533D01*
X107338666Y-85974819D02*
X107148190Y-85974819D01*
X107148190Y-85974819D02*
X107052952Y-86022438D01*
X107052952Y-86022438D02*
X107005333Y-86070057D01*
X107005333Y-86070057D02*
X106910095Y-86212914D01*
X106910095Y-86212914D02*
X106862476Y-86403390D01*
X106862476Y-86403390D02*
X106862476Y-86784342D01*
X106862476Y-86784342D02*
X106910095Y-86879580D01*
X106910095Y-86879580D02*
X106957714Y-86927200D01*
X106957714Y-86927200D02*
X107052952Y-86974819D01*
X107052952Y-86974819D02*
X107243428Y-86974819D01*
X107243428Y-86974819D02*
X107338666Y-86927200D01*
X107338666Y-86927200D02*
X107386285Y-86879580D01*
X107386285Y-86879580D02*
X107433904Y-86784342D01*
X107433904Y-86784342D02*
X107433904Y-86546247D01*
X107433904Y-86546247D02*
X107386285Y-86451009D01*
X107386285Y-86451009D02*
X107338666Y-86403390D01*
X107338666Y-86403390D02*
X107243428Y-86355771D01*
X107243428Y-86355771D02*
X107052952Y-86355771D01*
X107052952Y-86355771D02*
X106957714Y-86403390D01*
X106957714Y-86403390D02*
X106910095Y-86451009D01*
X106910095Y-86451009D02*
X106862476Y-86546247D01*
X124957142Y-98454819D02*
X124623809Y-97978628D01*
X124385714Y-98454819D02*
X124385714Y-97454819D01*
X124385714Y-97454819D02*
X124766666Y-97454819D01*
X124766666Y-97454819D02*
X124861904Y-97502438D01*
X124861904Y-97502438D02*
X124909523Y-97550057D01*
X124909523Y-97550057D02*
X124957142Y-97645295D01*
X124957142Y-97645295D02*
X124957142Y-97788152D01*
X124957142Y-97788152D02*
X124909523Y-97883390D01*
X124909523Y-97883390D02*
X124861904Y-97931009D01*
X124861904Y-97931009D02*
X124766666Y-97978628D01*
X124766666Y-97978628D02*
X124385714Y-97978628D01*
X125909523Y-98454819D02*
X125338095Y-98454819D01*
X125623809Y-98454819D02*
X125623809Y-97454819D01*
X125623809Y-97454819D02*
X125528571Y-97597676D01*
X125528571Y-97597676D02*
X125433333Y-97692914D01*
X125433333Y-97692914D02*
X125338095Y-97740533D01*
X126242857Y-97454819D02*
X126861904Y-97454819D01*
X126861904Y-97454819D02*
X126528571Y-97835771D01*
X126528571Y-97835771D02*
X126671428Y-97835771D01*
X126671428Y-97835771D02*
X126766666Y-97883390D01*
X126766666Y-97883390D02*
X126814285Y-97931009D01*
X126814285Y-97931009D02*
X126861904Y-98026247D01*
X126861904Y-98026247D02*
X126861904Y-98264342D01*
X126861904Y-98264342D02*
X126814285Y-98359580D01*
X126814285Y-98359580D02*
X126766666Y-98407200D01*
X126766666Y-98407200D02*
X126671428Y-98454819D01*
X126671428Y-98454819D02*
X126385714Y-98454819D01*
X126385714Y-98454819D02*
X126290476Y-98407200D01*
X126290476Y-98407200D02*
X126242857Y-98359580D01*
X100583333Y-88866819D02*
X100250000Y-88390628D01*
X100011905Y-88866819D02*
X100011905Y-87866819D01*
X100011905Y-87866819D02*
X100392857Y-87866819D01*
X100392857Y-87866819D02*
X100488095Y-87914438D01*
X100488095Y-87914438D02*
X100535714Y-87962057D01*
X100535714Y-87962057D02*
X100583333Y-88057295D01*
X100583333Y-88057295D02*
X100583333Y-88200152D01*
X100583333Y-88200152D02*
X100535714Y-88295390D01*
X100535714Y-88295390D02*
X100488095Y-88343009D01*
X100488095Y-88343009D02*
X100392857Y-88390628D01*
X100392857Y-88390628D02*
X100011905Y-88390628D01*
X101440476Y-88200152D02*
X101440476Y-88866819D01*
X101202381Y-87819200D02*
X100964286Y-88533485D01*
X100964286Y-88533485D02*
X101583333Y-88533485D01*
X99408333Y-79109580D02*
X99360714Y-79157200D01*
X99360714Y-79157200D02*
X99217857Y-79204819D01*
X99217857Y-79204819D02*
X99122619Y-79204819D01*
X99122619Y-79204819D02*
X98979762Y-79157200D01*
X98979762Y-79157200D02*
X98884524Y-79061961D01*
X98884524Y-79061961D02*
X98836905Y-78966723D01*
X98836905Y-78966723D02*
X98789286Y-78776247D01*
X98789286Y-78776247D02*
X98789286Y-78633390D01*
X98789286Y-78633390D02*
X98836905Y-78442914D01*
X98836905Y-78442914D02*
X98884524Y-78347676D01*
X98884524Y-78347676D02*
X98979762Y-78252438D01*
X98979762Y-78252438D02*
X99122619Y-78204819D01*
X99122619Y-78204819D02*
X99217857Y-78204819D01*
X99217857Y-78204819D02*
X99360714Y-78252438D01*
X99360714Y-78252438D02*
X99408333Y-78300057D01*
X100313095Y-78204819D02*
X99836905Y-78204819D01*
X99836905Y-78204819D02*
X99789286Y-78681009D01*
X99789286Y-78681009D02*
X99836905Y-78633390D01*
X99836905Y-78633390D02*
X99932143Y-78585771D01*
X99932143Y-78585771D02*
X100170238Y-78585771D01*
X100170238Y-78585771D02*
X100265476Y-78633390D01*
X100265476Y-78633390D02*
X100313095Y-78681009D01*
X100313095Y-78681009D02*
X100360714Y-78776247D01*
X100360714Y-78776247D02*
X100360714Y-79014342D01*
X100360714Y-79014342D02*
X100313095Y-79109580D01*
X100313095Y-79109580D02*
X100265476Y-79157200D01*
X100265476Y-79157200D02*
X100170238Y-79204819D01*
X100170238Y-79204819D02*
X99932143Y-79204819D01*
X99932143Y-79204819D02*
X99836905Y-79157200D01*
X99836905Y-79157200D02*
X99789286Y-79109580D01*
X95166666Y-85704819D02*
X95166666Y-86419104D01*
X95166666Y-86419104D02*
X95119047Y-86561961D01*
X95119047Y-86561961D02*
X95023809Y-86657200D01*
X95023809Y-86657200D02*
X94880952Y-86704819D01*
X94880952Y-86704819D02*
X94785714Y-86704819D01*
X95642857Y-86704819D02*
X95642857Y-85704819D01*
X95642857Y-85704819D02*
X96023809Y-85704819D01*
X96023809Y-85704819D02*
X96119047Y-85752438D01*
X96119047Y-85752438D02*
X96166666Y-85800057D01*
X96166666Y-85800057D02*
X96214285Y-85895295D01*
X96214285Y-85895295D02*
X96214285Y-86038152D01*
X96214285Y-86038152D02*
X96166666Y-86133390D01*
X96166666Y-86133390D02*
X96119047Y-86181009D01*
X96119047Y-86181009D02*
X96023809Y-86228628D01*
X96023809Y-86228628D02*
X95642857Y-86228628D01*
X96595238Y-85800057D02*
X96642857Y-85752438D01*
X96642857Y-85752438D02*
X96738095Y-85704819D01*
X96738095Y-85704819D02*
X96976190Y-85704819D01*
X96976190Y-85704819D02*
X97071428Y-85752438D01*
X97071428Y-85752438D02*
X97119047Y-85800057D01*
X97119047Y-85800057D02*
X97166666Y-85895295D01*
X97166666Y-85895295D02*
X97166666Y-85990533D01*
X97166666Y-85990533D02*
X97119047Y-86133390D01*
X97119047Y-86133390D02*
X96547619Y-86704819D01*
X96547619Y-86704819D02*
X97166666Y-86704819D01*
X95454819Y-87683332D02*
X95454819Y-87064285D01*
X95454819Y-87064285D02*
X95835771Y-87397618D01*
X95835771Y-87397618D02*
X95835771Y-87254761D01*
X95835771Y-87254761D02*
X95883390Y-87159523D01*
X95883390Y-87159523D02*
X95931009Y-87111904D01*
X95931009Y-87111904D02*
X96026247Y-87064285D01*
X96026247Y-87064285D02*
X96264342Y-87064285D01*
X96264342Y-87064285D02*
X96359580Y-87111904D01*
X96359580Y-87111904D02*
X96407200Y-87159523D01*
X96407200Y-87159523D02*
X96454819Y-87254761D01*
X96454819Y-87254761D02*
X96454819Y-87540475D01*
X96454819Y-87540475D02*
X96407200Y-87635713D01*
X96407200Y-87635713D02*
X96359580Y-87683332D01*
X96454819Y-93814285D02*
X96454819Y-94385713D01*
X96454819Y-94099999D02*
X95454819Y-94099999D01*
X95454819Y-94099999D02*
X95597676Y-94195237D01*
X95597676Y-94195237D02*
X95692914Y-94290475D01*
X95692914Y-94290475D02*
X95740533Y-94385713D01*
X98016666Y-85704819D02*
X98016666Y-86419104D01*
X98016666Y-86419104D02*
X97969047Y-86561961D01*
X97969047Y-86561961D02*
X97873809Y-86657200D01*
X97873809Y-86657200D02*
X97730952Y-86704819D01*
X97730952Y-86704819D02*
X97635714Y-86704819D01*
X98492857Y-86704819D02*
X98492857Y-85704819D01*
X98492857Y-85704819D02*
X98873809Y-85704819D01*
X98873809Y-85704819D02*
X98969047Y-85752438D01*
X98969047Y-85752438D02*
X99016666Y-85800057D01*
X99016666Y-85800057D02*
X99064285Y-85895295D01*
X99064285Y-85895295D02*
X99064285Y-86038152D01*
X99064285Y-86038152D02*
X99016666Y-86133390D01*
X99016666Y-86133390D02*
X98969047Y-86181009D01*
X98969047Y-86181009D02*
X98873809Y-86228628D01*
X98873809Y-86228628D02*
X98492857Y-86228628D01*
X100016666Y-86704819D02*
X99445238Y-86704819D01*
X99730952Y-86704819D02*
X99730952Y-85704819D01*
X99730952Y-85704819D02*
X99635714Y-85847676D01*
X99635714Y-85847676D02*
X99540476Y-85942914D01*
X99540476Y-85942914D02*
X99445238Y-85990533D01*
X99304819Y-93814285D02*
X99304819Y-94385713D01*
X99304819Y-94099999D02*
X98304819Y-94099999D01*
X98304819Y-94099999D02*
X98447676Y-94195237D01*
X98447676Y-94195237D02*
X98542914Y-94290475D01*
X98542914Y-94290475D02*
X98590533Y-94385713D01*
X98304819Y-87683332D02*
X98304819Y-87064285D01*
X98304819Y-87064285D02*
X98685771Y-87397618D01*
X98685771Y-87397618D02*
X98685771Y-87254761D01*
X98685771Y-87254761D02*
X98733390Y-87159523D01*
X98733390Y-87159523D02*
X98781009Y-87111904D01*
X98781009Y-87111904D02*
X98876247Y-87064285D01*
X98876247Y-87064285D02*
X99114342Y-87064285D01*
X99114342Y-87064285D02*
X99209580Y-87111904D01*
X99209580Y-87111904D02*
X99257200Y-87159523D01*
X99257200Y-87159523D02*
X99304819Y-87254761D01*
X99304819Y-87254761D02*
X99304819Y-87540475D01*
X99304819Y-87540475D02*
X99257200Y-87635713D01*
X99257200Y-87635713D02*
X99209580Y-87683332D01*
X127461905Y-95254819D02*
X127461905Y-94254819D01*
X127461905Y-94254819D02*
X127700000Y-94254819D01*
X127700000Y-94254819D02*
X127842857Y-94302438D01*
X127842857Y-94302438D02*
X127938095Y-94397676D01*
X127938095Y-94397676D02*
X127985714Y-94492914D01*
X127985714Y-94492914D02*
X128033333Y-94683390D01*
X128033333Y-94683390D02*
X128033333Y-94826247D01*
X128033333Y-94826247D02*
X127985714Y-95016723D01*
X127985714Y-95016723D02*
X127938095Y-95111961D01*
X127938095Y-95111961D02*
X127842857Y-95207200D01*
X127842857Y-95207200D02*
X127700000Y-95254819D01*
X127700000Y-95254819D02*
X127461905Y-95254819D01*
X128414286Y-94350057D02*
X128461905Y-94302438D01*
X128461905Y-94302438D02*
X128557143Y-94254819D01*
X128557143Y-94254819D02*
X128795238Y-94254819D01*
X128795238Y-94254819D02*
X128890476Y-94302438D01*
X128890476Y-94302438D02*
X128938095Y-94350057D01*
X128938095Y-94350057D02*
X128985714Y-94445295D01*
X128985714Y-94445295D02*
X128985714Y-94540533D01*
X128985714Y-94540533D02*
X128938095Y-94683390D01*
X128938095Y-94683390D02*
X128366667Y-95254819D01*
X128366667Y-95254819D02*
X128985714Y-95254819D01*
X118357142Y-96854819D02*
X118023809Y-96378628D01*
X117785714Y-96854819D02*
X117785714Y-95854819D01*
X117785714Y-95854819D02*
X118166666Y-95854819D01*
X118166666Y-95854819D02*
X118261904Y-95902438D01*
X118261904Y-95902438D02*
X118309523Y-95950057D01*
X118309523Y-95950057D02*
X118357142Y-96045295D01*
X118357142Y-96045295D02*
X118357142Y-96188152D01*
X118357142Y-96188152D02*
X118309523Y-96283390D01*
X118309523Y-96283390D02*
X118261904Y-96331009D01*
X118261904Y-96331009D02*
X118166666Y-96378628D01*
X118166666Y-96378628D02*
X117785714Y-96378628D01*
X119309523Y-96854819D02*
X118738095Y-96854819D01*
X119023809Y-96854819D02*
X119023809Y-95854819D01*
X119023809Y-95854819D02*
X118928571Y-95997676D01*
X118928571Y-95997676D02*
X118833333Y-96092914D01*
X118833333Y-96092914D02*
X118738095Y-96140533D01*
X119690476Y-95950057D02*
X119738095Y-95902438D01*
X119738095Y-95902438D02*
X119833333Y-95854819D01*
X119833333Y-95854819D02*
X120071428Y-95854819D01*
X120071428Y-95854819D02*
X120166666Y-95902438D01*
X120166666Y-95902438D02*
X120214285Y-95950057D01*
X120214285Y-95950057D02*
X120261904Y-96045295D01*
X120261904Y-96045295D02*
X120261904Y-96140533D01*
X120261904Y-96140533D02*
X120214285Y-96283390D01*
X120214285Y-96283390D02*
X119642857Y-96854819D01*
X119642857Y-96854819D02*
X120261904Y-96854819D01*
X132000666Y-100927819D02*
X132000666Y-101642104D01*
X132000666Y-101642104D02*
X131953047Y-101784961D01*
X131953047Y-101784961D02*
X131857809Y-101880200D01*
X131857809Y-101880200D02*
X131714952Y-101927819D01*
X131714952Y-101927819D02*
X131619714Y-101927819D01*
X132953047Y-100927819D02*
X132476857Y-100927819D01*
X132476857Y-100927819D02*
X132429238Y-101404009D01*
X132429238Y-101404009D02*
X132476857Y-101356390D01*
X132476857Y-101356390D02*
X132572095Y-101308771D01*
X132572095Y-101308771D02*
X132810190Y-101308771D01*
X132810190Y-101308771D02*
X132905428Y-101356390D01*
X132905428Y-101356390D02*
X132953047Y-101404009D01*
X132953047Y-101404009D02*
X133000666Y-101499247D01*
X133000666Y-101499247D02*
X133000666Y-101737342D01*
X133000666Y-101737342D02*
X132953047Y-101832580D01*
X132953047Y-101832580D02*
X132905428Y-101880200D01*
X132905428Y-101880200D02*
X132810190Y-101927819D01*
X132810190Y-101927819D02*
X132572095Y-101927819D01*
X132572095Y-101927819D02*
X132476857Y-101880200D01*
X132476857Y-101880200D02*
X132429238Y-101832580D01*
X132154819Y-93742857D02*
X131678628Y-94076190D01*
X132154819Y-94314285D02*
X131154819Y-94314285D01*
X131154819Y-94314285D02*
X131154819Y-93933333D01*
X131154819Y-93933333D02*
X131202438Y-93838095D01*
X131202438Y-93838095D02*
X131250057Y-93790476D01*
X131250057Y-93790476D02*
X131345295Y-93742857D01*
X131345295Y-93742857D02*
X131488152Y-93742857D01*
X131488152Y-93742857D02*
X131583390Y-93790476D01*
X131583390Y-93790476D02*
X131631009Y-93838095D01*
X131631009Y-93838095D02*
X131678628Y-93933333D01*
X131678628Y-93933333D02*
X131678628Y-94314285D01*
X132154819Y-92790476D02*
X132154819Y-93361904D01*
X132154819Y-93076190D02*
X131154819Y-93076190D01*
X131154819Y-93076190D02*
X131297676Y-93171428D01*
X131297676Y-93171428D02*
X131392914Y-93266666D01*
X131392914Y-93266666D02*
X131440533Y-93361904D01*
X131154819Y-92171428D02*
X131154819Y-92076190D01*
X131154819Y-92076190D02*
X131202438Y-91980952D01*
X131202438Y-91980952D02*
X131250057Y-91933333D01*
X131250057Y-91933333D02*
X131345295Y-91885714D01*
X131345295Y-91885714D02*
X131535771Y-91838095D01*
X131535771Y-91838095D02*
X131773866Y-91838095D01*
X131773866Y-91838095D02*
X131964342Y-91885714D01*
X131964342Y-91885714D02*
X132059580Y-91933333D01*
X132059580Y-91933333D02*
X132107200Y-91980952D01*
X132107200Y-91980952D02*
X132154819Y-92076190D01*
X132154819Y-92076190D02*
X132154819Y-92171428D01*
X132154819Y-92171428D02*
X132107200Y-92266666D01*
X132107200Y-92266666D02*
X132059580Y-92314285D01*
X132059580Y-92314285D02*
X131964342Y-92361904D01*
X131964342Y-92361904D02*
X131773866Y-92409523D01*
X131773866Y-92409523D02*
X131535771Y-92409523D01*
X131535771Y-92409523D02*
X131345295Y-92361904D01*
X131345295Y-92361904D02*
X131250057Y-92314285D01*
X131250057Y-92314285D02*
X131202438Y-92266666D01*
X131202438Y-92266666D02*
X131154819Y-92171428D01*
X129137580Y-88431666D02*
X129185200Y-88479285D01*
X129185200Y-88479285D02*
X129232819Y-88622142D01*
X129232819Y-88622142D02*
X129232819Y-88717380D01*
X129232819Y-88717380D02*
X129185200Y-88860237D01*
X129185200Y-88860237D02*
X129089961Y-88955475D01*
X129089961Y-88955475D02*
X128994723Y-89003094D01*
X128994723Y-89003094D02*
X128804247Y-89050713D01*
X128804247Y-89050713D02*
X128661390Y-89050713D01*
X128661390Y-89050713D02*
X128470914Y-89003094D01*
X128470914Y-89003094D02*
X128375676Y-88955475D01*
X128375676Y-88955475D02*
X128280438Y-88860237D01*
X128280438Y-88860237D02*
X128232819Y-88717380D01*
X128232819Y-88717380D02*
X128232819Y-88622142D01*
X128232819Y-88622142D02*
X128280438Y-88479285D01*
X128280438Y-88479285D02*
X128328057Y-88431666D01*
X128232819Y-88098332D02*
X128232819Y-87431666D01*
X128232819Y-87431666D02*
X129232819Y-87860237D01*
X102583333Y-87592819D02*
X102250000Y-87116628D01*
X102011905Y-87592819D02*
X102011905Y-86592819D01*
X102011905Y-86592819D02*
X102392857Y-86592819D01*
X102392857Y-86592819D02*
X102488095Y-86640438D01*
X102488095Y-86640438D02*
X102535714Y-86688057D01*
X102535714Y-86688057D02*
X102583333Y-86783295D01*
X102583333Y-86783295D02*
X102583333Y-86926152D01*
X102583333Y-86926152D02*
X102535714Y-87021390D01*
X102535714Y-87021390D02*
X102488095Y-87069009D01*
X102488095Y-87069009D02*
X102392857Y-87116628D01*
X102392857Y-87116628D02*
X102011905Y-87116628D01*
X103488095Y-86592819D02*
X103011905Y-86592819D01*
X103011905Y-86592819D02*
X102964286Y-87069009D01*
X102964286Y-87069009D02*
X103011905Y-87021390D01*
X103011905Y-87021390D02*
X103107143Y-86973771D01*
X103107143Y-86973771D02*
X103345238Y-86973771D01*
X103345238Y-86973771D02*
X103440476Y-87021390D01*
X103440476Y-87021390D02*
X103488095Y-87069009D01*
X103488095Y-87069009D02*
X103535714Y-87164247D01*
X103535714Y-87164247D02*
X103535714Y-87402342D01*
X103535714Y-87402342D02*
X103488095Y-87497580D01*
X103488095Y-87497580D02*
X103440476Y-87545200D01*
X103440476Y-87545200D02*
X103345238Y-87592819D01*
X103345238Y-87592819D02*
X103107143Y-87592819D01*
X103107143Y-87592819D02*
X103011905Y-87545200D01*
X103011905Y-87545200D02*
X102964286Y-87497580D01*
X94988095Y-97204819D02*
X94988095Y-98014342D01*
X94988095Y-98014342D02*
X95035714Y-98109580D01*
X95035714Y-98109580D02*
X95083333Y-98157200D01*
X95083333Y-98157200D02*
X95178571Y-98204819D01*
X95178571Y-98204819D02*
X95369047Y-98204819D01*
X95369047Y-98204819D02*
X95464285Y-98157200D01*
X95464285Y-98157200D02*
X95511904Y-98109580D01*
X95511904Y-98109580D02*
X95559523Y-98014342D01*
X95559523Y-98014342D02*
X95559523Y-97204819D01*
X96559523Y-98204819D02*
X95988095Y-98204819D01*
X96273809Y-98204819D02*
X96273809Y-97204819D01*
X96273809Y-97204819D02*
X96178571Y-97347676D01*
X96178571Y-97347676D02*
X96083333Y-97442914D01*
X96083333Y-97442914D02*
X95988095Y-97490533D01*
X104753580Y-99226666D02*
X104801200Y-99274285D01*
X104801200Y-99274285D02*
X104848819Y-99417142D01*
X104848819Y-99417142D02*
X104848819Y-99512380D01*
X104848819Y-99512380D02*
X104801200Y-99655237D01*
X104801200Y-99655237D02*
X104705961Y-99750475D01*
X104705961Y-99750475D02*
X104610723Y-99798094D01*
X104610723Y-99798094D02*
X104420247Y-99845713D01*
X104420247Y-99845713D02*
X104277390Y-99845713D01*
X104277390Y-99845713D02*
X104086914Y-99798094D01*
X104086914Y-99798094D02*
X103991676Y-99750475D01*
X103991676Y-99750475D02*
X103896438Y-99655237D01*
X103896438Y-99655237D02*
X103848819Y-99512380D01*
X103848819Y-99512380D02*
X103848819Y-99417142D01*
X103848819Y-99417142D02*
X103896438Y-99274285D01*
X103896438Y-99274285D02*
X103944057Y-99226666D01*
X104848819Y-98274285D02*
X104848819Y-98845713D01*
X104848819Y-98559999D02*
X103848819Y-98559999D01*
X103848819Y-98559999D02*
X103991676Y-98655237D01*
X103991676Y-98655237D02*
X104086914Y-98750475D01*
X104086914Y-98750475D02*
X104134533Y-98845713D01*
X130678498Y-93742857D02*
X130202307Y-94076190D01*
X130678498Y-94314285D02*
X129678498Y-94314285D01*
X129678498Y-94314285D02*
X129678498Y-93933333D01*
X129678498Y-93933333D02*
X129726117Y-93838095D01*
X129726117Y-93838095D02*
X129773736Y-93790476D01*
X129773736Y-93790476D02*
X129868974Y-93742857D01*
X129868974Y-93742857D02*
X130011831Y-93742857D01*
X130011831Y-93742857D02*
X130107069Y-93790476D01*
X130107069Y-93790476D02*
X130154688Y-93838095D01*
X130154688Y-93838095D02*
X130202307Y-93933333D01*
X130202307Y-93933333D02*
X130202307Y-94314285D01*
X130678498Y-92790476D02*
X130678498Y-93361904D01*
X130678498Y-93076190D02*
X129678498Y-93076190D01*
X129678498Y-93076190D02*
X129821355Y-93171428D01*
X129821355Y-93171428D02*
X129916593Y-93266666D01*
X129916593Y-93266666D02*
X129964212Y-93361904D01*
X130678498Y-91838095D02*
X130678498Y-92409523D01*
X130678498Y-92123809D02*
X129678498Y-92123809D01*
X129678498Y-92123809D02*
X129821355Y-92219047D01*
X129821355Y-92219047D02*
X129916593Y-92314285D01*
X129916593Y-92314285D02*
X129964212Y-92409523D01*
X133564333Y-90148580D02*
X133516714Y-90196200D01*
X133516714Y-90196200D02*
X133373857Y-90243819D01*
X133373857Y-90243819D02*
X133278619Y-90243819D01*
X133278619Y-90243819D02*
X133135762Y-90196200D01*
X133135762Y-90196200D02*
X133040524Y-90100961D01*
X133040524Y-90100961D02*
X132992905Y-90005723D01*
X132992905Y-90005723D02*
X132945286Y-89815247D01*
X132945286Y-89815247D02*
X132945286Y-89672390D01*
X132945286Y-89672390D02*
X132992905Y-89481914D01*
X132992905Y-89481914D02*
X133040524Y-89386676D01*
X133040524Y-89386676D02*
X133135762Y-89291438D01*
X133135762Y-89291438D02*
X133278619Y-89243819D01*
X133278619Y-89243819D02*
X133373857Y-89243819D01*
X133373857Y-89243819D02*
X133516714Y-89291438D01*
X133516714Y-89291438D02*
X133564333Y-89339057D01*
X134421476Y-89243819D02*
X134231000Y-89243819D01*
X134231000Y-89243819D02*
X134135762Y-89291438D01*
X134135762Y-89291438D02*
X134088143Y-89339057D01*
X134088143Y-89339057D02*
X133992905Y-89481914D01*
X133992905Y-89481914D02*
X133945286Y-89672390D01*
X133945286Y-89672390D02*
X133945286Y-90053342D01*
X133945286Y-90053342D02*
X133992905Y-90148580D01*
X133992905Y-90148580D02*
X134040524Y-90196200D01*
X134040524Y-90196200D02*
X134135762Y-90243819D01*
X134135762Y-90243819D02*
X134326238Y-90243819D01*
X134326238Y-90243819D02*
X134421476Y-90196200D01*
X134421476Y-90196200D02*
X134469095Y-90148580D01*
X134469095Y-90148580D02*
X134516714Y-90053342D01*
X134516714Y-90053342D02*
X134516714Y-89815247D01*
X134516714Y-89815247D02*
X134469095Y-89720009D01*
X134469095Y-89720009D02*
X134421476Y-89672390D01*
X134421476Y-89672390D02*
X134326238Y-89624771D01*
X134326238Y-89624771D02*
X134135762Y-89624771D01*
X134135762Y-89624771D02*
X134040524Y-89672390D01*
X134040524Y-89672390D02*
X133992905Y-89720009D01*
X133992905Y-89720009D02*
X133945286Y-89815247D01*
X101941333Y-83925580D02*
X101893714Y-83973200D01*
X101893714Y-83973200D02*
X101750857Y-84020819D01*
X101750857Y-84020819D02*
X101655619Y-84020819D01*
X101655619Y-84020819D02*
X101512762Y-83973200D01*
X101512762Y-83973200D02*
X101417524Y-83877961D01*
X101417524Y-83877961D02*
X101369905Y-83782723D01*
X101369905Y-83782723D02*
X101322286Y-83592247D01*
X101322286Y-83592247D02*
X101322286Y-83449390D01*
X101322286Y-83449390D02*
X101369905Y-83258914D01*
X101369905Y-83258914D02*
X101417524Y-83163676D01*
X101417524Y-83163676D02*
X101512762Y-83068438D01*
X101512762Y-83068438D02*
X101655619Y-83020819D01*
X101655619Y-83020819D02*
X101750857Y-83020819D01*
X101750857Y-83020819D02*
X101893714Y-83068438D01*
X101893714Y-83068438D02*
X101941333Y-83116057D01*
X102274667Y-83020819D02*
X102893714Y-83020819D01*
X102893714Y-83020819D02*
X102560381Y-83401771D01*
X102560381Y-83401771D02*
X102703238Y-83401771D01*
X102703238Y-83401771D02*
X102798476Y-83449390D01*
X102798476Y-83449390D02*
X102846095Y-83497009D01*
X102846095Y-83497009D02*
X102893714Y-83592247D01*
X102893714Y-83592247D02*
X102893714Y-83830342D01*
X102893714Y-83830342D02*
X102846095Y-83925580D01*
X102846095Y-83925580D02*
X102798476Y-83973200D01*
X102798476Y-83973200D02*
X102703238Y-84020819D01*
X102703238Y-84020819D02*
X102417524Y-84020819D01*
X102417524Y-84020819D02*
X102322286Y-83973200D01*
X102322286Y-83973200D02*
X102274667Y-83925580D01*
X105878333Y-81099819D02*
X105545000Y-80623628D01*
X105306905Y-81099819D02*
X105306905Y-80099819D01*
X105306905Y-80099819D02*
X105687857Y-80099819D01*
X105687857Y-80099819D02*
X105783095Y-80147438D01*
X105783095Y-80147438D02*
X105830714Y-80195057D01*
X105830714Y-80195057D02*
X105878333Y-80290295D01*
X105878333Y-80290295D02*
X105878333Y-80433152D01*
X105878333Y-80433152D02*
X105830714Y-80528390D01*
X105830714Y-80528390D02*
X105783095Y-80576009D01*
X105783095Y-80576009D02*
X105687857Y-80623628D01*
X105687857Y-80623628D02*
X105306905Y-80623628D01*
X106211667Y-80099819D02*
X106878333Y-80099819D01*
X106878333Y-80099819D02*
X106449762Y-81099819D01*
X99401333Y-84147819D02*
X99068000Y-83671628D01*
X98829905Y-84147819D02*
X98829905Y-83147819D01*
X98829905Y-83147819D02*
X99210857Y-83147819D01*
X99210857Y-83147819D02*
X99306095Y-83195438D01*
X99306095Y-83195438D02*
X99353714Y-83243057D01*
X99353714Y-83243057D02*
X99401333Y-83338295D01*
X99401333Y-83338295D02*
X99401333Y-83481152D01*
X99401333Y-83481152D02*
X99353714Y-83576390D01*
X99353714Y-83576390D02*
X99306095Y-83624009D01*
X99306095Y-83624009D02*
X99210857Y-83671628D01*
X99210857Y-83671628D02*
X98829905Y-83671628D01*
X100258476Y-83147819D02*
X100068000Y-83147819D01*
X100068000Y-83147819D02*
X99972762Y-83195438D01*
X99972762Y-83195438D02*
X99925143Y-83243057D01*
X99925143Y-83243057D02*
X99829905Y-83385914D01*
X99829905Y-83385914D02*
X99782286Y-83576390D01*
X99782286Y-83576390D02*
X99782286Y-83957342D01*
X99782286Y-83957342D02*
X99829905Y-84052580D01*
X99829905Y-84052580D02*
X99877524Y-84100200D01*
X99877524Y-84100200D02*
X99972762Y-84147819D01*
X99972762Y-84147819D02*
X100163238Y-84147819D01*
X100163238Y-84147819D02*
X100258476Y-84100200D01*
X100258476Y-84100200D02*
X100306095Y-84052580D01*
X100306095Y-84052580D02*
X100353714Y-83957342D01*
X100353714Y-83957342D02*
X100353714Y-83719247D01*
X100353714Y-83719247D02*
X100306095Y-83624009D01*
X100306095Y-83624009D02*
X100258476Y-83576390D01*
X100258476Y-83576390D02*
X100163238Y-83528771D01*
X100163238Y-83528771D02*
X99972762Y-83528771D01*
X99972762Y-83528771D02*
X99877524Y-83576390D01*
X99877524Y-83576390D02*
X99829905Y-83624009D01*
X99829905Y-83624009D02*
X99782286Y-83719247D01*
X102416666Y-94204819D02*
X102416666Y-94919104D01*
X102416666Y-94919104D02*
X102369047Y-95061961D01*
X102369047Y-95061961D02*
X102273809Y-95157200D01*
X102273809Y-95157200D02*
X102130952Y-95204819D01*
X102130952Y-95204819D02*
X102035714Y-95204819D01*
X102845238Y-94300057D02*
X102892857Y-94252438D01*
X102892857Y-94252438D02*
X102988095Y-94204819D01*
X102988095Y-94204819D02*
X103226190Y-94204819D01*
X103226190Y-94204819D02*
X103321428Y-94252438D01*
X103321428Y-94252438D02*
X103369047Y-94300057D01*
X103369047Y-94300057D02*
X103416666Y-94395295D01*
X103416666Y-94395295D02*
X103416666Y-94490533D01*
X103416666Y-94490533D02*
X103369047Y-94633390D01*
X103369047Y-94633390D02*
X102797619Y-95204819D01*
X102797619Y-95204819D02*
X103416666Y-95204819D01*
X118761905Y-95254819D02*
X118761905Y-94254819D01*
X118761905Y-94254819D02*
X119000000Y-94254819D01*
X119000000Y-94254819D02*
X119142857Y-94302438D01*
X119142857Y-94302438D02*
X119238095Y-94397676D01*
X119238095Y-94397676D02*
X119285714Y-94492914D01*
X119285714Y-94492914D02*
X119333333Y-94683390D01*
X119333333Y-94683390D02*
X119333333Y-94826247D01*
X119333333Y-94826247D02*
X119285714Y-95016723D01*
X119285714Y-95016723D02*
X119238095Y-95111961D01*
X119238095Y-95111961D02*
X119142857Y-95207200D01*
X119142857Y-95207200D02*
X119000000Y-95254819D01*
X119000000Y-95254819D02*
X118761905Y-95254819D01*
X120285714Y-95254819D02*
X119714286Y-95254819D01*
X120000000Y-95254819D02*
X120000000Y-94254819D01*
X120000000Y-94254819D02*
X119904762Y-94397676D01*
X119904762Y-94397676D02*
X119809524Y-94492914D01*
X119809524Y-94492914D02*
X119714286Y-94540533D01*
X129532142Y-100784819D02*
X129198809Y-100308628D01*
X128960714Y-100784819D02*
X128960714Y-99784819D01*
X128960714Y-99784819D02*
X129341666Y-99784819D01*
X129341666Y-99784819D02*
X129436904Y-99832438D01*
X129436904Y-99832438D02*
X129484523Y-99880057D01*
X129484523Y-99880057D02*
X129532142Y-99975295D01*
X129532142Y-99975295D02*
X129532142Y-100118152D01*
X129532142Y-100118152D02*
X129484523Y-100213390D01*
X129484523Y-100213390D02*
X129436904Y-100261009D01*
X129436904Y-100261009D02*
X129341666Y-100308628D01*
X129341666Y-100308628D02*
X128960714Y-100308628D01*
X130484523Y-100784819D02*
X129913095Y-100784819D01*
X130198809Y-100784819D02*
X130198809Y-99784819D01*
X130198809Y-99784819D02*
X130103571Y-99927676D01*
X130103571Y-99927676D02*
X130008333Y-100022914D01*
X130008333Y-100022914D02*
X129913095Y-100070533D01*
X131389285Y-99784819D02*
X130913095Y-99784819D01*
X130913095Y-99784819D02*
X130865476Y-100261009D01*
X130865476Y-100261009D02*
X130913095Y-100213390D01*
X130913095Y-100213390D02*
X131008333Y-100165771D01*
X131008333Y-100165771D02*
X131246428Y-100165771D01*
X131246428Y-100165771D02*
X131341666Y-100213390D01*
X131341666Y-100213390D02*
X131389285Y-100261009D01*
X131389285Y-100261009D02*
X131436904Y-100356247D01*
X131436904Y-100356247D02*
X131436904Y-100594342D01*
X131436904Y-100594342D02*
X131389285Y-100689580D01*
X131389285Y-100689580D02*
X131341666Y-100737200D01*
X131341666Y-100737200D02*
X131246428Y-100784819D01*
X131246428Y-100784819D02*
X131008333Y-100784819D01*
X131008333Y-100784819D02*
X130913095Y-100737200D01*
X130913095Y-100737200D02*
X130865476Y-100689580D01*
X113233333Y-94754819D02*
X112900000Y-94278628D01*
X112661905Y-94754819D02*
X112661905Y-93754819D01*
X112661905Y-93754819D02*
X113042857Y-93754819D01*
X113042857Y-93754819D02*
X113138095Y-93802438D01*
X113138095Y-93802438D02*
X113185714Y-93850057D01*
X113185714Y-93850057D02*
X113233333Y-93945295D01*
X113233333Y-93945295D02*
X113233333Y-94088152D01*
X113233333Y-94088152D02*
X113185714Y-94183390D01*
X113185714Y-94183390D02*
X113138095Y-94231009D01*
X113138095Y-94231009D02*
X113042857Y-94278628D01*
X113042857Y-94278628D02*
X112661905Y-94278628D01*
X114185714Y-94754819D02*
X113614286Y-94754819D01*
X113900000Y-94754819D02*
X113900000Y-93754819D01*
X113900000Y-93754819D02*
X113804762Y-93897676D01*
X113804762Y-93897676D02*
X113709524Y-93992914D01*
X113709524Y-93992914D02*
X113614286Y-94040533D01*
X129232819Y-79668666D02*
X128756628Y-80001999D01*
X129232819Y-80240094D02*
X128232819Y-80240094D01*
X128232819Y-80240094D02*
X128232819Y-79859142D01*
X128232819Y-79859142D02*
X128280438Y-79763904D01*
X128280438Y-79763904D02*
X128328057Y-79716285D01*
X128328057Y-79716285D02*
X128423295Y-79668666D01*
X128423295Y-79668666D02*
X128566152Y-79668666D01*
X128566152Y-79668666D02*
X128661390Y-79716285D01*
X128661390Y-79716285D02*
X128709009Y-79763904D01*
X128709009Y-79763904D02*
X128756628Y-79859142D01*
X128756628Y-79859142D02*
X128756628Y-80240094D01*
X128661390Y-79097237D02*
X128613771Y-79192475D01*
X128613771Y-79192475D02*
X128566152Y-79240094D01*
X128566152Y-79240094D02*
X128470914Y-79287713D01*
X128470914Y-79287713D02*
X128423295Y-79287713D01*
X128423295Y-79287713D02*
X128328057Y-79240094D01*
X128328057Y-79240094D02*
X128280438Y-79192475D01*
X128280438Y-79192475D02*
X128232819Y-79097237D01*
X128232819Y-79097237D02*
X128232819Y-78906761D01*
X128232819Y-78906761D02*
X128280438Y-78811523D01*
X128280438Y-78811523D02*
X128328057Y-78763904D01*
X128328057Y-78763904D02*
X128423295Y-78716285D01*
X128423295Y-78716285D02*
X128470914Y-78716285D01*
X128470914Y-78716285D02*
X128566152Y-78763904D01*
X128566152Y-78763904D02*
X128613771Y-78811523D01*
X128613771Y-78811523D02*
X128661390Y-78906761D01*
X128661390Y-78906761D02*
X128661390Y-79097237D01*
X128661390Y-79097237D02*
X128709009Y-79192475D01*
X128709009Y-79192475D02*
X128756628Y-79240094D01*
X128756628Y-79240094D02*
X128851866Y-79287713D01*
X128851866Y-79287713D02*
X129042342Y-79287713D01*
X129042342Y-79287713D02*
X129137580Y-79240094D01*
X129137580Y-79240094D02*
X129185200Y-79192475D01*
X129185200Y-79192475D02*
X129232819Y-79097237D01*
X129232819Y-79097237D02*
X129232819Y-78906761D01*
X129232819Y-78906761D02*
X129185200Y-78811523D01*
X129185200Y-78811523D02*
X129137580Y-78763904D01*
X129137580Y-78763904D02*
X129042342Y-78716285D01*
X129042342Y-78716285D02*
X128851866Y-78716285D01*
X128851866Y-78716285D02*
X128756628Y-78763904D01*
X128756628Y-78763904D02*
X128709009Y-78811523D01*
X128709009Y-78811523D02*
X128661390Y-78906761D01*
X118357142Y-98654819D02*
X118023809Y-98178628D01*
X117785714Y-98654819D02*
X117785714Y-97654819D01*
X117785714Y-97654819D02*
X118166666Y-97654819D01*
X118166666Y-97654819D02*
X118261904Y-97702438D01*
X118261904Y-97702438D02*
X118309523Y-97750057D01*
X118309523Y-97750057D02*
X118357142Y-97845295D01*
X118357142Y-97845295D02*
X118357142Y-97988152D01*
X118357142Y-97988152D02*
X118309523Y-98083390D01*
X118309523Y-98083390D02*
X118261904Y-98131009D01*
X118261904Y-98131009D02*
X118166666Y-98178628D01*
X118166666Y-98178628D02*
X117785714Y-98178628D01*
X119309523Y-98654819D02*
X118738095Y-98654819D01*
X119023809Y-98654819D02*
X119023809Y-97654819D01*
X119023809Y-97654819D02*
X118928571Y-97797676D01*
X118928571Y-97797676D02*
X118833333Y-97892914D01*
X118833333Y-97892914D02*
X118738095Y-97940533D01*
X120166666Y-97988152D02*
X120166666Y-98654819D01*
X119928571Y-97607200D02*
X119690476Y-98321485D01*
X119690476Y-98321485D02*
X120309523Y-98321485D01*
X118636666Y-99177319D02*
X118636666Y-99891604D01*
X118636666Y-99891604D02*
X118589047Y-100034461D01*
X118589047Y-100034461D02*
X118493809Y-100129700D01*
X118493809Y-100129700D02*
X118350952Y-100177319D01*
X118350952Y-100177319D02*
X118255714Y-100177319D01*
X119017619Y-99177319D02*
X119636666Y-99177319D01*
X119636666Y-99177319D02*
X119303333Y-99558271D01*
X119303333Y-99558271D02*
X119446190Y-99558271D01*
X119446190Y-99558271D02*
X119541428Y-99605890D01*
X119541428Y-99605890D02*
X119589047Y-99653509D01*
X119589047Y-99653509D02*
X119636666Y-99748747D01*
X119636666Y-99748747D02*
X119636666Y-99986842D01*
X119636666Y-99986842D02*
X119589047Y-100082080D01*
X119589047Y-100082080D02*
X119541428Y-100129700D01*
X119541428Y-100129700D02*
X119446190Y-100177319D01*
X119446190Y-100177319D02*
X119160476Y-100177319D01*
X119160476Y-100177319D02*
X119065238Y-100129700D01*
X119065238Y-100129700D02*
X119017619Y-100082080D01*
X100758666Y-101943819D02*
X100758666Y-102658104D01*
X100758666Y-102658104D02*
X100711047Y-102800961D01*
X100711047Y-102800961D02*
X100615809Y-102896200D01*
X100615809Y-102896200D02*
X100472952Y-102943819D01*
X100472952Y-102943819D02*
X100377714Y-102943819D01*
X101758666Y-102943819D02*
X101187238Y-102943819D01*
X101472952Y-102943819D02*
X101472952Y-101943819D01*
X101472952Y-101943819D02*
X101377714Y-102086676D01*
X101377714Y-102086676D02*
X101282476Y-102181914D01*
X101282476Y-102181914D02*
X101187238Y-102229533D01*
X106083333Y-99134819D02*
X105750000Y-98658628D01*
X105511905Y-99134819D02*
X105511905Y-98134819D01*
X105511905Y-98134819D02*
X105892857Y-98134819D01*
X105892857Y-98134819D02*
X105988095Y-98182438D01*
X105988095Y-98182438D02*
X106035714Y-98230057D01*
X106035714Y-98230057D02*
X106083333Y-98325295D01*
X106083333Y-98325295D02*
X106083333Y-98468152D01*
X106083333Y-98468152D02*
X106035714Y-98563390D01*
X106035714Y-98563390D02*
X105988095Y-98611009D01*
X105988095Y-98611009D02*
X105892857Y-98658628D01*
X105892857Y-98658628D02*
X105511905Y-98658628D01*
X106416667Y-98134819D02*
X107035714Y-98134819D01*
X107035714Y-98134819D02*
X106702381Y-98515771D01*
X106702381Y-98515771D02*
X106845238Y-98515771D01*
X106845238Y-98515771D02*
X106940476Y-98563390D01*
X106940476Y-98563390D02*
X106988095Y-98611009D01*
X106988095Y-98611009D02*
X107035714Y-98706247D01*
X107035714Y-98706247D02*
X107035714Y-98944342D01*
X107035714Y-98944342D02*
X106988095Y-99039580D01*
X106988095Y-99039580D02*
X106940476Y-99087200D01*
X106940476Y-99087200D02*
X106845238Y-99134819D01*
X106845238Y-99134819D02*
X106559524Y-99134819D01*
X106559524Y-99134819D02*
X106464286Y-99087200D01*
X106464286Y-99087200D02*
X106416667Y-99039580D01*
D13*
%TO.C,R9*%
X104995276Y-89139500D02*
X105504724Y-89139500D01*
X104995276Y-90184500D02*
X105504724Y-90184500D01*
%TO.C,C2*%
X100396267Y-98990000D02*
X100103733Y-98990000D01*
X100396267Y-100010000D02*
X100103733Y-100010000D01*
%TO.C,C4*%
X102608767Y-81490000D02*
X102316233Y-81490000D01*
X102608767Y-82510000D02*
X102316233Y-82510000D01*
%TO.C,D6*%
X135962000Y-87919000D02*
X135962000Y-89119000D01*
X137922000Y-87919000D02*
X135962000Y-87919000D01*
X137922000Y-89119000D02*
X135962000Y-89119000D01*
%TO.C,J4*%
X135703000Y-90618000D02*
X137033000Y-90618000D01*
X135703000Y-91948000D02*
X135703000Y-90618000D01*
X135703000Y-93218000D02*
X135703000Y-100898000D01*
X135703000Y-93218000D02*
X138363000Y-93218000D01*
X135703000Y-100898000D02*
X138363000Y-100898000D01*
X138363000Y-93218000D02*
X138363000Y-100898000D01*
%TO.C,U2*%
X108640000Y-73290000D02*
X108640000Y-79100000D01*
X108640000Y-73290000D02*
X126860000Y-73290000D01*
X108640000Y-93210000D02*
X108640000Y-93510000D01*
X108640000Y-93510000D02*
X126860000Y-93510000D01*
X126860000Y-73290000D02*
X126860000Y-79790000D01*
X126860000Y-93210000D02*
X126860000Y-93510000D01*
X108650000Y-79800000D02*
X108150000Y-79800000D01*
X108650000Y-79300000D01*
X108650000Y-79800000D01*
G36*
X108650000Y-79800000D02*
G01*
X108150000Y-79800000D01*
X108650000Y-79300000D01*
X108650000Y-79800000D01*
G37*
%TO.C,R2*%
X107254724Y-95227500D02*
X106745276Y-95227500D01*
X107254724Y-96272500D02*
X106745276Y-96272500D01*
%TO.C,U4*%
X132668000Y-80664000D02*
X136428000Y-80664000D01*
X132668000Y-87484000D02*
X136428000Y-87484000D01*
X136428000Y-80664000D02*
X136428000Y-81924000D01*
X136428000Y-87484000D02*
X136428000Y-86224000D01*
X131388000Y-80764000D02*
X131148000Y-80434000D01*
X131628000Y-80434000D01*
X131388000Y-80764000D01*
G36*
X131388000Y-80764000D02*
G01*
X131148000Y-80434000D01*
X131628000Y-80434000D01*
X131388000Y-80764000D01*
G37*
%TO.C,R16*%
X106172724Y-84567500D02*
X105663276Y-84567500D01*
X106172724Y-85612500D02*
X105663276Y-85612500D01*
%TO.C,REF\u002A\u002A*%
X112772936Y-95990000D02*
X114227064Y-95990000D01*
X112772936Y-97810000D02*
X114227064Y-97810000D01*
%TO.C,R13*%
X125345276Y-95877500D02*
X125854724Y-95877500D01*
X125345276Y-96922500D02*
X125854724Y-96922500D01*
%TO.C,R4*%
X102004724Y-89139500D02*
X101495276Y-89139500D01*
X102004724Y-90184500D02*
X101495276Y-90184500D01*
%TO.C,C5*%
X102608767Y-79990000D02*
X102316233Y-79990000D01*
X102608767Y-81010000D02*
X102316233Y-81010000D01*
%TO.C,JP2*%
X95000000Y-88000000D02*
X96950000Y-88000000D01*
X95000000Y-93500000D02*
X95000000Y-88000000D01*
X96950000Y-88000000D02*
X96950000Y-93500000D01*
X96950000Y-93500000D02*
X95000000Y-93500000D01*
%TO.C,JP1*%
X97850000Y-88000000D02*
X99800000Y-88000000D01*
X97850000Y-93500000D02*
X97850000Y-88000000D01*
X99800000Y-88000000D02*
X99800000Y-93500000D01*
X99800000Y-93500000D02*
X97850000Y-93500000D01*
%TO.C,D2*%
X123940000Y-94065000D02*
X123940000Y-95535000D01*
X123940000Y-95535000D02*
X126400000Y-95535000D01*
X126400000Y-94065000D02*
X123940000Y-94065000D01*
%TO.C,R12*%
X121845276Y-95877500D02*
X122354724Y-95877500D01*
X121845276Y-96922500D02*
X122354724Y-96922500D01*
D11*
%TO.C,J5*%
X121910000Y-100500000D02*
G75*
G02*
X121710000Y-100500000I-100000J0D01*
G01*
X121710000Y-100500000D02*
G75*
G02*
X121910000Y-100500000I100000J0D01*
G01*
D13*
%TO.C,R10*%
X131201179Y-96420061D02*
X131201179Y-95910613D01*
X132246179Y-96420061D02*
X132246179Y-95910613D01*
%TO.C,C7*%
X128268000Y-85744267D02*
X128268000Y-85451733D01*
X129288000Y-85744267D02*
X129288000Y-85451733D01*
%TO.C,R5*%
X104995276Y-87615500D02*
X105504724Y-87615500D01*
X104995276Y-88660500D02*
X105504724Y-88660500D01*
%TO.C,U1*%
X100059314Y-95140000D02*
X98559314Y-95140000D01*
X100059314Y-95140000D02*
X101559314Y-95140000D01*
X100059314Y-98360000D02*
X98559314Y-98360000D01*
X100059314Y-98360000D02*
X101559314Y-98360000D01*
X97846814Y-95340000D02*
X97606814Y-95010000D01*
X98086814Y-95010000D01*
X97846814Y-95340000D01*
G36*
X97846814Y-95340000D02*
G01*
X97606814Y-95010000D01*
X98086814Y-95010000D01*
X97846814Y-95340000D01*
G37*
%TO.C,C1*%
X103799314Y-96603733D02*
X103799314Y-96896267D01*
X104819314Y-96603733D02*
X104819314Y-96896267D01*
%TO.C,R11*%
X129701179Y-96420061D02*
X129701179Y-95910613D01*
X130746179Y-96420061D02*
X130746179Y-95910613D01*
%TO.C,C6*%
X133711733Y-88009000D02*
X134004267Y-88009000D01*
X133711733Y-89029000D02*
X134004267Y-89029000D01*
%TO.C,C3*%
X104794267Y-83056000D02*
X104501733Y-83056000D01*
X104794267Y-84076000D02*
X104501733Y-84076000D01*
%TO.C,R7*%
X105766776Y-81519500D02*
X106276224Y-81519500D01*
X105766776Y-82564500D02*
X106276224Y-82564500D01*
%TO.C,R6*%
X100995276Y-84477500D02*
X101504724Y-84477500D01*
X100995276Y-85522500D02*
X101504724Y-85522500D01*
%TO.C,J2*%
X100880000Y-93830000D02*
X100880000Y-92500000D01*
X102210000Y-93830000D02*
X100880000Y-93830000D01*
X103480000Y-91170000D02*
X106080000Y-91170000D01*
X103480000Y-93830000D02*
X103480000Y-91170000D01*
X103480000Y-93830000D02*
X106080000Y-93830000D01*
X106080000Y-93830000D02*
X106080000Y-91170000D01*
%TO.C,D1*%
X120440000Y-94065000D02*
X120440000Y-95535000D01*
X120440000Y-95535000D02*
X122900000Y-95535000D01*
X122900000Y-94065000D02*
X120440000Y-94065000D01*
%TO.C,R15*%
X129308776Y-98477500D02*
X129818224Y-98477500D01*
X129308776Y-99522500D02*
X129818224Y-99522500D01*
%TO.C,R1*%
X115677064Y-95190000D02*
X111322936Y-95190000D01*
X115677064Y-98610000D02*
X111322936Y-98610000D01*
%TO.C,R8*%
X128255500Y-81763776D02*
X128255500Y-82273224D01*
X129300500Y-81763776D02*
X129300500Y-82273224D01*
%TO.C,R14*%
X122354724Y-97677500D02*
X121845276Y-97677500D01*
X122354724Y-98722500D02*
X121845276Y-98722500D01*
%TO.C,J3*%
X105570000Y-99312500D02*
X105570000Y-108132500D01*
X105570000Y-100122500D02*
X108110000Y-100122500D01*
X105570000Y-108132500D02*
X117950000Y-108132500D01*
X106480000Y-101122500D02*
X117040000Y-101122500D01*
X106480000Y-106422500D02*
X106480000Y-101122500D01*
X107220000Y-106422500D02*
X106480000Y-106422500D01*
X108220000Y-99312500D02*
X110220000Y-99312500D01*
X108220000Y-101122500D02*
X108220000Y-99312500D01*
X108920000Y-98512500D02*
X109520000Y-98512500D01*
X109220000Y-99112500D02*
X108920000Y-98512500D01*
X109520000Y-98512500D02*
X109220000Y-99112500D01*
X110220000Y-99312500D02*
X110220000Y-101122500D01*
X110220000Y-100122500D02*
X113300000Y-100122500D01*
X110220000Y-101122500D02*
X108220000Y-101122500D01*
X111220000Y-106422500D02*
X112300000Y-106422500D01*
X113300000Y-99312500D02*
X115300000Y-99312500D01*
X113300000Y-101122500D02*
X113300000Y-99312500D01*
X115300000Y-99312500D02*
X115300000Y-101122500D01*
X115300000Y-101122500D02*
X113300000Y-101122500D01*
X117040000Y-101122500D02*
X117040000Y-106422500D01*
X117040000Y-106422500D02*
X116300000Y-106422500D01*
X117950000Y-99312500D02*
X105570000Y-99312500D01*
X117950000Y-100122500D02*
X115410000Y-100122500D01*
X117950000Y-108132500D02*
X117950000Y-99312500D01*
X111206842Y-106438321D02*
G75*
G02*
X107220000Y-106422500I-1986842J1665821D01*
G01*
X116286842Y-106438321D02*
G75*
G02*
X112300000Y-106422500I-1986842J1665821D01*
G01*
%TO.C,J1*%
X102048000Y-103886000D02*
X102048000Y-101286000D01*
X104708000Y-101286000D02*
X102048000Y-101286000D01*
X104708000Y-103886000D02*
X102048000Y-103886000D01*
X104708000Y-103886000D02*
X104708000Y-101286000D01*
X104708000Y-105156000D02*
X104708000Y-106486000D01*
X104708000Y-106486000D02*
X103378000Y-106486000D01*
%TO.C,R3*%
X107254724Y-96727500D02*
X106745276Y-96727500D01*
X107254724Y-97772500D02*
X106745276Y-97772500D01*
%TD*%
M02*
